<?xml version="1.0" encoding="UTF-8" standalone="no"?>
<!-- Created with Inkscape (http://www.inkscape.org/) -->

<svg
   version="1.1"
   id="svg2"
   width="1820"
   height="1080"
   viewBox="0 0 1820 1080"
   sodipodi:docname="Aufzug.svg"
   xml:space="preserve"
   inkscape:version="1.2 (dc2aedaf03, 2022-05-15)"
   xmlns:inkscape="http://www.inkscape.org/namespaces/inkscape"
   xmlns:sodipodi="http://sodipodi.sourceforge.net/DTD/sodipodi-0.dtd"
   xmlns:xlink="http://www.w3.org/1999/xlink"
   xmlns="http://www.w3.org/2000/svg"
   xmlns:svg="http://www.w3.org/2000/svg"><defs
     id="defs6"><linearGradient
       inkscape:collect="always"
       id="linearGradient43935"><stop
         style="stop-color:#929292;stop-opacity:1;"
         offset="0"
         id="stop43931" /><stop
         style="stop-color:#e1d9c7;stop-opacity:1;"
         offset="1"
         id="stop43933" /></linearGradient><linearGradient
       inkscape:collect="always"
       id="linearGradient37925"><stop
         style="stop-color:#c4bfa9;stop-opacity:1;"
         offset="0"
         id="stop37921" /><stop
         style="stop-color:#929292;stop-opacity:1;"
         offset="1"
         id="stop37923" /></linearGradient><linearGradient
       inkscape:collect="always"
       id="linearGradient36359"><stop
         style="stop-color:#67686a;stop-opacity:1;"
         offset="0"
         id="stop36355" /><stop
         style="stop-color:#8c8275;stop-opacity:1;"
         offset="1"
         id="stop36357" /></linearGradient><linearGradient
       inkscape:collect="always"
       id="linearGradient26890"><stop
         style="stop-color:#7f7e83;stop-opacity:1;"
         offset="0"
         id="stop26886" /><stop
         style="stop-color:#f1e4d4;stop-opacity:1;"
         offset="1"
         id="stop26888" /></linearGradient><linearGradient
       inkscape:collect="always"
       id="linearGradient21138"><stop
         style="stop-color:#ebe3d1;stop-opacity:1;"
         offset="0"
         id="stop21134" /><stop
         style="stop-color:#b8b5ae;stop-opacity:1;"
         offset="1"
         id="stop21136" /></linearGradient><linearGradient
       inkscape:collect="always"
       id="linearGradient14161"><stop
         style="stop-color:#97989a;stop-opacity:1;"
         offset="0.25674954"
         id="stop14157" /><stop
         style="stop-color:#e9e1cc;stop-opacity:1;"
         offset="1"
         id="stop14159" /></linearGradient><linearGradient
       inkscape:collect="always"
       id="linearGradient4493"><stop
         style="stop-color:#97989a;stop-opacity:1;"
         offset="0.13134758"
         id="stop4489" /><stop
         style="stop-color:#f1e8d5;stop-opacity:1;"
         offset="0.99989998"
         id="stop4491" /></linearGradient><linearGradient
       inkscape:collect="always"
       xlink:href="#linearGradient4493"
       id="linearGradient4495"
       x1="883.11218"
       y1="742.07782"
       x2="827.75287"
       y2="274.16022"
       gradientUnits="userSpaceOnUse"
       gradientTransform="matrix(1,0,0,0.99625468,98.855835,-0.28138738)" /><linearGradient
       inkscape:collect="always"
       xlink:href="#linearGradient14161"
       id="linearGradient14163"
       x1="1331.3684"
       y1="770.55524"
       x2="1274.801"
       y2="274.7196"
       gradientUnits="userSpaceOnUse"
       gradientTransform="translate(-0.43289229,0.31981928)" /><linearGradient
       inkscape:collect="always"
       xlink:href="#linearGradient21138"
       id="linearGradient21140"
       x1="994.13184"
       y1="308.15723"
       x2="1270.5469"
       y2="308.15723"
       gradientUnits="userSpaceOnUse" /><linearGradient
       inkscape:collect="always"
       xlink:href="#linearGradient26890"
       id="linearGradient26892"
       x1="1256.8313"
       y1="660.57043"
       x2="1264.2875"
       y2="348.80914"
       gradientUnits="userSpaceOnUse"
       gradientTransform="matrix(1.2931064,0,0,0.93497595,-826.31324,4.9092399)" /><linearGradient
       inkscape:collect="always"
       xlink:href="#linearGradient36359"
       id="linearGradient36361"
       x1="1029.8733"
       y1="702.94525"
       x2="1032.231"
       y2="381.86377"
       gradientUnits="userSpaceOnUse"
       gradientTransform="matrix(1.2931064,0,0,0.93497595,-877.43098,18.526474)" /><linearGradient
       inkscape:collect="always"
       xlink:href="#linearGradient37925"
       id="linearGradient37927"
       x1="1057.1274"
       y1="464.57413"
       x2="1094.993"
       y2="592.31116"
       gradientUnits="userSpaceOnUse"
       gradientTransform="translate(-0.20189572,-0.67731284)" /><linearGradient
       inkscape:collect="always"
       xlink:href="#linearGradient43935"
       id="linearGradient43937"
       x1="1142.1304"
       y1="956.20898"
       x2="994.28656"
       y2="953.87891"
       gradientUnits="userSpaceOnUse"
       gradientTransform="translate(-0.11650273,-1.0485248)" /><linearGradient
       inkscape:collect="always"
       xlink:href="#linearGradient37925"
       id="linearGradient45421"
       gradientUnits="userSpaceOnUse"
       gradientTransform="translate(130.49648,2.2757716)"
       x1="1047.3412"
       y1="378.36212"
       x2="1094.993"
       y2="592.31116" /><clipPath
       clipPathUnits="userSpaceOnUse"
       id="clipPath405"><rect
         style="fill:#73a721;stroke-width:722.63;stroke-opacity:0.847059"
         id="rect407"
         width="305.51752"
         height="202.72939"
         x="612.19415"
         y="0.058908526" /></clipPath><clipPath
       clipPathUnits="userSpaceOnUse"
       id="clipPath591"><rect
         style="fill:#73a721;stroke-width:3091.1;stroke-opacity:0.847059"
         id="rect593"
         width="95.501495"
         height="44.623138"
         x="305.92331"
         y="32.071438" /></clipPath><clipPath
       clipPathUnits="userSpaceOnUse"
       id="clipPath598"><rect
         style="fill:#73a721;stroke-width:7425.61;stroke-opacity:0.847059"
         id="rect600"
         width="20.83337"
         height="43.051361"
         x="285.08902"
         y="33.919376" /></clipPath><clipPath
       clipPathUnits="userSpaceOnUse"
       id="clipPath611"><rect
         style="fill:#73a721;stroke-width:188.146;stroke-opacity:0.847059"
         id="rect613"
         width="34.199432"
         height="14.068906"
         x="305.922"
         y="0.00018357387" /></clipPath><clipPath
       clipPathUnits="userSpaceOnUse"
       id="clipPath618"><rect
         style="fill:#73a721;stroke-width:179.092;stroke-opacity:0.847059"
         id="rect620"
         width="52.091164"
         height="14.206848"
         x="253.83025"
         y="0.00023493617" /></clipPath><clipPath
       clipPathUnits="userSpaceOnUse"
       id="clipPath640"><rect
         style="fill:#73a721;stroke-width:118.002;stroke-opacity:0.847059"
         id="rect642"
         width="56.717308"
         height="29.606951"
         x="555.12189"
         y="174.33873" /></clipPath><clipPath
       clipPathUnits="userSpaceOnUse"
       id="clipPath693"><rect
         style="fill:#73a721;stroke-width:126.956;stroke-opacity:0.847059"
         id="rect695"
         width="47.020348"
         height="29.430584"
         x="611.83887"
         y="174.51601" /></clipPath><clipPath
       clipPathUnits="userSpaceOnUse"
       id="clipPath706"><rect
         style="fill:#73a721;stroke-width:119.539;stroke-opacity:0.847059"
         id="rect708"
         width="141.89583"
         height="41.098003"
         x="305.92099"
         y="162.84804" /></clipPath><clipPath
       clipPathUnits="userSpaceOnUse"
       id="clipPath2008"><rect
         style="fill:#ffffff;fill-opacity:0.526596;stroke-width:121.554;stroke-opacity:0.847059"
         id="rect2010"
         width="155.3131"
         height="29.961973"
         x="352.20609"
         y="0" /></clipPath><clipPath
       clipPathUnits="userSpaceOnUse"
       id="clipPath2068"><rect
         style="fill:#ffffff;fill-opacity:0.345745;stroke-width:123.479;stroke-opacity:0.847059"
         id="rect2070"
         width="192.42435"
         height="24.855831"
         x="413.58405"
         y="179.08293" /></clipPath><clipPath
       clipPathUnits="userSpaceOnUse"
       id="clipPath2141"><rect
         style="fill:#ffffff;fill-opacity:0.345745;stroke-width:119.454;stroke-opacity:0.847059"
         id="rect2143"
         width="69.667099"
         height="21.76935"
         x="542.17157"
         y="103.27444" /></clipPath><clipPath
       clipPathUnits="userSpaceOnUse"
       id="clipPath2200"><rect
         style="fill:#ffffff;fill-opacity:0.99734;stroke-width:150.109;stroke-opacity:0.847059"
         id="rect2202"
         width="61.250336"
         height="23.737354"
         x="611.83893"
         y="103.00005" /></clipPath><clipPath
       clipPathUnits="userSpaceOnUse"
       id="clipPath3601"><rect
         style="fill:#ffffff;fill-opacity:0.518617;stroke-width:82.9117;stroke-opacity:0.847059"
         id="rect3603"
         width="59.702045"
         height="31.872694"
         x="434.70868"
         y="44.160957" /></clipPath><clipPath
       clipPathUnits="userSpaceOnUse"
       id="clipPath405-4"><rect
         style="fill:#73a721;stroke-width:722.63;stroke-opacity:0.847059"
         id="rect407-9"
         width="305.51752"
         height="202.72939"
         x="612.19415"
         y="0.058908526" /></clipPath><clipPath
       clipPathUnits="userSpaceOnUse"
       id="clipPath591-4"><rect
         style="fill:#73a721;stroke-width:3091.1;stroke-opacity:0.847059"
         id="rect593-9"
         width="95.501495"
         height="44.623138"
         x="305.92331"
         y="32.071438" /></clipPath><clipPath
       clipPathUnits="userSpaceOnUse"
       id="clipPath598-5"><rect
         style="fill:#73a721;stroke-width:7425.61;stroke-opacity:0.847059"
         id="rect600-9"
         width="20.83337"
         height="43.051361"
         x="285.08902"
         y="33.919376" /></clipPath><clipPath
       clipPathUnits="userSpaceOnUse"
       id="clipPath611-3"><rect
         style="fill:#73a721;stroke-width:188.146;stroke-opacity:0.847059"
         id="rect613-5"
         width="34.199432"
         height="14.068906"
         x="305.922"
         y="0.00018357387" /></clipPath><clipPath
       clipPathUnits="userSpaceOnUse"
       id="clipPath618-4"><rect
         style="fill:#73a721;stroke-width:179.092;stroke-opacity:0.847059"
         id="rect620-7"
         width="52.091164"
         height="14.206848"
         x="253.83025"
         y="0.00023493617" /></clipPath><clipPath
       clipPathUnits="userSpaceOnUse"
       id="clipPath640-1"><rect
         style="fill:#73a721;stroke-width:118.002;stroke-opacity:0.847059"
         id="rect642-1"
         width="56.717308"
         height="29.606951"
         x="555.12189"
         y="174.33873" /></clipPath><clipPath
       clipPathUnits="userSpaceOnUse"
       id="clipPath693-2"><rect
         style="fill:#73a721;stroke-width:126.956;stroke-opacity:0.847059"
         id="rect695-7"
         width="47.020348"
         height="29.430584"
         x="611.83887"
         y="174.51601" /></clipPath><clipPath
       clipPathUnits="userSpaceOnUse"
       id="clipPath706-9"><rect
         style="fill:#73a721;stroke-width:119.539;stroke-opacity:0.847059"
         id="rect708-8"
         width="141.89583"
         height="41.098003"
         x="305.92099"
         y="162.84804" /></clipPath><clipPath
       clipPathUnits="userSpaceOnUse"
       id="clipPath2008-0"><rect
         style="fill:#ffffff;fill-opacity:0.526596;stroke-width:121.554;stroke-opacity:0.847059"
         id="rect2010-6"
         width="155.3131"
         height="29.961973"
         x="352.20609"
         y="0" /></clipPath><clipPath
       clipPathUnits="userSpaceOnUse"
       id="clipPath2068-9"><rect
         style="fill:#ffffff;fill-opacity:0.345745;stroke-width:123.479;stroke-opacity:0.847059"
         id="rect2070-6"
         width="192.42435"
         height="24.855831"
         x="413.58405"
         y="179.08293" /></clipPath><clipPath
       clipPathUnits="userSpaceOnUse"
       id="clipPath2141-5"><rect
         style="fill:#ffffff;fill-opacity:0.345745;stroke-width:119.454;stroke-opacity:0.847059"
         id="rect2143-1"
         width="69.667099"
         height="21.76935"
         x="542.17157"
         y="103.27444" /></clipPath><clipPath
       clipPathUnits="userSpaceOnUse"
       id="clipPath2200-1"><rect
         style="fill:#ffffff;fill-opacity:0.99734;stroke-width:150.109;stroke-opacity:0.847059"
         id="rect2202-9"
         width="61.250336"
         height="23.737354"
         x="611.83893"
         y="103.00005" /></clipPath><clipPath
       clipPathUnits="userSpaceOnUse"
       id="clipPath3601-0"><rect
         style="fill:#ffffff;fill-opacity:0.518617;stroke-width:82.9117;stroke-opacity:0.847059"
         id="rect3603-3"
         width="59.702045"
         height="31.872694"
         x="434.70868"
         y="44.160957" /></clipPath><clipPath
       clipPathUnits="userSpaceOnUse"
       id="clipPath405-9"><rect
         style="fill:#73a721;stroke-width:722.63;stroke-opacity:0.847059"
         id="rect407-3"
         width="305.51752"
         height="202.72939"
         x="612.19415"
         y="0.058908526" /></clipPath><clipPath
       clipPathUnits="userSpaceOnUse"
       id="clipPath591-6"><rect
         style="fill:#73a721;stroke-width:3091.1;stroke-opacity:0.847059"
         id="rect593-4"
         width="95.501495"
         height="44.623138"
         x="305.92331"
         y="32.071438" /></clipPath><clipPath
       clipPathUnits="userSpaceOnUse"
       id="clipPath598-59"><rect
         style="fill:#73a721;stroke-width:7425.61;stroke-opacity:0.847059"
         id="rect600-0"
         width="20.83337"
         height="43.051361"
         x="285.08902"
         y="33.919376" /></clipPath><clipPath
       clipPathUnits="userSpaceOnUse"
       id="clipPath611-6"><rect
         style="fill:#73a721;stroke-width:188.146;stroke-opacity:0.847059"
         id="rect613-2"
         width="34.199432"
         height="14.068906"
         x="305.922"
         y="0.00018357387" /></clipPath><clipPath
       clipPathUnits="userSpaceOnUse"
       id="clipPath618-2"><rect
         style="fill:#73a721;stroke-width:179.092;stroke-opacity:0.847059"
         id="rect620-1"
         width="52.091164"
         height="14.206848"
         x="253.83025"
         y="0.00023493617" /></clipPath><clipPath
       clipPathUnits="userSpaceOnUse"
       id="clipPath640-4"><rect
         style="fill:#73a721;stroke-width:118.002;stroke-opacity:0.847059"
         id="rect642-7"
         width="56.717308"
         height="29.606951"
         x="555.12189"
         y="174.33873" /></clipPath><clipPath
       clipPathUnits="userSpaceOnUse"
       id="clipPath693-7"><rect
         style="fill:#73a721;stroke-width:126.956;stroke-opacity:0.847059"
         id="rect695-5"
         width="47.020348"
         height="29.430584"
         x="611.83887"
         y="174.51601" /></clipPath><clipPath
       clipPathUnits="userSpaceOnUse"
       id="clipPath706-2"><rect
         style="fill:#73a721;stroke-width:119.539;stroke-opacity:0.847059"
         id="rect708-0"
         width="141.89583"
         height="41.098003"
         x="305.92099"
         y="162.84804" /></clipPath><clipPath
       clipPathUnits="userSpaceOnUse"
       id="clipPath2008-7"><rect
         style="fill:#ffffff;fill-opacity:0.526596;stroke-width:121.554;stroke-opacity:0.847059"
         id="rect2010-8"
         width="155.3131"
         height="29.961973"
         x="352.20609"
         y="0" /></clipPath><clipPath
       clipPathUnits="userSpaceOnUse"
       id="clipPath2068-4"><rect
         style="fill:#ffffff;fill-opacity:0.345745;stroke-width:123.479;stroke-opacity:0.847059"
         id="rect2070-0"
         width="192.42435"
         height="24.855831"
         x="413.58405"
         y="179.08293" /></clipPath><clipPath
       clipPathUnits="userSpaceOnUse"
       id="clipPath2141-3"><rect
         style="fill:#ffffff;fill-opacity:0.345745;stroke-width:119.454;stroke-opacity:0.847059"
         id="rect2143-9"
         width="69.667099"
         height="21.76935"
         x="542.17157"
         y="103.27444" /></clipPath><clipPath
       clipPathUnits="userSpaceOnUse"
       id="clipPath2200-6"><rect
         style="fill:#ffffff;fill-opacity:0.99734;stroke-width:150.109;stroke-opacity:0.847059"
         id="rect2202-5"
         width="61.250336"
         height="23.737354"
         x="611.83893"
         y="103.00005" /></clipPath><clipPath
       clipPathUnits="userSpaceOnUse"
       id="clipPath3601-6"><rect
         style="fill:#ffffff;fill-opacity:0.518617;stroke-width:82.9117;stroke-opacity:0.847059"
         id="rect3603-1"
         width="59.702045"
         height="31.872694"
         x="434.70868"
         y="44.160957" /></clipPath><clipPath
       clipPathUnits="userSpaceOnUse"
       id="clipPath405-4-3"><rect
         style="fill:#73a721;stroke-width:722.63;stroke-opacity:0.847059"
         id="rect407-9-9"
         width="305.51752"
         height="202.72939"
         x="612.19415"
         y="0.058908526" /></clipPath><clipPath
       clipPathUnits="userSpaceOnUse"
       id="clipPath591-4-0"><rect
         style="fill:#73a721;stroke-width:3091.1;stroke-opacity:0.847059"
         id="rect593-9-3"
         width="95.501495"
         height="44.623138"
         x="305.92331"
         y="32.071438" /></clipPath><clipPath
       clipPathUnits="userSpaceOnUse"
       id="clipPath598-5-8"><rect
         style="fill:#73a721;stroke-width:7425.61;stroke-opacity:0.847059"
         id="rect600-9-1"
         width="20.83337"
         height="43.051361"
         x="285.08902"
         y="33.919376" /></clipPath><clipPath
       clipPathUnits="userSpaceOnUse"
       id="clipPath611-3-2"><rect
         style="fill:#73a721;stroke-width:188.146;stroke-opacity:0.847059"
         id="rect613-5-7"
         width="34.199432"
         height="14.068906"
         x="305.922"
         y="0.00018357387" /></clipPath><clipPath
       clipPathUnits="userSpaceOnUse"
       id="clipPath618-4-8"><rect
         style="fill:#73a721;stroke-width:179.092;stroke-opacity:0.847059"
         id="rect620-7-5"
         width="52.091164"
         height="14.206848"
         x="253.83025"
         y="0.00023493617" /></clipPath><clipPath
       clipPathUnits="userSpaceOnUse"
       id="clipPath640-1-9"><rect
         style="fill:#73a721;stroke-width:118.002;stroke-opacity:0.847059"
         id="rect642-1-0"
         width="56.717308"
         height="29.606951"
         x="555.12189"
         y="174.33873" /></clipPath><clipPath
       clipPathUnits="userSpaceOnUse"
       id="clipPath693-2-2"><rect
         style="fill:#73a721;stroke-width:126.956;stroke-opacity:0.847059"
         id="rect695-7-6"
         width="47.020348"
         height="29.430584"
         x="611.83887"
         y="174.51601" /></clipPath><clipPath
       clipPathUnits="userSpaceOnUse"
       id="clipPath706-9-1"><rect
         style="fill:#73a721;stroke-width:119.539;stroke-opacity:0.847059"
         id="rect708-8-9"
         width="141.89583"
         height="41.098003"
         x="305.92099"
         y="162.84804" /></clipPath><clipPath
       clipPathUnits="userSpaceOnUse"
       id="clipPath2008-0-1"><rect
         style="fill:#ffffff;fill-opacity:0.526596;stroke-width:121.554;stroke-opacity:0.847059"
         id="rect2010-6-1"
         width="155.3131"
         height="29.961973"
         x="352.20609"
         y="0" /></clipPath><clipPath
       clipPathUnits="userSpaceOnUse"
       id="clipPath2068-9-4"><rect
         style="fill:#ffffff;fill-opacity:0.345745;stroke-width:123.479;stroke-opacity:0.847059"
         id="rect2070-6-2"
         width="192.42435"
         height="24.855831"
         x="413.58405"
         y="179.08293" /></clipPath><clipPath
       clipPathUnits="userSpaceOnUse"
       id="clipPath2141-5-1"><rect
         style="fill:#ffffff;fill-opacity:0.345745;stroke-width:119.454;stroke-opacity:0.847059"
         id="rect2143-1-2"
         width="69.667099"
         height="21.76935"
         x="542.17157"
         y="103.27444" /></clipPath><clipPath
       clipPathUnits="userSpaceOnUse"
       id="clipPath2200-1-6"><rect
         style="fill:#ffffff;fill-opacity:0.99734;stroke-width:150.109;stroke-opacity:0.847059"
         id="rect2202-9-1"
         width="61.250336"
         height="23.737354"
         x="611.83893"
         y="103.00005" /></clipPath><clipPath
       clipPathUnits="userSpaceOnUse"
       id="clipPath3601-0-2"><rect
         style="fill:#ffffff;fill-opacity:0.518617;stroke-width:82.9117;stroke-opacity:0.847059"
         id="rect3603-3-6"
         width="59.702045"
         height="31.872694"
         x="434.70868"
         y="44.160957" /></clipPath></defs><sodipodi:namedview
     id="namedview4"
     pagecolor="#ffffff"
     bordercolor="#999999"
     borderopacity="1"
     inkscape:showpageshadow="0"
     inkscape:pageopacity="0"
     inkscape:pagecheckerboard="0"
     inkscape:deskcolor="#d1d1d1"
     showgrid="false"
     inkscape:zoom="0.53646817"
     inkscape:cx="933.8858"
     inkscape:cy="562.94114"
     inkscape:window-width="1827"
     inkscape:window-height="1046"
     inkscape:window-x="-11"
     inkscape:window-y="-11"
     inkscape:window-maximized="1"
     inkscape:current-layer="g8" /><g
     inkscape:groupmode="layer"
     inkscape:label="Image"
     id="g8"><path
       style="fill:#b7b9b6;fill-opacity:1;stroke-width:0.920353;stroke-miterlimit:3.8;paint-order:stroke fill markers"
       d="M 1.8640459,0.09368351 H 1054.9216 L 1035.2768,920.21749 2.8911269,920.22752 Z"
       id="path46664"
       sodipodi:nodetypes="ccccc" /><path
       style="fill:#caccc9;fill-opacity:1;stroke-width:0.920353;stroke-miterlimit:3.8;paint-order:stroke fill markers"
       d="M 1054.2633,1.8592775 1820,-0.01480322 1822.1988,1078.2497 l -635.0295,1.8439 -151.8926,-159.87603 z"
       id="path48087"
       sodipodi:nodetypes="cccccc" /><path
       style="fill:#192839;fill-opacity:1;stroke-width:0.920353;stroke-miterlimit:3.8;paint-order:stroke fill markers"
       d="m 456.89534,895.73912 340.4334,3.94356 12.4666,21.03242 h 76.7175 l 3.8358,-3.94356 142.88616,2.62911 157.9601,163.22775 L 2.3775915,1079.3386 2.5620669,918.59417 452.11744,915.72946 Z"
       id="path45813"
       sodipodi:nodetypes="ccccccccccc" /><g
       id="g45434"
       inkscape:label="Aufzug"
       transform="matrix(1.1739424,0,0,0.93497595,-668.75676,1.8592771)"><path
         style="fill:url(#linearGradient36361);fill-opacity:1;stroke-width:0.840061;stroke-miterlimit:3.8;paint-order:stroke fill markers"
         d="m 455.18324,321.33859 8.6286,6.27739 -5.3796,558.03302 -5.5393,31.42547 -3.4089,0.30808 z"
         id="path25448"
         sodipodi:nodetypes="cccccc"
         transform="matrix(0.77333157,0,0,1.0695462,640.41214,-1.9885828)" /><path
         style="fill:url(#linearGradient26892);fill-opacity:1;stroke-width:0.840061;stroke-miterlimit:3.8;paint-order:stroke fill markers"
         d="m 806.06154,326.84076 6.8417,-7.68645 -4.4481,604.66512 -10.9365,-23.08502 z"
         id="path26884"
         sodipodi:nodetypes="ccccc"
         transform="matrix(0.77333157,0,0,1.0695462,640.41214,-1.9885828)" /><path
         style="fill:#000000;fill-opacity:1;stroke-width:0.840061;stroke-miterlimit:3.8;paint-order:stroke fill markers"
         d="m 797.78404,892.90204 0.1599,0.53917 -170.9208,-1.88706 v -0.57768 z"
         id="path45492"
         transform="matrix(0.77333157,0,0,1.0695462,640.41214,-1.9885828)" /><path
         style="fill:url(#linearGradient45421);fill-opacity:1;stroke-width:0.764;stroke-miterlimit:3.8;paint-order:stroke fill markers"
         d="m 1129.5866,346.54849 134.2719,0.98613 -6.5469,605.56468 -131.9755,-1.94486 z"
         id="path37505-0"
         sodipodi:nodetypes="ccccc" /><path
         style="fill:#000000;fill-opacity:1;stroke-width:0.764;stroke-miterlimit:3.8;paint-order:stroke fill markers"
         d="m 1128.3075,348.29278 1.4871,0.0141 -4.5201,599.52799 -1.4808,0.0121 z"
         id="path38742"
         sodipodi:nodetypes="ccccc" /><path
         style="fill:url(#linearGradient4495);fill-opacity:1;stroke-width:0.762568;stroke-miterlimit:3.8;paint-order:stroke fill markers"
         d="m 931.88101,275.47826 h 60.63158 l -4.58016,704.47947 -57.28955,-1.39804 z"
         id="path293"
         sodipodi:nodetypes="ccccc" /><path
         style="fill:url(#linearGradient21140);fill-opacity:1;stroke-width:0.764;stroke-miterlimit:3.8;paint-order:stroke fill markers"
         d="m 992.34778,275.56064 277.94952,1.89473 1.6476,61.62014 -279.67942,2.30663 z"
         id="path295"
         sodipodi:nodetypes="ccccc" /><path
         style="fill:url(#linearGradient14163);fill-opacity:1;stroke-width:0.764;stroke-miterlimit:3.8;paint-order:stroke fill markers"
         d="m 1269.4731,277.71204 67.8792,0.2796 -10.7138,707.32519 -61.1775,0.69902 z"
         id="path297"
         sodipodi:nodetypes="ccccc" /><path
         style="fill:#4a4b47;fill-opacity:1;stroke-width:0.764;stroke-miterlimit:3.8;paint-order:stroke fill markers"
         d="m 992.5749,341.34126 6.35939,6.71233 128.67551,0.52255 0.6648,-0.0269 c 0,0 -0.1236,-1.81236 0.041,-1.89474 0.1647,-0.0824 1.8947,-0.0824 1.8947,-0.0824 l 133.579,1.11213 5.3958,-8.5675 z"
         id="path24370"
         sodipodi:nodetypes="ccccscccc" /><path
         style="fill:#000000;fill-opacity:1;stroke-width:0.764;stroke-miterlimit:3.8;paint-order:stroke fill markers"
         d="m 1128.1978,348.56156 0.029,-2.03878 1.5874,0.0291 -0.029,1.9951 z"
         id="path25392"
         sodipodi:nodetypes="ccccc" /><path
         style="fill:#000000;fill-opacity:1;stroke-width:0.764;stroke-miterlimit:3.8;paint-order:stroke fill markers"
         d="m 994.72727,946.44104 130.60163,1.25033 0.034,1.61398 -130.77919,-1.20622 z"
         id="path42547"
         sodipodi:nodetypes="ccccc" /><path
         style="fill:url(#linearGradient37927);fill-opacity:1;stroke-width:0.764;stroke-miterlimit:3.8;paint-order:stroke fill markers"
         d="m 998.90109,348.28379 129.79241,-0.0341 -3.9585,600.33618 -129.87638,-1.44872 z"
         id="path37505"
         sodipodi:nodetypes="ccccc" /><path
         style="fill:url(#linearGradient43937);fill-opacity:1;stroke-width:0.764;stroke-miterlimit:3.8;paint-order:stroke fill markers"
         d="m 994.49677,948.00868 -1.11212,9.76202 263.94505,3.70709 0.082,-7.94966 -132.096,-2.10069 0.041,-2.18306 z"
         id="path42549"
         sodipodi:nodetypes="ccccccc" /></g><g
       inkscape:label="Image"
       id="g372"
       transform="translate(1507.7193,-359.06779)" /><g
       id="g53370"
       inkscape:label="Schildhalter"
       style="fill:#513e39;fill-opacity:0.170799"
       transform="translate(-1.8640435,-696.68626)"><path
         style="fill:#513e39;fill-opacity:0.170799;stroke-width:0.764;stroke-miterlimit:3.8;paint-order:stroke fill markers"
         id="path53358"
         sodipodi:type="arc"
         sodipodi:cx="569.93127"
         sodipodi:cy="870.94519"
         sodipodi:rx="1.6892895"
         sodipodi:ry="1.6601638"
         sodipodi:start="6.2676885"
         sodipodi:end="6.266551"
         sodipodi:arc-type="slice"
         d="m 571.62036,870.91946 a 1.6892895,1.6601638 0 0 1 -1.66243,1.68569 1.6892895,1.6601638 0 0 1 -1.71573,-1.63329 1.6892895,1.6601638 0 0 1 1.66146,-1.68661 1.6892895,1.6601638 0 0 1 1.71667,1.63233 l -1.68906,0.0276 z" /><path
         style="fill:#513e39;fill-opacity:0.170799;stroke-width:0.764;stroke-miterlimit:3.8;paint-order:stroke fill markers"
         id="path53360"
         sodipodi:type="arc"
         sodipodi:cx="569.2323"
         sodipodi:cy="922.84717"
         sodipodi:rx="1.6310381"
         sodipodi:ry="1.6601638"
         sodipodi:start="6.2676885"
         sodipodi:end="6.266551"
         sodipodi:arc-type="slice"
         d="m 570.86314,922.82144 a 1.6310381,1.6601638 0 0 1 -1.6051,1.68569 1.6310381,1.6601638 0 0 1 -1.65657,-1.63329 1.6310381,1.6601638 0 0 1 1.60416,-1.68661 1.6310381,1.6601638 0 0 1 1.65748,1.63232 l -1.63081,0.0276 z" /><path
         style="fill:#513e39;fill-opacity:0.170799;stroke-width:0.764;stroke-miterlimit:3.8;paint-order:stroke fill markers"
         id="path53362"
         sodipodi:type="arc"
         sodipodi:cx="744.59802"
         sodipodi:cy="922.49768"
         sodipodi:rx="2.1261747"
         sodipodi:ry="2.0679233"
         sodipodi:start="6.2676885"
         sodipodi:end="6.266551"
         sodipodi:arc-type="slice"
         d="m 746.72394,922.46564 a 2.1261747,2.0679233 0 0 1 -2.09237,2.09971 2.1261747,2.0679233 0 0 1 -2.15945,-2.03445 2.1261747,2.0679233 0 0 1 2.09114,-2.10087 2.1261747,2.0679233 0 0 1 2.16064,2.03325 l -2.12588,0.0344 z" /><path
         style="fill:#513e39;fill-opacity:0.170799;stroke-width:0.764;stroke-miterlimit:3.8;paint-order:stroke fill markers"
         id="path53364"
         sodipodi:type="arc"
         sodipodi:cx="745.50092"
         sodipodi:cy="870.36267"
         sodipodi:rx="2.097049"
         sodipodi:ry="1.8931692"
         sodipodi:start="6.2676885"
         sodipodi:end="6.266551"
         sodipodi:arc-type="slice"
         d="m 747.59771,870.33333 a 2.097049,1.8931692 0 0 1 -2.0637,1.92227 2.097049,1.8931692 0 0 1 -2.12987,-1.86252 2.097049,1.8931692 0 0 1 2.06249,-1.92333 2.097049,1.8931692 0 0 1 2.13104,1.86143 l -2.09675,0.0315 z" /></g><path
       style="fill:#a3a6a1;fill-opacity:0.35537189;stroke-width:0.764;stroke-miterlimit:3.8;paint-order:stroke fill markers"
       d="m 559.1945,168.5492 -0.98856,61.29062 189.80321,0.32952 7.57894,-0.65904 -1.64759,-61.94966 z"
       id="path49401" /><path
       style="fill:#a2272a;fill-opacity:1;stroke-width:0.764;stroke-miterlimit:3.8;paint-order:stroke fill markers"
       d="m 564.63158,179.75286 -0.98856,41.84897 185.84897,-0.65904 -2.63616,-42.17849 z"
       id="path49457"
       sodipodi:nodetypes="ccccc" /><text
       xml:space="preserve"
       style="font-size:26.6667px;font-family:Papyrus;-inkscape-font-specification:'Papyrus, Normal';fill:#a2272a;fill-opacity:1;stroke-width:0.764;stroke-miterlimit:3.8;paint-order:stroke fill markers"
       x="579.62469"
       y="813.91302"
       id="text51691"><tspan
         sodipodi:role="line"
         id="tspan51689"
         x="579.62469"
         y="813.91302" /></text><g
       id="g51786"
       inkscape:label="Zahlen"
       style="fill:#fac3bf;fill-opacity:1"
       transform="translate(-2.9656751,-614.0595)"><path
         style="fill:#fac3bf;fill-opacity:1;stroke-width:0.764;stroke-miterlimit:3.8;paint-order:stroke fill markers"
         d="m 578.55378,810.86499 h 2.38901 l -0.24714,9.06179 h -2.22425 z"
         id="path51743" /><path
         style="fill:#fac3bf;fill-opacity:1;stroke-width:0.764;stroke-miterlimit:3.8;paint-order:stroke fill markers"
         d="m 580.44851,810.86499 2.30664,8.56751 1.97712,-0.0824 1.40045,-5.02518 1.07094,5.10756 2.8833,-0.0824 0.56353,-3.60878 0.34265,-3.47589 1.07093,-0.0824 0.74142,7.00229 2.71854,0.0824 1.40046,-5.18994 0.8238,5.02518 2.96567,0.0824 2.14188,-8.40275 -2.96568,-0.0824 c 0,0 -0.8238,5.18993 -0.8238,4.69565 0,-0.49428 -0.74142,-4.53089 -1.31807,-4.53089 -0.57666,0 -1.89474,-0.16476 -1.89474,-0.16476 l -1.6476,4.69565 -0.4119,-4.94279 -4.28375,0.16476 -0.90618,5.27231 -0.24714,-1.48286 -0.65904,-3.37757 -2.96567,-0.0824 -0.57666,4.28375 -0.57666,-4.28375 z"
         id="path51745"
         sodipodi:nodetypes="ccccccccccccccccssccccccccccc" /><path
         style="fill:#fac3bf;fill-opacity:1;stroke-width:0.764;stroke-miterlimit:3.8;paint-order:stroke fill markers"
         d="m 615.45996,810.12357 0.0824,1.89474 -4.86042,0.16476 0.16476,1.89473 4.20138,0.0824 v 2.14188 l -4.5309,0.0824 0.0824,2.0595 4.9428,-0.0824 v 1.89473 l -7.08467,0.16476 v -10.05034 z"
         id="path51747" /><path
         style="fill:#fac3bf;fill-opacity:1;stroke-width:0.764;stroke-miterlimit:3.8;paint-order:stroke fill markers"
         d="m 616.53089,814.9016 2.8833,0.0824 -0.0824,2.55378 h -3.70709 l -0.0824,-2.80092 z"
         id="path51749" /><path
         style="fill:#fac3bf;fill-opacity:1;stroke-width:0.764;stroke-miterlimit:3.8;paint-order:stroke fill markers"
         d="m 619.74371,810.28833 2.55377,0.24714 0.16476,6.75515 3.2952,0.0824 -0.0824,2.71853 -6.26087,-0.24713 z"
         id="path51751" /><path
         style="fill:#fac3bf;fill-opacity:1;stroke-width:0.764;stroke-miterlimit:3.8;paint-order:stroke fill markers"
         d="m 628.64073,816.1373 c 0.74142,0 2.80092,-0.16476 2.80092,-0.16476 l -0.0824,-2.30663 -1.48284,-0.32952 -1.6476,0.0824 -1.23569,0.65903 -0.24714,1.81236 -0.0824,2.38902 1.15331,1.2357 2.63616,0.57665 1.15332,-0.41189 0.0824,-1.72998 -0.98856,-0.4119 -0.65904,0.74142 h -1.40046 z"
         id="path51753" /><path
         style="fill:#fac3bf;fill-opacity:1;stroke-width:0.764;stroke-miterlimit:3.8;paint-order:stroke fill markers"
         d="m 634.4897,815.23112 c -0.32952,-0.0824 -1.31807,-0.24714 -1.31807,-0.24714 l -0.65904,-1.15331 1.15332,-0.74142 c 0,0 0.82379,-0.16476 1.15331,-0.16476 0.32952,0 2.71854,0 2.71854,0 l 0.0824,4.28375 0.0824,2.22426 -5.18993,-0.32952 -0.49428,-2.71854 c 0,0 -0.0824,-0.65904 0.74142,-0.65904 0.8238,0 2.14187,0 2.14187,0 l -0.32952,1.72998 c 0,0 0.24714,0.49428 0.65904,0.49428 0.4119,0 1.07094,-0.32952 1.07094,-0.32952 l 0.0824,-1.72998 h -1.40046 l 0.24714,-0.8238 h 0.8238 l -1.07094,-1.07093 z"
         id="path51755" /><path
         style="fill:#fac3bf;fill-opacity:1;stroke-width:0.764;stroke-miterlimit:3.8;paint-order:stroke fill markers"
         d="m 638.77346,813.25401 0.0824,5.43707 2.22425,-0.0824 -0.16476,-3.13044 1.72998,-0.98856 0.4119,-1.31807 c 0,0 -1.40046,0 -1.72998,0 -0.32952,0 -2.55377,0.0824 -2.55377,0.0824 z"
         id="path51757" /><path
         style="fill:#fac3bf;fill-opacity:1;stroke-width:0.764;stroke-miterlimit:3.8;paint-order:stroke fill markers"
         d="m 643.46911,813.33639 0.24714,6.34325 1.56522,-0.0824 0.49428,-3.78948 v -1.15332 l 0.98855,-0.24714 0.16476,0.90618 v 1.81236 l -0.32952,2.30664 1.89474,-0.16476 -0.16476,-6.67277 c 0,0 -1.31808,-0.0824 -1.72998,-0.0824 -0.4119,0 -2.14187,0.32952 -2.14187,0.32952 z"
         id="path51759" /><path
         style="fill:#fac3bf;fill-opacity:1;stroke-width:0.764;stroke-miterlimit:3.8;paint-order:stroke fill markers"
         d="m 650.0595,813.33639 0.32952,6.17849 1.89473,0.0824 -0.32952,-6.67277 z"
         id="path51763" /><path
         style="fill:#fac3bf;fill-opacity:1;stroke-width:0.764;stroke-miterlimit:3.8;paint-order:stroke fill markers"
         d="m 650.14188,810.70023 v 1.56522 c 0,0 0.74142,0.24714 1.07094,0.24714 0.32952,0 1.23569,0 1.23569,0 l -0.16476,-1.81236 c 0,0 0,-0.49428 -0.49427,-0.49428 -0.49428,0 -1.6476,0.49428 -1.6476,0.49428 z"
         id="path51765" /><path
         style="fill:#fac3bf;fill-opacity:1;stroke-width:0.764;stroke-miterlimit:3.8;paint-order:stroke fill markers"
         d="m 653.68421,813.17163 0.0824,6.34325 c 0,0 1.81236,0 1.81236,-0.32952 0,-0.32952 0,-3.2952 0,-3.2952 l 0.4119,-0.98856 0.65904,-0.24714 0.0824,1.48284 -0.0824,2.71854 h 1.97711 l -0.0824,-5.35469 c 0,0 0.74142,-0.74142 -0.4119,-0.8238 -1.15331,-0.0824 -4.44851,0.49428 -4.44851,0.49428 z"
         id="path51767" /><path
         style="fill:#fac3bf;fill-opacity:1;stroke-width:0.764;stroke-miterlimit:3.8;paint-order:stroke fill markers"
         d="m 661.26316,812.67735 -1.31808,1.64759 0.65904,3.54234 c 0,0 1.40046,0.8238 1.97712,0.57666 0.57666,-0.24714 1.56521,-0.24714 1.56521,-0.24714 l -0.16476,-0.98856 -0.0824,-3.54233 v 4.61327 1.40046 c 0,0 -0.74141,1.23569 -1.31807,0.98855 -0.57666,-0.24714 -1.15332,-0.90617 -1.15332,-0.90617 l -0.49428,-0.57666 -1.07094,0.16476 -0.0824,1.15331 0.4119,1.07094 1.97712,0.16476 2.14187,0.16476 c 0,0 1.15332,-0.98856 1.48284,-1.15332 0.32952,-0.16476 0.74142,-0.90617 0.8238,-1.31807 0.0824,-0.4119 0.32952,-2.8833 0.16476,-3.2952 -0.16476,-0.4119 -0.32952,-3.37757 -0.32952,-3.37757 l -1.89474,-0.57666 -2.71853,0.24714 z"
         id="path51771"
         sodipodi:nodetypes="cccscccccscccccccssscccc" /><path
         style="fill:#fac3bf;fill-opacity:1;stroke-width:0.764;stroke-miterlimit:3.8;paint-order:stroke fill markers"
         d="m 726.97697,812.25696 -4.1941,3.72809 -0.93202,-3.9611 7.68918,-6.29114 6.99016,6.52415 -0.93202,4.66011 -4.1941,-4.42711 -0.46601,10.95126 -3.49508,-0.23301 z"
         id="path51788" /><path
         style="fill:#fac3bf;fill-opacity:1;stroke-width:0.764;stroke-miterlimit:3.8;paint-order:stroke fill markers"
         d="m 676.06528,812.28608 c 0.0646,-0.29266 0.192,-0.58101 0.37864,-0.81552 0.20679,-0.25983 0.50005,-0.44343 0.78639,-0.61164 0.30007,-0.17627 0.62131,-0.33272 0.96115,-0.40775 0.56913,-0.12564 1.16485,-0.0715 1.74754,-0.0583 0.36998,0.008 0.77606,-0.0787 1.10678,0.0874 0.3689,0.18526 0.6548,0.55178 0.81551,0.93202 0.1403,0.33197 0.13552,0.72048 0.0874,1.07765 -0.0759,0.56309 -0.35444,1.08152 -0.58252,1.60192 -0.12724,0.29032 -0.38565,0.53183 -0.43688,0.84464 -0.0206,0.12602 0.005,0.26259 0.0583,0.37863 0.1121,0.24401 0.38832,0.38006 0.52425,0.61164 0.19904,0.33907 0.3274,0.72191 0.40777,1.10678 0.10139,0.48552 0.25139,1.01732 0.0874,1.48541 -0.17278,0.49307 -0.6174,0.86991 -1.04853,1.16503 -0.24848,0.17009 -0.55186,0.25005 -0.84465,0.32038 -0.60777,0.14599 -1.2414,0.25873 -1.86404,0.20388 -0.41315,-0.0364 -0.83421,-0.14342 -1.19416,-0.34946 -0.3934,-0.22519 -0.74464,-0.55104 -0.99027,-0.93202 -0.21128,-0.32771 -0.31058,-0.72284 -0.37863,-1.10678 -0.0797,-0.44939 -0.25285,-0.97111 -0.0291,-1.3689 0.20899,-0.37155 0.68121,-0.61592 1.10678,-0.64077 0.3907,-0.0228 0.83843,0.15627 1.07765,0.46601 0.23417,0.30319 -0.0108,0.80074 0.17475,1.13591 0.13668,0.24691 0.37133,0.46943 0.64077,0.55338 0.42889,0.13363 0.96142,0.0965 1.33978,-0.14565 0.19072,-0.12207 0.33091,-0.35684 0.34951,-0.58252 0.0326,-0.39529 -0.23455,-0.76564 -0.43689,-1.10678 -0.11605,-0.19565 -0.23228,-0.42484 -0.43688,-0.52426 -0.30575,-0.14857 -0.69808,0.0818 -1.0194,-0.0291 -0.26246,-0.0906 -0.67162,-0.21746 -0.66989,-0.49513 0.002,-0.29908 0.46755,-0.37749 0.72814,-0.52427 0.36766,-0.20707 0.88247,-0.18174 1.16503,-0.49513 0.17685,-0.19615 0.21289,-0.49393 0.233,-0.75727 0.0254,-0.33267 0.081,-0.7454 -0.14562,-0.99027 -0.14877,-0.16076 -0.42346,-0.17302 -0.64077,-0.14561 -0.40064,0.0505 -0.77756,0.28318 -1.07764,0.55339 -0.22413,0.20181 -0.31579,0.5148 -0.49515,0.75727 -0.0902,0.12192 -0.14567,0.30703 -0.29125,0.34953 -0.21516,0.0628 -0.43465,-0.11583 -0.64077,-0.20388 -0.11187,-0.0478 -0.24233,-0.0814 -0.32038,-0.17475 -0.15759,-0.18839 -0.19366,-0.45658 -0.23301,-0.69902 -0.0249,-0.15334 -0.0335,-0.31436 -5e-5,-0.46606 z"
         id="path53293"
         sodipodi:nodetypes="aaaaaaaaaaaaaaaaaaaaaaaaaaaaaaaaaaaaaaaaaaaa" /><path
         style="fill:#fac3bf;fill-opacity:1;stroke-width:0.764;stroke-miterlimit:3.8;paint-order:stroke fill markers"
         d="m 682.67681,817.67433 c -0.0631,-0.15222 0.20396,-0.2723 0.34951,-0.34951 0.22708,-0.12046 0.5057,-0.19847 0.75727,-0.14568 0.33472,0.0702 0.65179,0.30007 0.84464,0.58252 0.19122,0.28005 0.28664,0.65543 0.23303,0.99028 -0.0324,0.20223 -0.15045,0.41 -0.32043,0.52425 -0.35104,0.23594 -0.83858,0.29134 -1.2524,0.20388 -0.26083,-0.0551 -0.54793,-0.19982 -0.66989,-0.43688 -0.20894,-0.4061 -0.22305,-1.00909 0.0583,-1.36886 0,0 -3e-5,10e-6 -3e-5,0 z"
         id="path53295"
         sodipodi:nodetypes="aaaaaaaaaa" /><path
         style="fill:#fac3bf;fill-opacity:1;stroke-width:0.764;stroke-miterlimit:3.8;paint-order:stroke fill markers"
         d="m 689.95822,809.72303 c -0.48947,0.30764 -0.91881,0.71082 -1.31065,1.1359 -0.12239,0.13278 -0.25107,0.27012 -0.32038,0.43688 -0.12067,0.29037 -0.0714,0.62647 -0.14563,0.93202 -0.0797,0.32816 -0.26937,0.62731 -0.32038,0.96115 -0.0792,0.51834 -0.0479,1.05411 0.0291,1.57279 0.0889,0.59889 0.33348,1.16408 0.49514,1.74754 0.12891,0.46527 0.0977,1.00536 0.37863,1.39803 0.29297,0.40954 0.80467,0.61425 1.25241,0.84465 0.61734,0.31767 1.26726,0.61 1.95142,0.72814 0.63149,0.10905 1.29288,0.0914 1.92229,-0.0291 0.51003,-0.0976 1.06631,-0.21048 1.45629,-0.55338 0.58713,-0.51627 0.87047,-1.32267 1.10677,-2.06793 0.21583,-0.68069 0.23321,-1.41267 0.26214,-2.12617 0.0283,-0.69905 0.12425,-1.43021 -0.0874,-2.09705 -0.21668,-0.68278 -0.68237,-1.27648 -1.16503,-1.80579 -0.42399,-0.46497 -0.93035,-0.86858 -1.48541,-1.16503 -0.46851,-0.25022 -0.98704,-0.433 -1.51453,-0.49514 -0.47403,-0.0558 -0.96409,8.3e-4 -1.42717,0.11651 -0.37968,0.0948 -0.74628,0.25773 -1.07763,0.46598 z"
         id="path53297"
         sodipodi:nodetypes="aaaaaaaaaaaaaaaaaaaa" /><path
         style="fill:#fac3bf;fill-opacity:1;stroke-width:0.764;stroke-miterlimit:3.8;paint-order:stroke fill markers"
         d="m 702.6279,812.40259 0.52426,0.72814 1.22328,-0.0582 c 0,0 1.25241,0.1165 1.25241,-0.1165 0,-0.23301 -0.23301,-1.31066 -0.37864,-1.51454 -0.14563,-0.20388 -1.89317,-0.9029 -2.06792,-1.04852 -0.17476,-0.14563 -1.25241,-0.55339 -1.98055,-0.52427 -0.72814,0.0291 -1.77666,0.20388 -1.77666,0.20388 l -1.36891,1.25241 -0.55339,1.77666 -0.29126,1.68929 0.37864,3.20383 c 0,0 0.58251,0.64076 0.72814,0.78639 0.14563,0.14563 1.51454,0.9029 1.51454,0.9029 0,0 3.81546,0.69901 3.87371,0.52426 0.0582,-0.17475 1.07765,-0.78639 1.22328,-0.93202 0.14563,-0.14563 1.04852,-1.22328 1.04852,-1.48541 0,-0.26213 0,-1.57279 0,-1.89317 0,-0.32038 -0.1165,-1.48541 -0.1165,-1.48541 0,0 -1.45628,-0.37863 -1.89317,-0.34951 -0.43688,0.0291 -3.34945,0.32038 -3.34945,0.32038 l 1.92229,2.0388 0.49514,0.37864 c 0,0 -1.04852,0.233 -1.33978,0.17475 -0.29126,-0.0583 -1.95142,-0.40776 -1.95142,-0.40776 0,0 0.0874,-1.92229 0.14563,-2.12617 0.0583,-0.20388 -0.0291,-1.22328 0.26213,-1.42716 0.29125,-0.20388 0.99027,-0.58252 1.2524,-0.52426 0.26213,0.0583 1.22328,-0.0874 1.22328,-0.0874 z"
         id="path53299" /></g></g></svg>
