<?xml version="1.0" encoding="UTF-8" standalone="no"?>
<!-- Created with Inkscape (http://www.inkscape.org/) -->

<svg
   width="86mm"
   height="263mm"
   viewBox="0 0 86 263"
   version="1.1"
   id="svg5"
   xml:space="preserve"
   inkscape:version="1.2 (dc2aeda, 2022-05-15)"
   sodipodi:docname="Character.svg"
   xmlns:inkscape="http://www.inkscape.org/namespaces/inkscape"
   xmlns:sodipodi="http://sodipodi.sourceforge.net/DTD/sodipodi-0.dtd"
   xmlns="http://www.w3.org/2000/svg"
   xmlns:svg="http://www.w3.org/2000/svg"><sodipodi:namedview
     id="namedview7"
     pagecolor="#ffffff"
     bordercolor="#000000"
     borderopacity="0.25"
     inkscape:showpageshadow="2"
     inkscape:pageopacity="0.0"
     inkscape:pagecheckerboard="0"
     inkscape:deskcolor="#d1d1d1"
     inkscape:document-units="mm"
     showgrid="false"
     inkscape:zoom="0.2815092"
     inkscape:cx="539.94684"
     inkscape:cy="-24.865973"
     inkscape:window-width="1440"
     inkscape:window-height="900"
     inkscape:window-x="0"
     inkscape:window-y="0"
     inkscape:window-maximized="0"
     inkscape:current-layer="layer1" /><defs
     id="defs2" /><g
     inkscape:label="Ebene 1"
     inkscape:groupmode="layer"
     id="layer1"><path
       style="fill:#ffceb0;fill-opacity:1;stroke-width:23.191"
       d="m 50.455364,33.806104 1.60999,7.45853 -11.53279,-0.262855 0.68999,-8.082815 z"
       id="path5085"
       inkscape:label="Hals" /><path
       style="fill:#ffceb0;fill-opacity:1;stroke-width:23.191"
       d="m 74.591014,124.56448 v 1.23962 l -0.0387,1.16215 v 1.66576 l 0.0775,1.35584 v 0.77477 l -0.46486,0.96845 -0.8135,1.31711 -0.81351,1.04593 -0.69729,1.20089 -0.73603,0.96846 -1.0072,0.73603 -1.16215,0.73603 -2.24682,0.92972 -1.74323,0.61981 -0.65855,-0.27117 v -1.8207 l 0.54234,-0.77477 1.20088,-0.54233 1.5108,-0.81351 1.20089,-0.69729 0.54234,-1.08467 0.11621,-1.12342 -0.19369,-1.23962 -0.92972,0.23243 -0.61981,0.30991 -0.42612,0.61981 -0.34865,0.77477 -0.30991,0.27116 -0.38738,0.15496 -0.65855,0.0775 -0.54234,-0.1937 -0.30991,-0.27116 0.38739,-1.08468 0.61981,-0.89098 1.5108,-2.05314 0.96846,-1.3171 0.96845,-0.96846 0.92973,-1.27837 0.58107,-1.08467 0.23243,-0.8135 z"
       id="path3448"
       inkscape:label="Hand" /><path
       style="fill:#7a7a7a;fill-opacity:1;stroke-width:23.191"
       d="m 56.695654,253.84315 0.22199,-0.0932 0.55053,-0.0488 0.97674,-0.0399 0.48837,-0.0177 0.40402,0.0132 1.02114,0.0577 1.14989,0.111 0.6482,0.14208 1.13658,0.31967 0.94719,0.43812 1.20786,0.63945 1.07997,0.62523 0.95207,0.72472 0.6963,0.78156 0.4263,1.02314 0.0426,0.80997 -0.0853,0.78155 -0.24157,0.44051 -0.53999,0.51157 -0.83839,0.34105 -1.09418,0.34104 -1.4068,0.15629 -1.61995,0.11369 -2.23099,0.0143 -3.80831,-0.0426 -2.65729,0.0284 h -1.91836 l -1.96099,-0.0284 -1.15102,-0.0853 -1.09418,-0.11366 -1.20786,-0.1279 -1.03734,-0.21315 -0.46893,-0.21315 -0.26999,-0.4263 -0.0853,-0.89524 -0.071,-0.9947 -0.0426,-1.22208 0.0568,-0.89522 0.15631,-0.75314 0.25578,-0.5684 0.2842,-0.39788 0.49736,-0.17053 0.63945,-0.0284 z"
       id="path1660"
       inkscape:label="schuh rechts" /><path
       style="fill:#ffceb0;fill-opacity:1;stroke-width:23.191"
       d="m 53.885044,249.00104 0.021,1.22021 0.0133,2.62622 0.78715,0.0861 0.66416,0.17219 0.59037,0.28287 0.73795,0.45508 -0.59036,0.81174 -0.49197,0.76256 -0.49197,0.88553 -0.60266,0.63958 -0.61497,0.36896 -1.04543,0.3198 -0.87324,0.0122 -0.89785,-0.18447 -1.05773,-0.56578 -0.70106,-0.50427 -0.70105,-0.46736 -0.75026,-0.49197 -0.75025,-0.25828 -0.40588,-0.0369 -0.0984,-6.2111 z"
       id="path358"
       inkscape:label="fuß rechts" /><path
       style="fill:#7a7a7a;fill-opacity:1;stroke-width:23.191"
       d="m 24.21505,254.36742 0.683966,0.5537 0.488548,0.71654 0.358267,1.07479 0.293129,1.56335 v 1.10738 1.59592 l -0.586256,0.68397 -1.107373,0.35827 -1.823911,0.29314 -1.79134,0.0326 -2.345026,-0.0326 h -1.889048 l -2.540447,0.0326 -1.823908,-0.0651 -1.889051,-0.228 -1.8890479,-0.29313 -1.172515,-0.71654 -0.651396,-1.00965 -0.09771,-1.36795 0.260559,-0.8468 0.814245,-1.2051 1.074803,-0.78166 1.4656409,-0.9771 1.433074,-0.65141 1.46564,-0.55366 1.302793,-0.35828 1.302792,-0.16285 1.7262,-0.0651 z"
       id="path2203"
       inkscape:label="Schuh links" /><path
       style="fill:#ffceb0;fill-opacity:1;stroke-width:23.191"
       d="m 17.205571,248.34011 v 1.14993 l -0.02949,1.20894 0.02949,1.26788 0.02949,0.35383 -0.442285,0.1769 -0.4128,0.2359 -0.294857,0.29485 -0.206402,0.32433 0.412801,0.0885 0.324342,0.23587 0.206401,0.38333 v 0.23588 0.26537 l -0.05897,0.67816 -0.05897,0.2064 -0.02948,0.6192 0.117943,0.44228 0.147428,0.32435 0.353828,0.11795 0.530743,0.0884 0.530741,0.0295 0.383315,-0.14743 0.324342,-0.2064 0.235887,-0.23588 0.471771,-0.6192 0.35383,-0.35383 0.353827,-0.26537 0.76663,-0.29486 0.648684,-0.059 1.415315,0.059 0.943541,0.11796 0.02949,-5.33691 z"
       id="path2063"
       inkscape:label="fuß links" /><path
       style="display:inline;fill:#2b4720;fill-opacity:1;stroke-width:23.191"
       d="m 64.313444,122.17104 0.40407,-0.27953 0.50359,-0.38151 0.56464,-0.56464 0.6562,-0.7325 0.50359,-1.08349 0.25943,-0.94614 0.30521,-1.67865 0.0916,-1.49553 0.0763,-2.25854 0.0437,-2.65011 0.0308,-1.13837 v -1.58448 l -0.0308,-1.6614 -0.0308,-1.83062 -0.0462,-1.78446 0.0154,-0.923 v -0.86147 l -0.0308,-2.06137 v -1.87676 l -0.15383,-2.35365 -0.10769,-1.16914 -0.12306,-1.04606 -0.25599,-2.40603 -0.11923,-2.02683 -0.13909,-1.9076 -0.19871,-2.02683 -0.19871,-1.7089 -0.15897,-1.19225 -0.13909,-1.371092 V 78.51435 l 0.0795,-0.317934 0.15897,-0.07948 0.17883,0.07948 0.2782,0.476901 0.59612,1.430703 0.53652,1.251865 0.55638,1.112775 0.67561,1.2916 0.51665,1.17238 0.49677,1.25187 0.49677,1.53006 0.53651,1.49031 0.49678,1.54993 0.45702,1.43071 0.57626,2.06657 0.35768,1.45057 0.35767,2.04671 0.29807,1.82812 0.0199,0.9538 -0.0397,1.64928 -0.0994,1.92748 -0.31793,2.24541 -0.37755,1.62941 -0.37755,1.27173 -0.3378,1.51019 -0.25832,1.76851 -0.83458,2.24541 -0.51664,1.62941 -0.39742,1.66916 -0.27819,1.88773 0.0199,1.80825 0.25832,1.07303 0.31793,0.69548 0.83458,0.69548 0.79483,0.31793 1.25187,0.23845 1.68903,-0.0795 1.41083,-0.0596 0.99354,-0.21858 1.19226,-0.75509 1.15251,-1.19226 1.21212,-1.37109 0.85445,-1.51018 0.75509,-1.49032 0.83458,-1.86786 0.53651,-1.45058 0.616,-1.98709 0.55639,-2.3845 0.17883,-1.54993 0.17884,-1.60954 0.0795,-1.88774 0.0199,-1.60954 v -1.19225 -2.46399 l -0.0397,-1.7089 -0.0596,-2.08644 -0.0199,-1.05316 -0.11923,-1.66915 -0.17884,-1.60954 -0.25832,-1.39096 -0.41728,-1.62942 -0.35768,-1.4307 -0.51665,-1.82812 -0.39741,-1.60954 -0.63587,-2.16593 -0.4769,-1.470443 -0.69548,-2.503731 -0.29807,-1.291609 -0.79483,-2.742181 -0.49677,-1.410832 -1.0929,-3.199212 -1.01342,-2.344764 -1.31147,-3.040245 -0.63587,-1.371092 -1.13264,-2.146054 -1.31148,-2.20567 -0.65574,-0.993542 -1.7089,-2.404377 -1.62941,-1.927477 -1.08462,-1.239033 -0.87431,-0.763382 -0.97368,-0.756341 -1.67601,-1.194863 -1.46521,-0.690412 -1.29627,-0.619625 -2.49601,-1.246924 -2.22194,-0.958945 -2.94714,-0.701686 -13.58918,-0.304067 -3.29789,0.210505 -1.473532,0.140335 -1.824368,0.280672 -1.824366,0.491176 -2.034873,0.491177 -2.034871,0.631511 -1.990627,0.966409 -1.207315,0.58284 -1.311391,0.686922 -2.019128,1.519549 -1.269762,1.16568 -0.749366,0.624473 -1.103236,1.019974 -1.019971,1.040786 -0.707734,0.915892 -0.790999,1.22813 -1.061603,1.852601 -1.144868,2.039946 -0.936707,1.686076 -0.728552,1.602811 -0.686921,1.540367 -0.895078,1.894232 -0.603655,1.394655 -0.7077359,1.332209 -1.124051,2.35218 -0.999156,2.039943 -0.895078,2.019128 -0.811813,2.019128 -1.269762,3.80928 -0.645287,2.58116 -0.437131,1.99831 -0.353867,1.35302 -0.270605,1.56118 -0.29142,1.582 -0.437132,1.95668 -0.437131,1.43629 -0.39549905,2.22728 -0.124894,2.26892 0.06245,1.31139 0.45794605,1.47792 0.520393,0.95753 1.019974,0.95752 0.936707,0.52039 1.47792,0.54121 1.457103,0.10408 1.831784,-0.0208 1.8734169,-0.18734 2.601971,-0.49958 1.581996,-0.52039 2.619333,-0.70295 1.384877,-0.25819 1.408348,-0.28167 -0.04694,2.01863 v 1.85432 0.98585 l -0.02347,1.64307 -0.07042,3.33309 0.176355,5.93863 0.289179,2.60259 3.941038,1.47499 0.875831,-0.0515 1.459723,1.39102 28.44529,3.10117 z"
       id="path2276"
       inkscape:label="Hoodie"
       sodipodi:nodetypes="cccccccccccccccccccccccccccccccccccccccccccccccccccccccccccccccccccccccccccccccccccccccccccccccccccccccccccccccccccccccccccccccccccccccccccccccccccccccccccccccccccccccccccccccccccccccc" /><path
       style="fill:#161616;fill-opacity:1;stroke-width:23.191"
       d="m 28.724526,249.53111 -2.838826,0.56777 -2.919933,-0.16222 -3.893246,-0.81111 -2.757715,-1.05441 -3.325479,-1.37885 0.601334,-18.65636 0.330819,-12.24033 0.330819,-10.91705 0.441093,-10.58623 0.551367,-8.16022 0.551366,-8.71159 0.66164,-8.82186 1.543826,-14.55607 1.10273,-10.58623 0.771914,-8.16022 1.081588,-14.36074 1.64769,0.60641 1.376289,0.35617 1.18755,0.27565 2.536282,0.88218 4.190384,0.77191 5.623936,0.4411 6.94721,0.11027 h 5.18284 l 6.06504,-0.44109 5.07256,-0.55137 3.52875,-1.213 0.55136,8.49104 0.11028,6.94721 -0.22055,6.72667 -0.33082,8.38076 -0.88219,11.68897 -0.77191,7.71913 -1.10273,10.14513 -0.77191,8.49104 -0.4411,9.04241 -0.11027,11.90951 -0.11027,5.84448 -0.33082,12.68142 -0.11028,5.95476 -0.33082,6.94721 -0.0902,4.85716 -1.84183,0.52951 -2.94692,0.41442 -3.06204,0.25325 -3.2232,0.046 -2.53252,-0.41441 -2.48646,-0.62162 -0.15116,-6.94752 v -9.13095 l -0.0794,-5.63736 -0.1588,-7.54296 -0.1191,-6.19316 0.0794,-6.70926 0.3573,-8.57515 0.3573,-8.85304 0.2382,-8.97215 0.0397,-6.98716 v -7.86055 l -0.0397,-6.90776 -0.4367,-7.86055 -0.1985,-3.77148 -0.51609,-3.01718 -0.8734,0.0397 -0.5955,3.29508 -0.87339,3.96998 -0.6352,3.65237 -0.75429,4.56548 -0.9528,4.92277 -0.67489,3.93027 -0.7146,4.04938 -0.754293,4.96247 -0.992494,6.07406 -0.992494,6.86806 -0.2779,2.93778 -0.238197,4.28758 -0.555797,6.62986 -0.317597,6.43136 -0.2779,5.04187 -0.754296,8.81334 -0.674896,7.46356 -0.873392,7.54295 -0.793996,6.62986 z"
       id="path356"
       inkscape:label="Hose"
       sodipodi:nodetypes="ccccccccccccccccccccccccccccccccccccccccccccccccccccccccccccccccccccccccccccccccccccc" /><g
       id="g8861"
       inkscape:label="Rucksack"
       transform="translate(41.026694,-18.942563)"><path
         style="fill:#1d1918;fill-opacity:1;stroke-width:23.191"
         d="m -11.340413,93.117391 0.0504,-0.453618 0.252009,-0.705625 0.83163,-1.184444 0.8820326,-1.184442 1.0332376,-1.260046 0.8568312,-1.083641 0.8316304,-0.756026 1.486854,-1.033237 0.9828358,-0.630023 1.0584384,-0.680427 0.9828359,-0.428416 1.28524675,-0.478816 1.53725595,-0.378013 2.5200918,-0.226809 h 2.5956945 l 2.0160734,0.226809 1.4616531,0.352811 2.2680826,0.730827 1.486854,0.78123 1.512055,1.058437 1.209644,1.159242 0.882032,0.756029 1.008037,0.705625 1.008037,0.655225 0.478817,0.529219 0.252009,1.386049 -0.907233,5.090586 -4.618397,8.179003 -9.6660751,0.29742 -10.9300998,-3.86643 -4.6843281,-4.461271 z"
         id="path8529" /><path
         style="fill:#000000;fill-opacity:1;stroke-width:23.191"
         d="m 15.646765,61.128938 1.962856,-1.121632 0.280408,1.009468 0.336489,1.738529 v 1.626367 2.355427 l 0.112163,2.355427 -0.224326,2.860161 -0.05608,2.523673 -0.280408,2.355426 -0.560816,2.523673 -0.672979,2.355427 -0.616897,2.523669 -0.672979,2.075022 -0.224327,1.289875 -0.560816,0.39257 h -1.233795 l -0.336489,-0.336489 -0.33649,-0.672978 -0.168245,-0.897305 0.841224,-1.514203 0.953387,-2.41151 0.785143,-2.579754 0.392571,-1.906772 0.504734,-3.084489 0.224327,-1.794611 0.168244,-2.355426 v -2.299346 -1.738529 l -0.168244,-1.962857 -0.280409,-2.18718 z"
         id="path8519" /><path
         style="fill:#000000;fill-opacity:1;stroke-width:23.191"
         d="m -7.1664837,89.247204 0.3560987,0.445121 h 0.6231724 l 0.8012218,-0.222562 0.4896355,-0.534146 0.044512,-0.534149 -0.2670741,-1.468905 -0.4006106,-1.86952 -0.4451234,-2.270127 -0.4896355,-2.537201 -0.4451231,-1.958544 -0.3560987,-1.780492 -0.4896454,-1.55793 -0.667685,-1.994146 -0.6676747,-1.967453 -0.7121972,-1.691468 -0.712197,-1.201832 -0.801221,-1.246344 -0.979271,-1.379881 -1.91403,0.890246 1.112808,1.780492 0.756709,1.55793 0.801222,2.225617 0.890246,2.314641 0.578661,1.869517 0.5341471,1.825006 0.4896356,2.314641 0.4006106,1.735979 0.4896355,2.003054 0.534148,3.026839 z"
         id="path8521"
         sodipodi:nodetypes="ccccccccccccccccccccccccccccccc" /><path
         style="fill:#000000;fill-opacity:1;stroke-width:23.191"
         d="m -21.026094,123.43162 1.621793,-1.44024 1.203367,-1.80505 0.952666,-1.70477 0.200562,4.56277 -0.852386,1.55435 -1.052946,0.95266 -2.071777,1.35812 z"
         id="path8525"
         sodipodi:nodetypes="ccccccccc" /><path
         style="fill:#000000;fill-opacity:1;stroke-width:23.191"
         d="m -11.314616,93.081577 0.301723,1.357754 0.603446,0.693963 1.4784433,1.448271 1.086203,0.754308 1.3879263,0.935342 2.0215447,0.995685 1.5086155,0.633619 2.17240644,0.754311 1.4784432,0.33189 1.81033866,0.15086 2.3232679,0.18104 2.4137847,0.0302 2.3836125,-0.0905 2.4439568,-0.39224 1.961201,-0.965511 1.44827,-1.297411 0.965514,-1.538787 1.086203,-1.749994 0.663791,-1.478441 0.633619,-1.659478 0.271551,-1.538787 0.03017,-1.086205 0.965514,1.448271 1.025859,1.780167 0.724135,1.418098 0.633618,1.719821 0.693964,2.08189 0.603446,2.142237 0.452584,2.20258 0.331896,2.98705 0.150861,4.13361 0.06035,2.92672 0.06034,3.01723 0.06034,2.77585 0.150862,2.14223 0.120689,1.90086 0.120689,1.65948 -0.211206,1.81033 -0.633619,2.95689 -0.905169,1.65948 -1.599132,2.23275 -1.810339,1.29741 -1.870683,0.99568 -3.107748,1.14655 -2.35344,0.60345 -2.9870588,0.51293 -2.6249911,0.18103 -3.1077479,0.18103 -2.5646464,0.0905 -3.4396433,-0.0302 -2.1422342,-0.12069 -1.7499938,-0.21121 -2.4439573,-0.57327 -1.8405102,-0.75431 -2.47413,-1.32758 -0.78448,-0.69396 -1.237065,-1.4181 -0.754307,-1.23707 -0.965515,-1.35775 -0.603446,-2.14223 -0.03017,-1.75 -0.03017,-1.38792 -0.03017,-1.29741 -0.150861,-0.48276 -0.211206,-5.40084 0.03017,-1.75 0.39224,-2.32327 0.422412,-2.1724 0.241379,-1.84051 0.241378,-2.35344 0.422413,-2.2931 0.663791,-1.74999 0.724135,-1.9612 0.543101,-1.599136 0.482757,-1.508615 0.935342,-2.051716 0.633618,-1.629305 z"
         id="path8527" /><path
         style="fill:#000000;fill-opacity:1;stroke-width:23.191"
         d="m 129.99917,123.23568 1.52208,0.84097 -0.0478,-4.08748 -1.9961,-1.24673 z"
         id="path11940"
         sodipodi:nodetypes="ccccc"
         transform="translate(-104.84785,0.40752284)" /></g><path
       style="display:inline;fill:#426d31;fill-opacity:1;stroke-width:23.191"
       d="M 28.71749,46.417376 28.49546,45.621689 28.274078,44.69188 v -1.151189 l 0.26566,-1.372573 0.575596,-0.841256 0.974082,-0.796978 1.239745,-0.708425 0.885531,-0.309935 1.062638,-0.177107 1.77106,0.04428 1.372574,0.132829 1.63823,0.26566 1.59396,0.265657 1.19547,0.221385 1.46112,0.177104 2.21383,0.132832 h 2.43521 l 1.81534,-0.04428 2.21383,-0.132829 1.54968,-0.177107 1.63823,-0.309935 1.10691,-0.265661 1.23975,-0.177104 h 1.06264 l 1.99244,0.04428 1.59396,0.221382 0.97408,0.53132 1.01836,1.01836 0.5756,1.01836 0.1771,0.708425 0.17711,1.018363 v 0.885528 l -0.13283,1.018363 -0.44277,0.974085 -0.66414,1.151189 -0.75271,1.151191 -1.10691,1.328296 -0.84126,0.929806 -1.06263,1.062638 -0.97409,0.885532 -1.46112,1.106913 -1.41685,0.885531 -1.19547,0.708425 -1.23974,0.664149 -1.28403,0.619871 -0.88553,0.487043 -1.19546,0.487042 -1.37257,0.309935 -1.41686,0.08855 h -0.88553 l -1.23974,-0.177107 -1.19547,-0.265657 -1.41685,-0.487043 -1.01836,-0.487042 -1.10691,-0.575596 -0.79698,-0.531318 -1.15119,-0.708424 -1.54968,-1.018363 -1.062637,-0.796978 -1.106913,-0.929806 -0.929807,-0.752703 -0.664149,-0.664146 -0.841256,-0.796978 -1.062635,-1.239745 -0.752703,-0.885532 -0.7527,-1.151188 z"
       id="path2526"
       sodipodi:nodetypes="cccccccccccccccccccccccccccccccccccccccccccccccccccccccccccccccccccc"
       inkscape:label="Kapuze" /><path
       style="fill:#000000;fill-opacity:1;stroke-width:23.191"
       d="m 38.832103,67.708385 0.743329,0.424759 0.778726,-0.176985 0.176983,-0.601742 -0.0354,-1.769832 -0.07079,-1.451261 -0.07079,-1.380468 -0.0354,-2.053006 0.07079,-1.522055 0.389363,-0.955707 0.920312,-1.0619 0.920312,-0.566345 1.026503,-0.212382 h 1.097295 l 0.955709,0.176986 1.168089,0.424759 0.814122,0.424759 0.743329,0.601742 0.601743,0.849519 0.42476,1.48666 0.176983,2.123797 -0.0354,1.628245 -0.21238,1.486657 -0.247776,1.451264 0.0354,0.778724 0.495552,0.141586 h 0.884916 l 0.672536,-0.176982 0.07079,-1.026501 0.176983,-1.345073 0.21238,-2.088401 L 51.574882,61.65556 51.150126,59.142399 50.79616,58.045103 50.15902,56.877015 49.698864,56.31067 48.495379,55.602737 47.468876,55.213374 46.053011,54.930201 44.38937,54.82401 h -1.203486 l -1.415865,0.247777 -1.451262,0.672537 -0.849519,1.132691 -0.672536,1.557452 -0.283173,2.053005 v 1.982211 l 0.0354,1.840624 0.0354,1.203486 z"
       id="path8523"
       inkscape:label="Rucksack hänkel" /><path
       style="display:none;fill:#140d0e;fill-opacity:1;stroke-width:23.191"
       d="m 127.26783,66.077197 0.59725,-0.162885 h 0.65154 l 0.65154,0.32577 0.27148,0.542952 v 0.868722 l -0.0543,0.868722 -0.0543,0.597247 -0.27148,1.085903 -0.48866,1.303083 -0.54295,1.140199 -0.32577,0.814427 -0.54295,1.520264 -0.70584,2.063215 -0.54295,1.628855 -0.48865,1.357378 -0.65155,1.79174 -0.54295,1.357379 -0.54295,1.465969 -0.70584,1.90033 -0.59724,1.628857 -0.86873,2.334691 -0.81442,2.117511 -0.76014,2.11751 -0.86872,1.846035 -1.0859,2.388987 -0.70584,1.628852 -1.46597,2.76905 -1.24879,2.00892 -0.97731,1.68315 -1.0859,2.06322 -2.06322,3.47489 -1.73744,2.82335 -1.79174,2.2261 -2.55187,3.3663 -2.44328,2.87764 -2.117515,2.17181 -2.334692,2.44328 -1.791739,1.41167 -0.380066,0.21718 -0.325771,1.08591 -0.542952,2.1718 -0.542951,1.95463 -0.814427,1.68315 -1.085903,1.41167 -1.411674,1.79174 -1.520264,1.30308 -2.443284,0.97732 -1.411674,0.27147 -1.465969,-0.0543 -1.411674,-0.0543 -1.085903,-0.21718 -1.248788,-0.48865 -1.085903,-0.54296 -1.140198,-0.81442 -0.923017,-0.65155 -0.814427,-0.92301 -0.705837,-0.81443 -0.705837,-1.19449 -0.651542,-1.24879 -0.325771,-1.52027 v -1.79174 l 0.434361,-1.73744 0.760132,-1.84603 0.868723,-1.52027 1.085903,-1.62885 1.140198,-1.79174 1.085902,-1.46597 0.488657,-1.08591 5.320924,-0.92301 -1.520264,1.62885 -0.923018,0.92302 -0.651541,0.65154 -0.05429,0.54295 0.651541,0.48866 1.031608,0.48866 1.357379,0.59724 1.79174,0.81443 1.683152,0.70584 1.303083,0.48865 1.79174,0.32577 1.357379,0.10859 h 0.651541 l 2.986233,-2.38898 2.877643,-3.47489 3.040522,-3.63778 3.4206,-4.4522 2.71475,-4.28932 2.33469,-4.01784 3.3663,-6.406826 2.38899,-5.320924 2.76905,-6.841188 2.44328,-6.51542 1.62886,-4.397907 1.62885,-4.289317 1.35738,-3.637774 z"
       id="path2528"
       inkscape:label="Tasche" /><path
       style="fill:#ffceb0;fill-opacity:1;stroke-width:23.191"
       d="m 57.000334,19.346866 0.35218,-0.132069 0.33017,-0.06603 0.39621,0.08805 0.3742,0.220115 0.22011,0.440232 0.066,0.462243 v 0.836438 l -0.044,0.748395 -0.1761,0.550289 -0.33017,0.572301 -0.3742,0.506265 -0.39621,0.68236 -0.52827,0.880462 -0.52828,0.440232 -0.48425,0.264139 -0.46225,0.13207 -0.44023,0.02201 -0.24213,-0.04402 z"
       id="path5010"
       inkscape:label="ohr Rechts" /><path
       style="fill:#ffceb0;fill-opacity:1;stroke-width:23.191"
       d="m 33.462764,18.876093 -0.424276,0.02495 -0.374361,0.09983 -0.299487,0.174702 -0.224618,0.524105 -0.07487,0.723762 0.02495,0.723766 0.04991,0.823595 0.09983,0.94838 0.199659,0.723765 0.274532,0.748721 0.349404,0.399319 0.499147,0.598977 0.474191,0.324446 0.574019,0.224618 h 0.574021 l 0.299488,-0.02495 0.474191,-0.299489 0.37436,-0.474189 z"
       id="path5082"
       inkscape:label="Ohr links" /><path
       style="display:inline;fill:#3c2500;fill-opacity:1;stroke-width:23.191"
       d="m 41.609244,34.536614 -0.87132,-0.950537 -0.63369,-1.425808 -0.47527,-1.18817 -1.02975,-1.742651 -1.02975,-1.821863 -1.10896,-1.821862 -0.55448,-1.267384 -1.029748,-1.821862 -1.029747,-2.376342 -0.633693,-1.742652 -0.55448,-2.376342 -0.07921,-2.772402 v -2.376342 l 0.396058,-2.7723997 1.346594,-3.010034 1.584227,-1.821863 c -0.0054,0.01698 20.119699,0.316846 20.119699,0.316846 l 0.71291,1.10896 0.95053,0.950537 0.95054,1.742651 0.47527,1.901075 0.15842,2.6139757 -0.39606,2.455555 -0.63369,1.742652 -0.55448,1.584227 -0.87132,2.21792 -0.6337,2.297131 -1.02974,2.613978 -0.87133,2.693188 -0.79211,2.059498 -0.55448,1.425805 -0.55448,1.425806 -0.79212,1.425805 -1.10896,0.633693 -1.4258,-0.07921 -1.3466,-0.158422 -0.79211,-0.07921 -1.02975,-0.07921 -0.7129,0.237633 -0.87133,0.316847 -1.34659,0.158421 z"
       id="path3712"
       inkscape:label="Haare"
       sodipodi:nodetypes="ccccccccccccccccccccccccccccccccccccccccccc" /><g
       id="g8436"
       inkscape:label="Kappe"
       transform="translate(-63.821156,-18.53504)"><path
         style="fill:#2d1000;fill-opacity:1;stroke-width:23.191"
         d="m 121.87891,34.92891 1.19775,-0.485574 1.03589,-0.841661 0.55032,-0.938773 0.38846,-1.197748 -0.0324,-0.744545 -0.51794,-0.841661 -0.51794,-0.19423 -0.74455,-0.09712 -0.64743,-0.06474 z"
         id="path7498" /><path
         style="fill:#220d00;fill-opacity:1;stroke-width:23.191"
         d="m 96.442031,34.655619 1.173597,0.414211 1.725879,0.345175 1.656843,0.13807 2.7614,0.207106 2.5543,0.13807 2.5543,0.06903 h 1.86395 l 3.24465,-0.06903 h 2.41623 l 1.93298,-0.207105 1.65684,-0.276141 1.93298,-0.41421 0.62132,-1.242632 0.41421,-1.518772 0.13807,-2.485263 -0.27614,-2.209125 -0.55228,-2.071052 -0.51886,-1.608973 -0.81615,-1.095659 -1.005,-0.903346 -1.34556,-0.772912 -1.73985,-0.637399 -1.75423,-0.429031 -2.83044,-0.271515 -2.42514,-0.03896 -2.23918,0.150334 -2.17016,0.22827 -2.83043,0.546742 -1.94253,0.579643 -1.518772,1.003393 -0.95695,0.971263 -1.035526,1.863947 -0.621316,2.002018 -0.345175,2.69237 -0.06903,2.761404 z"
         id="path5088"
         sodipodi:nodetypes="ccccccccccccccccccccccccccccccccccccc" /><path
         style="fill:#220d00;fill-opacity:1;stroke-width:23.191"
         d="m 110.19893,19.745542 -0.0346,-0.102049 0.0506,-0.09047 0.18354,-0.09107 0.44579,-0.02626 0.62227,0.02574 0.27173,0.05569 0.1351,0.08745 0.0274,0.12943 -0.0404,0.04999 z"
         id="path6062"
         sodipodi:nodetypes="ccccccccccc" /></g></g></svg>
