<?xml version="1.0" encoding="UTF-8" standalone="no"?>
<!-- Created with Inkscape (http://www.inkscape.org/) -->

<svg
   version="1.1"
   id="svg2"
   width="4624"
   height="3468"
   viewBox="0 0 4624 3468"
   sodipodi:docname="Computeransicht2 Weiß.svg"
   xml:space="preserve"
   inkscape:version="1.2.2 (732a01da63, 2022-12-09)"
   xmlns:inkscape="http://www.inkscape.org/namespaces/inkscape"
   xmlns:sodipodi="http://sodipodi.sourceforge.net/DTD/sodipodi-0.dtd"
   xmlns="http://www.w3.org/2000/svg"
   xmlns:svg="http://www.w3.org/2000/svg"><defs
     id="defs6" /><sodipodi:namedview
     id="namedview4"
     pagecolor="#ffffff"
     bordercolor="#000000"
     borderopacity="0.25"
     inkscape:showpageshadow="2"
     inkscape:pageopacity="0.0"
     inkscape:pagecheckerboard="0"
     inkscape:deskcolor="#d1d1d1"
     showgrid="false"
     inkscape:zoom="0.12067474"
     inkscape:cx="1433.6057"
     inkscape:cy="1508.1864"
     inkscape:window-width="1920"
     inkscape:window-height="1017"
     inkscape:window-x="1912"
     inkscape:window-y="-8"
     inkscape:window-maximized="1"
     inkscape:current-layer="g8" /><g
     inkscape:groupmode="layer"
     inkscape:label="Image"
     id="g8"><path
       style="fill:#ffffff;fill-opacity:1;stroke-width:0;stroke-dasharray:none"
       d="m 65.166588,101.74602 35.157652,3211.06568 4371.26836,29.298 29.298,-3170.04838 z"
       id="path26619" /><path
       style="fill:#b3ac9d;fill-opacity:1"
       d="m 190.07706,3211.629 36.25033,-37.7352 4127.36201,-3.8454 5.135,-2926.62546 49.7204,-38.32617 4.1434,3046.41223 z"
       id="path21989" /><path
       style="fill:#837966;fill-opacity:1"
       d="m 180.61204,3225.1968 47.27326,-51.376 4.14337,-2925.21865 4126.79573,4.14337 58.0071,-45.57706 -4251.09673,-12.43011 z"
       id="path18285"
       sodipodi:nodetypes="ccccccc" /><path
       style="fill:#a39b8a;fill-opacity:1"
       d="M -152.34983,3205.2061 H 4793.1601 l -23.4385,275.4016 -4951.36947,111.3326 z"
       id="path10787" /><path
       style="fill:#a39b8a;fill-opacity:1"
       d="M -46.876871,-52.73648 -52.73648,3615.3787 199.2267,3591.9402 V -134.771 Z"
       id="path844" /><path
       style="fill:#a39b8a;fill-opacity:1"
       d="M -199.2267,-117.19218 123.05179,222.66513 H 4738.0036 l -33.147,-312.397473 z"
       id="path10785" /><path
       style="fill:#a39b8a;fill-opacity:1"
       d="M 4400.5663,-117.19218 V 3550.923 l 281.2612,-35.1577 11.7192,-3586.080607 z"
       id="path10789" /><path
       style="fill:#1f211f;fill-opacity:1"
       d="M -91.154122,3360.2724 H 2523.3118 l 308.8988,178.3428 -2927.508091,-12.608 z"
       id="path10791" /><path
       style="fill:#333333;fill-opacity:1"
       d="m 1853.3455,3471.5949 v -37.7212 h -152.7161 v 40.2848 z"
       id="path23973-3" /><path
       style="fill:#333333;fill-opacity:1"
       d="m 1695.6945,3471.5518 v -37.7212 h -152.7161 v 40.2848 z"
       id="path23973-68" /><path
       style="fill:#333333;fill-opacity:1"
       d="m 2010.2757,3471.077 v -37.7212 h -152.7161 v 40.2848 z"
       id="path23973-6" /><path
       style="fill:#d40000;fill-opacity:1"
       d="m 2326.5234,3471.7663 v -37.2903 h 39.362 v 45.5771 z"
       id="path23917" /><path
       style="fill:#333333;fill-opacity:1"
       d="m 2322.9687,3472.1845 v -37.7212 h -152.7161 v 40.2848 z"
       id="path23973" /><path
       style="fill:#333333;fill-opacity:1"
       d="m 2166.4073,3471.8182 v -37.7212 h -152.7161 v 40.2848 z"
       id="path23973-9" /></g></svg>
