<?xml version="1.0" encoding="UTF-8" standalone="no"?>
<!-- Created with Inkscape (http://www.inkscape.org/) -->

<svg
   width="1818mm"
   height="1022mm"
   viewBox="0 0 1818 1022"
   version="1.1"
   id="svg5"
   xml:space="preserve"
   sodipodi:docname="THM B-Gebaude.svg"
   inkscape:version="1.2 (dc2aeda, 2022-05-15)"
   xmlns:inkscape="http://www.inkscape.org/namespaces/inkscape"
   xmlns:sodipodi="http://sodipodi.sourceforge.net/DTD/sodipodi-0.dtd"
   xmlns:xlink="http://www.w3.org/1999/xlink"
   xmlns="http://www.w3.org/2000/svg"
   xmlns:svg="http://www.w3.org/2000/svg"><sodipodi:namedview
     id="namedview7"
     pagecolor="#ffffff"
     bordercolor="#000000"
     borderopacity="0.25"
     inkscape:showpageshadow="2"
     inkscape:pageopacity="0.0"
     inkscape:pagecheckerboard="0"
     inkscape:deskcolor="#d1d1d1"
     inkscape:document-units="mm"
     showgrid="false"
     inkscape:zoom="0.11634078"
     inkscape:cx="3429.58"
     inkscape:cy="2002.7372"
     inkscape:window-width="1440"
     inkscape:window-height="900"
     inkscape:window-x="0"
     inkscape:window-y="0"
     inkscape:window-maximized="0"
     inkscape:current-layer="layer1" /><defs
     id="defs2"><linearGradient
       id="linearGradient19305"
       inkscape:swatch="solid"><stop
         style="stop-color:#5f5a4d;stop-opacity:1;"
         offset="0"
         id="stop19303" /></linearGradient><clipPath
       clipPathUnits="userSpaceOnUse"
       id="clipPath1187"><rect
         style="fill:#d7d7d7;stroke-width:1.41916"
         id="rect1189"
         width="111.30524"
         height="62.567211"
         x="42.78223"
         y="137.67027" /></clipPath><clipPath
       clipPathUnits="userSpaceOnUse"
       id="clipPath1191"><rect
         style="fill:#d7d7d7;stroke-width:2.67985"
         id="rect1193"
         width="210.18196"
         height="118.14807"
         x="-0.18950969"
         y="13.581638" /></clipPath><clipPath
       clipPathUnits="userSpaceOnUse"
       id="clipPath1195"><rect
         style="fill:#d7d7d7;stroke-width:2.67985"
         id="rect1197"
         width="210.18196"
         height="118.14807"
         x="-0.18950969"
         y="13.581638" /></clipPath><linearGradient
       inkscape:collect="always"
       xlink:href="#linearGradient3628"
       id="linearGradient3630"
       x1="475.05566"
       y1="68.671448"
       x2="611.84406"
       y2="68.671448"
       gradientUnits="userSpaceOnUse"
       gradientTransform="matrix(5.949129,0,0,5.0006936,-1819.762,0.95925959)" /><linearGradient
       inkscape:collect="always"
       id="linearGradient3628"><stop
         style="stop-color:#c4e1a3;stop-opacity:1;"
         offset="0"
         id="stop3626" /><stop
         style="stop-color:#c4e1a3;stop-opacity:0.57666665;"
         offset="1"
         id="stop3624" /></linearGradient><linearGradient
       inkscape:collect="always"
       xlink:href="#linearGradient1374"
       id="linearGradient1376"
       x1="391.24234"
       y1="134.1263"
       x2="597.92181"
       y2="134.1263"
       gradientUnits="userSpaceOnUse"
       spreadMethod="pad"
       gradientTransform="matrix(-5.949129,0,0,5.0006936,4064.9031,0.95925959)" /><linearGradient
       inkscape:collect="always"
       id="linearGradient1374"><stop
         style="stop-color:#c1e0a3;stop-opacity:1;"
         offset="0.29646024"
         id="stop1372" /><stop
         style="stop-color:#c3e1a3;stop-opacity:0.12333334;"
         offset="1"
         id="stop1370" /></linearGradient><linearGradient
       inkscape:collect="always"
       xlink:href="#linearGradient1390"
       id="linearGradient1392"
       x1="379.11206"
       y1="84.533966"
       x2="503.69879"
       y2="84.533966"
       gradientUnits="userSpaceOnUse"
       gradientTransform="matrix(5.949129,0,0,5.0006936,-1819.762,0.95925959)" /><linearGradient
       inkscape:collect="always"
       id="linearGradient1390"><stop
         style="stop-color:#c2e1a3;stop-opacity:1;"
         offset="0.10619469"
         id="stop1388" /><stop
         style="stop-color:#c1de97;stop-opacity:1;"
         offset="0.76327431"
         id="stop1386" /></linearGradient><clipPath
       clipPathUnits="userSpaceOnUse"
       id="clipPath2008"><rect
         style="fill:#ffffff;fill-opacity:0.526596;stroke-width:121.554;stroke-opacity:0.847059"
         id="rect2010"
         width="155.3131"
         height="29.961973"
         x="352.20609"
         y="0" /></clipPath><clipPath
       clipPathUnits="userSpaceOnUse"
       id="clipPath2068"><rect
         style="fill:#ffffff;fill-opacity:0.345745;stroke-width:123.479;stroke-opacity:0.847059"
         id="rect2070"
         width="192.42435"
         height="24.855831"
         x="413.58405"
         y="179.08293" /></clipPath><linearGradient
       inkscape:collect="always"
       xlink:href="#linearGradient1426"
       id="linearGradient1428"
       x1="329.99289"
       y1="110.8899"
       x2="440.27213"
       y2="110.8899"
       gradientUnits="userSpaceOnUse"
       gradientTransform="matrix(7.2482778,0,0,6.0927266,-2332.5426,-64.875995)" /><linearGradient
       inkscape:collect="always"
       id="linearGradient1426"><stop
         style="stop-color:#c1de97;stop-opacity:0.54333335;"
         offset="0.34513274"
         id="stop1422" /><stop
         style="stop-color:#c9e1a3;stop-opacity:0.77666664;"
         offset="0.9181416"
         id="stop1424" /></linearGradient><linearGradient
       inkscape:collect="always"
       xlink:href="#linearGradient3620"
       id="linearGradient3622"
       x1="434.70868"
       y1="59.068684"
       x2="492.81937"
       y2="59.068684"
       gradientUnits="userSpaceOnUse" /><linearGradient
       inkscape:collect="always"
       id="linearGradient3620"><stop
         style="stop-color:#c4e1a3;stop-opacity:0.55000001;"
         offset="0.24115044"
         id="stop3616" /><stop
         style="stop-color:#c4e1a3;stop-opacity:1;"
         offset="1"
         id="stop3618" /></linearGradient><clipPath
       clipPathUnits="userSpaceOnUse"
       id="clipPath3601"><rect
         style="fill:#ffffff;fill-opacity:0.518617;stroke-width:82.9117;stroke-opacity:0.847059"
         id="rect3603"
         width="59.702045"
         height="31.872694"
         x="434.70868"
         y="44.160957" /></clipPath><clipPath
       clipPathUnits="userSpaceOnUse"
       id="clipPath706"><rect
         style="fill:#73a721;stroke-width:119.539;stroke-opacity:0.847059"
         id="rect708"
         width="141.89583"
         height="41.098003"
         x="305.92099"
         y="162.84804" /></clipPath><clipPath
       clipPathUnits="userSpaceOnUse"
       id="clipPath693"><rect
         style="fill:#73a721;stroke-width:126.956;stroke-opacity:0.847059"
         id="rect695"
         width="47.020348"
         height="29.430584"
         x="611.83887"
         y="174.51601" /></clipPath><clipPath
       clipPathUnits="userSpaceOnUse"
       id="clipPath640"><rect
         style="fill:#73a721;stroke-width:118.002;stroke-opacity:0.847059"
         id="rect642"
         width="56.717308"
         height="29.606951"
         x="555.12189"
         y="174.33873" /></clipPath><clipPath
       clipPathUnits="userSpaceOnUse"
       id="clipPath611"><rect
         style="fill:#73a721;stroke-width:188.146;stroke-opacity:0.847059"
         id="rect613"
         width="34.199432"
         height="14.068906"
         x="305.922"
         y="0.00018357387" /></clipPath><clipPath
       clipPathUnits="userSpaceOnUse"
       id="clipPath618"><rect
         style="fill:#73a721;stroke-width:179.092;stroke-opacity:0.847059"
         id="rect620"
         width="52.091164"
         height="14.206848"
         x="253.83025"
         y="0.00023493617" /></clipPath><clipPath
       clipPathUnits="userSpaceOnUse"
       id="clipPath598"><rect
         style="fill:#73a721;stroke-width:7425.61;stroke-opacity:0.847059"
         id="rect600"
         width="20.83337"
         height="43.051361"
         x="285.08902"
         y="33.919376" /></clipPath><clipPath
       clipPathUnits="userSpaceOnUse"
       id="clipPath591"><rect
         style="fill:#73a721;stroke-width:3091.1;stroke-opacity:0.847059"
         id="rect593"
         width="95.501495"
         height="44.623138"
         x="305.92331"
         y="32.071438" /></clipPath><clipPath
       clipPathUnits="userSpaceOnUse"
       id="clipPath2200"><rect
         style="fill:#ffffff;fill-opacity:0.99734;stroke-width:150.109;stroke-opacity:0.847059"
         id="rect2202"
         width="61.250336"
         height="23.737354"
         x="611.83893"
         y="103.00005" /></clipPath><clipPath
       clipPathUnits="userSpaceOnUse"
       id="clipPath2141"><rect
         style="fill:#ffffff;fill-opacity:0.345745;stroke-width:119.454;stroke-opacity:0.847059"
         id="rect2143"
         width="69.667099"
         height="21.76935"
         x="542.17157"
         y="103.27444" /></clipPath><clipPath
       clipPathUnits="userSpaceOnUse"
       id="clipPath2497"><rect
         style="fill:#84b819;fill-opacity:0.547872;stroke-width:18.9215"
         id="rect2499"
         width="111.29934"
         height="62.570564"
         x="42.787891"
         y="137.66774" /></clipPath><clipPath
       clipPathUnits="userSpaceOnUse"
       id="clipPath2501"><rect
         style="fill:#84b819;fill-opacity:0.547872;stroke-width:35.7301"
         id="rect2503"
         width="210.17084"
         height="118.1544"
         x="-0.46961662"
         y="-2.7079637" /></clipPath><clipPath
       clipPathUnits="userSpaceOnUse"
       id="clipPath2505"><rect
         style="fill:#84b819;fill-opacity:0.547872;stroke-width:35.7301"
         id="rect2507"
         width="210.17084"
         height="118.1544"
         x="-0.46961662"
         y="-2.7079637" /></clipPath><clipPath
       clipPathUnits="userSpaceOnUse"
       id="clipPath2509"><rect
         style="fill:#84b819;fill-opacity:0.547872;stroke-width:309.052"
         id="rect2511"
         width="1817.8959"
         height="1021.9896"
         x="75.560211"
         y="-37.714214" /></clipPath><clipPath
       clipPathUnits="userSpaceOnUse"
       id="clipPath2513"><rect
         style="fill:#84b819;fill-opacity:0.547872;stroke-width:309.052"
         id="rect2515"
         width="1817.8959"
         height="1021.9896"
         x="0.10092592"
         y="0.015424807" /></clipPath><clipPath
       clipPathUnits="userSpaceOnUse"
       id="clipPath36298"><path
         id="path36300"
         style="fill:#ff0000;fill-opacity:1;fill-rule:nonzero;stroke:none;stroke-width:0.264583"
         d="M 10.188009,86.330647 V 153.14311 H 199.57025 V 86.330647 H 49.011996 c 0.703808,0.637276 0.777261,1.969355 -0.48886,3.349667 -0.237707,0.259149 -0.119697,0.134073 -0.352433,0.375172 -0.339892,0.348723 -0.686787,0.690435 -1.03973,1.025776 -0.02254,0.01857 -0.03372,0.02708 -0.04547,0.03617 -0.0502,0.04795 -0.101375,0.09504 -0.151929,0.142626 -0.431991,0.281371 -0.69859,0.47734 -1.299663,0.44907 -0.04294,-1.9e-5 -0.08573,-5.3e-4 -0.128675,-5.3e-4 -0.06301,-1.21e-4 -0.126124,3.2e-5 -0.189134,-5.29e-4 -0.0859,-7.94e-4 -0.171519,-0.0024 -0.25735,-0.0062 -0.251942,-0.0118 -0.502814,-0.04068 -0.743106,-0.122989 -0.288613,-0.111548 -0.600363,-0.26285 -0.810805,-0.501777 -0.04264,-0.03648 -0.08262,-0.07337 -0.114205,-0.108006 -0.03002,-5.29e-4 -0.05991,-0.0011 -0.08992,-0.0021 -0.183282,-0.007 -0.366276,-0.02135 -0.546219,-0.05891 -0.266054,-0.06088 -0.523192,-0.149665 -0.764812,-0.278019 -0.154565,-0.08452 -0.30502,-0.176067 -0.452684,-0.271817 -0.09208,-0.0597 -0.179496,-0.120478 -0.263036,-0.181901 -0.02808,-0.0059 -0.0527,-0.0065 -0.08113,-0.01291 -0.174877,-0.03951 -0.350068,-0.07858 -0.522449,-0.128159 -0.265737,-0.07333 -0.533585,-0.138993 -0.799949,-0.209804 -0.341998,-0.08677 -0.690928,-0.147809 -1.03508,-0.225308 -0.476721,-0.101846 -0.950772,-0.215427 -1.427821,-0.315744 -0.353991,-0.08327 -0.709816,-0.15857 -1.06195,-0.2496 -0.386218,-0.09873 -0.776671,-0.185967 -1.176155,-0.207737 -0.878364,-0.05532 -1.758529,-0.07522 -2.6386,-0.07441 -1.041783,-0.0038 -2.083604,-0.0091 -3.12539,-0.01344 -0.886471,0.0024 -1.773431,0.02098 -2.655136,0.122473 -0.923765,0.111098 -1.842792,0.265774 -2.745051,0.495575 -0.815283,0.211627 -1.622844,0.450956 -2.41484,0.738973 -0.702919,0.265052 -1.403751,0.535112 -2.10013,0.817007 -0.467205,0.195702 -0.945138,0.377563 -1.382344,0.635619 -0.335262,0.203711 -0.665152,0.41792 -0.968417,0.667658 -0.149071,0.123153 -0.278519,0.267092 -0.433048,0.384474 -0.242593,0.184277 -0.521469,0.322778 -0.817005,0.395324 -0.03203,0.03912 -0.06291,0.07967 -0.09198,0.121957 -0.115781,0.156824 -0.221662,0.317418 -0.323494,0.483693 -0.01711,0.02793 -0.05924,0.115843 -0.05064,0.08423 0.01565,-0.05777 0.0482,-0.109558 0.07235,-0.16433 0.08262,-0.187343 0.139622,-0.346874 0.176217,-0.484208 -0.06499,0.0082 -0.13042,0.01429 -0.196371,0.0155 -0.05073,-0.0066 -0.101601,-0.01257 -0.152445,-0.0186 -0.08406,0.28934 -0.160222,0.584324 -0.168982,0.883669 -0.109334,3.737491 -3.764311,3.739067 -3.777031,0 -0.0025,-0.743125 0.186974,-1.466472 0.388607,-2.175579 0.04342,-0.140147 0.08682,-0.27998 0.130225,-0.420129 0.466769,-1.506787 1.380101,-2.178371 2.196248,-2.182813 0.231924,-0.0013 0.456116,0.05143 0.659908,0.153996 0.434555,-0.359022 0.904801,-0.671383 1.384412,-0.966349 0.597057,-0.366659 1.24972,-0.628102 1.893941,-0.898136 0.73828,-0.299857 1.481693,-0.585986 2.227254,-0.867132 0.219604,-0.08047 0.440334,-0.157345 0.661975,-0.23151 z m 31.244603,0 c 0.07576,0.01992 0.151734,0.0391 0.227378,0.05943 0.118631,0.03572 0.23989,0.06149 0.360701,0.08837 0.686858,0.152863 1.214649,0.407908 1.59525,0.715719 0.182681,-0.0046 0.361238,0.01574 0.544155,0.03256 0.196723,0.03293 0.38885,0.08134 0.581877,0.131257 0.190357,0.05992 0.369901,0.145013 0.540017,0.247015 0.06107,-0.0614 0.122415,-0.122814 0.182936,-0.185002 0.19613,-0.203253 0.107063,-0.107543 0.267684,-0.285255 0.315733,-0.349335 0.636201,-0.613807 0.950328,-0.804085 z m 4.33927,1.560629 c -0.02492,5.6e-5 -0.06062,0.0036 -0.108519,0.01085 0.0089,0.0086 0.01958,0.01865 0.03049,0.02894 0.120539,-0.0063 0.164013,-0.03998 0.07803,-0.03979 z m -0.02016,0.07545 c 0.05105,0.05625 0.07799,0.08493 0.10542,0.114204 0.0016,0.0016 0.0024,0.0021 0.0041,0.0036 0.100084,0.09017 -0.115253,-0.124121 -0.109553,-0.117821 z m 0.156064,0.162779 c 0.05595,0.06015 0.103831,0.110869 0.147278,0.157615 -0.0059,-0.0047 -0.01206,-0.0093 -0.0181,-0.01394 0.01151,0.0104 0.02349,0.02066 0.0341,0.03101 -0.005,-0.0054 -0.0098,-0.01045 -0.01497,-0.01601 0.0042,0.0034 0.0088,0.0064 0.01291,0.0098 -0.04485,-0.05395 -0.06697,-0.08086 -0.136943,-0.146762 -0.0079,-0.0074 -0.03169,-0.0296 -0.02429,-0.0217 z m 0.16123,0.168466 c 0.0072,0.0086 0.01632,0.01918 0.02585,0.03049 0.01114,0.01169 0.02156,0.02307 0.03049,0.0341 0.0035,0.0044 0.0068,0.009 0.01035,0.01344 0.0258,0.02928 0.05018,0.0585 0.0739,0.08837 0.02019,0.0181 0.04031,0.03613 0.06046,0.05426 -0.01828,-0.02585 -0.03699,-0.05185 -0.05685,-0.07648 -0.04249,-0.05272 -0.09102,-0.100515 -0.144176,-0.144177 z m 0.06666,0.07803 c -0.0058,-0.0066 -0.01111,-0.01299 -0.01706,-0.01963 0.0081,0.0095 0.0069,0.0089 0.01654,0.02016 -0.04992,-0.04965 -0.07835,-0.07889 -0.11834,-0.118856 -0.0054,-0.004 -0.01056,-0.008 -0.01601,-0.01188 0.009,0.01236 0.02326,0.03308 0.03721,0.05219 -0.01556,-0.01953 -0.03469,-0.04162 -0.05426,-0.06408 -0.03121,-0.02159 -0.06381,-0.04159 -0.09664,-0.06098 0.05912,0.05385 0.118263,0.107813 0.177768,0.161232 0.04126,0.03704 0.08223,0.07409 0.123505,0.111104 -0.0172,-0.02334 -0.03468,-0.04655 -0.05271,-0.06925 z M 46.01682,88.257663 c 0.0069,0.0051 0.01341,0.01032 0.02016,0.01551 -0.01407,-0.01273 -0.02765,-0.02529 -0.04237,-0.03772 0.0072,0.0072 0.01474,0.01474 0.02223,0.02222 z m -2.94142,2.28668 c 0.04282,0.07193 0.08685,0.132302 0.133842,0.188619 -0.04445,-0.06282 -0.0883,-0.126661 -0.133842,-0.188619 z m 0.09043,0.0832 c -0.0064,-0.0026 0.06701,0.101378 0.121439,0.180351 0.0098,0.0064 0.01998,0.01238 0.02997,0.0186 -0.04435,-0.06346 -0.08927,-0.12631 -0.13901,-0.185518 -0.0073,-0.0087 -0.01125,-0.01299 -0.01241,-0.01344 z m -27.641725,1.745628 c -0.0069,0.02336 -0.01383,0.0467 -0.02119,0.07028 -0.03588,0.11497 -0.07161,0.229712 -0.107487,0.344681 -0.02159,0.07357 -0.04389,0.14782 -0.06563,0.222208 0.08795,-0.0084 0.187235,-0.02426 0.361735,-0.05116 0.07408,-0.33663 0.0014,-0.51403 -0.167432,-0.586013 z m 0.590662,0.411345 c 0.0099,-0.0074 -0.02073,0.01336 -0.03101,0.02016 -0.0037,0.0028 -0.0072,0.0059 -0.01085,0.0088 0.01395,-0.0096 0.02804,-0.01855 0.04186,-0.02894 z" /></clipPath></defs><g
     inkscape:label="Ebene 1"
     inkscape:groupmode="layer"
     id="layer1"
     style="display:inline"><g
       id="g1698"
       inkscape:label="Wolken Hintergrund"
       style="display:inline"
       clip-path="url(#clipPath2513)"><rect
         style="display:inline;fill:#a4d7a3;fill-opacity:1;stroke-width:644.631;stroke-opacity:0.847059"
         id="rect662"
         width="1819.838"
         height="1019.9791"
         x="0.21482506"
         y="0.98451465"
         inkscape:label="rect662" /><path
         style="fill:url(#linearGradient3630);fill-opacity:1;stroke:none;stroke-width:47.8144"
         d="m 1201.3739,416.8108 c -98.648,-0.98917 -148.0549,-1.79522 -175.2595,-2.85919 -20.6671,-0.80831 -22.8609,-1.26678 -16.6679,-3.48333 7.3322,-2.62421 25.6178,-5.04605 50.3968,-6.67475 21.6219,-1.42115 20.7777,-1.12913 15.7674,-5.45389 -9.3927,-8.10719 -10.3887,-19.45322 -2.4665,-28.09359 3.2653,-3.56102 12.1177,-9.03474 18.2135,-11.26201 2.7599,-1.00835 5.9213,-2.18792 7.0252,-2.62125 l 2.0072,-0.78795 -2.5204,-6.61132 c -5.4136,-14.2 -2.3984,-28.06057 8.8527,-40.6952 6.0351,-6.77716 12.3122,-11.61591 22.1384,-17.06561 17.1672,-9.52125 33.6486,-14.62283 57.9883,-17.9494 9.2227,-1.26048 12.4768,-1.44739 25.3737,-1.45721 8.3129,-0.007 18.0348,0.3015 22.1913,0.70262 14.8544,1.43355 31.065,4.92835 44.3823,9.56833 8.0161,2.79289 24.507,11.44881 32.0244,16.80924 3.1312,2.23277 5.9819,4.05958 6.3349,4.05958 0.3528,0 2.9165,-2.42901 5.6968,-5.39782 9.4444,-10.08596 22.3349,-17.00459 40.2161,-21.58531 13.305,-3.4083 19.3321,-4.10387 35.5604,-4.10387 15.4651,0 21.8639,0.67845 33.6533,3.56821 29.1119,7.13556 47.5068,21.45772 50.3137,39.17364 l 0.6425,4.05959 h 3.7389 c 5.3861,0 17.0064,1.38625 23.754,2.83377 12.2699,2.63218 25.3127,7.92983 32.7232,13.29149 7.0642,5.11097 14.4572,14.87345 14.4572,19.09075 v 1.45102 l 13.0681,0.0135 c 11.2495,0.01 14.0042,0.18662 19.7936,1.27154 7.1263,1.33566 17.5498,4.66932 21.3928,6.84176 4.3425,2.45503 5.247,1.86265 6.4056,-4.19578 1.3226,-6.91413 6.6904,-14.74347 14.0561,-20.50062 9.2398,-7.22234 19.7683,-12.03618 34.2673,-15.66777 12.8152,-3.2099 20.3223,-4.09065 35.0126,-4.10782 14.7585,-0.0155 22.1577,0.85665 35.0671,4.14163 46.9941,11.95831 63.1011,42.96877 34.4632,66.3507 -2.9317,2.39367 -5.0184,4.51584 -4.6367,4.71598 0.3819,0.20013 5.6174,1.07376 11.6351,1.94144 12.2149,1.76119 18.3049,2.95429 27.0577,5.3009 9.6233,2.58001 17.48,7.68313 13.7262,8.91534 -6.9963,2.2965 -63.7846,4.11106 -180.9272,5.78121 -34.1278,0.48656 -399.696,1.06716 -436.9201,0.69389 z"
         id="path3605"
         inkscape:label="Wolke 15 mitte" /><path
         style="fill:url(#linearGradient1376);fill-opacity:1;stroke:none;stroke-width:71.8576"
         d="m 802.37536,779.97772 c -149.05156,-1.47866 -223.7025,-2.68353 -264.80705,-4.274 -31.22674,-1.20821 -34.54142,-1.89356 -25.18421,-5.20682 11.07853,-3.92274 38.70699,-7.54295 76.14679,-9.97753 32.66928,-2.12435 31.39373,-1.68779 23.82352,-8.15248 -14.19189,-12.11873 -15.6966,-29.07889 -3.72665,-41.99458 4.93355,-5.32304 18.30898,-13.50517 27.51948,-16.83453 4.16998,-1.50726 8.94659,-3.27051 10.61473,-3.91825 l 3.03293,-1.17786 -3.80846,-9.88262 c -8.17963,-21.2263 -3.62385,-41.94517 13.37602,-60.83154 9.11877,-10.13055 18.60305,-17.36351 33.44981,-25.50979 25.9385,-14.23242 50.84126,-21.85833 87.61705,-26.83092 13.93494,-1.88416 18.85178,-2.16355 38.33815,-2.1782 12.56034,-0.01 27.24963,0.45056 33.52977,1.05024 22.44416,2.1429 46.93732,7.36693 67.05906,14.30284 12.11189,4.17483 37.02874,17.11377 48.387,25.12658 4.73116,3.33757 9.03845,6.0683 9.57185,6.0683 0.53245,0 4.4067,-3.63091 8.60732,-8.06872 14.27013,-15.07654 33.74683,-25.41858 60.76423,-32.26588 20.1031,-5.09476 29.2096,-6.1345 53.7296,-6.1345 23.367,0 33.0353,1.01414 50.8486,5.33379 43.9862,10.66628 71.7799,32.07515 76.0209,58.55707 l 0.971,6.06829 h 5.6492 c 8.1381,0 25.6957,2.07219 35.8911,4.23594 18.5391,3.9346 38.246,11.8536 49.4428,19.86826 10.6737,7.63986 21.844,22.23293 21.844,28.53696 v 2.169 l 19.7452,0.02 c 16.9973,0.015 21.1594,0.27904 29.9069,1.90071 10.7676,1.99658 26.5169,6.97977 32.3234,10.22712 6.5612,3.66981 7.9277,2.78434 9.6785,-6.27187 1.9983,-10.33528 10.1089,-22.03866 21.2378,-30.64445 13.9608,-10.79605 29.8687,-17.99179 51.776,-23.42035 19.3631,-4.79816 30.7058,-6.1147 52.9022,-6.1404 22.2991,-0.025 33.4789,1.28053 52.9843,6.19096 71.0053,17.87538 95.3422,64.23006 52.0718,99.18161 -4.4297,3.57799 -7.5823,6.75023 -7.0057,7.04942 0.5758,0.29905 8.4875,1.60503 17.5799,2.90206 18.456,2.63271 27.6576,4.41606 40.8825,7.9239 14.5404,3.85658 26.4115,11.48474 20.7394,13.32664 -10.5708,3.43288 -96.3748,6.14526 -273.3705,8.64185 -51.565,0.7273 -603.91747,1.59517 -660.16095,1.0372 z"
         id="path1335"
         inkscape:label="Wolke 7 mitte" /><path
         style="opacity:0.705882;fill:url(#linearGradient1392);fill-opacity:1;stroke:none;stroke-width:54.271"
         d="m 613.20157,526.15996 c -89.84865,-1.39904 -134.84833,-2.53935 -159.62622,-4.04421 -18.82358,-1.14336 -20.82165,-1.79185 -15.18105,-4.92713 6.67802,-3.71177 23.33261,-7.13744 45.90146,-9.44121 19.69305,-2.01013 18.92406,-1.59713 14.36066,-7.71427 -8.55473,-11.46742 -9.46179,-27.516 -2.24633,-39.73754 2.97397,-5.03685 11.03671,-12.77932 16.58873,-15.92971 2.51381,-1.4263 5.39318,-3.09473 6.39865,-3.70761 l 1.82822,-1.11456 -2.29565,-9.35152 c -4.93075,-20.08546 -2.18464,-39.69079 8.0631,-57.56208 5.49675,-9.58611 11.21387,-16.43028 20.1635,-24.13882 15.63586,-13.46745 30.64723,-20.6834 52.81573,-25.38876 8.40005,-1.78293 11.36397,-2.04727 23.11034,-2.06123 7.5714,-0.007 16.4262,0.42641 20.21175,0.99394 13.52939,2.02765 28.29388,6.97096 40.42332,13.53404 7.30107,3.95038 22.32113,16.19399 29.16787,23.77611 2.85201,3.15814 5.44833,5.74208 5.76982,5.74208 0.32066,0 2.6564,-3.43578 5.18853,-7.63504 8.60209,-14.26622 20.34263,-24.05239 36.62897,-30.53169 12.11802,-4.82084 17.60746,-5.80479 32.38825,-5.80479 14.08563,0 19.91358,0.95971 30.65146,5.04707 26.51497,10.09307 43.2692,30.35134 45.82554,55.40989 l 0.5854,5.74216 h 3.40546 c 4.90559,0 15.48933,1.96084 21.63513,4.00833 11.17532,3.72314 23.05472,11.21645 29.80419,18.80037 6.4341,7.22932 13.16762,21.03799 13.16762,27.00321 v 2.05253 l 11.90248,0.02 c 10.24595,0.01 12.75482,0.26304 18.02801,1.79855 6.49056,1.88921 15.98435,6.60457 19.48446,9.67749 3.9551,3.47254 4.77882,2.63462 5.83432,-5.93472 1.20452,-9.7799 6.09363,-20.85434 12.80211,-28.99757 8.4156,-10.21575 18.0049,-17.02477 31.2106,-22.16151 11.6721,-4.54033 18.5096,-5.7861 31.8896,-5.81048 13.4419,-0.0215 20.1811,1.21176 31.939,5.85822 42.8022,16.91467 57.4724,60.77788 31.389,93.85097 -2.6702,3.38572 -4.5707,6.38749 -4.2231,6.67058 0.3474,0.28253 5.1164,1.51881 10.5972,2.74605 11.1253,2.4912 16.6722,4.17873 24.6442,7.49804 8.765,3.64936 15.9208,10.86746 12.5015,12.61045 -6.372,3.2483 -58.0947,5.81491 -164.788,8.17728 -31.08351,0.68815 -364.0427,1.50951 -397.94625,0.98154 z"
         id="path1384"
         inkscape:label="Wolke 9 mitte" /><path
         style="fill:#c9e1a3;fill-opacity:0.683511;stroke:none;stroke-width:11.7647"
         d="m 394.46255,28.217858 c -17.85716,-0.330801 -26.80072,-0.60041 -31.72525,-0.956222 -3.74113,-0.27034 -4.13824,-0.423669 -3.0172,-1.164979 1.32726,-0.877619 4.63729,-1.687585 9.12279,-2.232295 3.91393,-0.475271 3.76111,-0.377626 2.85415,-1.823979 -1.70024,-2.711375 -1.88052,-6.50593 -0.44645,-9.395611 0.59105,-1.190924 2.19351,-3.0215685 3.29695,-3.7664485 0.49961,-0.337228 1.07188,-0.731721 1.27172,-0.876633 l 0.36335,-0.263522 -0.45625,-2.211093 c -0.97997,-4.74904203 -0.43419,-9.384558 1.60251,-13.610076 1.09248,-2.2665555 2.22874,-3.8848045 4.00744,-5.7074235 3.10759,-3.184266 6.09105,-4.890418 10.49697,-6.002961 1.66949,-0.421561 2.25856,-0.484062 4.59313,-0.48736 1.50479,-0.0017 3.26465,0.100824 4.01701,0.235008 2.68893,0.47942 5.62335,1.648225 8.03403,3.200011 1.45107,0.934033 4.43625,3.828934 5.79703,5.621663 0.56683,0.746716 1.08284,1.357668 1.14673,1.357668 0.0638,0 0.52797,-0.812364 1.03121,-1.805243 1.70964,-3.37313 4.04304,-5.686986 7.2799,-7.218964 2.40842,-1.139849 3.49944,-1.372495 6.43707,-1.372495 2.79948,0 3.95778,0.226916 6.0919,1.193339 5.26978,2.386423 8.59962,7.176322 9.10769,13.1012081 l 0.1163,1.3576854 h 0.67682 c 0.97497,0 3.07846,0.4636247 4.29992,0.947738 2.22107,0.880305 4.58206,2.652036 5.92351,4.44518997 1.27876,1.70931403 2.61701,4.97425703 2.61701,6.38468503 v 0.485302 l 2.36559,0.0051 c 2.03636,0.0017 2.53499,0.06223 3.58301,0.42525 1.28998,0.44669 3.17685,1.561596 3.8725,2.2881645 0.78606,0.821052 0.94977,0.622938 1.15953,-1.4032175 0.2394,-2.312376 1.21111,-4.930833 2.5444,-6.856232 1.67259,-2.41542903 3.57842,-4.025364 6.20301,-5.239905 2.31981,-1.0735224 3.67873,-1.3680741 6.33796,-1.373838 2.67156,-0.0051 4.01095,0.2865095 6.34779,1.385127 8.50682,3.99933397 11.42248,14.3704285 6.23848,22.1902795 -0.5307,0.800529 -0.90841,1.510266 -0.83933,1.577204 0.069,0.06682 1.01687,0.359111 2.10617,0.649293 2.21111,0.589018 3.31354,0.988016 4.89795,1.772836 1.74201,0.862861 3.16422,2.569523 2.48467,2.98163 -1.26644,0.768038 -11.54618,1.374892 -32.75118,1.933459 -6.17775,0.162714 -72.35244,0.356917 -79.09068,0.232084 z"
         id="path2004"
         inkscape:label="Wolke 11 mitte"
         clip-path="url(#clipPath2008)"
         transform="matrix(5.949129,0,0,5.0006936,-1819.762,0.95925963)" /><path
         style="fill:#c4e1a3;fill-opacity:1;stroke:none;stroke-width:12.4743"
         d="m 460.7803,224.77107 c -22.46172,-0.29569 -33.71144,-0.53663 -39.90579,-0.85468 -4.7058,-0.24161 -5.20532,-0.37866 -3.7952,-1.04122 1.66951,-0.78444 5.83304,-1.50838 11.47514,-1.99523 4.92318,-0.42481 4.73096,-0.33751 3.59014,-1.63027 -2.13868,-2.42341 -2.36544,-5.81496 -0.56159,-8.39774 0.74347,-1.06446 2.75911,-2.70067 4.14711,-3.36644 0.62841,-0.30142 1.34824,-0.65402 1.59962,-0.78355 l 0.45705,-0.23553 -0.57392,-1.97626 c -1.23264,-4.24466 -0.54612,-8.38787 2.01574,-12.16461 1.37418,-2.02583 2.80344,-3.47223 5.0408,-5.10126 3.90888,-2.84609 7.66166,-4.37105 13.20369,-5.36543 2.09995,-0.37679 2.84091,-0.43265 5.77747,-0.43559 1.89281,-0.002 4.10644,0.0901 5.05285,0.21002 3.38228,0.42852 7.07335,1.47319 10.10565,2.86017 1.82523,0.83485 5.58014,3.42228 7.2918,5.02462 0.71298,0.66742 1.36207,1.21349 1.44245,1.21349 0.0804,0 0.66407,-0.72608 1.29712,-1.61352 2.15046,-3.01489 5.08555,-5.08301 9.15702,-6.45228 3.02948,-1.01881 4.40182,-1.22673 8.09692,-1.22673 3.52136,0 4.97834,0.20281 7.66276,1.06661 6.62862,2.13297 10.81706,6.41415 11.45617,11.70979 l 0.14634,1.21349 h 0.85132 c 1.22639,0 3.87229,0.41438 5.4087,0.84708 2.79379,0.7868 5.76357,2.37038 7.45092,3.97309 1.6085,1.52777 3.29183,4.44597 3.29183,5.70661 v 0.43374 l 2.97556,0.004 c 2.56146,0.003 3.18868,0.0558 4.5069,0.38009 1.62264,0.39925 3.99604,1.39575 4.87105,2.04514 0.98876,0.73386 1.19469,0.55678 1.45853,-1.2542 0.30114,-2.06678 1.5234,-4.40713 3.20048,-6.12805 2.10388,-2.15891 4.50116,-3.59786 7.80252,-4.68341 2.91797,-0.95951 4.62731,-1.22278 7.97225,-1.22791 3.36043,-0.005 5.04518,0.25607 7.98461,1.23801 10.70033,3.57458 14.36785,12.84423 7.8471,19.83357 -0.66754,0.7155 -1.14264,1.34986 -1.05576,1.40969 0.0868,0.0598 1.27907,0.32096 2.64925,0.58033 2.78129,0.52647 4.16795,0.88309 6.16091,1.58456 2.1912,0.77121 3.98015,2.29663 3.12538,2.66496 -1.59299,0.68648 -14.52346,1.22888 -41.19629,1.72813 -7.77073,0.14544 -91.00894,0.31899 -99.48471,0.20741 z"
         id="path2012"
         inkscape:label="Wolke 12 mitte"
         clip-path="url(#clipPath2068)"
         transform="matrix(5.949129,0,0,5.0006936,-1819.762,0.95925963)" /><path
         style="opacity:0.77451;fill:url(#linearGradient1428);fill-opacity:1;stroke:none;stroke-width:58.5288"
         d="m 250.847,721.26032 c -96.89787,-1.50886 -145.42812,-2.73848 -172.150064,-4.36145 -20.300392,-1.23307 -22.455232,-1.93247 -16.372181,-5.31369 7.202134,-4.00311 25.163269,-7.69747 49.502765,-10.18196 21.23821,-2.16785 20.40896,-1.72244 15.48754,-8.31956 -9.22603,-12.36706 -10.20424,-29.67481 -2.42266,-42.85519 3.20729,-5.43215 11.9026,-13.78201 17.89034,-17.17963 2.71096,-1.53817 5.81616,-3.33752 6.90057,-3.99851 l 1.97166,-1.20197 -2.47579,-10.08524 c -5.31751,-21.66131 -2.35591,-42.80484 8.69573,-62.07826 5.92806,-10.33819 12.09374,-17.71941 21.74555,-26.03267 16.86263,-14.52411 33.05169,-22.30629 56.95952,-27.38079 9.05909,-1.92282 12.2555,-2.20791 24.92352,-2.22291 8.16542,-0.01 17.7149,0.46006 21.79755,1.07185 14.59083,2.1868 30.51379,7.51789 43.59492,14.59592 7.87379,4.26039 24.0722,17.46452 31.45619,25.64156 3.07576,3.40602 5.87584,6.19271 6.22262,6.19271 0.34623,0 2.86474,-3.70537 5.59557,-8.2341 9.27695,-15.38558 21.93866,-25.93954 39.50269,-32.92716 13.06887,-5.19922 18.98902,-6.26027 34.92936,-6.26027 15.1908,0 21.47606,1.03494 33.05651,5.4431 28.59526,10.88491 46.66384,32.73259 49.42085,59.75724 l 0.63132,6.19261 h 3.67251 c 5.29056,0 16.70474,2.1147 23.33261,4.3228 12.05222,4.01526 24.86355,12.09653 32.14269,20.27546 6.93888,7.79654 14.20068,22.6886 14.20068,29.12184 v 2.21351 l 12.83632,0.02 c 11.04985,0.01 13.75563,0.28454 19.44235,1.93967 6.99986,2.03748 17.23849,7.12279 21.01327,10.43675 4.26547,3.74502 5.15379,2.84134 6.29198,-6.40049 1.29905,-10.54711 6.57182,-22.49032 13.80662,-31.27249 9.07593,-11.01727 19.41754,-18.36054 33.65934,-23.90031 12.58794,-4.89658 19.96182,-6.24007 34.39156,-6.26632 14.4966,-0.025 21.76453,1.30683 34.44486,6.31788 46.16036,18.24173 61.98165,65.54644 33.85179,101.21424 -2.87973,3.65145 -4.92933,6.8887 -4.55447,7.19399 0.37479,0.30505 5.51775,1.63798 11.42869,2.96156 11.99814,2.68658 17.98011,4.50663 26.57761,8.08623 9.45264,3.93564 17.17002,11.72017 13.48258,13.59988 -6.87208,3.50319 -62.6529,6.27117 -177.7172,8.81888 -33.52228,0.74225 -392.60464,1.62787 -429.16829,1.05849 z"
         id="path1396"
         inkscape:label="Wolke 10 mitte" /><path
         style="opacity:0.691176;fill:url(#linearGradient3622);fill-opacity:1;stroke:none;stroke-width:10.2744"
         d="m 398.0819,73.939228 c -15.10282,-0.298306 -22.6669,-0.541443 -26.83186,-0.862311 -3.16409,-0.243787 -3.49995,-0.382059 -2.55181,-1.050567 1.12252,-0.791426 3.92202,-1.521852 7.71566,-2.013064 3.31024,-0.428601 3.18098,-0.340539 2.41391,-1.64484 -1.43798,-2.445096 -1.59045,-5.86699 -0.37759,-8.472876 0.4999,-1.073965 1.85518,-2.724823 2.78843,-3.396549 0.42255,-0.304109 0.90655,-0.659859 1.07556,-0.790539 l 0.30731,-0.237642 -0.38588,-1.993943 c -0.82882,-4.282641 -0.36722,-8.462907 1.35534,-12.273438 0.92396,-2.043959 1.88496,-3.50328 3.38932,-5.146902 2.62826,-2.871541 5.15155,-4.410133 8.87789,-5.413414 1.41198,-0.380159 1.91019,-0.436522 3.88466,-0.439497 1.27269,-0.0016 2.76111,0.09092 3.39743,0.211929 2.27418,0.432336 4.75597,1.486353 6.79483,2.88574 1.22725,0.842302 3.752,3.452896 4.90288,5.069563 0.4794,0.673381 0.91582,1.224332 0.96986,1.224332 0.0539,0 0.44652,-0.732581 0.87215,-1.627951 1.44594,-3.041857 3.41943,-5.128471 6.15703,-6.509994 2.03694,-1.027905 2.95967,-1.237703 5.4442,-1.237703 2.36768,0 3.34731,0.20463 5.15226,1.076141 4.45695,2.152055 7.2732,6.471541 7.7029,11.814547 l 0.0984,1.224347 h 0.57243 c 0.82459,0 2.60363,0.418093 3.63669,0.854661 1.87848,0.793851 3.87531,2.391582 5.00984,4.008632 1.08152,1.541442 2.21337,4.485738 2.21337,5.757647 v 0.437642 l 2.00071,0.0046 c 1.72226,0.0016 2.14398,0.05612 3.03036,0.383486 1.09101,0.402821 2.68684,1.408233 3.27518,2.063446 0.66482,0.740418 0.80328,0.561761 0.9807,-1.265408 0.20247,-2.08528 1.02429,-4.446579 2.15193,-6.182886 1.4146,-2.178212 3.02648,-3.630036 5.24624,-4.725298 1.962,-0.968092 3.11132,-1.233716 5.36039,-1.238914 2.25948,-0.0046 3.39227,0.258371 5.36868,1.249095 7.19471,3.606561 9.66064,12.959118 5.27624,20.010986 -0.44884,0.721908 -0.7683,1.361942 -0.70987,1.422307 0.0584,0.06025 0.86002,0.323842 1.78131,0.585525 1.87007,0.531171 2.80245,0.890984 4.14248,1.59873 1.47332,0.778119 2.67616,2.317169 2.10141,2.688812 -1.07109,0.692605 -9.76526,1.239859 -27.69953,1.743568 -5.22488,0.146727 -61.1926,0.321858 -66.89151,0.209284 z"
         id="path3591"
         inkscape:label="Wolke 14 mitte"
         clip-path="url(#clipPath3601)"
         transform="matrix(11.40997,0,0,5.0006936,-4895.3444,-47.550809)" /><path
         style="fill:#c1de97;fill-opacity:0.8;stroke:none;stroke-width:37.7406"
         d="m 988.75301,841.18001 c -62.48162,-0.97294 -93.77488,-1.7659 -111.00564,-2.81239 -13.0901,-0.79512 -14.47958,-1.24608 -10.55708,-3.42638 4.64401,-2.58121 16.22571,-4.96344 31.92035,-6.56551 13.69471,-1.39784 13.16001,-1.11065 9.98656,-5.36459 -5.94907,-7.97456 -6.57985,-19.13491 -1.56212,-27.63389 2.0681,-3.50268 7.67503,-8.88688 11.53596,-11.07768 1.74809,-0.99184 3.75045,-2.1521 4.44971,-2.57831 l 1.27133,-0.77506 -1.59639,-6.50315 c -3.4289,-13.96764 -1.51923,-27.60138 5.60711,-40.02925 3.82255,-6.66628 7.7983,-11.42579 14.02192,-16.78638 10.87334,-9.3654 21.3124,-14.38345 36.72855,-17.6556 5.84151,-1.23987 7.90265,-1.4237 16.07122,-1.4334 5.26521,-0.005 11.42291,0.29654 14.05541,0.6912 9.4085,1.41004 19.6759,4.84767 28.1108,9.4117 5.0772,2.74713 15.5223,11.26146 20.2836,16.53414 1.9834,2.19621 3.7889,3.99311 4.0124,3.99311 0.2231,0 1.8474,-2.38928 3.6082,-5.30949 5.9819,-9.92087 14.1465,-16.72627 25.4721,-21.23204 8.427,-3.35247 12.2445,-4.03671 22.5231,-4.03671 9.7953,0 13.8482,0.66739 21.3154,3.50978 18.4388,7.01883 30.0898,21.10663 31.8675,38.5326 l 0.4069,3.99315 h 2.3682 c 3.4114,0 10.7714,1.36359 15.0453,2.78744 7.7715,2.58911 16.0325,7.80003 20.7262,13.07396 4.4743,5.02735 9.1568,14.63003 9.1568,18.77831 v 1.42735 l 8.2772,0.015 c 7.1251,0.005 8.8698,0.18302 12.5368,1.25072 4.5136,1.31378 11.1157,4.59289 13.5497,6.72983 2.7504,2.41484 3.3233,1.83216 4.0572,-4.12707 0.8376,-6.80104 4.2376,-14.50231 8.9028,-20.1652 5.8523,-7.10413 12.5207,-11.83919 21.7041,-15.41133 8.1169,-3.15739 12.8718,-4.02371 22.1763,-4.04066 9.3477,-0.015 14.0342,0.84266 22.2108,4.07386 29.7651,11.76263 39.9669,42.26556 21.8282,65.2649 -1.8569,2.35448 -3.1785,4.44192 -2.9368,4.6388 0.2416,0.19653 3.558,1.05619 7.3694,1.90966 7.7366,1.73239 11.594,2.90591 17.1378,5.21418 6.0953,2.5378 11.0715,7.55734 8.6938,8.76941 -4.4312,2.25892 -40.3997,4.04376 -114.5954,5.68659 -21.6157,0.47857 -253.1589,1.04975 -276.73577,0.6826 z"
         id="path1382"
         inkscape:label="Wolke 8 mitte" /><path
         style="fill:#c4e1a3;fill-opacity:1;stroke:none;stroke-width:11.8247"
         d="m 404.55065,203.51207 c 21.87556,-0.27282 32.83171,-0.49513 38.86441,-0.78858 4.58301,-0.22292 5.06948,-0.34937 3.69617,-0.96068 -1.62594,-0.72376 -5.68084,-1.39171 -11.17568,-1.8409 -4.79472,-0.39195 -4.60751,-0.3114 -3.49646,-1.50417 2.08286,-2.23596 2.30371,-5.36518 0.54694,-7.74818 -0.72408,-0.98213 -2.68711,-2.49177 -4.0389,-3.10605 -0.61202,-0.2781 -1.31305,-0.60342 -1.55787,-0.72294 l -0.44513,-0.21732 0.55895,-1.82338 c 1.20048,-3.91635 0.53186,-7.73908 -1.96315,-11.2237 -1.33831,-1.86914 -2.73027,-3.20365 -4.90926,-4.70667 -3.80686,-2.62595 -7.46172,-4.03297 -12.85911,-4.95043 -2.04517,-0.34764 -2.76679,-0.39919 -5.62671,-0.40189 -1.84341,-0.002 -3.99929,0.0831 -4.921,0.19377 -3.29401,0.39538 -6.88876,1.35924 -9.84192,2.63894 -1.7776,0.77028 -5.43453,3.15757 -7.10152,4.63597 -0.69438,0.6158 -1.32654,1.11963 -1.40482,1.11963 -0.0782,0 -0.64675,-0.66992 -1.26326,-1.48871 -2.09435,-2.7817 -4.95285,-4.68986 -8.91807,-5.95321 -2.95042,-0.94 -4.28695,-1.13184 -7.88562,-1.13184 -3.42946,0 -4.84842,0.18711 -7.4628,0.98411 -6.45564,1.96798 -10.53478,5.91801 -11.15721,10.80405 l -0.14251,1.11962 H 341.217 c -1.19438,0 -3.77122,0.38233 -5.26754,0.78155 -2.7209,0.72596 -5.61317,2.18705 -7.25649,3.66578 -1.56652,1.4096 -3.20592,4.10209 -3.20592,5.26521 v 0.40019 l -2.89793,0.004 c -2.49459,0.003 -3.10546,0.0515 -4.38928,0.35069 -1.58029,0.36838 -3.89175,1.2878 -4.74393,1.88695 -0.96296,0.6771 -1.16352,0.51372 -1.42048,-1.15719 -0.29327,-1.90691 -1.48363,-4.06623 -3.11696,-5.65405 -2.04896,-1.99191 -4.38369,-3.31956 -7.5989,-4.32115 -2.84183,-0.88529 -4.50656,-1.12819 -7.7642,-1.13293 -3.27274,-0.005 -4.91354,0.23626 -7.77625,1.14226 -10.42111,3.29809 -13.99291,11.85073 -7.64233,18.29945 0.65013,0.66015 1.11282,1.24545 1.0282,1.30065 -0.0846,0.0552 -1.24568,0.29613 -2.58011,0.53544 -2.7087,0.48575 -4.05919,0.81478 -6.00014,1.462 -2.13401,0.71155 -3.87628,2.11898 -3.04381,2.45882 1.55142,0.63339 14.14446,1.13383 40.12124,1.59447 7.56796,0.13419 88.63399,0.29431 96.88858,0.19136 z"
         id="path699"
         inkscape:label="Wolke 6 mitte (linke hälfte)"
         clip-path="url(#clipPath706)"
         transform="matrix(5.949129,0,0,5.0006936,-1819.7621,0.95925963)" /><path
         style="fill:#bcdc8f;fill-opacity:0.8;stroke:none;stroke-width:9.00603"
         d="m 575.68295,210.80801 c -13.9782,-0.24766 -20.97903,-0.44947 -24.83386,-0.71586 -2.92847,-0.20238 -3.23932,-0.31717 -2.3618,-0.87213 1.03895,-0.65702 3.62998,-1.26338 7.14112,-1.67116 3.06376,-0.35582 2.94414,-0.28271 2.23419,-1.3655 -1.33093,-2.02981 -1.47204,-4.87053 -0.34949,-7.03383 0.46267,-0.89158 1.71703,-2.26204 2.58081,-2.81968 0.39107,-0.25247 0.83902,-0.5478 0.99545,-0.65629 l 0.28443,-0.19728 -0.35715,-1.65528 c -0.76709,-3.55528 -0.33986,-7.02557 1.25441,-10.18892 0.85517,-1.6968 1.74461,-2.90829 3.13695,-4.27274 2.43255,-2.38384 4.76794,-3.66113 8.21681,-4.49401 1.30684,-0.31559 1.76795,-0.36239 3.5954,-0.36484 1.17792,-0.002 2.55549,0.0755 3.14445,0.17591 2.10483,0.35892 4.40183,1.23392 6.28887,2.39564 1.13585,0.69925 3.47258,2.86645 4.53778,4.20855 0.44369,0.55902 0.84762,1.0164 0.89765,1.0164 0.05,0 0.41326,-0.60815 0.8072,-1.35146 1.33826,-2.52523 3.16481,-4.25746 5.69854,-5.40434 1.88527,-0.85334 2.7393,-1.02749 5.03881,-1.02749 2.19138,0 3.09807,0.16986 4.76863,0.89337 4.12506,1.78655 6.73158,5.3724 7.1293,9.80796 l 0.0911,1.01641 h 0.52978 c 0.7632,0 2.40977,0.34707 3.36589,0.70949 1.73862,0.65902 3.58675,1.9854 4.6368,3.32781 1.00099,1.27964 2.04855,3.72388 2.04855,4.77977 v 0.3633 l 1.85173,0.003 c 1.59402,0.002 1.98435,0.0467 2.8047,0.31836 1.00978,0.33441 2.48677,1.16906 3.03131,1.71298 0.61532,0.61467 0.74347,0.46635 0.90767,-1.0505 0.18739,-1.7311 0.94802,-3.69135 1.99169,-5.13277 1.30927,-1.80827 2.80112,-3.01351 4.8556,-3.92276 1.8159,-0.80367 2.87963,-1.02418 4.96122,-1.02848 2.09124,-0.004 3.13969,0.21448 4.96892,1.03694 6.65896,2.99402 8.94128,10.75815 4.88336,16.61232 -0.41543,0.5993 -0.7111,1.13063 -0.65702,1.18074 0.0541,0.0501 0.79598,0.26884 1.64867,0.48608 1.73081,0.44095 2.59376,0.73967 3.834,1.3272 1.36361,0.64596 2.4769,1.92363 1.94496,2.23214 -0.99134,0.57498 -9.03811,1.02929 -25.63695,1.44745 -4.83582,0.12182 -56.63596,0.26719 -61.91053,0.17373 z"
         id="path697"
         inkscape:label="Wolke 5 mitte (linke hälfte)"
         clip-path="url(#clipPath693)"
         transform="matrix(5.949129,0,0,5.0006936,-3639.7009,0.95925963)" /><path
         style="fill:#bcdc8f;fill-opacity:0.8;stroke:none;stroke-width:9.00603"
         d="m 575.68295,210.80801 c -13.9782,-0.24766 -20.97903,-0.44947 -24.83386,-0.71586 -2.92847,-0.20238 -3.23932,-0.31717 -2.3618,-0.87213 1.03895,-0.65702 3.62998,-1.26338 7.14112,-1.67116 3.06376,-0.35582 2.94414,-0.28271 2.23419,-1.3655 -1.33093,-2.02981 -1.47204,-4.87053 -0.34949,-7.03383 0.46267,-0.89158 1.71703,-2.26204 2.58081,-2.81968 0.39107,-0.25247 0.83902,-0.5478 0.99545,-0.65629 l 0.28443,-0.19728 -0.35715,-1.65528 c -0.76709,-3.55528 -0.33986,-7.02557 1.25441,-10.18892 0.85517,-1.6968 1.74461,-2.90829 3.13695,-4.27274 2.43255,-2.38384 4.76794,-3.66113 8.21681,-4.49401 1.30684,-0.31559 1.76795,-0.36239 3.5954,-0.36484 1.17792,-0.002 2.55549,0.0755 3.14445,0.17591 2.10483,0.35892 4.40183,1.23392 6.28887,2.39564 1.13585,0.69925 3.47258,2.86645 4.53778,4.20855 0.44369,0.55902 0.84762,1.0164 0.89765,1.0164 0.05,0 0.41326,-0.60815 0.8072,-1.35146 1.33826,-2.52523 3.16481,-4.25746 5.69854,-5.40434 1.88527,-0.85334 2.7393,-1.02749 5.03881,-1.02749 2.19138,0 3.09807,0.16986 4.76863,0.89337 4.12506,1.78655 6.73158,5.3724 7.1293,9.80796 l 0.0911,1.01641 h 0.52978 c 0.7632,0 2.40977,0.34707 3.36589,0.70949 1.73862,0.65902 3.58675,1.9854 4.6368,3.32781 1.00099,1.27964 2.04855,3.72388 2.04855,4.77977 v 0.3633 l 1.85173,0.003 c 1.59402,0.002 1.98435,0.0467 2.8047,0.31836 1.00978,0.33441 2.48677,1.16906 3.03131,1.71298 0.61532,0.61467 0.74347,0.46635 0.90767,-1.0505 0.18739,-1.7311 0.94802,-3.69135 1.99169,-5.13277 1.30927,-1.80827 2.80112,-3.01351 4.8556,-3.92276 1.8159,-0.80367 2.87963,-1.02418 4.96122,-1.02848 2.09124,-0.004 3.13969,0.21448 4.96892,1.03694 6.65896,2.99402 8.94128,10.75815 4.88336,16.61232 -0.41543,0.5993 -0.7111,1.13063 -0.65702,1.18074 0.0541,0.0501 0.79598,0.26884 1.64867,0.48608 1.73081,0.44095 2.59376,0.73967 3.834,1.3272 1.36361,0.64596 2.4769,1.92363 1.94496,2.23214 -0.99134,0.57498 -9.03811,1.02929 -25.63695,1.44745 -4.83582,0.12182 -56.63596,0.26719 -61.91053,0.17373 z"
         id="path624"
         inkscape:label="Wolke 5 mitte (rechte hälfte)"
         clip-path="url(#clipPath640)"
         transform="matrix(5.949129,0,0,5.0006936,-1819.7621,0.95925963)" /><path
         style="fill:#bcdc8f;fill-opacity:0.8;stroke:none;stroke-width:8.04626"
         d="M 275.36804,13.890847 C 265.0769,13.622335 259.9227,13.40353 257.08467,13.114713 c -2.15602,-0.219419 -2.38488,-0.343872 -1.73883,-0.945557 0.76491,-0.712351 2.67249,-1.369764 5.2575,-1.81188 2.25562,-0.3857744 2.16755,-0.306505 1.64486,-1.4804721 -0.97986,-2.2007162 -1.08375,-5.2806261 -0.2573,-7.6260753 0.34064,-0.96664757 1.26413,-2.4525021 1.90007,-3.0571006 0.28791,-0.2737181 0.61771,-0.5939159 0.73288,-0.7115461 l 0.2094,-0.2138888 -0.26294,-1.7946595 c -0.56476,-3.8546258 -0.25021,-7.6171146 0.92353,-11.0468156 0.6296,-1.839678 1.28443,-3.153167 2.30951,-4.632504 1.79091,-2.584565 3.51029,-3.969402 6.04944,-4.872409 0.96213,-0.342161 1.30161,-0.392896 2.64703,-0.395561 0.86722,-0.0018 1.88143,0.08185 2.31503,0.190725 1.54964,0.389144 3.24075,1.337814 4.63004,2.597349 0.83625,0.758135 2.55661,3.107807 3.34084,4.562909 0.32666,0.606092 0.62405,1.101984 0.66088,1.101984 0.0368,0 0.30425,-0.65936 0.59428,-1.465252 0.98527,-2.737859 2.33002,-4.61594 4.19542,-5.859384 1.388,-0.925195 2.01675,-1.114009 3.70971,-1.114009 1.61336,0 2.28089,0.18417 3.5108,0.968599 3.03699,1.936968 4.95598,5.824754 5.24879,10.633785 l 0.067,1.101985 h 0.39004 c 0.5619,0 1.77415,0.376302 2.47807,0.769235 1.28002,0.71451 2.64066,2.1525726 3.41374,3.6080088 0.73695,1.3873842 1.5082,4.0374349 1.5082,5.1822306 v 0.3938854 l 1.36329,0.00358 c 1.17356,0.0026 1.46093,0.050654 2.0649,0.3451648 0.74343,0.3625671 1.83083,1.2674977 2.23173,1.8572134 0.45302,0.66642287 0.54737,0.50561977 0.66825,-1.138955 0.13797,-1.8768581 0.69797,-4.002154 1.46634,-5.5649444 0.96392,-1.9605247 2.06226,-3.2672526 3.57483,-4.2530576 1.33691,-0.871334 2.12006,-1.110416 3.65259,-1.115079 1.53963,-0.0043 2.31152,0.232541 3.65825,1.124258 4.90251,3.2461124 6.58282,11.66397865 3.59526,18.0110637 -0.30584,0.6497663 -0.52352,1.2258352 -0.48371,1.2801634 0.0398,0.054318 0.58602,0.2914762 1.21379,0.5270099 1.27428,0.478079 1.9096,0.80195 2.82271,1.4389431 1.00392,0.7003499 1.82356,2.0856049 1.43193,2.4200909 -0.72986,0.623389 -6.65411,1.115956 -18.87463,1.569321 -3.56027,0.132083 -41.69697,0.289686 -45.58025,0.188361 z"
         id="path604"
         inkscape:label="Wolke 4 mitte (linke hälfte)"
         clip-path="url(#clipPath611)"
         transform="matrix(5.949129,0,0,5.0006936,-1819.7621,0.95925963)" /><path
         style="fill:#bcdc8f;fill-opacity:0.8;stroke:none;stroke-width:8.04626"
         d="M 275.36804,13.890847 C 265.0769,13.622335 259.9227,13.40353 257.08467,13.114713 c -2.15602,-0.219419 -2.38488,-0.343872 -1.73883,-0.945557 0.76491,-0.712351 2.67249,-1.369764 5.2575,-1.81188 2.25562,-0.3857744 2.16755,-0.306505 1.64486,-1.4804721 -0.97986,-2.2007162 -1.08375,-5.2806261 -0.2573,-7.6260753 0.34064,-0.96664757 1.26413,-2.4525021 1.90007,-3.0571006 0.28791,-0.2737181 0.61771,-0.5939159 0.73288,-0.7115461 l 0.2094,-0.2138888 -0.26294,-1.7946595 c -0.56476,-3.8546258 -0.25021,-7.6171146 0.92353,-11.0468156 0.6296,-1.839678 1.28443,-3.153167 2.30951,-4.632504 1.79091,-2.584565 3.51029,-3.969402 6.04944,-4.872409 0.96213,-0.342161 1.30161,-0.392896 2.64703,-0.395561 0.86722,-0.0018 1.88143,0.08185 2.31503,0.190725 1.54964,0.389144 3.24075,1.337814 4.63004,2.597349 0.83625,0.758135 2.55661,3.107807 3.34084,4.562909 0.32666,0.606092 0.62405,1.101984 0.66088,1.101984 0.0368,0 0.30425,-0.65936 0.59428,-1.465252 0.98527,-2.737859 2.33002,-4.61594 4.19542,-5.859384 1.388,-0.925195 2.01675,-1.114009 3.70971,-1.114009 1.61336,0 2.28089,0.18417 3.5108,0.968599 3.03699,1.936968 4.95598,5.824754 5.24879,10.633785 l 0.067,1.101985 h 0.39004 c 0.5619,0 1.77415,0.376302 2.47807,0.769235 1.28002,0.71451 2.64066,2.1525726 3.41374,3.6080088 0.73695,1.3873842 1.5082,4.0374349 1.5082,5.1822306 v 0.3938854 l 1.36329,0.00358 c 1.17356,0.0026 1.46093,0.050654 2.0649,0.3451648 0.74343,0.3625671 1.83083,1.2674977 2.23173,1.8572134 0.45302,0.66642287 0.54737,0.50561977 0.66825,-1.138955 0.13797,-1.8768581 0.69797,-4.002154 1.46634,-5.5649444 0.96392,-1.9605247 2.06226,-3.2672526 3.57483,-4.2530576 1.33691,-0.871334 2.12006,-1.110416 3.65259,-1.115079 1.53963,-0.0043 2.31152,0.232541 3.65825,1.124258 4.90251,3.2461124 6.58282,11.66397865 3.59526,18.0110637 -0.30584,0.6497663 -0.52352,1.2258352 -0.48371,1.2801634 0.0398,0.054318 0.58602,0.2914762 1.21379,0.5270099 1.27428,0.478079 1.9096,0.80195 2.82271,1.4389431 1.00392,0.7003499 1.82356,2.0856049 1.43193,2.4200909 -0.72986,0.623389 -6.65411,1.115956 -18.87463,1.569321 -3.56027,0.132083 -41.69697,0.289686 -45.58025,0.188361 z"
         id="path622"
         inkscape:label="Wolke 4 links "
         clip-path="url(#clipPath618)"
         transform="matrix(5.949129,0,0,5.0006936,0.18157437,0.95925963)" /><path
         style="fill:#bcdc8f;fill-opacity:0.8;stroke:none;stroke-width:9.80108"
         d="m 313.1131,76.695399 c -14.05186,-0.291778 -21.08959,-0.529541 -24.96473,-0.843384 -2.94391,-0.23843 -3.2564,-0.373667 -2.37425,-1.027487 1.04443,-0.774074 3.64911,-1.48845 7.17875,-1.968874 3.07991,-0.419201 2.95966,-0.333064 2.24597,-1.608752 -1.33794,-2.391402 -1.4798,-5.738178 -0.35133,-8.286854 0.46511,-1.050405 1.72608,-2.665005 2.59441,-3.32199 0.39313,-0.297435 0.84344,-0.645377 1.0007,-0.7732 l 0.28593,-0.232422 -0.35904,-1.950161 c -0.77113,-4.188619 -0.34164,-8.277117 1.26103,-12.003993 0.85967,-1.999082 1.7538,-3.42638 3.15348,-5.033898 2.44537,-2.808511 4.79307,-4.31334 8.26011,-5.29459 1.31373,-0.371809 1.77726,-0.42694 3.61435,-0.429836 1.18412,-0.002 2.56896,0.08894 3.16101,0.207251 2.11593,0.422862 4.42503,1.453732 6.32202,2.822403 1.14184,0.823824 3.49088,3.377089 4.56169,4.958272 0.44604,0.658608 0.8521,1.197468 0.90238,1.197468 0.0502,0 0.41544,-0.716492 0.81146,-1.592211 1.34532,-2.975088 3.18148,-5.015899 5.72857,-6.367085 1.89521,-1.00536 2.75374,-1.210535 5.06536,-1.210535 2.20293,0 3.1144,0.200128 4.79377,1.052526 4.1468,2.104801 6.76706,6.329454 7.16687,11.555174 l 0.0916,1.197469 h 0.53257 c 0.76723,0 2.42248,0.408907 3.38364,0.835887 1.74778,0.77642 3.60564,2.339087 4.66123,3.920633 1.00627,1.507597 2.05935,4.387268 2.05935,5.631257 v 0.428015 l 1.86149,0.0039 c 1.60242,0.0028 1.9948,0.05504 2.81947,0.375073 1.0151,0.393983 2.49988,1.377323 3.04729,2.018136 0.61856,0.724166 0.74739,0.54943 0.91245,-1.237643 0.18838,-2.039482 0.95302,-4.34893 2.00219,-6.047132 1.31617,-2.130398 2.81588,-3.55035 4.88119,-4.621573 1.82546,-0.946833 2.89481,-1.20663 4.98737,-1.211697 2.10226,-0.0047 3.15623,0.25269 4.9951,1.221671 6.69405,3.527379 8.9884,12.674631 4.90909,19.571674 -0.41761,0.706067 -0.71484,1.332051 -0.66047,1.391086 0.0543,0.05903 0.80017,0.316732 1.65735,0.572674 1.73994,0.519504 2.60743,0.871437 3.85421,1.563624 1.3708,0.761033 2.48995,2.266318 1.95521,2.629786 -0.99657,0.677403 -9.08575,1.21265 -25.77206,1.705299 -4.8613,0.143527 -56.93444,0.314785 -62.2368,0.204681 z"
         id="path602"
         inkscape:label="Wolke 3 mitte (rechte hälfte)"
         clip-path="url(#clipPath598)"
         transform="matrix(5.949129,0,0,5.0006936,0.17806438,0.95963468)" /><path
         style="fill:#bcdc8f;fill-opacity:0.8;stroke:none;stroke-width:9.80108"
         d="m 313.1131,76.695399 c -14.05186,-0.291778 -21.08959,-0.529541 -24.96473,-0.843384 -2.94391,-0.23843 -3.2564,-0.373667 -2.37425,-1.027487 1.04443,-0.774074 3.64911,-1.48845 7.17875,-1.968874 3.07991,-0.419201 2.95966,-0.333064 2.24597,-1.608752 -1.33794,-2.391402 -1.4798,-5.738178 -0.35133,-8.286854 0.46511,-1.050405 1.72608,-2.665005 2.59441,-3.32199 0.39313,-0.297435 0.84344,-0.645377 1.0007,-0.7732 l 0.28593,-0.232422 -0.35904,-1.950161 c -0.77113,-4.188619 -0.34164,-8.277117 1.26103,-12.003993 0.85967,-1.999082 1.7538,-3.42638 3.15348,-5.033898 2.44537,-2.808511 4.79307,-4.31334 8.26011,-5.29459 1.31373,-0.371809 1.77726,-0.42694 3.61435,-0.429836 1.18412,-0.002 2.56896,0.08894 3.16101,0.207251 2.11593,0.422862 4.42503,1.453732 6.32202,2.822403 1.14184,0.823824 3.49088,3.377089 4.56169,4.958272 0.44604,0.658608 0.8521,1.197468 0.90238,1.197468 0.0502,0 0.41544,-0.716492 0.81146,-1.592211 1.34532,-2.975088 3.18148,-5.015899 5.72857,-6.367085 1.89521,-1.00536 2.75374,-1.210535 5.06536,-1.210535 2.20293,0 3.1144,0.200128 4.79377,1.052526 4.1468,2.104801 6.76706,6.329454 7.16687,11.555174 l 0.0916,1.197469 h 0.53257 c 0.76723,0 2.42248,0.408907 3.38364,0.835887 1.74778,0.77642 3.60564,2.339087 4.66123,3.920633 1.00627,1.507597 2.05935,4.387268 2.05935,5.631257 v 0.428015 l 1.86149,0.0039 c 1.60242,0.0028 1.9948,0.05504 2.81947,0.375073 1.0151,0.393983 2.49988,1.377323 3.04729,2.018136 0.61856,0.724166 0.74739,0.54943 0.91245,-1.237643 0.18838,-2.039482 0.95302,-4.34893 2.00219,-6.047132 1.31617,-2.130398 2.81588,-3.55035 4.88119,-4.621573 1.82546,-0.946833 2.89481,-1.20663 4.98737,-1.211697 2.10226,-0.0047 3.15623,0.25269 4.9951,1.221671 6.69405,3.527379 8.9884,12.674631 4.90909,19.571674 -0.41761,0.706067 -0.71484,1.332051 -0.66047,1.391086 0.0543,0.05903 0.80017,0.316732 1.65735,0.572674 1.73994,0.519504 2.60743,0.871437 3.85421,1.563624 1.3708,0.761033 2.48995,2.266318 1.95521,2.629786 -0.99657,0.677403 -9.08575,1.21265 -25.77206,1.705299 -4.8613,0.143527 -56.93444,0.314785 -62.2368,0.204681 z"
         id="path587"
         inkscape:label="Wolke 3 mitte (linke hälfte"
         clip-path="url(#clipPath591)"
         transform="matrix(5.949129,0,0,5.0006936,-1819.7621,0.95925963)" /><path
         style="opacity:0.553922;fill:#bcdc8f;fill-opacity:1;stroke:none;stroke-width:7.25535"
         d="m 641.42438,124.51569 c 15.72432,-0.14288 23.59968,-0.25931 27.93604,-0.41301 3.29429,-0.11675 3.64398,-0.18298 2.65683,-0.50315 -1.16874,-0.37907 -4.08342,-0.7289 -8.03317,-0.96416 -3.44647,-0.20528 -3.31191,-0.1631 -2.51328,-0.7878 1.49718,-1.17107 1.65593,-2.80999 0.39315,-4.05808 -0.52048,-0.51438 -1.93152,-1.30505 -2.90319,-1.62677 -0.43992,-0.14565 -0.94384,-0.31604 -1.11982,-0.37864 l -0.31995,-0.11382 0.40177,-0.95499 c 0.86291,-2.05116 0.3823,-4.0533 -1.41112,-5.87835 -0.96199,-0.97895 -1.96255,-1.67789 -3.52882,-2.46509 -2.7364,-1.37533 -5.36354,-2.11225 -9.24323,-2.59276 -1.47008,-0.18208 -1.98879,-0.20907 -4.04452,-0.21049 -1.32506,-9.7e-4 -2.87472,0.0435 -3.53725,0.10149 -2.36776,0.20707 -4.9517,0.71189 -7.07446,1.38213 -1.27775,0.40342 -3.90638,1.65376 -5.10462,2.42806 -0.49913,0.32252 -0.95352,0.5864 -1.00979,0.5864 -0.0562,0 -0.46489,-0.35087 -0.90805,-0.77971 -1.50543,-1.45689 -3.56014,-2.45628 -6.41037,-3.11795 -2.12079,-0.49233 -3.0815,-0.5928 -5.66825,-0.5928 -2.46512,0 -3.48508,0.098 -5.36432,0.51542 -4.64036,1.03072 -7.57248,3.09953 -8.01989,5.65856 l -0.10244,0.5864 h -0.59597 c -0.85853,0 -2.71079,0.20025 -3.78635,0.40934 -1.9558,0.38021 -4.0348,1.14545 -5.21602,1.91993 -1.12603,0.73827 -2.30445,2.14844 -2.30445,2.75762 v 0.2096 l -2.08304,0.002 c -1.79314,0.001 -2.23223,0.027 -3.15506,0.18367 -1.13592,0.19294 -2.79742,0.67448 -3.40997,0.98828 -0.69218,0.35463 -0.83635,0.26906 -1.02105,-0.60607 -0.21081,-0.99873 -1.06645,-2.12967 -2.24049,-2.96127 -1.47282,-1.04326 -3.15104,-1.73861 -5.46215,-2.26319 -2.04274,-0.46366 -3.23935,-0.59088 -5.58098,-0.59336 -2.35246,-0.002 -3.53188,0.12374 -5.58962,0.59825 -7.49077,1.72736 -10.05821,6.20676 -5.49337,9.58425 0.46732,0.34575 0.79991,0.65229 0.73909,0.6812 -0.0608,0.0289 -0.89541,0.1551 -1.85461,0.28044 -1.94704,0.25441 -2.91777,0.42674 -4.31295,0.76571 -1.53394,0.37268 -2.7863,1.10981 -2.18792,1.2878 1.11518,0.33173 10.16715,0.59384 28.83946,0.83509 5.43991,0.0703 63.71081,0.15415 69.64427,0.10023 z"
         id="path2204"
         inkscape:label="Wolke 13 mitte (linke hälfte)"
         clip-path="url(#clipPath2200)"
         transform="matrix(5.949129,0,0,5.0006936,-3639.7012,0.96143993)" /><path
         style="opacity:0.554;fill:#bcdc8f;fill-opacity:1;stroke:none;stroke-width:7.25535"
         d="m 641.42438,124.51569 c 15.72432,-0.14288 23.59968,-0.25931 27.93604,-0.41301 3.29429,-0.11675 3.64398,-0.18298 2.65683,-0.50315 -1.16874,-0.37907 -4.08342,-0.7289 -8.03317,-0.96416 -3.44647,-0.20528 -3.31191,-0.1631 -2.51328,-0.7878 1.49718,-1.17107 1.65593,-2.80999 0.39315,-4.05808 -0.52048,-0.51438 -1.93152,-1.30505 -2.90319,-1.62677 -0.43992,-0.14565 -0.94384,-0.31604 -1.11982,-0.37864 l -0.31995,-0.11382 0.40177,-0.95499 c 0.86291,-2.05116 0.3823,-4.0533 -1.41112,-5.87835 -0.96199,-0.97895 -1.96255,-1.67789 -3.52882,-2.46509 -2.7364,-1.37533 -5.36354,-2.11225 -9.24323,-2.59276 -1.47008,-0.18208 -1.98879,-0.20907 -4.04452,-0.21049 -1.32506,-9.7e-4 -2.87472,0.0435 -3.53725,0.10149 -2.36776,0.20707 -4.9517,0.71189 -7.07446,1.38213 -1.27775,0.40342 -3.90638,1.65376 -5.10462,2.42806 -0.49913,0.32252 -0.95352,0.5864 -1.00979,0.5864 -0.0562,0 -0.46489,-0.35087 -0.90805,-0.77971 -1.50543,-1.45689 -3.56014,-2.45628 -6.41037,-3.11795 -2.12079,-0.49233 -3.0815,-0.5928 -5.66825,-0.5928 -2.46512,0 -3.48508,0.098 -5.36432,0.51542 -4.64036,1.03072 -7.57248,3.09953 -8.01989,5.65856 l -0.10244,0.5864 h -0.59597 c -0.85853,0 -2.71079,0.20025 -3.78635,0.40934 -1.9558,0.38021 -4.0348,1.14545 -5.21602,1.91993 -1.12603,0.73827 -2.30445,2.14844 -2.30445,2.75762 v 0.2096 l -2.08304,0.002 c -1.79314,0.001 -2.23223,0.027 -3.15506,0.18367 -1.13592,0.19294 -2.79742,0.67448 -3.40997,0.98828 -0.69218,0.35463 -0.83635,0.26906 -1.02105,-0.60607 -0.21081,-0.99873 -1.06645,-2.12967 -2.24049,-2.96127 -1.47282,-1.04326 -3.15104,-1.73861 -5.46215,-2.26319 -2.04274,-0.46366 -3.23935,-0.59088 -5.58098,-0.59336 -2.35246,-0.002 -3.53188,0.12374 -5.58962,0.59825 -7.49077,1.72736 -10.05821,6.20676 -5.49337,9.58425 0.46732,0.34575 0.79991,0.65229 0.73909,0.6812 -0.0608,0.0289 -0.89541,0.1551 -1.85461,0.28044 -1.94704,0.25441 -2.91777,0.42674 -4.31295,0.76571 -1.53394,0.37268 -2.7863,1.10981 -2.18792,1.2878 1.11518,0.33173 10.16715,0.59384 28.83946,0.83509 5.43991,0.0703 63.71081,0.15415 69.64427,0.10023 z"
         id="path2072"
         inkscape:label="Wolke 13 mitte (rechte hälfte)"
         clip-path="url(#clipPath2141)"
         transform="matrix(5.949129,0,0,5.0006936,-1819.7621,0.95925963)" /><path
         style="fill:#bcdc8f;fill-opacity:0.797872;stroke:none;stroke-width:60.35"
         d="m 1261.9133,545.05138 c 105.1333,-1.47865 157.7882,-2.68352 186.7812,-4.27399 22.0258,-1.20822 24.3638,-1.89357 17.7637,-5.20682 -7.8143,-3.92275 -27.3019,-7.54295 -53.7101,-9.97754 -23.0432,-2.12434 -22.1435,-1.68778 -16.8038,-8.15248 10.0102,-12.11873 11.0716,-29.07886 2.6286,-41.99455 -3.4799,-5.32304 -12.9142,-13.50517 -19.4109,-16.83453 -2.9413,-1.50726 -6.3104,-3.27051 -7.4871,-3.91825 l -2.1392,-1.17786 2.6863,-9.88262 c 5.7694,-21.22629 2.5561,-41.94519 -9.4348,-60.83152 -6.4319,-10.13056 -13.1217,-17.36355 -23.5938,-25.50982 -18.2957,-14.23243 -35.8608,-21.8583 -61.8006,-26.83089 -9.8289,-1.88418 -13.297,-2.16356 -27.0417,-2.17824 -8.8594,-0.01 -19.2205,0.45071 -23.6502,1.05026 -15.8309,2.1429 -33.1072,7.36695 -47.3,14.30283 -8.5431,4.17482 -26.1182,17.11376 -34.1297,25.12657 -3.3372,3.33757 -6.3753,6.0683 -6.7515,6.0683 -0.376,0 -3.1082,-3.6309 -6.0712,-8.0687 -10.0654,-15.07657 -23.8032,-25.41861 -42.86,-32.26588 -14.1796,-5.09477 -20.6029,-6.13452 -37.8981,-6.13452 -16.4818,0 -23.3013,1.01417 -35.8659,5.33379 -31.02564,10.6663 -50.62987,32.07518 -53.62127,58.55708 l -0.68492,6.06829 h -3.98467 c -5.74019,0 -18.12444,2.07219 -25.31568,4.23596 -13.07655,3.93458 -26.97675,11.85356 -34.87445,19.86822 -7.52868,7.63991 -15.40759,22.23296 -15.40759,28.53698 v 2.16901 l -13.92733,0.02 c -11.98898,0.015 -14.92476,0.27904 -21.09478,1.90071 -7.59483,1.99658 -18.70364,6.97977 -22.7992,10.22712 -4.62795,3.66981 -5.59183,2.78434 -6.82675,-6.27187 -1.40946,-10.33528 -7.13032,-22.03866 -14.98002,-30.64448 -9.8473,-10.79602 -21.06789,-17.99178 -36.5201,-23.42031 -13.65777,-4.79818 -21.6584,-6.11473 -37.31454,-6.14041 -15.72867,-0.024 -23.6143,1.28054 -37.37243,6.19096 -50.08352,17.87536 -67.24949,64.23006 -36.72879,99.18158 3.12448,3.578 5.3482,6.75024 4.94152,7.04943 -0.40632,0.29904 -5.98673,1.60502 -12.39995,2.90205 -13.01794,2.63272 -19.50832,4.41606 -28.83649,7.9239 -10.25601,3.85658 -18.62929,11.48474 -14.6285,13.32665 7.45611,3.43287 67.97785,6.14525 192.82151,8.64185 36.37137,0.7273 425.97243,1.59517 465.64363,1.03719 z"
         id="path574"
         inkscape:label="Wolke 2 mitte" /><path
         style="fill:#bcdc8f;fill-opacity:0.8;stroke:none;stroke-width:48.0385"
         d="m 1113.3691,233.9559 c -79.5304,-1.23847 -119.3623,-2.24767 -141.29472,-3.57979 -16.66184,-1.01203 -18.43046,-1.58605 -13.43771,-4.36123 5.91123,-3.2856 20.65312,-6.31781 40.63011,-8.357 17.43152,-1.77932 16.75092,-1.4137 12.71162,-6.82843 -7.5724,-10.15045 -8.3753,-24.35603 -1.9884,-35.17403 2.6324,-4.4585 9.7692,-11.31176 14.6837,-14.10037 2.2251,-1.26248 4.7737,-2.73934 5.6638,-3.28189 l 1.6183,-0.98653 -2.0321,-8.27757 c -4.3644,-17.77883 -1.9336,-35.1327 7.1371,-50.95163 4.8656,-8.485217 9.9261,-14.543468 17.848,-21.366669 13.8402,-11.920884 27.1277,-18.308215 46.7503,-22.473187 7.4354,-1.578164 10.059,-1.812172 20.4564,-1.824463 6.7019,-0.0085 14.5398,0.377502 17.8907,0.879687 11.9756,1.794864 25.0446,6.170451 35.7811,11.979851 6.4626,3.49677 19.7576,14.334249 25.8182,21.04567 2.5244,2.795497 4.8226,5.08272 5.1072,5.08272 0.2844,0 2.3513,-3.041192 4.5927,-6.758233 7.6142,-12.627926 18.0065,-21.290268 32.4224,-27.025453 10.7265,-4.267307 15.5855,-5.138183 28.6688,-5.138183 12.4681,0 17.6268,0.849453 27.1316,4.467505 23.47,8.933949 38.3,26.865726 40.5629,49.046595 l 0.5181,5.08272 h 3.0143 c 4.3423,0 13.7106,1.73563 19.1506,3.54797 9.892,3.29556 20.4071,9.92839 26.3815,16.64135 5.6952,6.39909 11.6554,18.62201 11.6554,23.90219 v 1.81674 l 10.5356,0.0165 c 9.0694,0.012 11.2902,0.23363 15.9576,1.59201 5.7453,1.67229 14.1488,5.84613 17.247,8.5661 3.5009,3.07376 4.23,2.33209 5.1642,-5.25325 1.0662,-8.6567 5.3939,-18.45928 11.332,-25.66739 7.4492,-9.0426 15.9372,-15.06967 27.6264,-19.61653 10.3317,-4.01889 16.3839,-5.12161 28.2274,-5.14312 11.8983,-0.02 17.8635,1.07256 28.2711,5.18545 37.8868,14.97216 50.8723,53.79819 27.7843,83.07309 -2.3635,2.99694 -4.0458,5.65396 -3.7381,5.90454 0.3076,0.25053 4.5288,1.34439 9.3802,2.43075 9.8477,2.20506 14.7575,3.69886 21.814,6.63689 7.7584,3.23025 14.0925,9.61951 11.066,11.16227 -5.6403,2.87528 -51.4232,5.14716 -145.8639,7.23824 -27.5139,0.60921 -322.236,1.33612 -352.2461,0.86878 z"
         id="path37097"
         inkscape:label="Wolke 1 mitte" /></g><g
       id="g1883"
       inkscape:label="THM Logo Hinter Gebäude"
       transform="translate(-75.459282,37.729641)"
       clip-path="url(#clipPath2509)"><path
         style="display:inline;fill:#84b819;fill-opacity:0.547872;stroke-width:1.43249"
         d="m 733.06788,7.6238206 242.14291,0.618494 0.0488,58.9301044 -87.90109,-0.261836 0.096,265.591627 -66.18054,0.42543 0.11476,-265.811072 -88.19182,0.01058 z"
         id="path43387"
         sodipodi:nodetypes="ccccccccc"
         inkscape:label="T" /><path
         style="display:inline;fill:#84b819;fill-opacity:0.547872;stroke-width:1.43249"
         d="m 1048.7461,8.0700906 65.8283,0.303021 0.1408,130.8548584 114.3437,0.0179 0.1058,-131.0522414 65.962,0.204293 0.1017,324.3894584 -66.2327,0.33289 0.1921,-135.9452 -115.2473,0.0163 1.6591,135.84186 -66.9297,0.0871 z"
         id="path43389"
         sodipodi:nodetypes="ccccccccccccc"
         inkscape:label="H" /><path
         style="display:inline;fill:#84b819;fill-opacity:0.547872;stroke-width:1.43249"
         d="m 1368.6756,8.4238916 65.0769,-0.05535 88.0587,182.4798284 87.854,-182.7307024 65.1885,0.306684 -0.1807,324.0457984 -65.9971,0.23888 -0.2434,-183.16632 -62.3055,123.94792 -47.8303,0.17532 -63.7081,-124.88543 0.049,184.28221 -65.5661,-0.39304 z"
         id="path43391"
         sodipodi:nodetypes="cccccccccccccc"
         inkscape:label="M" /></g><g
       id="g489"
       inkscape:label="Straße"
       style="display:inline"
       transform="matrix(8.6690375,0,0,8.6496108,0.08912737,23.438256)"
       clip-path="url(#clipPath2505)"><path
         style="fill:#ebecec;fill-opacity:1;stroke-width:17.601"
         d="M 210.02768,124.64858 0.01893779,94.054051 4.3348177e-4,96.101189 210.03178,127.66314 Z"
         id="path27869"
         sodipodi:nodetypes="ccccc" /><path
         style="fill:#727878;fill-opacity:1;stroke-width:17.601"
         d="M 0.00990571,96.080624 212.28598,127.42878 0,119.02187 Z"
         id="path27871"
         sodipodi:nodetypes="cccc" /><path
         style="fill:#727878;fill-opacity:1;stroke-width:0.176"
         d="m 0,118.20375 210.0285,9.03197 -0.006,83.77911 -210.02929491,-0.0194 z"
         id="path642"
         sodipodi:nodetypes="ccccc" /><path
         style="display:inline;fill:#c0c4c4;fill-opacity:1;stroke-width:17.601"
         d="M 210.00292,88.44989 0.23026794,85.008899 0.02163812,94.008902 170.8849,118.99905 l 39.11898,6.32619 z"
         id="path29625"
         sodipodi:nodetypes="cccccc" /></g><g
       id="g2916"
       inkscape:label="Wolke"><path
         style="display:inline;fill:#ffffff;fill-opacity:1;stroke:none;stroke-width:99.0966"
         d="M 299.92516,510.60281 C 153.64273,507.73746 80.378707,505.40304 40.037754,502.32105 9.3912457,499.97931 6.138161,498.65163 15.321582,492.23115 c 10.872623,-7.60131 37.987878,-14.61652 74.731961,-19.33388 32.062217,-4.11663 30.810487,-3.27072 23.380747,-15.79803 -13.927913,-23.48307 -15.404892,-56.34832 -3.65719,-81.37638 4.84171,-10.3145 17.96872,-26.16968 27.00836,-32.62138 4.09248,-2.92052 8.78026,-6.33742 10.41738,-7.59267 l 2.97645,-2.2826 -3.73752,-19.15047 c -8.02766,-41.13176 -3.55649,-81.28004 13.12758,-117.87783 8.94918,-19.63091 18.2572,-33.64674 32.82807,-49.43213 25.4568,-27.57977 49.89671,-42.35644 85.98953,-51.992478 13.67578,-3.651472 18.5015,-4.192387 37.62557,-4.220958 12.32686,0 26.74311,0.873168 32.90685,2.035389 22.02695,4.152518 46.06512,14.274987 65.81307,27.715327 11.88683,8.08972 36.34069,33.16295 47.48835,48.68987 4.64315,6.46764 8.86995,11.75912 9.3939,11.75912 0.52523,0 4.32481,-7.03581 8.44722,-15.6352 14.00503,-29.21513 33.1195,-49.25604 59.63522,-62.52428 19.72939,-9.872594 28.66723,-11.88739 52.73167,-11.88739 22.93263,0 32.42134,1.964957 49.90376,10.33577 43.16866,20.66888 70.44596,62.15481 74.60808,113.47081 l 0.95375,11.75848 h 5.54435 c 7.98668,0 25.21866,4.01562 35.22427,8.20866 18.19468,7.62459 37.53526,22.96941 48.52406,38.50031 10.47511,14.8046 21.43831,43.08274 21.43831,55.2984 v 4.20303 h 19.37837 c 16.68176,0 20.76636,0.53824 29.35126,3.68337 10.56742,3.86877 26.02451,13.52475 31.72257,19.81764 6.43921,7.1109 7.78042,5.39513 9.49899,-12.15319 1.96121,-20.02764 9.92102,-42.70664 20.84328,-59.38249 13.70135,-20.92073 29.3135,-34.86411 50.81387,-45.38328 19.00308,-9.29779 30.13528,-11.84951 51.91948,-11.89869 21.8848,-0.0665 32.8569,2.48127 51.9996,11.99638 69.6863,34.63885 93.5707,124.46379 51.1041,192.19182 -4.3473,6.93349 -7.441,13.08085 -6.8754,13.66031 0.5637,0.57812 8.33,3.11056 17.2538,5.62373 18.1126,5.10142 27.1433,8.55754 40.1229,15.35481 14.2695,7.47304 25.9207,22.25504 20.3539,25.82412 -10.3746,6.65172 -94.584,11.90799 -268.29184,16.74563 -50.60642,1.4094 -592.69678,3.09127 -647.8951,2.01013 z"
         id="path37097-9" /><path
         style="display:inline;fill:#84b819;fill-opacity:1;stroke-width:0.176;stroke-dasharray:none"
         d="m 71.116022,152.9843 c -36.147209,-0.26219 -59.514457,-1.0266 -60.69693,-1.9856 -1.0640842,-0.86297 1.665188,-2.50201 5.692145,-3.41835 3.144245,-0.71548 8.556321,-1.51205 10.273223,-1.51205 0.410858,0 0.747015,-0.0772 0.747015,-0.17167 0,-0.0944 -0.311594,-0.66239 -0.69243,-1.26217 -2.421709,-3.8139 -2.550973,-9.31476 -0.312497,-13.29854 0.57915,-1.0307 1.824694,-2.65761 2.561654,-3.34598 0.497816,-0.46499 2.858541,-2.10422 3.19459,-2.21824 0.15784,-0.0536 0.08798,-0.61154 -0.270646,-2.16153 -1.114574,-4.81731 -0.880857,-10.75953 0.605103,-15.38461 0.504676,-1.57081 1.916013,-4.60377 2.858671,-6.14327 2.360904,-3.855704 6.221962,-7.623264 9.901627,-9.661852 0.743526,-0.411924 1.392327,-0.815594 1.44178,-0.897043 0.04945,-0.08145 -0.386769,-0.442841 -0.969382,-0.803093 -0.582612,-0.360253 -1.014293,-0.700814 -0.959289,-0.756803 0.055,-0.05599 0.579327,0.23488 1.165162,0.646374 l 1.065154,0.74817 1.76865,-0.698915 c 2.293445,-0.906298 3.989469,-1.378164 6.138641,-1.707886 2.203455,-0.338049 6.130587,-0.342829 8.299017,-0.0101 7.843349,1.203501 14.897109,5.795937 19.260278,12.539638 l 0.580955,0.89792 0.120138,-0.49663 c 0.221879,-0.91721 1.650188,-3.601421 2.644899,-4.970539 1.38186,-1.901994 3.034373,-3.522045 4.869347,-4.773692 3.488954,-2.379837 7.005564,-3.455481 11.297033,-3.455481 8.94705,0 16.73849,6.066887 19.16613,14.923902 0.37335,1.3621 0.69256,3.57905 0.69256,4.80982 v 0.87547 l 1.00361,0.004 c 2.91905,0.0112 6.97024,1.58546 9.81612,3.81451 3.29675,2.58218 6.04511,7.35701 6.55782,11.39313 l 0.11553,0.90941 0.72235,-0.17189 c 1.30347,-0.31017 4.73408,-0.0473 6.3077,0.48324 1.83844,0.61987 3.69705,1.67937 4.88543,2.78492 l 0.96172,0.89469 0.001,-0.68408 c 5.2e-4,-0.37624 0.11446,-1.45 0.25309,-2.38613 1.24546,-8.40986 7.87766,-15.31678 16.11089,-16.77823 1.91466,-0.33986 5.38041,-0.33734 7.15444,0.005 8.30058,1.60277 14.74939,8.38728 16.04105,16.87609 0.37185,2.44371 0.22518,5.62971 -0.36549,7.93996 -0.72719,2.8442 -1.6844,4.84612 -3.69674,7.73145 -0.25803,0.36996 -0.25035,0.39732 0.13555,0.48284 4.04035,0.89541 6.70769,1.78646 8.69747,2.90547 1.25229,0.70426 2.69154,1.98526 3.07206,2.7343 0.30513,0.60061 0.3195,1.46463 0.0284,1.70752 -1.43357,1.19618 -17.55429,2.13318 -46.64631,2.71126 -9.69332,0.19261 -50.45623,0.53307 -58.733337,0.49055 -2.735944,-0.0141 -13.025186,-0.084 -22.864983,-0.15532 z m 76.885688,-0.50778 c 35.56313,-0.6895 51.42303,-1.6376 51.39874,-3.07259 -0.01,-0.56998 -0.71775,-1.72742 -1.46811,-2.39974 -1.58447,-1.41967 -5.25361,-2.95831 -9.1661,-3.84379 -1.00302,-0.22701 -1.85393,-0.50511 -1.8909,-0.61802 -0.037,-0.1129 0.1648,-0.50503 0.44842,-0.87141 3.9581,-5.11334 5.10047,-12.2456 2.98082,-18.61034 -1.8131,-5.44424 -6.24835,-10.09369 -11.5835,-12.14296 -2.32457,-0.89289 -4.34296,-1.26572 -6.86699,-1.26845 -6.74272,-0.007 -12.6495,3.25394 -16.40598,9.05805 -1.78193,2.75326 -2.863,5.98732 -3.10213,9.28018 -0.0658,0.90574 -0.19591,1.6974 -0.2892,1.75924 -0.0933,0.0618 -0.48111,-0.19527 -0.86183,-0.57137 -0.94861,-0.93706 -2.84755,-2.18513 -4.1347,-2.71751 -1.99561,-0.8254 -3.50883,-1.06156 -6.05232,-0.94453 l -2.2982,0.10574 -0.11102,-0.9615 c -0.14711,-1.27411 -0.88392,-3.61967 -1.60363,-5.10499 -2.83017,-5.84084 -8.47272,-9.60648 -14.91284,-9.9523 l -0.78543,-0.0422 -0.11129,-1.60787 c -0.61279,-8.853831 -6.3993,-16.042845 -14.75319,-18.328983 -1.54355,-0.422412 -2.02557,-0.470297 -4.77148,-0.474022 -2.642485,-0.0036 -3.265231,0.05164 -4.616904,0.409412 -6.323283,1.673705 -11.122151,5.888893 -13.618506,11.962103 -0.271117,0.65958 -0.584809,1.19924 -0.697092,1.19924 -0.112283,0 -0.66723,-0.69956 -1.233215,-1.55457 -1.423373,-2.150242 -5.098872,-5.860328 -7.237357,-7.305464 -4.455975,-3.011239 -9.07927,-4.548281 -14.332491,-4.764923 -4.014916,-0.165575 -7.526025,0.433531 -11.297989,1.927791 -8.386008,3.322109 -14.832178,11.016736 -16.79473,20.047446 -0.180502,0.83058 -0.423304,2.52951 -0.539561,3.77539 -0.261949,2.80725 -0.0143,5.96357 0.692566,8.8269 0.263199,1.06615 0.450765,2.02328 0.416813,2.12695 -0.03395,0.10368 -0.546538,0.44881 -1.139079,0.76696 -1.662166,0.89246 -4.059758,3.4158 -4.978597,5.23972 -0.975942,1.93726 -1.422277,3.76658 -1.422277,5.82923 0,2.74293 0.596596,4.90793 1.931993,7.01102 0.377374,0.59432 0.686135,1.1885 0.686135,1.32039 0,0.16553 -0.364887,0.27768 -1.178158,0.36209 -7.08768,0.73563 -12.091942,1.7643 -14.392541,2.9585 -0.765881,0.39755 -1.584546,1.24461 -1.392161,1.44043 0.808129,0.8226 19.100957,1.52979 49.514916,1.91425 14.831723,0.18748 75.701015,0.0743 87.969095,-0.16352 z M 14.215378,92.414443 c 0.633246,-0.579316 1.334277,-1.040767 1.169943,-0.770111 -0.05169,0.08513 -0.47352,0.418973 -0.937408,0.741879 l -0.843432,0.587102 z m 2.094502,-1.60877 c 0.605415,-0.418299 0.950194,-0.540026 0.523625,-0.18487 -0.239995,0.199818 -0.514898,0.363858 -0.610896,0.364535 -0.096,6.75e-4 -0.05673,-0.08017 0.08727,-0.179665 z m 1.309064,-0.810646 c 0.728817,-0.574187 4.694329,-2.385844 5.194664,-2.3732 0.118873,0.003 -0.490761,0.310204 -1.354743,0.682667 -2.164309,0.933033 -2.522548,1.105163 -3.269192,1.570812 -0.737159,0.459736 -1.098529,0.535539 -0.570729,0.119721 z M 43.62568,89.633254 c -1.438139,-0.79806 -2.437552,-1.230416 -4.230468,-1.830147 -2.234192,-0.747337 -2.727501,-1.013502 -0.969973,-0.523349 2.059456,0.574357 5.459278,2.032488 5.712879,2.450166 0.156037,0.256992 0.108828,0.248087 -0.512438,-0.09667 z M 23.147079,87.526539 c 0.157744,-0.160568 2.588061,-0.761441 2.588061,-0.639874 0,0.0649 -0.530171,0.256305 -1.178157,0.425343 -1.215248,0.317016 -1.562497,0.369854 -1.409904,0.214531 z m 13.209237,-0.528732 c -0.04623,-0.04706 -0.510949,-0.157637 -1.032705,-0.245729 -0.872079,-0.147239 -0.892296,-0.160752 -0.250482,-0.16742 0.660381,-0.0069 2.230059,0.456511 1.643603,0.485194 -0.151998,0.0074 -0.314184,-0.02499 -0.360416,-0.07205 z m -10.09755,-0.263812 c 0.432453,-0.146879 1.696171,-0.24339 1.556332,-0.118858 -0.04,0.03562 -0.504718,0.110282 -1.032707,0.165913 -0.619721,0.0653 -0.805317,0.04862 -0.523625,-0.04706 z m 2.356315,-0.273605 c 0.398962,-0.141558 1.452586,-0.18033 1.373791,-0.05055 -0.04693,0.07729 -0.414506,0.134224 -0.816832,0.126509 -0.402326,-0.0077 -0.652957,-0.04189 -0.556959,-0.07596 z"
         id="path36206"
         clip-path="url(#clipPath36298)"
         transform="matrix(6.4052265,0,0,6.6450855,-58.392073,-502.78535)" /></g><g
       id="g498"
       inkscape:label="THM B Gebäude"
       transform="matrix(8.6496108,0,0,8.6496108,4.1629269,23.438256)"
       clip-path="url(#clipPath2501)"><path
         style="fill:#626f79;fill-opacity:1;stroke:none;stroke-width:22.4573;stroke-opacity:1"
         d="m 86.641175,98.458112 4.424929,0.29337 1.760193,-14.790414 -4.40047,-0.07337 z"
         id="path19975"
         sodipodi:nodetypes="ccccc" /><path
         style="display:inline;fill:#9edbe2;fill-opacity:1;stroke:none;stroke-width:22.4573;stroke-opacity:1"
         d="m 87.363097,97.56675 3.295622,0.223973 1.535837,-12.990464 -3.231635,-0.06392 z"
         id="path19977"
         sodipodi:nodetypes="ccccc" /><path
         style="fill:#626f79;fill-opacity:1;stroke:none;stroke-width:22.4573;stroke-opacity:1"
         d="M 92.924083,83.961068 91.212782,98.727023 95.22211,98.9715 96.664487,84.005648 Z"
         id="path19979"
         sodipodi:nodetypes="ccccc" /><path
         style="display:inline;fill:#9edbe2;fill-opacity:1;stroke:none;stroke-width:22.4573;stroke-opacity:1"
         d="m 91.810597,97.950709 3.035872,0.115725 1.362671,-13.228561 -2.993538,-0.02067 z"
         id="path19981"
         sodipodi:nodetypes="ccccc" /><path
         style="fill:#3e4a53;fill-opacity:1;stroke:none;stroke-width:22.4573;stroke-opacity:1"
         d="m 92.919221,89.659661 0.11815,0.0064 -0.232994,1.988976 -0.12657,0.0026 z"
         id="path19983"
         sodipodi:nodetypes="ccccc" /><path
         style="fill:#3e4a53;fill-opacity:1;stroke:none;stroke-width:22.4573;stroke-opacity:1"
         d="m 91.201031,89.61776 0.118149,0.0064 -0.232981,1.988977 -0.12657,0.0026 z"
         id="path19985"
         sodipodi:nodetypes="ccccc" /><path
         style="display:inline;fill:#2e2d1d;fill-opacity:1;stroke-width:22.4573"
         d="m 113.1888,26.77795 37.62926,-10.458504 -0.56551,27.047428 33.89153,-5.779345 -0.0102,2.772563 -106.663355,16.588527 0.149447,-1.476303 33.775848,-5.529649 z"
         id="path1593"
         sodipodi:nodetypes="ccccccccc" /><path
         style="display:inline;fill:#47462d;fill-opacity:1;stroke-width:22.4573"
         d="m 150.82011,16.302847 18.33975,22.945048 -18.88845,3.243029 z"
         id="path2999"
         sodipodi:nodetypes="cccc" /><path
         style="display:inline;fill:#a9a9a9;fill-opacity:1;stroke-width:22.4573"
         d="m 112.95418,26.102637 v 0.848441 l 37.86461,-10.618707 0.0422,-0.889539 z"
         id="path3102"
         sodipodi:nodetypes="ccccc" /><path
         style="display:inline;fill:#ebecec;fill-opacity:1;stroke-width:22.4573"
         d="m 150.86099,15.442832 18.72336,23.71811 -0.43407,0.07592 -18.33402,-22.907153 z"
         id="path5828"
         sodipodi:nodetypes="ccccc" /><path
         style="display:inline;fill:#a9a9a9;fill-opacity:1;stroke-width:22.4573"
         d="m 150.2687,42.492315 33.89754,-5.888065 -0.0194,0.990335 -33.89508,5.772889 z"
         id="path6856"
         sodipodi:nodetypes="ccccc" /><path
         style="display:inline;fill:#ebecec;fill-opacity:1;stroke-width:22.4573"
         d="m 184.16573,36.602081 1.75329,3.482019 -0.48365,0.07515 -1.28947,-2.564934 z"
         id="path6907"
         sodipodi:nodetypes="ccccc" /><path
         style="display:inline;fill:#47462d;fill-opacity:1;stroke-width:22.4573"
         d="m 184.14422,37.594189 1.29046,2.56505 -1.30102,0.202346 z"
         id="path6909"
         sodipodi:nodetypes="cccc" /><path
         style="display:inline;fill:#a9a9a9;fill-opacity:1;stroke-width:22.4573"
         d="m 77.537347,55.485522 33.861633,-5.544361 0.053,-0.743396 -33.876089,5.667984 z"
         id="path6965"
         sodipodi:nodetypes="ccccc" /><path
         style="display:inline;fill:#ebecec;fill-opacity:1;stroke-width:22.4573"
         d="m 88.373706,59.970112 -4.176611,38.157604 23.876875,0.04708 2.80493,-41.608159 z"
         id="path7561"
         sodipodi:nodetypes="ccccc" /><g
         id="g34222"
         style="display:inline;fill:#c2e9ec;fill-opacity:1"
         transform="matrix(1.275909,0,0,1.275909,1.1012147,-148.67587)"><path
           style="fill:#c2e9ec;fill-opacity:1;stroke:none;stroke-width:17.601;stroke-opacity:1"
           d="m 67.26356,174.36874 7.709914,-1.18307 -0.991461,9.17073 -5.515687,-0.0776 -1.390161,11.15989 -0.52792,0.003 -1.347641,0.0175 z"
           id="path31663"
           sodipodi:nodetypes="cccccccc"
           inkscape:label="path31663" /><path
           style="display:inline;fill:#c2e9ec;fill-opacity:1;stroke:none;stroke-width:17.601;stroke-opacity:1"
           d="m 68.217211,165.53823 7.706577,-1.15016 -0.938253,8.69982 -7.709928,1.15399 z"
           id="path31661"
           sodipodi:nodetypes="ccccc"
           inkscape:label="path31661" /><path
           style="display:inline;fill:#c2e9ec;fill-opacity:1;stroke:none;stroke-width:17.601;stroke-opacity:1"
           d="m 68.41797,163.64378 7.711544,-1.17623 -0.196714,1.84074 -7.707073,1.15153 z"
           id="path31659"
           sodipodi:nodetypes="ccccc" /><path
           style="display:inline;fill:#c2e9ec;fill-opacity:1;stroke:none;stroke-width:17.601;stroke-opacity:1"
           d="m 75.095873,173.16881 6.804241,-1.02292 -1.241811,11.50711 -6.549839,-1.3062 z"
           id="path31657"
           sodipodi:nodetypes="ccccc" /><path
           style="display:inline;fill:#c2e9ec;fill-opacity:1;stroke:none;stroke-width:17.601;stroke-opacity:1"
           d="m 76.049571,164.37505 6.799633,-1.01762 -0.934579,8.69556 -6.803404,1.00294 z"
           id="path31655"
           sodipodi:nodetypes="ccccc" /><path
           style="display:inline;fill:#c2e9ec;fill-opacity:1;stroke:none;stroke-width:17.601;stroke-opacity:1"
           d="m 83.062364,161.44142 -0.201343,1.81997 -6.789045,1.00754 0.168077,-1.81635 z"
           id="path31653"
           sodipodi:nodetypes="ccccc" /><path
           style="display:inline;fill:#c2e9ec;fill-opacity:1;stroke:none;stroke-width:17.601;stroke-opacity:1"
           d="m 82.029269,172.14417 3.24111,-0.48069 -0.86663,12.84587 -3.617724,-0.81129 z"
           id="path31651"
           sodipodi:nodetypes="ccccc" /><path
           style="display:inline;fill:#c2e9ec;fill-opacity:1;stroke:none;stroke-width:17.601;stroke-opacity:1"
           d="m 85.898134,162.90627 -0.620981,8.65162 -3.224435,0.47621 0.935515,-8.69301 z"
           id="path31649"
           sodipodi:nodetypes="ccccc" /><path
           style="display:inline;fill:#c2e9ec;fill-opacity:1;stroke:none;stroke-width:17.601;stroke-opacity:1"
           d="m 86.026229,161.00372 -0.127415,1.80912 -2.896868,0.42103 0.194155,-1.81053 z"
           id="path31647"
           sodipodi:nodetypes="ccccc" /></g><path
         style="display:inline;fill:#2e2d1d;fill-opacity:1;stroke-width:22.4573"
         d="m 110.87822,56.565604 73.53345,-11.115196 1.52573,33.236818 -46.95933,0.767331 0.001,-1.864281 h 0.71724 v -0.970367 l -4.64097,-1.729801 -5.18943,-0.4641 -20.32418,0.942744 z"
         id="path10049"
         sodipodi:nodetypes="ccccccccccc" /><path
         style="display:inline;fill:#ebecec;fill-opacity:1;stroke-width:22.4573"
         d="m 191.29251,51.550452 7.93481,15.700508 -0.004,-0.650255 -7.58715,-15.086348 z"
         id="path11077"
         sodipodi:nodetypes="ccccc" /><path
         style="display:inline;fill:#47462d;fill-opacity:1;stroke-width:22.4573"
         d="m 184.41106,45.450804 3.80406,6.424036 3.07722,-0.325459 7.854,15.539755 1.25293,19.377396 -13.79064,-7.788723 -0.67255,0.0094 z"
         id="path11727"
         sodipodi:nodetypes="cccccccc" /><path
         style="display:inline;fill:#cbc7c4;fill-opacity:1;stroke-width:22.4573"
         d="m 186.61032,78.67832 6.36419,3.595856 0.20086,2.081008 -6.42691,-2.891516 z"
         id="path13457"
         sodipodi:nodetypes="ccccc" /><path
         style="display:inline;fill:#1d201f;fill-opacity:1;stroke-width:22.4573"
         d="m 135.05654,74.891192 4.63384,1.730171 0.005,0.967879 -0.71819,-1.27e-4 -9.10945,-2.10858 -54.244213,2.277408 0.0089,-0.287437 0.630529,-0.02781 0.0089,-0.361618 -0.111259,-0.0089 V 76.914552 L 129.86785,74.42926 Z"
         id="path15135"
         sodipodi:nodetypes="ccccccccccccc" /><path
         style="display:inline;fill:#ebecec;fill-opacity:1;stroke-width:22.4573"
         d="m 76.564696,77.714307 -3.20086,21.02781 1.15471,-0.01748 3.068434,-19.988595 52.24614,-1.815363 9.14426,1.771765 -0.003,-1.10421 -9.11171,-2.10479 z"
         id="path15191"
         sodipodi:nodetypes="ccccccccc" /><path
         style="display:inline;fill:#2e2d1d;fill-opacity:1;stroke:none;stroke-width:22.4573;stroke-opacity:1"
         d="m 120.83217,99.370387 -12.81304,-1.12997 1.25135,-18.577657 29.71109,-0.973034 -0.003,0.76279 -16.66467,0.286556 z"
         id="path26158"
         sodipodi:nodetypes="ccccccc"
         inkscape:label="path26158" /><path
         style="display:inline;fill:#a8a4a0;fill-opacity:1;stroke-width:22.4573"
         d="m 186.61005,78.678549 -64.34584,1.051311 -0.19629,2.669087 64.692,-0.929104 z"
         id="path14431"
         sodipodi:nodetypes="ccccc" /><path
         style="display:inline;fill:#bbbbbb;fill-opacity:1;stroke:none;stroke-width:22.4573"
         d="m 77.587018,78.73275 10.559257,1.619027 50.836495,-1.663084 -9.14273,-1.804773 z"
         id="path18165"
         sodipodi:nodetypes="ccccc" /><path
         style="display:inline;fill:#9d9d9d;fill-opacity:1;stroke-width:22.4573"
         d="m 74.518482,98.726206 11.522646,-0.588385 2.10391,-17.787244 -10.55788,-1.620289 z"
         id="path18167"
         sodipodi:nodetypes="ccccc" /><path
         style="display:inline;fill:#d5d7d7;fill-opacity:1;stroke:none;stroke-width:22.4573;stroke-opacity:1"
         d="m 79.324679,60.730426 0.517266,-0.09429 0.619441,0.07005 0.447168,0.237102 -2.31714,15.86103 -1.535263,0.06864 z"
         id="path20392"
         sodipodi:nodetypes="ccccccc" /><path
         style="display:inline;fill:#cbc7c4;fill-opacity:1;stroke:none;stroke-width:22.4573;stroke-opacity:1"
         d="m 199.35955,85.880188 1.5821,0.893481 0.12146,1.331462 -1.61288,-0.761922 z"
         id="path22670"
         sodipodi:nodetypes="ccccc" /><path
         style="display:inline;fill:#a8a4a0;fill-opacity:1;stroke:none;stroke-width:22.4573;stroke-opacity:1"
         d="m 201.06072,88.097884 -0.39774,0.117894 -1.74381,-0.712314 0.53225,-0.159808 z"
         id="path22672"
         sodipodi:nodetypes="ccccc" /><path
         style="display:inline;fill:#7e7874;fill-opacity:1;stroke:none;stroke-width:22.4573;stroke-opacity:1"
         d="m 198.91829,87.503961 -0.0183,-1.528871 0.46057,-0.09595 0.0906,1.46556 z"
         id="path22730"
         sodipodi:nodetypes="ccccc" /><path
         style="display:inline;fill:#2e2d1d;fill-opacity:1;stroke:none;stroke-width:22.4573;stroke-opacity:1"
         d="m 198.89935,85.975078 -5.86677,-3.097601 -0.0584,-0.603378 6.38496,3.605247 z"
         id="path22786"
         sodipodi:nodetypes="ccccc" /><path
         style="display:inline;fill:#a8a4a0;fill-opacity:1;stroke:none;stroke-width:22.4573;stroke-opacity:1"
         d="m 193.17431,84.353614 -0.86901,0.188937 -6.58752,-2.524527 1.04042,-0.550605 z"
         id="path23598"
         sodipodi:nodetypes="ccccc" /><path
         style="display:inline;fill:#7e7874;fill-opacity:1;stroke:none;stroke-width:22.4573;stroke-opacity:1"
         d="m 185.72054,82.022465 -63.65454,0.37601 64.69638,-0.93223 z"
         id="path23600"
         sodipodi:nodetypes="cccc" /><path
         style="display:inline;fill:#c2e9ec;fill-opacity:1;stroke:none;stroke-width:22.4573;stroke-opacity:1"
         d="m 200.66248,88.214949 0.65366,10.326518 -14.47312,6.844493 -1.12316,-23.365971 c 2.24073,0.761437 4.38092,1.664117 6.58681,2.521273 l 0.86819,-0.189204 -0.14387,-1.476559 5.87033,3.098609 0.0199,1.528756 z"
         id="path25341"
         sodipodi:nodetypes="cccccccccc" /><path
         style="display:inline;fill:#9edbe2;fill-opacity:1;stroke:none;stroke-width:22.4573;stroke-opacity:1"
         d="m 185.72981,82.018458 1.11434,23.367892 -66.04336,-5.17557 1.30717,-17.813683 z"
         id="path25343"
         sodipodi:nodetypes="ccccc" /><path
         style="display:inline;fill:#bd9f66;fill-opacity:1;stroke:none;stroke-width:22.4573;stroke-opacity:1"
         d="M 182.82274,109.46472 180.29745,99.133994"
         id="path26101" /><path
         style="display:inline;fill:#626f79;fill-opacity:1;stroke:none;stroke-width:22.4573;stroke-opacity:1"
         d="m 86.641175,98.458112 4.424929,0.29337 1.760193,-14.790414 -4.40047,-0.07337 z"
         id="path28176"
         sodipodi:nodetypes="ccccc" /><path
         style="display:inline;fill:#9edbe2;fill-opacity:1;stroke:none;stroke-width:22.4573;stroke-opacity:1"
         d="m 87.363097,97.56675 3.295622,0.223973 1.535837,-12.990464 -3.231635,-0.06392 z"
         id="path27704"
         sodipodi:nodetypes="ccccc" /><path
         style="display:inline;fill:#626f79;fill-opacity:1;stroke:none;stroke-width:22.4573;stroke-opacity:1"
         d="M 92.924083,83.961068 91.212782,98.727023 95.22211,98.9715 96.664487,84.005648 Z"
         id="path29529"
         sodipodi:nodetypes="ccccc" /><path
         style="display:inline;fill:#9edbe2;fill-opacity:1;stroke:none;stroke-width:22.4573;stroke-opacity:1"
         d="m 91.810597,97.950709 3.035872,0.115725 1.362671,-13.228561 -2.993538,-0.02067 z"
         id="path27706"
         sodipodi:nodetypes="ccccc" /><path
         style="display:inline;fill:#3e4a53;fill-opacity:1;stroke:none;stroke-width:22.4573;stroke-opacity:1"
         d="M 96.635983,84.002573 108.7901,86.724432 108.02563,98.232927 95.180719,98.93238 Z"
         id="path29532"
         sodipodi:nodetypes="ccccc" /><path
         style="display:inline;fill:#c2e9ec;fill-opacity:1;stroke:none;stroke-width:22.4573;stroke-opacity:1"
         d="m 107.61986,97.69753 -11.890806,0.366939 1.23508,-13.14652 11.272366,2.484514 z"
         id="path26958"
         sodipodi:nodetypes="ccccc" /><path
         style="display:inline;fill:#3e4a53;fill-opacity:1;stroke:none;stroke-width:22.4573;stroke-opacity:1"
         d="m 92.919221,89.659661 0.11815,0.0064 -0.232994,1.988976 -0.12657,0.0026 z"
         id="path31641"
         sodipodi:nodetypes="ccccc" /><path
         style="display:inline;fill:#3e4a53;fill-opacity:1;stroke:none;stroke-width:22.4573;stroke-opacity:1"
         d="m 91.201031,89.61776 0.118149,0.0064 -0.232981,1.988977 -0.12657,0.0026 z"
         id="path31643"
         sodipodi:nodetypes="ccccc" /><path
         style="display:inline;fill:#454545;fill-opacity:1;stroke:none;stroke-width:22.4573;stroke-opacity:1"
         d="m 92.826539,83.955352 h 0.101946 l -1.704054,14.794471 -0.160904,-0.0051 z"
         id="path36068"
         sodipodi:nodetypes="ccccc" /><path
         style="display:inline;fill:#ebecec;fill-opacity:1;stroke:none;stroke-width:22.4573;stroke-opacity:1"
         d="m 126.6817,78.176913 0.55773,-0.116235 h 0.67392 l 0.51124,0.185912 -1.44078,23.72638 -0.51126,0.11623 -0.65067,-0.0232 -0.62744,-0.11623 z"
         id="path19309"
         inkscape:label="path19309" /><path
         style="display:inline;fill:#ebecec;fill-opacity:1;stroke-width:22.4573"
         d="m 69.52157,58.17612 122.83908,-19.094042 4.13707,10.97907 -0.15912,0.954711 -8.12312,0.860448 -3.80263,-6.426499 -96.041836,14.531047 -0.391768,3.764366 -18.457676,-4.296164 z"
         id="path496"
         sodipodi:nodetypes="cccccccccc" /></g><g
       id="g43480"
       style="display:inline"
       transform="matrix(16.333393,0,0,16.333393,-675.97471,-2132.5145)"
       inkscape:label="THM Schild"
       clip-path="url(#clipPath2497)"><path
         style="display:inline;fill:#efefef;fill-opacity:1;stroke:none;stroke-width:17.601;stroke-opacity:1"
         d="m 120.82697,160.97646 12.54672,-1.4299 0.0981,3.67289 -12.67288,1.23364 z"
         id="path43497"
         inkscape:label="path43497" /><path
         style="fill:#4a5c67;fill-opacity:0.956863;stroke:none;stroke-width:17.601;stroke-opacity:1"
         d="m 124.05116,163.66727 h -0.0891 l 0.0101,-2.62423 h 0.0731 z"
         id="path36163"
         sodipodi:nodetypes="ccccc" /><path
         style="display:inline;fill:#454545;fill-opacity:1;stroke:none;stroke-width:17.601;stroke-opacity:1"
         d="M 123.96202,161.0531 Z"
         id="path36161" /><path
         style="display:inline;fill:#84b819;fill-opacity:1;stroke:none;stroke-width:17.601;stroke-opacity:1"
         d="m 122.59989,163.353 0.0174,0.45362 0.48852,-0.0523 -0.0175,-0.43618 z"
         id="path36155" /><path
         style="display:inline;fill:#84b819;fill-opacity:1;stroke:none;stroke-width:17.601;stroke-opacity:1"
         d="m 121.20232,163.49376 0.0174,0.45362 0.48852,-0.0523 -0.0175,-0.43618 z"
         id="path36159" /><path
         style="display:inline;fill:#84b819;fill-opacity:1;stroke:none;stroke-width:17.601;stroke-opacity:1"
         d="m 122.58984,162.63913 0.0174,0.45362 0.48852,-0.0523 -0.0175,-0.43618 z"
         id="path36153" /><path
         style="display:inline;fill:#84b819;fill-opacity:1;stroke:none;stroke-width:17.601;stroke-opacity:1"
         d="m 121.87597,163.42338 0.0174,0.45362 0.48852,-0.0523 -0.0175,-0.43618 z"
         id="path36157" /><path
         style="display:inline;fill:#84b819;fill-opacity:1;stroke:none;stroke-width:17.601;stroke-opacity:1"
         d="m 121.89608,162.70951 0.0174,0.45362 0.48852,-0.0523 -0.0175,-0.43618 z"
         id="path36151"
         inkscape:label="path36151" /><path
         style="display:inline;fill:#84b819;fill-opacity:1;stroke:none;stroke-width:17.601;stroke-opacity:1"
         d="m 121.17216,162.77989 0.0174,0.45362 0.48852,-0.0523 -0.0175,-0.43618 z"
         id="path36149" /><path
         style="display:inline;fill:#84b819;fill-opacity:1;stroke:none;stroke-width:17.601;stroke-opacity:1"
         d="m 121.86592,161.98558 0.0174,0.45362 0.48852,-0.0523 -0.0175,-0.43618 z"
         id="path36145" /><path
         style="display:inline;fill:#84b819;fill-opacity:1;stroke:none;stroke-width:17.601;stroke-opacity:1"
         d="m 122.57979,161.9152 0.0174,0.45362 0.48852,-0.0523 -0.0175,-0.43618 z"
         id="path36143"
         inkscape:label="path36143" /><path
         style="display:inline;fill:#84b819;fill-opacity:1;stroke:none;stroke-width:17.601;stroke-opacity:1"
         d="m 122.58984,161.21138 0.0174,0.45362 0.48852,-0.0523 -0.0175,-0.43618 z"
         id="path36141"
         inkscape:label="path36141" /><path
         style="display:inline;fill:#84b819;fill-opacity:1;stroke:none;stroke-width:17.601;stroke-opacity:1"
         d="m 121.88602,161.28176 0.0174,0.45362 0.48852,-0.0523 -0.0175,-0.43618 z"
         id="path36139"
         inkscape:label="path36139" /><path
         style="display:inline;fill:#84b819;fill-opacity:1;stroke:none;stroke-width:17.601;stroke-opacity:1"
         d="m 121.19227,162.06602 0.0174,0.45362 0.48852,-0.0523 -0.0175,-0.43618 z"
         id="path36147"
         inkscape:label="path36147" /><path
         style="display:inline;fill:#84b819;fill-opacity:1;stroke:none;stroke-width:17.601;stroke-opacity:1"
         d="m 130.27293,160.32776 0.053,2.76501 0.59325,-0.0424 -0.053,-1.51492 h 0.0424 l 0.50851,0.92166 0.48732,-0.0424 0.44494,-1.02761 0.053,-0.0106 0.0212,1.49374 0.59326,-0.053 -0.0636,-2.80738 -0.59326,0.053 -0.6992,1.61027 h -0.053 l -0.75216,-1.40899 z"
         id="path36137" /><path
         style="display:inline;fill:#84b819;fill-opacity:1;stroke:none;stroke-width:17.601;stroke-opacity:1"
         d="m 127.58247,160.62306 0.0144,2.73597 0.56059,-0.0431 -0.0144,-1.16429 0.9343,-0.0862 0.0288,1.14991 0.58933,-0.0575 -0.0431,-2.75978 -0.58933,0.0431 0.0144,1.09242 -0.94868,0.0862 -0.0144,-1.0265 z"
         id="path36135"
         sodipodi:nodetypes="ccccccccccccc"
         inkscape:label="path36135" /><path
         style="display:inline;fill:#84b819;fill-opacity:1;stroke:none;stroke-width:17.601;stroke-opacity:1"
         d="m 124.96642,160.94422 v 0.45996 l 0.70432,-0.0719 0.0288,2.18483 0.54621,-0.0431 -0.0431,-2.1992 0.77619,-0.0862 -0.0288,-0.45997 z"
         id="path36133" /><path
         style="display:inline;fill:#9c998f;fill-opacity:1;stroke:none;stroke-width:17.601;stroke-opacity:1"
         d="m 120.79132,164.44401 0.36921,0.19191 12.53561,-1.23502 -0.2248,-0.18126 z"
         id="path43991"
         sodipodi:nodetypes="ccccc" /><path
         style="display:inline;fill:#c2c0b2;fill-opacity:1;stroke:none;stroke-width:17.601;stroke-opacity:1"
         d="m 133.37324,159.54587 0.25278,0.16891 0.0701,3.68691 -0.22533,-0.17972 z"
         id="path43935"
         sodipodi:nodetypes="ccccc"
         inkscape:label="path43935" /></g><g
       id="g2912"
       inkscape:label="Tür 2"><path
         style="display:inline;fill:#626f79;fill-opacity:1;stroke:none;stroke-width:332.897;stroke-opacity:1"
         d="m 99.602213,948.82457 65.592837,4.3488 25.97498,-219.38409 -65.11321,-0.95134 z"
         id="path19975-0"
         sodipodi:nodetypes="ccccc" /><path
         style="display:inline;fill:#9edbe2;fill-opacity:1;stroke:none;stroke-width:332.897;stroke-opacity:1"
         d="m 110.3035,935.61137 48.85284,3.32009 22.76626,-192.56559 -47.90411,-0.94756 z"
         id="path19977-5"
         sodipodi:nodetypes="ccccc" /><path
         style="display:inline;fill:#626f79;fill-opacity:1;stroke:none;stroke-width:332.897;stroke-opacity:1"
         d="m 192.60009,733.84793 -25.23054,218.96286 59.43214,3.62405 21.38124,-221.84796 z"
         id="path19979-6"
         sodipodi:nodetypes="ccccc" /><path
         style="display:inline;fill:#9edbe2;fill-opacity:1;stroke:none;stroke-width:332.897;stroke-opacity:1"
         d="m 176.23114,941.30302 45.0024,1.71546 20.1995,-196.09504 -44.37465,-0.3064 z"
         id="path19981-3"
         sodipodi:nodetypes="ccccc" /><path
         style="display:inline;fill:#3e4a53;fill-opacity:1;stroke:none;stroke-width:332.897;stroke-opacity:1"
         d="m 192.66476,818.39976 1.75139,0.0946 -3.45362,29.48381 -1.87621,0.0378 z"
         id="path19983-6"
         sodipodi:nodetypes="ccccc" /><path
         style="display:inline;fill:#3e4a53;fill-opacity:1;stroke:none;stroke-width:332.897;stroke-opacity:1"
         d="m 167.19516,817.77864 1.75141,0.0946 -3.45362,29.48381 -1.87623,0.0379 z"
         id="path19985-3"
         sodipodi:nodetypes="ccccc" /><path
         style="display:inline;fill:#454545;fill-opacity:1;stroke:none;stroke-width:332.897;stroke-opacity:1"
         d="m 191.13389,733.78134 h 1.5112 l -25.26002,219.30749 -2.38539,-0.0757 z"
         id="path36068-0"
         sodipodi:nodetypes="ccccc" /><path
         style="fill:#505b63;fill-opacity:1;stroke-width:332.897"
         d="m 126.13813,732.86516 6.84218,-5.16396 122.7601,2.48355 -7.50113,4.4583 z"
         id="path20358"
         sodipodi:nodetypes="ccccc" /><path
         style="fill:#85919d;fill-opacity:1;stroke-width:332.897"
         d="m 226.78335,956.3189 6.58173,-6.34116 22.21626,-219.75157 -7.43718,4.40478 z"
         id="path20360"
         sodipodi:nodetypes="ccccc" /></g><g
       id="g2901"
       inkscape:label="Tür1"><path
         style="display:inline;fill:#626f79;fill-opacity:1;stroke:none;stroke-width:332.897;stroke-opacity:1"
         d="m 300.55146,949.96633 65.59284,4.3488 25.97498,-219.38409 -65.11321,-0.95134 z"
         id="path2874"
         sodipodi:nodetypes="ccccc" /><path
         style="display:inline;fill:#9edbe2;fill-opacity:1;stroke:none;stroke-width:332.897;stroke-opacity:1"
         d="m 311.25275,936.75313 48.85284,3.32009 22.76626,-192.56559 -47.90411,-0.94756 z"
         id="path2876"
         sodipodi:nodetypes="ccccc" /><path
         style="display:inline;fill:#626f79;fill-opacity:1;stroke:none;stroke-width:332.897;stroke-opacity:1"
         d="m 393.54934,734.98969 -25.23054,218.96286 59.43214,3.62405 21.38124,-221.84796 z"
         id="path2878"
         sodipodi:nodetypes="ccccc" /><path
         style="display:inline;fill:#9edbe2;fill-opacity:1;stroke:none;stroke-width:332.897;stroke-opacity:1"
         d="m 377.18039,942.44478 45.0024,1.71546 20.1995,-196.09504 -44.37465,-0.3064 z"
         id="path2880"
         sodipodi:nodetypes="ccccc" /><path
         style="display:inline;fill:#3e4a53;fill-opacity:1;stroke:none;stroke-width:332.897;stroke-opacity:1"
         d="m 393.61401,819.54152 1.75139,0.0946 -3.45362,29.48381 -1.87621,0.0378 z"
         id="path2882"
         sodipodi:nodetypes="ccccc" /><path
         style="display:inline;fill:#3e4a53;fill-opacity:1;stroke:none;stroke-width:332.897;stroke-opacity:1"
         d="m 368.14441,818.9204 1.75141,0.0946 -3.45362,29.48381 -1.87623,0.0379 z"
         id="path2884"
         sodipodi:nodetypes="ccccc" /><path
         style="display:inline;fill:#454545;fill-opacity:1;stroke:none;stroke-width:332.897;stroke-opacity:1"
         d="m 392.08314,734.9231 h 1.5112 l -25.26002,219.30749 -2.38539,-0.0757 z"
         id="path2886"
         sodipodi:nodetypes="ccccc" /><path
         style="fill:#505b63;fill-opacity:1;stroke-width:332.897"
         d="m 327.08738,734.00692 6.84218,-5.16396 122.7601,2.48355 -7.50113,4.4583 z"
         id="path2888"
         sodipodi:nodetypes="ccccc" /><path
         style="fill:#85919d;fill-opacity:1;stroke-width:332.897"
         d="m 427.7326,957.46066 6.58173,-6.34116 22.21626,-219.75157 -7.43718,4.40478 z"
         id="path2890"
         sodipodi:nodetypes="ccccc" /></g></g></svg>
