<?xml version="1.0" encoding="UTF-8" standalone="no"?>
<!-- Created with Inkscape (http://www.inkscape.org/) -->

<svg
   version="1.1"
   id="svg366"
   width="1820"
   height="1080"
   viewBox="0 0 1820 1080"
   sodipodi:docname="Türe an der wand.svg"
   xml:space="preserve"
   inkscape:version="1.2 (dc2aedaf03, 2022-05-15)"
   xmlns:inkscape="http://www.inkscape.org/namespaces/inkscape"
   xmlns:sodipodi="http://sodipodi.sourceforge.net/DTD/sodipodi-0.dtd"
   xmlns="http://www.w3.org/2000/svg"
   xmlns:svg="http://www.w3.org/2000/svg"><defs
     id="defs370"><clipPath
       clipPathUnits="userSpaceOnUse"
       id="clipPath405"><rect
         style="fill:#73a721;stroke-width:722.63;stroke-opacity:0.847059"
         id="rect407"
         width="305.51752"
         height="202.72939"
         x="612.19415"
         y="0.058908526" /></clipPath><clipPath
       clipPathUnits="userSpaceOnUse"
       id="clipPath591"><rect
         style="fill:#73a721;stroke-width:3091.1;stroke-opacity:0.847059"
         id="rect593"
         width="95.501495"
         height="44.623138"
         x="305.92331"
         y="32.071438" /></clipPath><clipPath
       clipPathUnits="userSpaceOnUse"
       id="clipPath598"><rect
         style="fill:#73a721;stroke-width:7425.61;stroke-opacity:0.847059"
         id="rect600"
         width="20.83337"
         height="43.051361"
         x="285.08902"
         y="33.919376" /></clipPath><clipPath
       clipPathUnits="userSpaceOnUse"
       id="clipPath611"><rect
         style="fill:#73a721;stroke-width:188.146;stroke-opacity:0.847059"
         id="rect613"
         width="34.199432"
         height="14.068906"
         x="305.922"
         y="0.00018357387" /></clipPath><clipPath
       clipPathUnits="userSpaceOnUse"
       id="clipPath618"><rect
         style="fill:#73a721;stroke-width:179.092;stroke-opacity:0.847059"
         id="rect620"
         width="52.091164"
         height="14.206848"
         x="253.83025"
         y="0.00023493617" /></clipPath><clipPath
       clipPathUnits="userSpaceOnUse"
       id="clipPath640"><rect
         style="fill:#73a721;stroke-width:118.002;stroke-opacity:0.847059"
         id="rect642"
         width="56.717308"
         height="29.606951"
         x="555.12189"
         y="174.33873" /></clipPath><clipPath
       clipPathUnits="userSpaceOnUse"
       id="clipPath693"><rect
         style="fill:#73a721;stroke-width:126.956;stroke-opacity:0.847059"
         id="rect695"
         width="47.020348"
         height="29.430584"
         x="611.83887"
         y="174.51601" /></clipPath><clipPath
       clipPathUnits="userSpaceOnUse"
       id="clipPath706"><rect
         style="fill:#73a721;stroke-width:119.539;stroke-opacity:0.847059"
         id="rect708"
         width="141.89583"
         height="41.098003"
         x="305.92099"
         y="162.84804" /></clipPath><clipPath
       clipPathUnits="userSpaceOnUse"
       id="clipPath2008"><rect
         style="fill:#ffffff;fill-opacity:0.526596;stroke-width:121.554;stroke-opacity:0.847059"
         id="rect2010"
         width="155.3131"
         height="29.961973"
         x="352.20609"
         y="0" /></clipPath><clipPath
       clipPathUnits="userSpaceOnUse"
       id="clipPath2068"><rect
         style="fill:#ffffff;fill-opacity:0.345745;stroke-width:123.479;stroke-opacity:0.847059"
         id="rect2070"
         width="192.42435"
         height="24.855831"
         x="413.58405"
         y="179.08293" /></clipPath><clipPath
       clipPathUnits="userSpaceOnUse"
       id="clipPath2141"><rect
         style="fill:#ffffff;fill-opacity:0.345745;stroke-width:119.454;stroke-opacity:0.847059"
         id="rect2143"
         width="69.667099"
         height="21.76935"
         x="542.17157"
         y="103.27444" /></clipPath><clipPath
       clipPathUnits="userSpaceOnUse"
       id="clipPath2200"><rect
         style="fill:#ffffff;fill-opacity:0.99734;stroke-width:150.109;stroke-opacity:0.847059"
         id="rect2202"
         width="61.250336"
         height="23.737354"
         x="611.83893"
         y="103.00005" /></clipPath><clipPath
       clipPathUnits="userSpaceOnUse"
       id="clipPath3601"><rect
         style="fill:#ffffff;fill-opacity:0.518617;stroke-width:82.9117;stroke-opacity:0.847059"
         id="rect3603"
         width="59.702045"
         height="31.872694"
         x="434.70868"
         y="44.160957" /></clipPath><clipPath
       clipPathUnits="userSpaceOnUse"
       id="clipPath405-4"><rect
         style="fill:#73a721;stroke-width:722.63;stroke-opacity:0.847059"
         id="rect407-9"
         width="305.51752"
         height="202.72939"
         x="612.19415"
         y="0.058908526" /></clipPath><clipPath
       clipPathUnits="userSpaceOnUse"
       id="clipPath591-4"><rect
         style="fill:#73a721;stroke-width:3091.1;stroke-opacity:0.847059"
         id="rect593-9"
         width="95.501495"
         height="44.623138"
         x="305.92331"
         y="32.071438" /></clipPath><clipPath
       clipPathUnits="userSpaceOnUse"
       id="clipPath598-5"><rect
         style="fill:#73a721;stroke-width:7425.61;stroke-opacity:0.847059"
         id="rect600-9"
         width="20.83337"
         height="43.051361"
         x="285.08902"
         y="33.919376" /></clipPath><clipPath
       clipPathUnits="userSpaceOnUse"
       id="clipPath611-3"><rect
         style="fill:#73a721;stroke-width:188.146;stroke-opacity:0.847059"
         id="rect613-5"
         width="34.199432"
         height="14.068906"
         x="305.922"
         y="0.00018357387" /></clipPath><clipPath
       clipPathUnits="userSpaceOnUse"
       id="clipPath618-4"><rect
         style="fill:#73a721;stroke-width:179.092;stroke-opacity:0.847059"
         id="rect620-7"
         width="52.091164"
         height="14.206848"
         x="253.83025"
         y="0.00023493617" /></clipPath><clipPath
       clipPathUnits="userSpaceOnUse"
       id="clipPath640-1"><rect
         style="fill:#73a721;stroke-width:118.002;stroke-opacity:0.847059"
         id="rect642-1"
         width="56.717308"
         height="29.606951"
         x="555.12189"
         y="174.33873" /></clipPath><clipPath
       clipPathUnits="userSpaceOnUse"
       id="clipPath693-2"><rect
         style="fill:#73a721;stroke-width:126.956;stroke-opacity:0.847059"
         id="rect695-7"
         width="47.020348"
         height="29.430584"
         x="611.83887"
         y="174.51601" /></clipPath><clipPath
       clipPathUnits="userSpaceOnUse"
       id="clipPath706-9"><rect
         style="fill:#73a721;stroke-width:119.539;stroke-opacity:0.847059"
         id="rect708-8"
         width="141.89583"
         height="41.098003"
         x="305.92099"
         y="162.84804" /></clipPath><clipPath
       clipPathUnits="userSpaceOnUse"
       id="clipPath2008-0"><rect
         style="fill:#ffffff;fill-opacity:0.526596;stroke-width:121.554;stroke-opacity:0.847059"
         id="rect2010-6"
         width="155.3131"
         height="29.961973"
         x="352.20609"
         y="0" /></clipPath><clipPath
       clipPathUnits="userSpaceOnUse"
       id="clipPath2068-9"><rect
         style="fill:#ffffff;fill-opacity:0.345745;stroke-width:123.479;stroke-opacity:0.847059"
         id="rect2070-6"
         width="192.42435"
         height="24.855831"
         x="413.58405"
         y="179.08293" /></clipPath><clipPath
       clipPathUnits="userSpaceOnUse"
       id="clipPath2141-5"><rect
         style="fill:#ffffff;fill-opacity:0.345745;stroke-width:119.454;stroke-opacity:0.847059"
         id="rect2143-1"
         width="69.667099"
         height="21.76935"
         x="542.17157"
         y="103.27444" /></clipPath><clipPath
       clipPathUnits="userSpaceOnUse"
       id="clipPath2200-1"><rect
         style="fill:#ffffff;fill-opacity:0.99734;stroke-width:150.109;stroke-opacity:0.847059"
         id="rect2202-9"
         width="61.250336"
         height="23.737354"
         x="611.83893"
         y="103.00005" /></clipPath><clipPath
       clipPathUnits="userSpaceOnUse"
       id="clipPath3601-0"><rect
         style="fill:#ffffff;fill-opacity:0.518617;stroke-width:82.9117;stroke-opacity:0.847059"
         id="rect3603-3"
         width="59.702045"
         height="31.872694"
         x="434.70868"
         y="44.160957" /></clipPath></defs><sodipodi:namedview
     id="namedview368"
     pagecolor="#ffffff"
     bordercolor="#999999"
     borderopacity="1"
     inkscape:showpageshadow="0"
     inkscape:pageopacity="0"
     inkscape:pagecheckerboard="0"
     inkscape:deskcolor="#d1d1d1"
     showgrid="false"
     showguides="false"
     inkscape:zoom="0.35355339"
     inkscape:cx="816.00122"
     inkscape:cy="526.08744"
     inkscape:window-width="1827"
     inkscape:window-height="1046"
     inkscape:window-x="-11"
     inkscape:window-y="-11"
     inkscape:window-maximized="1"
     inkscape:current-layer="g372" /><g
     inkscape:groupmode="layer"
     inkscape:label="Image"
     id="g372"><path
       style="fill:#b7b9b6;fill-opacity:1;stroke:none;stroke-width:0.759963;stroke-miterlimit:3.8;stroke-dasharray:none;stroke-opacity:1;paint-order:stroke fill markers"
       d="m 0.82071361,-0.24264291 1819.27188639,0 L 1818.5857,901.26908 2.8138968,893.32625 Z"
       id="path47657"
       sodipodi:nodetypes="ccccc" /><g
       id="g36944"
       inkscape:label="Zahlen"
       transform="matrix(0.99658169,0,0,0.99285435,2.82966,-0.21749968)"><path
         style="fill:#ece3d3;fill-opacity:1;stroke:none;stroke-width:0.764;stroke-miterlimit:3.8;stroke-dasharray:none;stroke-opacity:1;paint-order:stroke fill markers"
         d="m 655.0948,329.46968 48.11562,0.58252 0.1165,49.39715 -48.46513,-0.69901 z"
         id="path41746"
         transform="translate(-0.01578959,0.21731872)" /><path
         style="fill:#a2ab6f;fill-opacity:1;stroke:none;stroke-width:0.510007;stroke-miterlimit:3.8;stroke-dasharray:none;stroke-opacity:1;paint-order:stroke fill markers"
         d="m 655.5608,329.41144 47.00885,0.21414 -0.23301,13.00891 -46.60109,-0.32121 z"
         id="path41463"
         sodipodi:nodetypes="ccccc"
         transform="translate(-0.01578959,0.21731872)" /><path
         style="fill:none;fill-opacity:1;stroke:#4b5525;stroke-width:0.764;stroke-miterlimit:3.8;stroke-dasharray:none;stroke-opacity:1;paint-order:stroke fill markers"
         d="m 673.10033,336.24436 1.77908,-0.87851 0.12116,6.71676 -1.11834,-0.008 -0.0362,-4.80964 -0.68147,-0.24506 z"
         id="path33037-8"
         sodipodi:nodetypes="ccccccc"
         transform="translate(-12.480549,-2.0594966)" /><rect
         style="fill:none;fill-opacity:1;stroke:#4b5525;stroke-width:0.727;stroke-miterlimit:3.8;stroke-dasharray:none;stroke-opacity:1;paint-order:stroke fill markers"
         id="rect33147-0"
         width="2.5922167"
         height="6.0769205"
         x="679.67194"
         y="335.64005"
         rx="1.1328934"
         ry="0.95489675"
         transform="translate(-12.480549,-2.0594966)" /><path
         style="fill:none;fill-opacity:0.927184;stroke:#4b5525;stroke-width:0.732;stroke-miterlimit:3.8;stroke-dasharray:none;stroke-opacity:1;paint-order:stroke fill markers"
         d="m 671.80726,334.58636 c 0.0943,-0.18181 0.20818,-0.36126 0.36277,-0.50139 0.1606,-0.14557 0.35511,-0.2678 0.56627,-0.334 0.27053,-0.0848 0.56972,-0.10323 0.85208,-0.0667 0.29652,0.0384 0.58998,0.14231 0.84193,0.29508 0.23254,0.14101 0.43393,0.33608 0.586,0.55417 0.19302,0.27682 0.40984,0.59251 0.39066,0.9236 -0.0173,0.29862 -0.23788,0.56687 -0.44647,0.79166 -0.15832,0.17063 -0.36854,0.2997 -0.586,0.39583 -0.0528,0.0233 -0.14045,-0.009 -0.16912,0.0416 -0.0476,0.0838 0.0333,0.19482 0.0845,0.27645 0.0272,0.0433 0.0702,0.0756 0.11249,0.10419 0.15343,0.10371 0.36401,0.11817 0.50228,0.23749 0.23354,0.20155 0.41159,0.47522 0.49982,0.76234 0.0838,0.27279 0.10482,0.58276 0.01,0.85217 -0.0738,0.20863 -0.2627,0.36597 -0.42563,0.52298 -0.12515,0.12059 -0.2712,0.22238 -0.41857,0.31666 -0.22941,0.14676 -0.45844,0.31133 -0.72064,0.38494 -0.25701,0.0721 -0.53759,0.0967 -0.79956,0.0454 -0.20739,-0.0406 -0.39232,-0.16189 -0.57265,-0.2721 -0.14344,-0.0877 -0.3006,-0.17136 -0.40039,-0.30664 -0.15023,-0.20365 -0.4395,-0.53066 -0.26313,-0.71214 0.23973,-0.24667 0.55233,-0.002 0.97775,0.32988 0.13629,0.10639 0.36358,0.14699 0.55204,0.13107 0.22109,-0.0187 0.43946,-0.12154 0.61267,-0.26022 0.1387,-0.11105 0.28185,-0.26083 0.31065,-0.43315 0.0372,-0.22242 -0.0743,-0.45695 -0.19903,-0.64878 -0.0999,-0.15376 -0.2706,-0.25546 -0.41857,-0.36944 -0.21209,-0.16341 -0.46725,-0.27463 -0.66971,-0.44861 -0.14934,-0.12833 -0.43096,-0.24559 -0.39545,-0.43343 0.0527,-0.27873 0.55251,-0.23389 0.78611,-0.41101 0.25192,-0.191 0.53303,-0.39862 0.64181,-0.68611 0.0847,-0.22377 0.0994,-0.50755 -0.0279,-0.71249 -0.13832,-0.2228 -0.42724,-0.39865 -0.70042,-0.40251 -0.2817,-0.004 -0.49761,0.24982 -0.73509,0.39451 -0.16713,0.10182 -0.28954,0.30989 -0.48395,0.3324 -0.16856,0.0195 -0.40858,-0.0283 -0.47437,-0.18472 -0.0715,-0.17006 0.15696,-0.35859 0.2172,-0.50906 0.0619,-0.15456 -4.1e-4,6e-5 -4.1e-4,6e-5 z"
         id="path35330"
         sodipodi:nodetypes="aaaaaaaaaaaaaaaaaaaaaasaaaaaaaaaaaaaasaa" /><path
         style="fill:#4b5525;fill-opacity:1;stroke:none;stroke-width:0.532;stroke-miterlimit:3.8;stroke-dasharray:none;stroke-opacity:1;paint-order:stroke fill markers"
         id="path40372"
         sodipodi:type="arc"
         sodipodi:cx="664.93927"
         sodipodi:cy="339.72192"
         sodipodi:rx="0.58251357"
         sodipodi:ry="0.58251357"
         sodipodi:start="6.2676885"
         sodipodi:end="6.2556446"
         sodipodi:arc-type="slice"
         d="m 665.52171,339.7129 a 0.58251357,0.58251357 0 0 1 -0.57166,0.59144 0.58251357,0.58251357 0 0 1 -0.59316,-0.56988 0.58251357,0.58251357 0 0 1 0.56809,-0.59487 0.58251357,0.58251357 0 0 1 0.59658,0.56629 l -0.58229,0.016 z"
         transform="translate(-0.01578959,0.21731872)" /><path
         style="fill:#a2ab6f;fill-opacity:1;stroke:none;stroke-width:0.462897;stroke-miterlimit:3.8;stroke-dasharray:none;stroke-opacity:1;paint-order:stroke fill markers"
         d="m 655.82293,367.59521 47.00885,0.17641 v 11.1826 l -46.8341,-0.73062 z"
         id="path41463-9"
         sodipodi:nodetypes="ccccc"
         transform="translate(-0.01578959,0.21731872)" /></g><g
       id="g27655"
       inkscape:label="Tür"
       transform="matrix(0.99658169,0,0,0.99285435,2.6497278,-0.16531625)"
       style="fill:none;stroke:none;stroke-opacity:1"><path
         style="fill:#d5cdb9;fill-opacity:1;stroke:none;stroke-width:0.672;stroke-miterlimit:3.8;stroke-opacity:1;paint-order:stroke fill markers"
         d="m 736.53019,547.32978 2.44655,0.1165 -0.233,11.06776 h -2.21355 z"
         id="path13416" /><path
         style="fill:#d5cdb9;fill-opacity:1;stroke:none;stroke-width:0.672;stroke-miterlimit:3.8;stroke-opacity:1;paint-order:stroke fill markers"
         d="m 735.71467,574.1254 3.14558,-0.1165 c 0,0 0.58251,11.53377 -0.23301,11.53377 -0.81552,0 -3.02907,-0.11651 -3.02907,-0.11651 z"
         id="path14783" /><path
         style="fill:#070708;fill-opacity:1;stroke:none;stroke-width:0.672;stroke-miterlimit:3.8;stroke-opacity:1;paint-order:stroke fill markers"
         d="m 736.2247,895.55078 1.55107,-0.11651 0.92446,-309.96058 h -2.38902 z"
         id="path6504"
         sodipodi:nodetypes="ccccc" /><path
         style="fill:#535a69;fill-opacity:1;stroke:none;stroke-width:0.672;stroke-miterlimit:3.8;stroke-opacity:1;paint-order:stroke fill markers"
         d="m 726.96697,167.84389 342.98413,7.3431 -10.6125,717.02571 -8.5675,0.32952 8.2792,-704.94508 -321.94064,-5.99314 -0.53546,715.55149 -10.42106,-0.0412 -1.19451,-728.69108 z"
         id="path24414"
         sodipodi:nodetypes="cccccccccc" /><path
         style="fill:#000000;fill-opacity:1;stroke:none;stroke-width:0.672;stroke-miterlimit:3.8;stroke-opacity:1;paint-order:stroke fill markers"
         d="m 736.45251,895.26399 -0.10566,2.02849 310.98625,-2.45691 0.3619,-2.32409 z"
         id="path5383"
         sodipodi:nodetypes="ccccc" /><path
         style="fill:#000000;fill-opacity:1;stroke:none;stroke-width:0.672;stroke-miterlimit:3.8;stroke-opacity:1;paint-order:stroke fill markers"
         d="m 737.80162,181.64517 320.92618,5.94549 -0.5825,52.96853 -2.2643,0.0724 0.781,-51.23028 -234.72622,-4.02843 -83.88742,-1.40278 z"
         id="path6510"
         sodipodi:nodetypes="cccccccc" /><path
         style="fill:#d7d7d9;fill-opacity:1;stroke:none;stroke-width:0.672;stroke-miterlimit:3.8;stroke-opacity:1;paint-order:stroke fill markers"
         d="m 738.60784,184.00593 318.12286,5.17408 -9.0335,644.52864 -309.7484,1.12161 z"
         id="path26265"
         sodipodi:nodetypes="ccccc" /><path
         style="fill:#8c8c8e;fill-opacity:1;stroke:none;stroke-width:0.686919;stroke-miterlimit:3.8;stroke-opacity:1;paint-order:stroke fill markers"
         d="m 737.76836,834.83197 309.90894,-1.12413 v 58.91887 l -310.18838,2.84242 z"
         id="path601"
         sodipodi:nodetypes="ccccc" /><path
         style="fill:#000000;fill-opacity:1;stroke:none;stroke-width:0.672;stroke-miterlimit:3.8;stroke-opacity:1;paint-order:stroke fill markers"
         d="m 736.72311,558.42311 -0.0924,16.20228 1.71584,-0.0242 0.27127,-16.16816 z"
         id="path6506"
         sodipodi:nodetypes="ccccc" /><path
         style="fill:#000000;fill-opacity:1;stroke:none;stroke-width:0.672;stroke-miterlimit:3.8;stroke-opacity:1;paint-order:stroke fill markers"
         d="m 736.83626,547.42918 1.49283,0.0628 0.19103,-365.69206 -1.56108,-0.25716 z"
         id="path6508"
         sodipodi:nodetypes="ccccc" /><path
         style="fill:none;fill-opacity:1;stroke:none;stroke-width:0.264;stroke-miterlimit:3.8;stroke-dasharray:none;stroke-opacity:1;paint-order:stroke fill markers"
         d="m 660.57859,334.10248 1.55254,-0.1165 -0.0642,5.87237 -0.70644,0.0744 0.0874,-4.68607 -0.80504,-0.36863 z"
         id="path33037"
         sodipodi:nodetypes="ccccccc" /><rect
         style="fill:none;fill-opacity:1;stroke:none;stroke-width:0.572;stroke-miterlimit:3.8;stroke-dasharray:none;stroke-opacity:1;paint-order:stroke fill markers"
         id="rect33147"
         width="2.7802999"
         height="6.6727633"
         x="667.11212"
         y="333.0412"
         rx="1.2150927"
         ry="1.0485245" /></g><g
       id="g24356"
       inkscape:label="Türschloss"
       transform="matrix(0.99658169,0,0,0.99285435,2.8139243,-0.00173384)"><rect
         style="fill:#8c8c8e;fill-opacity:1;stroke-width:0.672;stroke-miterlimit:3.8;paint-order:stroke fill markers"
         id="rect14837"
         width="16.776411"
         height="16.42688"
         x="749.13245"
         y="580.10693"
         rx="7.5144253"
         ry="8.2134399" /><path
         style="fill:#d5cdb9;fill-opacity:1;stroke-width:0.672;stroke-miterlimit:3.8;paint-order:stroke fill markers"
         d="m 756,592.64073 2.71854,0.0824 0.16475,-5.14874 0.32953,-0.45309 0.65903,-0.24714 c 0,0 0.23923,-0.42434 0.28833,-0.65904 0.0478,-0.22846 0.0303,-0.46879 0,-0.70022 -0.0554,-0.42268 -0.11026,-0.87011 -0.32952,-1.2357 -0.14489,-0.24159 -0.37117,-0.44058 -0.61784,-0.57666 -0.47239,-0.26061 -1.02868,-0.35543 -1.56522,-0.4119 -0.28707,-0.0302 -0.58706,-0.0368 -0.86499,0.0412 -0.33129,0.0929 -0.65523,0.25889 -0.90618,0.49428 -0.22504,0.21108 -0.37777,0.49691 -0.49428,0.78261 -0.14846,0.36406 -0.26888,0.76075 -0.24714,1.15332 0.0144,0.26011 0.0967,0.52875 0.24714,0.74141 0.0904,0.12779 0.25611,0.18168 0.37071,0.28833 0.27044,0.25169 0.74116,0.61969 0.74142,0.8238 0.002,1.54864 -0.16476,5.18993 -0.16476,5.18993 z"
         id="path23106"
         sodipodi:nodetypes="cccccaaaaaaaaaaascc" /></g><g
       id="g24352"
       inkscape:label="Türklinke"
       transform="matrix(0.99658169,0,0,0.99285435,2.8139243,-0.00173384)"><rect
         style="fill:#8c8c8e;fill-opacity:1;stroke-width:0.726272;stroke-miterlimit:3.8;paint-order:stroke fill markers"
         id="rect14837-1"
         width="17.941439"
         height="17.941416"
         x="748.94775"
         y="553.86395"
         rx="8.0362597"
         ry="8.9707079" /><path
         style="fill:#8c8c8e;fill-opacity:1;stroke-width:0.672;stroke-miterlimit:3.8;paint-order:stroke fill markers"
         d="m 757.30887,560.91941 6.20877,-0.0895 c 0,0 6.79601,-0.008 10.21811,-0.027 7.10885,-0.0388 13.56301,0.11492 20.33972,0.44481 1.01359,0.0493 1.45564,-0.89086 1.9123,-1.49334 0.42807,-0.56476 1.64908,-0.1996 2.09705,0.34951 0.66327,0.81301 0.14343,2.12903 -0.1165,3.14557 -0.12907,0.50478 -0.28714,1.07896 -0.69902,1.39804 -0.87911,0.68104 -2.15204,0.6323 -3.26208,0.69901 -11.58746,0.6964 -34.6013,0.34951 -34.6013,0.34951 l -2.56306,-0.23301 z"
         id="path17655"
         sodipodi:nodetypes="ccsssaaasccc" /></g><path
       style="fill:#000101;fill-opacity:1;stroke-width:0.668449;stroke-miterlimit:3.8;paint-order:stroke fill markers"
       d="m 1046.7754,886.20597 h 3.1198 l 7.0193,-594.82654 -2.9144,-0.0818 -6.3333,474.02081 z"
       id="path27721"
       sodipodi:nodetypes="cccccc" /><g
       id="g27863"
       inkscape:label="TürHalter"
       transform="matrix(1.0905407,0,0,0.99285435,-96.20795,-0.00173384)"><path
         style="fill:#c7c8c6;fill-opacity:1;stroke-width:0.672;stroke-miterlimit:3.8;paint-order:stroke fill markers"
         d="m 1050.738,741.42331 h 3.1456 v 50.79518 l -2.0899,1.15248 -2.1042,-1.38548 z"
         id="path11441"
         sodipodi:nodetypes="cccccc" /><path
         style="fill:#494949;fill-opacity:1;stroke-width:0.672;stroke-miterlimit:3.8;paint-order:stroke fill markers"
         d="m 1049.107,741.77281 h 1.5145 l -0.8155,50.67869 -1.165,-1.16503 z"
         id="path12601" /></g><g
       id="g27871"
       inkscape:label="Türhalter"
       transform="matrix(0.99658169,0,0,0.99285435,2.8139243,-0.00173384)"><path
         style="fill:#615443;fill-opacity:1;stroke-width:0.672;stroke-miterlimit:3.8;paint-order:stroke fill markers"
         d="m 1054.0162,241.00936 2.0595,-0.8238 1.4004,-0.0824 -0.7208,53.48512 -1.4874,-0.23369 -1.6431,0.0483 z"
         id="path9522"
         sodipodi:nodetypes="ccccccc" /><path
         style="fill:#e9ddcf;fill-opacity:1;stroke-width:0.672;stroke-miterlimit:3.8;paint-order:stroke fill markers"
         d="m 1057.2773,240.26794 1.4829,-0.49428 1.7299,0.32952 0.4119,0.32952 -1.2357,53.38215 -1.8947,-0.32952 -1.2357,0.0824 z"
         id="path7741" /></g><path
       style="fill:#ed6162;fill-opacity:1;stroke-width:0.668449;stroke-miterlimit:3.8;paint-order:stroke fill markers"
       d="m 1011.4732,189.67207 42.4448,0.32718 -0.821,45.88487 -42.1165,-0.40895 z"
       id="path31127"
       sodipodi:nodetypes="ccccc" /><g
       id="g27892"
       inkscape:label="FeuerLöscher Zeichen"
       transform="matrix(0.99658169,0,0,0.99285435,3.1423171,0.16184857)"
       style="fill:#eed2c0;fill-opacity:1"><path
         style="fill:#eed2c0;fill-opacity:1;stroke-width:0.672;stroke-miterlimit:3.8;paint-order:stroke fill markers"
         d="m 1028.8355,203.12249 -1.7475,-1.22328 -0.1165,-1.86404 1.1067,-1.22328 3.3204,-0.99027 h 3.1455 l 3.2621,1.39803 3.0291,2.0388 1.631,2.33005 0.5243,4.54361 -0.7573,4.3106 -2.5048,3.78634 -3.2621,4.77661 -6.8154,5.30087 1.7476,2.27181 2.2135,-0.87377 3.9029,-2.38831 2.6213,-2.73781 3.4951,-4.42711 c 0,0 2.1553,-2.56306 2.3883,-3.14557 0.233,-0.58251 0.8737,-5.00962 0.8737,-5.00962 v -4.36885 l -0.7572,-3.20383 -3.6116,-4.19409 -2.8543,-1.98055 -3.3786,-0.52426 -4.0776,-0.0582 h -2.6796 l -2.33,0.69901 -2.6213,2.38831 -0.6408,1.92229 0.466,1.9223 1.5145,1.92229 1.9461,1.07387 1.3743,-0.60786 z"
         id="path27878"
         sodipodi:nodetypes="cccccccccccccccccccscccccccccccccccc" /><path
         style="fill:#eed2c0;fill-opacity:1;stroke-width:0.672;stroke-miterlimit:3.8;paint-order:stroke fill markers"
         d="m 1027.5675,201.03574 -0.014,-0.84318 4.1462,-0.0141 0.103,0.95262 z"
         id="path27880"
         sodipodi:nodetypes="ccccc" /><path
         style="fill:#eed2c0;fill-opacity:1;stroke-width:1.52409;stroke-miterlimit:3.8;paint-order:stroke fill markers"
         d="m 1028.4795,200.95689 -0.2265,6.45436 h 2.3536 l -0.046,-6.46465 z"
         id="path27882"
         sodipodi:nodetypes="ccccc" /><path
         style="fill:#eed2c0;fill-opacity:1;stroke-width:0.672;stroke-miterlimit:3.8;paint-order:stroke fill markers"
         d="m 1028.4278,204.87003 -2.9709,1.33978 -1.5728,1.45629 -0.5242,1.10677 -0.4078,0.75727 -0.3495,23.00929 13.0483,-0.1165 -0.058,-5.41738 0.233,-17.88317 -1.0485,-1.22328 -2.4466,-1.92229 -1.2815,-0.64077 -0.5243,-0.34951 -0.5753,2.19899 2.0388,0.81552 1.8568,1.58735 v 19.98022 l -8.7377,-0.1165 -0.1747,-3.78634 2.4465,-0.0583 0.058,-14.03858 -2.3883,-0.1165 0.1747,-1.39804 1.2233,-1.16502 2.4101,-1.52182 z"
         id="path27886"
         sodipodi:nodetypes="cccccccccccccccccccccccccc" /></g><g
       id="g47599"
       inkscape:label="Lichtschalter"
       transform="matrix(0.99658169,0,0,0.99285435,2.8139243,-0.00173384)"><path
         style="fill:#313a45;fill-opacity:1;stroke:none;stroke-width:0.764;stroke-miterlimit:3.8;stroke-dasharray:none;stroke-opacity:1;paint-order:stroke fill markers"
         d="m 663.98169,539.09382 25.04348,0.98856 -0.98856,26.03204 -24.38444,-0.32952 z"
         id="path43813"
         sodipodi:nodetypes="ccccc" /><path
         style="fill:#232a32;fill-opacity:1;stroke:none;stroke-width:0.764;stroke-miterlimit:3.8;stroke-dasharray:none;stroke-opacity:1;paint-order:stroke fill markers"
         d="m 674.69108,540.08238 -0.16476,25.70252 h 2.96567 l -0.32952,-26.03204 z"
         id="path43815" /></g><g
       id="g47593"
       inkscape:label="Steckdose"
       transform="matrix(0.99658169,0,0,0.99285435,2.8139243,-0.00173384)"><path
         style="fill:#232a32;fill-opacity:1;stroke:none;stroke-width:0.764;stroke-miterlimit:3.8;stroke-dasharray:none;stroke-opacity:1;paint-order:stroke fill markers"
         id="path44247"
         sodipodi:type="arc"
         sodipodi:cx="674.85583"
         sodipodi:cy="792"
         sodipodi:rx="6.0961099"
         sodipodi:ry="5.9313502"
         sodipodi:start="6.2676885"
         sodipodi:end="6.266551"
         sodipodi:arc-type="slice"
         d="m 680.95121,791.90809 a 6.0961099,5.9313502 0 0 1 -5.99918,6.02252 6.0961099,5.9313502 0 0 1 -6.19152,-5.83532 6.0961099,5.9313502 0 0 1 5.99566,-6.02585 6.0961099,5.9313502 0 0 1 6.19493,5.8319 L 674.85583,792 Z" /><path
         style="fill:#000000;fill-opacity:1;stroke:none;stroke-width:0.764;stroke-miterlimit:3.8;stroke-dasharray:none;stroke-opacity:1;paint-order:stroke fill markers"
         id="path44249-3"
         sodipodi:type="arc"
         sodipodi:cx="676.85052"
         sodipodi:cy="791.86041"
         sodipodi:rx="0.85469109"
         sodipodi:ry="0.94736844"
         sodipodi:start="6.2676885"
         sodipodi:end="6.2556446"
         sodipodi:arc-type="slice"
         d="m 677.70511,791.84573 a 0.85469109,0.94736844 0 0 1 -0.83877,0.96189 0.85469109,0.94736844 0 0 1 -0.87031,-0.92682 0.85469109,0.94736844 0 0 1 0.83353,-0.96747 0.85469109,0.94736844 0 0 1 0.87533,0.92099 l -0.85437,0.0261 z" /><path
         style="fill:#000000;fill-opacity:1;stroke:none;stroke-width:0.764;stroke-miterlimit:3.8;stroke-dasharray:none;stroke-opacity:1;paint-order:stroke fill markers"
         id="path44249"
         sodipodi:type="arc"
         sodipodi:cx="672.32245"
         sodipodi:cy="791.85339"
         sodipodi:rx="0.85469109"
         sodipodi:ry="0.94736844"
         sodipodi:start="6.2676885"
         sodipodi:end="6.2556446"
         sodipodi:arc-type="slice"
         d="m 673.17704,791.83871 a 0.85469109,0.94736844 0 0 1 -0.83877,0.96189 0.85469109,0.94736844 0 0 1 -0.87031,-0.92682 0.85469109,0.94736844 0 0 1 0.83353,-0.96747 0.85469109,0.94736844 0 0 1 0.87533,0.921 l -0.85437,0.0261 z" /><path
         style="fill:#313a45;fill-opacity:1;stroke:none;stroke-width:0.764;stroke-miterlimit:3.8;stroke-dasharray:none;stroke-opacity:1;paint-order:stroke fill markers"
         d="m 661.34554,778.65446 h 25.04348 l -0.65904,27.0206 -23.7254,-0.65904 z"
         id="path42239"
         sodipodi:nodetypes="ccccc" /></g><path
       style="fill:#192839;fill-opacity:1;stroke:none;stroke-width:0.759963;stroke-miterlimit:3.8;stroke-dasharray:none;stroke-opacity:1;paint-order:stroke fill markers"
       d="M -1.4142411,885.99046 1819.3664,889.18229 c 0,0 1.3187,184.84211 1.3187,190.45861 0,5.6165 -1817.8808717,0.1165 -1817.8808717,0.1165 z"
       id="path44641"
       sodipodi:nodetypes="ccscc"
       inkscape:label="Boden" /></g></svg>
