<?xml version="1.0" encoding="UTF-8" standalone="no"?>
<!-- Created with Inkscape (http://www.inkscape.org/) -->

<svg
   width="305.923mm"
   height="203.94701mm"
   viewBox="0 0 305.923 203.94701"
   version="1.1"
   id="svg5"
   xml:space="preserve"
   inkscape:version="1.2 (dc2aeda, 2022-05-15)"
   sodipodi:docname="Wolken Hintergrund.svg"
   xmlns:inkscape="http://www.inkscape.org/namespaces/inkscape"
   xmlns:sodipodi="http://sodipodi.sourceforge.net/DTD/sodipodi-0.dtd"
   xmlns:xlink="http://www.w3.org/1999/xlink"
   xmlns="http://www.w3.org/2000/svg"
   xmlns:svg="http://www.w3.org/2000/svg"><sodipodi:namedview
     id="namedview7"
     pagecolor="#ffffff"
     bordercolor="#000000"
     borderopacity="0.25"
     inkscape:showpageshadow="2"
     inkscape:pageopacity="0.0"
     inkscape:pagecheckerboard="0"
     inkscape:deskcolor="#d1d1d1"
     inkscape:document-units="mm"
     showgrid="false"
     inkscape:zoom="0.38926778"
     inkscape:cx="516.35407"
     inkscape:cy="521.49192"
     inkscape:window-width="1440"
     inkscape:window-height="900"
     inkscape:window-x="0"
     inkscape:window-y="0"
     inkscape:window-maximized="0"
     inkscape:current-layer="layer1" /><defs
     id="defs2"><linearGradient
       inkscape:collect="always"
       id="linearGradient3628"><stop
         style="stop-color:#ffffff;stop-opacity:0;"
         offset="0"
         id="stop3626" /><stop
         style="stop-color:#ffffff;stop-opacity:0.70333326;"
         offset="1"
         id="stop3624" /></linearGradient><linearGradient
       inkscape:collect="always"
       id="linearGradient3620"><stop
         style="stop-color:#ffffff;stop-opacity:1;"
         offset="0.24115044"
         id="stop3616" /><stop
         style="stop-color:#ffffff;stop-opacity:0;"
         offset="1"
         id="stop3618" /></linearGradient><linearGradient
       inkscape:collect="always"
       id="linearGradient1426"><stop
         style="stop-color:#ffffff;stop-opacity:0.72000003;"
         offset="0.34513274"
         id="stop1422" /><stop
         style="stop-color:#ffffff;stop-opacity:0;"
         offset="0.9181416"
         id="stop1424" /></linearGradient><linearGradient
       inkscape:collect="always"
       id="linearGradient1390"><stop
         style="stop-color:#ffffff;stop-opacity:0;"
         offset="0.10619469"
         id="stop1388" /><stop
         style="stop-color:#ffffff;stop-opacity:1;"
         offset="0.76327431"
         id="stop1386" /></linearGradient><linearGradient
       inkscape:collect="always"
       id="linearGradient1374"><stop
         style="stop-color:#ffffff;stop-opacity:0.64666665;"
         offset="0.05309734"
         id="stop1370" /><stop
         style="stop-color:#ffffff;stop-opacity:0.08666667;"
         offset="0.40929201"
         id="stop1372" /></linearGradient><clipPath
       clipPathUnits="userSpaceOnUse"
       id="clipPath405"><rect
         style="fill:#73a721;stroke-width:722.63;stroke-opacity:0.847059"
         id="rect407"
         width="305.51752"
         height="202.72939"
         x="612.19415"
         y="0.058908526" /></clipPath><clipPath
       clipPathUnits="userSpaceOnUse"
       id="clipPath591"><rect
         style="fill:#73a721;stroke-width:3091.1;stroke-opacity:0.847059"
         id="rect593"
         width="95.501495"
         height="44.623138"
         x="305.92331"
         y="32.071438" /></clipPath><clipPath
       clipPathUnits="userSpaceOnUse"
       id="clipPath598"><rect
         style="fill:#73a721;stroke-width:7425.61;stroke-opacity:0.847059"
         id="rect600"
         width="20.83337"
         height="43.051361"
         x="285.08902"
         y="33.919376" /></clipPath><clipPath
       clipPathUnits="userSpaceOnUse"
       id="clipPath611"><rect
         style="fill:#73a721;stroke-width:188.146;stroke-opacity:0.847059"
         id="rect613"
         width="34.199432"
         height="14.068906"
         x="305.922"
         y="0.00018357387" /></clipPath><clipPath
       clipPathUnits="userSpaceOnUse"
       id="clipPath618"><rect
         style="fill:#73a721;stroke-width:179.092;stroke-opacity:0.847059"
         id="rect620"
         width="52.091164"
         height="14.206848"
         x="253.83025"
         y="0.00023493617" /></clipPath><clipPath
       clipPathUnits="userSpaceOnUse"
       id="clipPath640"><rect
         style="fill:#73a721;stroke-width:118.002;stroke-opacity:0.847059"
         id="rect642"
         width="56.717308"
         height="29.606951"
         x="555.12189"
         y="174.33873" /></clipPath><clipPath
       clipPathUnits="userSpaceOnUse"
       id="clipPath693"><rect
         style="fill:#73a721;stroke-width:126.956;stroke-opacity:0.847059"
         id="rect695"
         width="47.020348"
         height="29.430584"
         x="611.83887"
         y="174.51601" /></clipPath><clipPath
       clipPathUnits="userSpaceOnUse"
       id="clipPath706"><rect
         style="fill:#73a721;stroke-width:119.539;stroke-opacity:0.847059"
         id="rect708"
         width="141.89583"
         height="41.098003"
         x="305.92099"
         y="162.84804" /></clipPath><linearGradient
       inkscape:collect="always"
       xlink:href="#linearGradient1374"
       id="linearGradient1376"
       x1="391.24234"
       y1="134.1263"
       x2="597.92181"
       y2="134.1263"
       gradientUnits="userSpaceOnUse"
       spreadMethod="pad"
       gradientTransform="matrix(-1,0,0,1,683.24743,0.0014772)" /><linearGradient
       inkscape:collect="always"
       xlink:href="#linearGradient1390"
       id="linearGradient1392"
       x1="379.11206"
       y1="84.533966"
       x2="503.69879"
       y2="84.533966"
       gradientUnits="userSpaceOnUse"
       gradientTransform="translate(-305.91672,0.0014772)" /><linearGradient
       inkscape:collect="always"
       xlink:href="#linearGradient1426"
       id="linearGradient1428"
       x1="329.99289"
       y1="110.8899"
       x2="440.27213"
       y2="110.8899"
       gradientUnits="userSpaceOnUse"
       gradientTransform="matrix(1.2183763,0,0,1.2183763,-392.11095,-13.163748)" /><clipPath
       clipPathUnits="userSpaceOnUse"
       id="clipPath2008"><rect
         style="fill:#ffffff;fill-opacity:0.526596;stroke-width:121.554;stroke-opacity:0.847059"
         id="rect2010"
         width="155.3131"
         height="29.961973"
         x="352.20609"
         y="0" /></clipPath><clipPath
       clipPathUnits="userSpaceOnUse"
       id="clipPath2068"><rect
         style="fill:#ffffff;fill-opacity:0.345745;stroke-width:123.479;stroke-opacity:0.847059"
         id="rect2070"
         width="192.42435"
         height="24.855831"
         x="413.58405"
         y="179.08293" /></clipPath><clipPath
       clipPathUnits="userSpaceOnUse"
       id="clipPath2141"><rect
         style="fill:#ffffff;fill-opacity:0.345745;stroke-width:119.454;stroke-opacity:0.847059"
         id="rect2143"
         width="69.667099"
         height="21.76935"
         x="542.17157"
         y="103.27444" /></clipPath><clipPath
       clipPathUnits="userSpaceOnUse"
       id="clipPath2200"><rect
         style="fill:#ffffff;fill-opacity:0.99734;stroke-width:150.109;stroke-opacity:0.847059"
         id="rect2202"
         width="61.250336"
         height="23.737354"
         x="611.83893"
         y="103.00005" /></clipPath><clipPath
       clipPathUnits="userSpaceOnUse"
       id="clipPath3601"><rect
         style="fill:#ffffff;fill-opacity:0.518617;stroke-width:82.9117;stroke-opacity:0.847059"
         id="rect3603"
         width="59.702045"
         height="31.872694"
         x="434.70868"
         y="44.160957" /></clipPath><linearGradient
       inkscape:collect="always"
       xlink:href="#linearGradient3620"
       id="linearGradient3622"
       x1="434.70868"
       y1="59.068684"
       x2="492.81937"
       y2="59.068684"
       gradientUnits="userSpaceOnUse" /><linearGradient
       inkscape:collect="always"
       xlink:href="#linearGradient3628"
       id="linearGradient3630"
       x1="475.05566"
       y1="68.671448"
       x2="611.84406"
       y2="68.671448"
       gradientUnits="userSpaceOnUse"
       gradientTransform="translate(-305.91672,0.0014772)" /></defs><g
     inkscape:label="Ebene 1"
     inkscape:groupmode="layer"
     id="layer1"><image
       width="305.91946"
       height="203.9463"
       preserveAspectRatio="none"
       id="image409"
       x="611.83838"
       y="-0.00065326452"
       inkscape:label="Bild mitte"
       clip-path="url(#clipPath405)"
       transform="matrix(1.001306,0,0,1.0059926,-307.07142,-0.05837989)"
       style="display:none" /><path
       style="fill:url(#linearGradient3630);fill-opacity:1;stroke:none;stroke-width:8.76631"
       d="m 201.91155,83.160248 c -16.58192,-0.197806 -24.88682,-0.358993 -29.45969,-0.571758 -3.47397,-0.16164 -3.84272,-0.253321 -2.80173,-0.696569 1.23248,-0.52477 4.30614,-1.00907 8.47129,-1.334765 3.63447,-0.284191 3.49256,-0.225795 2.65037,-1.090627 -1.57884,-1.621213 -1.74625,-3.890105 -0.4146,-5.617939 0.54887,-0.712105 2.03688,-1.806697 3.06154,-2.252089 0.46392,-0.201642 0.99532,-0.437524 1.18088,-0.524178 l 0.3374,-0.157567 -0.42366,-1.322081 c -0.90998,-2.839606 -0.40316,-5.611336 1.48807,-8.137911 1.01445,-1.355245 2.06958,-2.32286 3.72127,-3.41265 2.88567,-1.903984 5.65606,-2.924159 9.74736,-3.589381 1.55026,-0.252062 2.09726,-0.289437 4.26512,-0.291401 1.39732,-0.0013 3.0315,0.06029 3.73018,0.140503 2.49689,0.286672 5.22176,0.985534 7.46029,1.913402 1.34744,0.558499 4.11944,2.289443 5.38305,3.361381 0.52633,0.446492 1.00551,0.811803 1.06484,0.811803 0.0593,0 0.49024,-0.485734 0.95759,-1.079414 1.58753,-2.016912 3.75431,-3.400447 6.75999,-4.316462 2.23646,-0.681567 3.24957,-0.820662 5.97741,-0.820662 2.59957,0 3.67515,0.135673 5.65686,0.713543 4.89347,1.426915 7.9855,4.29095 8.45732,7.833642 l 0.108,0.811805 h 0.62847 c 0.90536,0 2.85864,0.277212 3.99286,0.566676 2.06247,0.526362 4.25486,1.585746 5.5005,2.65793 1.18744,1.022051 2.43013,2.974277 2.43013,3.817619 v 0.290165 l 2.19665,0.0027 c 1.89094,0.002 2.35399,0.03732 3.32714,0.254274 1.19787,0.267094 2.94998,0.933734 3.59595,1.368162 0.72995,0.490938 0.88198,0.372478 1.07674,-0.839039 0.22231,-1.382634 1.1246,-2.948286 2.3627,-4.099555 1.55314,-1.444269 3.32289,-2.406903 5.76006,-3.133121 2.15413,-0.64189 3.41602,-0.818015 5.88533,-0.82145 2.48079,-0.0031 3.72454,0.171307 5.8945,0.828212 7.89932,2.39133 10.60678,8.592561 5.79298,13.268299 -0.49279,0.478667 -0.84355,0.903042 -0.7794,0.943065 0.0642,0.04002 0.94425,0.214722 1.95578,0.388234 2.05321,0.352189 3.07689,0.590777 4.54817,1.060034 1.6176,0.51593 2.93825,1.536413 2.30726,1.78282 -1.17601,0.459236 -10.72167,0.822097 -30.41238,1.156081 -5.73661,0.0973 -67.18563,0.213403 -73.4427,0.138759 z"
       id="path3605"
       inkscape:label="Wolke 15 mitte" /><path
       style="fill:#ffffff;fill-opacity:1;stroke:none;stroke-width:8.8074"
       d="m 187.11866,46.594341 c -13.3684,-0.247659 -20.06382,-0.449471 -23.75048,-0.715859 -2.80072,-0.202378 -3.09801,-0.317166 -2.25877,-0.872124 0.99363,-0.657029 3.47162,-1.263387 6.82959,-1.671168 2.9301,-0.355815 2.8157,-0.282702 2.13672,-1.365498 -1.27286,-2.029807 -1.40782,-4.870529 -0.33424,-7.033829 0.44249,-0.891577 1.64213,-2.262039 2.46822,-2.819684 0.37401,-0.252461 0.80242,-0.547792 0.95203,-0.656287 l 0.27202,-0.197278 -0.34157,-1.655285 c -0.73363,-3.555273 -0.32503,-7.025564 1.19969,-10.188912 0.81786,-1.696808 1.6685,-2.90829 3.0001,-4.272741 2.32643,-2.383846 4.55994,-3.661135 7.85835,-4.494014 1.24983,-0.315589 1.69082,-0.362384 3.43855,-0.364842 1.12653,-0.0017 2.44401,0.07549 3.00727,0.175913 2.01301,0.358923 4.2098,1.233919 6.01452,2.395638 1.0863,0.699257 3.32109,2.866452 4.33982,4.20855 0.42434,0.559022 0.81065,1.016403 0.85849,1.016403 0.0478,0 0.39523,-0.608154 0.77199,-1.351459 1.27988,-2.525235 3.02674,-4.257463 5.44994,-5.404341 1.80303,-0.853343 2.6198,-1.027494 4.81899,-1.027494 2.09578,0 2.96292,0.169867 4.5606,0.893377 3.94511,1.786542 6.43792,5.3724 6.81829,9.807958 l 0.0871,1.016404 h 0.50667 c 0.72991,0 2.30465,0.347078 3.21906,0.709496 1.66277,0.65902 3.43027,1.985402 4.43452,3.327808 0.95732,1.279639 1.95918,3.723885 1.95918,4.779775 v 0.363296 l 1.77095,0.0033 c 1.52448,0.0024 1.89778,0.04672 2.68234,0.318359 0.96573,0.33441 2.37829,1.169063 2.89907,1.712981 0.58848,0.614668 0.71104,0.466353 0.86807,-1.050503 0.17922,-1.7311 0.90667,-3.691344 1.90481,-5.132767 1.25215,-1.808269 2.67892,-3.013515 4.64377,-3.922762 1.73668,-0.803666 2.75401,-1.02418 4.74479,-1.028481 2.00001,-0.004 3.00272,0.214482 4.75215,1.036947 6.36846,2.994017 8.55122,10.758146 4.67032,16.612312 -0.3973,0.599305 -0.68007,1.130636 -0.62835,1.180745 0.0517,0.0501 0.76125,0.26884 1.57674,0.486082 1.65531,0.440951 2.48061,0.73967 3.66675,1.327194 1.30412,0.64596 2.36884,1.923636 1.86011,2.232145 -0.9481,0.574976 -8.64383,1.02929 -24.51854,1.447447 -4.62486,0.121825 -54.16523,0.267188 -59.20969,0.173732 z"
       id="path37097"
       inkscape:label="Wolke 1 mitte" /><path
       style="fill:#ffffff;fill-opacity:1;stroke:none;stroke-width:11.0646"
       d="m 212.08773,108.80481 c 17.67205,-0.29569 26.52291,-0.53663 31.3964,-0.85468 3.70235,-0.24161 4.09535,-0.37866 2.98593,-1.04122 -1.31351,-0.78444 -4.58923,-1.50838 -9.02822,-1.99523 -3.87338,-0.42481 -3.72215,-0.33751 -2.82459,-1.63027 1.68263,-2.42341 1.86104,-5.814967 0.44184,-8.397746 -0.58494,-1.06446 -2.17077,-2.700664 -3.2628,-3.366441 -0.49441,-0.301415 -1.06074,-0.654012 -1.25852,-0.783546 l -0.35959,-0.235531 0.45154,-1.976257 c 0.9698,-4.244665 0.42966,-8.38787 -1.58591,-12.164613 -1.08115,-2.025831 -2.20564,-3.472228 -3.96592,-5.101256 -3.07536,-2.846091 -6.02791,-4.371055 -10.38817,-5.365434 -1.65217,-0.376784 -2.23513,-0.432653 -4.5455,-0.435588 -1.48919,-0.002 -3.2308,0.09013 -3.9754,0.210023 -2.66105,0.428521 -5.56505,1.473185 -7.95075,2.860169 -1.43602,0.834848 -4.39025,3.422278 -5.73692,5.024618 -0.56095,0.66742 -1.07163,1.213491 -1.13487,1.213491 -0.0632,0 -0.52247,-0.726079 -1.02052,-1.613517 -1.69191,-3.014895 -4.00113,-5.083015 -7.20441,-6.452281 -2.38348,-1.018811 -3.46319,-1.226732 -6.37036,-1.226732 -2.77047,0 -3.91677,0.202806 -6.02878,1.066609 -5.21515,2.132965 -8.51046,6.414147 -9.01329,11.709791 l -0.11513,1.213491 H 160.924 c -0.96488,0 -3.04657,0.414379 -4.25536,0.847073 -2.19806,0.786808 -4.53457,2.370385 -5.86211,3.973094 -1.26551,1.527769 -2.58989,4.445971 -2.58989,5.706607 v 0.433741 l -2.34107,0.004 c -2.01525,0.0029 -2.50873,0.05578 -3.54586,0.380091 -1.27663,0.399254 -3.14393,1.395753 -3.83236,2.04514 -0.77792,0.733857 -0.93994,0.556783 -1.14752,-1.254202 -0.23692,-2.066773 -1.19855,-4.407122 -2.51802,-6.128047 -1.65525,-2.158905 -3.54134,-3.597857 -6.13873,-4.683414 -2.29576,-0.959502 -3.6406,-1.222775 -6.27227,-1.22791 -2.64386,-0.0048 -3.96937,0.256072 -6.282,1.238019 -8.41863,3.574577 -11.30409,12.844225 -6.17381,19.833568 0.5252,0.7155 0.89899,1.34986 0.83063,1.40969 -0.0683,0.0598 -1.00632,0.32096 -2.08433,0.58033 -2.18821,0.52647 -3.27919,0.88309 -4.84718,1.58456 -1.72395,0.77121 -3.13143,2.29663 -2.45893,2.66496 1.25331,0.68648 11.42652,1.22888 32.41172,1.72813 6.11373,0.14544 71.60248,0.31899 78.2709,0.20741 z"
       id="path574"
       inkscape:label="Wolke 2 mitte" /><path
       style="fill:#ffffff;fill-opacity:1;stroke:none;stroke-width:9.80108"
       d="m 313.1131,76.695399 c -14.05186,-0.291778 -21.08959,-0.529541 -24.96473,-0.843384 -2.94391,-0.23843 -3.2564,-0.373667 -2.37425,-1.027487 1.04443,-0.774074 3.64911,-1.48845 7.17875,-1.968874 3.07991,-0.419201 2.95966,-0.333064 2.24597,-1.608752 -1.33794,-2.391402 -1.4798,-5.738178 -0.35133,-8.286854 0.46511,-1.050405 1.72608,-2.665005 2.59441,-3.32199 0.39313,-0.297435 0.84344,-0.645377 1.0007,-0.7732 l 0.28593,-0.232422 -0.35904,-1.950161 c -0.77113,-4.188619 -0.34164,-8.277117 1.26103,-12.003993 0.85967,-1.999082 1.7538,-3.42638 3.15348,-5.033898 2.44537,-2.808511 4.79307,-4.31334 8.26011,-5.29459 1.31373,-0.371809 1.77726,-0.42694 3.61435,-0.429836 1.18412,-0.002 2.56896,0.08894 3.16101,0.207251 2.11593,0.422862 4.42503,1.453732 6.32202,2.822403 1.14184,0.823824 3.49088,3.377089 4.56169,4.958272 0.44604,0.658608 0.8521,1.197468 0.90238,1.197468 0.0502,0 0.41544,-0.716492 0.81146,-1.592211 1.34532,-2.975088 3.18148,-5.015899 5.72857,-6.367085 1.89521,-1.00536 2.75374,-1.210535 5.06536,-1.210535 2.20293,0 3.1144,0.200128 4.79377,1.052526 4.1468,2.104801 6.76706,6.329454 7.16687,11.555174 l 0.0916,1.197469 h 0.53257 c 0.76723,0 2.42248,0.408907 3.38364,0.835887 1.74778,0.77642 3.60564,2.339087 4.66123,3.920633 1.00627,1.507597 2.05935,4.387268 2.05935,5.631257 v 0.428015 l 1.86149,0.0039 c 1.60242,0.0028 1.9948,0.05504 2.81947,0.375073 1.0151,0.393983 2.49988,1.377323 3.04729,2.018136 0.61856,0.724166 0.74739,0.54943 0.91245,-1.237643 0.18838,-2.039482 0.95302,-4.34893 2.00219,-6.047132 1.31617,-2.130398 2.81588,-3.55035 4.88119,-4.621573 1.82546,-0.946833 2.89481,-1.20663 4.98737,-1.211697 2.10226,-0.0047 3.15623,0.25269 4.9951,1.221671 6.69405,3.527379 8.9884,12.674631 4.90909,19.571674 -0.41761,0.706067 -0.71484,1.332051 -0.66047,1.391086 0.0543,0.05903 0.80017,0.316732 1.65735,0.572674 1.73994,0.519504 2.60743,0.871437 3.85421,1.563624 1.3708,0.761033 2.48995,2.266318 1.95521,2.629786 -0.99657,0.677403 -9.08575,1.21265 -25.77206,1.705299 -4.8613,0.143527 -56.93444,0.314785 -62.2368,0.204681 z"
       id="path587"
       inkscape:label="Wolke 3 mitte (linke hälfte"
       clip-path="url(#clipPath591)"
       transform="translate(-305.91672,0.0014772)" /><path
       style="fill:#ffffff;fill-opacity:1;stroke:none;stroke-width:9.80108"
       d="m 313.1131,76.695399 c -14.05186,-0.291778 -21.08959,-0.529541 -24.96473,-0.843384 -2.94391,-0.23843 -3.2564,-0.373667 -2.37425,-1.027487 1.04443,-0.774074 3.64911,-1.48845 7.17875,-1.968874 3.07991,-0.419201 2.95966,-0.333064 2.24597,-1.608752 -1.33794,-2.391402 -1.4798,-5.738178 -0.35133,-8.286854 0.46511,-1.050405 1.72608,-2.665005 2.59441,-3.32199 0.39313,-0.297435 0.84344,-0.645377 1.0007,-0.7732 l 0.28593,-0.232422 -0.35904,-1.950161 c -0.77113,-4.188619 -0.34164,-8.277117 1.26103,-12.003993 0.85967,-1.999082 1.7538,-3.42638 3.15348,-5.033898 2.44537,-2.808511 4.79307,-4.31334 8.26011,-5.29459 1.31373,-0.371809 1.77726,-0.42694 3.61435,-0.429836 1.18412,-0.002 2.56896,0.08894 3.16101,0.207251 2.11593,0.422862 4.42503,1.453732 6.32202,2.822403 1.14184,0.823824 3.49088,3.377089 4.56169,4.958272 0.44604,0.658608 0.8521,1.197468 0.90238,1.197468 0.0502,0 0.41544,-0.716492 0.81146,-1.592211 1.34532,-2.975088 3.18148,-5.015899 5.72857,-6.367085 1.89521,-1.00536 2.75374,-1.210535 5.06536,-1.210535 2.20293,0 3.1144,0.200128 4.79377,1.052526 4.1468,2.104801 6.76706,6.329454 7.16687,11.555174 l 0.0916,1.197469 h 0.53257 c 0.76723,0 2.42248,0.408907 3.38364,0.835887 1.74778,0.77642 3.60564,2.339087 4.66123,3.920633 1.00627,1.507597 2.05935,4.387268 2.05935,5.631257 v 0.428015 l 1.86149,0.0039 c 1.60242,0.0028 1.9948,0.05504 2.81947,0.375073 1.0151,0.393983 2.49988,1.377323 3.04729,2.018136 0.61856,0.724166 0.74739,0.54943 0.91245,-1.237643 0.18838,-2.039482 0.95302,-4.34893 2.00219,-6.047132 1.31617,-2.130398 2.81588,-3.55035 4.88119,-4.621573 1.82546,-0.946833 2.89481,-1.20663 4.98737,-1.211697 2.10226,-0.0047 3.15623,0.25269 4.9951,1.221671 6.69405,3.527379 8.9884,12.674631 4.90909,19.571674 -0.41761,0.706067 -0.71484,1.332051 -0.66047,1.391086 0.0543,0.05903 0.80017,0.316732 1.65735,0.572674 1.73994,0.519504 2.60743,0.871437 3.85421,1.563624 1.3708,0.761033 2.48995,2.266318 1.95521,2.629786 -0.99657,0.677403 -9.08575,1.21265 -25.77206,1.705299 -4.8613,0.143527 -56.93444,0.314785 -62.2368,0.204681 z"
       id="path602"
       inkscape:label="Wolke 3 mitte (rechte hälfte)"
       clip-path="url(#clipPath598)"
       transform="translate(3.5027052e-4,0.00155156)" /><path
       style="fill:#ffffff;fill-opacity:1;stroke:none;stroke-width:8.04626"
       d="M 275.36804,13.890847 C 265.0769,13.622335 259.9227,13.40353 257.08467,13.114713 c -2.15602,-0.219419 -2.38488,-0.343872 -1.73883,-0.945557 0.76491,-0.712351 2.67249,-1.369764 5.2575,-1.81188 2.25562,-0.3857744 2.16755,-0.306505 1.64486,-1.4804721 -0.97986,-2.2007162 -1.08375,-5.2806261 -0.2573,-7.6260753 0.34064,-0.96664757 1.26413,-2.4525021 1.90007,-3.0571006 0.28791,-0.2737181 0.61771,-0.5939159 0.73288,-0.7115461 l 0.2094,-0.2138888 -0.26294,-1.7946595 c -0.56476,-3.8546258 -0.25021,-7.6171146 0.92353,-11.0468156 0.6296,-1.839678 1.28443,-3.153167 2.30951,-4.632504 1.79091,-2.584565 3.51029,-3.969402 6.04944,-4.872409 0.96213,-0.342161 1.30161,-0.392896 2.64703,-0.395561 0.86722,-0.0018 1.88143,0.08185 2.31503,0.190725 1.54964,0.389144 3.24075,1.337814 4.63004,2.597349 0.83625,0.758135 2.55661,3.107807 3.34084,4.562909 0.32666,0.606092 0.62405,1.101984 0.66088,1.101984 0.0368,0 0.30425,-0.65936 0.59428,-1.465252 0.98527,-2.737859 2.33002,-4.61594 4.19542,-5.859384 1.388,-0.925195 2.01675,-1.114009 3.70971,-1.114009 1.61336,0 2.28089,0.18417 3.5108,0.968599 3.03699,1.936968 4.95598,5.824754 5.24879,10.633785 l 0.067,1.101985 h 0.39004 c 0.5619,0 1.77415,0.376302 2.47807,0.769235 1.28002,0.71451 2.64066,2.1525726 3.41374,3.6080088 0.73695,1.3873842 1.5082,4.0374349 1.5082,5.1822306 v 0.3938854 l 1.36329,0.00358 c 1.17356,0.0026 1.46093,0.050654 2.0649,0.3451648 0.74343,0.3625671 1.83083,1.2674977 2.23173,1.8572134 0.45302,0.66642287 0.54737,0.50561977 0.66825,-1.138955 0.13797,-1.8768581 0.69797,-4.002154 1.46634,-5.5649444 0.96392,-1.9605247 2.06226,-3.2672526 3.57483,-4.2530576 1.33691,-0.871334 2.12006,-1.110416 3.65259,-1.115079 1.53963,-0.0043 2.31152,0.232541 3.65825,1.124258 4.90251,3.2461124 6.58282,11.66397865 3.59526,18.0110637 -0.30584,0.6497663 -0.52352,1.2258352 -0.48371,1.2801634 0.0398,0.054318 0.58602,0.2914762 1.21379,0.5270099 1.27428,0.478079 1.9096,0.80195 2.82271,1.4389431 1.00392,0.7003499 1.82356,2.0856049 1.43193,2.4200909 -0.72986,0.623389 -6.65411,1.115956 -18.87463,1.569321 -3.56027,0.132083 -41.69697,0.289686 -45.58025,0.188361 z"
       id="path604"
       inkscape:label="Wolke 4 mitte (linke hälfte)"
       clip-path="url(#clipPath611)"
       transform="translate(-305.91672,0.0014772)" /><path
       style="fill:#ffffff;fill-opacity:1;stroke:none;stroke-width:8.04626"
       d="M 275.36804,13.890847 C 265.0769,13.622335 259.9227,13.40353 257.08467,13.114713 c -2.15602,-0.219419 -2.38488,-0.343872 -1.73883,-0.945557 0.76491,-0.712351 2.67249,-1.369764 5.2575,-1.81188 2.25562,-0.3857744 2.16755,-0.306505 1.64486,-1.4804721 -0.97986,-2.2007162 -1.08375,-5.2806261 -0.2573,-7.6260753 0.34064,-0.96664757 1.26413,-2.4525021 1.90007,-3.0571006 0.28791,-0.2737181 0.61771,-0.5939159 0.73288,-0.7115461 l 0.2094,-0.2138888 -0.26294,-1.7946595 c -0.56476,-3.8546258 -0.25021,-7.6171146 0.92353,-11.0468156 0.6296,-1.839678 1.28443,-3.153167 2.30951,-4.632504 1.79091,-2.584565 3.51029,-3.969402 6.04944,-4.872409 0.96213,-0.342161 1.30161,-0.392896 2.64703,-0.395561 0.86722,-0.0018 1.88143,0.08185 2.31503,0.190725 1.54964,0.389144 3.24075,1.337814 4.63004,2.597349 0.83625,0.758135 2.55661,3.107807 3.34084,4.562909 0.32666,0.606092 0.62405,1.101984 0.66088,1.101984 0.0368,0 0.30425,-0.65936 0.59428,-1.465252 0.98527,-2.737859 2.33002,-4.61594 4.19542,-5.859384 1.388,-0.925195 2.01675,-1.114009 3.70971,-1.114009 1.61336,0 2.28089,0.18417 3.5108,0.968599 3.03699,1.936968 4.95598,5.824754 5.24879,10.633785 l 0.067,1.101985 h 0.39004 c 0.5619,0 1.77415,0.376302 2.47807,0.769235 1.28002,0.71451 2.64066,2.1525726 3.41374,3.6080088 0.73695,1.3873842 1.5082,4.0374349 1.5082,5.1822306 v 0.3938854 l 1.36329,0.00358 c 1.17356,0.0026 1.46093,0.050654 2.0649,0.3451648 0.74343,0.3625671 1.83083,1.2674977 2.23173,1.8572134 0.45302,0.66642287 0.54737,0.50561977 0.66825,-1.138955 0.13797,-1.8768581 0.69797,-4.002154 1.46634,-5.5649444 0.96392,-1.9605247 2.06226,-3.2672526 3.57483,-4.2530576 1.33691,-0.871334 2.12006,-1.110416 3.65259,-1.115079 1.53963,-0.0043 2.31152,0.232541 3.65825,1.124258 4.90251,3.2461124 6.58282,11.66397865 3.59526,18.0110637 -0.30584,0.6497663 -0.52352,1.2258352 -0.48371,1.2801634 0.0398,0.054318 0.58602,0.2914762 1.21379,0.5270099 1.27428,0.478079 1.9096,0.80195 2.82271,1.4389431 1.00392,0.7003499 1.82356,2.0856049 1.43193,2.4200909 -0.72986,0.623389 -6.65411,1.115956 -18.87463,1.569321 -3.56027,0.132083 -41.69697,0.289686 -45.58025,0.188361 z"
       id="path622"
       inkscape:label="Wolke 4 links "
       clip-path="url(#clipPath618)"
       transform="translate(9.4027052e-4,0.0014772)" /><path
       style="fill:#ffffff;fill-opacity:1;stroke:none;stroke-width:9.00603"
       d="m 575.68295,210.80801 c -13.9782,-0.24766 -20.97903,-0.44947 -24.83386,-0.71586 -2.92847,-0.20238 -3.23932,-0.31717 -2.3618,-0.87213 1.03895,-0.65702 3.62998,-1.26338 7.14112,-1.67116 3.06376,-0.35582 2.94414,-0.28271 2.23419,-1.3655 -1.33093,-2.02981 -1.47204,-4.87053 -0.34949,-7.03383 0.46267,-0.89158 1.71703,-2.26204 2.58081,-2.81968 0.39107,-0.25247 0.83902,-0.5478 0.99545,-0.65629 l 0.28443,-0.19728 -0.35715,-1.65528 c -0.76709,-3.55528 -0.33986,-7.02557 1.25441,-10.18892 0.85517,-1.6968 1.74461,-2.90829 3.13695,-4.27274 2.43255,-2.38384 4.76794,-3.66113 8.21681,-4.49401 1.30684,-0.31559 1.76795,-0.36239 3.5954,-0.36484 1.17792,-0.002 2.55549,0.0755 3.14445,0.17591 2.10483,0.35892 4.40183,1.23392 6.28887,2.39564 1.13585,0.69925 3.47258,2.86645 4.53778,4.20855 0.44369,0.55902 0.84762,1.0164 0.89765,1.0164 0.05,0 0.41326,-0.60815 0.8072,-1.35146 1.33826,-2.52523 3.16481,-4.25746 5.69854,-5.40434 1.88527,-0.85334 2.7393,-1.02749 5.03881,-1.02749 2.19138,0 3.09807,0.16986 4.76863,0.89337 4.12506,1.78655 6.73158,5.3724 7.1293,9.80796 l 0.0911,1.01641 h 0.52978 c 0.7632,0 2.40977,0.34707 3.36589,0.70949 1.73862,0.65902 3.58675,1.9854 4.6368,3.32781 1.00099,1.27964 2.04855,3.72388 2.04855,4.77977 v 0.3633 l 1.85173,0.003 c 1.59402,0.002 1.98435,0.0467 2.8047,0.31836 1.00978,0.33441 2.48677,1.16906 3.03131,1.71298 0.61532,0.61467 0.74347,0.46635 0.90767,-1.0505 0.18739,-1.7311 0.94802,-3.69135 1.99169,-5.13277 1.30927,-1.80827 2.80112,-3.01351 4.8556,-3.92276 1.8159,-0.80367 2.87963,-1.02418 4.96122,-1.02848 2.09124,-0.004 3.13969,0.21448 4.96892,1.03694 6.65896,2.99402 8.94128,10.75815 4.88336,16.61232 -0.41543,0.5993 -0.7111,1.13063 -0.65702,1.18074 0.0541,0.0501 0.79598,0.26884 1.64867,0.48608 1.73081,0.44095 2.59376,0.73967 3.834,1.3272 1.36361,0.64596 2.4769,1.92363 1.94496,2.23214 -0.99134,0.57498 -9.03811,1.02929 -25.63695,1.44745 -4.83582,0.12182 -56.63596,0.26719 -61.91053,0.17373 z"
       id="path624"
       inkscape:label="Wolke 5 mitte (rechte hälfte)"
       clip-path="url(#clipPath640)"
       transform="translate(-305.91672,0.0014772)" /><path
       style="fill:#ffffff;fill-opacity:1;stroke:none;stroke-width:9.00603"
       d="m 575.68295,210.80801 c -13.9782,-0.24766 -20.97903,-0.44947 -24.83386,-0.71586 -2.92847,-0.20238 -3.23932,-0.31717 -2.3618,-0.87213 1.03895,-0.65702 3.62998,-1.26338 7.14112,-1.67116 3.06376,-0.35582 2.94414,-0.28271 2.23419,-1.3655 -1.33093,-2.02981 -1.47204,-4.87053 -0.34949,-7.03383 0.46267,-0.89158 1.71703,-2.26204 2.58081,-2.81968 0.39107,-0.25247 0.83902,-0.5478 0.99545,-0.65629 l 0.28443,-0.19728 -0.35715,-1.65528 c -0.76709,-3.55528 -0.33986,-7.02557 1.25441,-10.18892 0.85517,-1.6968 1.74461,-2.90829 3.13695,-4.27274 2.43255,-2.38384 4.76794,-3.66113 8.21681,-4.49401 1.30684,-0.31559 1.76795,-0.36239 3.5954,-0.36484 1.17792,-0.002 2.55549,0.0755 3.14445,0.17591 2.10483,0.35892 4.40183,1.23392 6.28887,2.39564 1.13585,0.69925 3.47258,2.86645 4.53778,4.20855 0.44369,0.55902 0.84762,1.0164 0.89765,1.0164 0.05,0 0.41326,-0.60815 0.8072,-1.35146 1.33826,-2.52523 3.16481,-4.25746 5.69854,-5.40434 1.88527,-0.85334 2.7393,-1.02749 5.03881,-1.02749 2.19138,0 3.09807,0.16986 4.76863,0.89337 4.12506,1.78655 6.73158,5.3724 7.1293,9.80796 l 0.0911,1.01641 h 0.52978 c 0.7632,0 2.40977,0.34707 3.36589,0.70949 1.73862,0.65902 3.58675,1.9854 4.6368,3.32781 1.00099,1.27964 2.04855,3.72388 2.04855,4.77977 v 0.3633 l 1.85173,0.003 c 1.59402,0.002 1.98435,0.0467 2.8047,0.31836 1.00978,0.33441 2.48677,1.16906 3.03131,1.71298 0.61532,0.61467 0.74347,0.46635 0.90767,-1.0505 0.18739,-1.7311 0.94802,-3.69135 1.99169,-5.13277 1.30927,-1.80827 2.80112,-3.01351 4.8556,-3.92276 1.8159,-0.80367 2.87963,-1.02418 4.96122,-1.02848 2.09124,-0.004 3.13969,0.21448 4.96892,1.03694 6.65896,2.99402 8.94128,10.75815 4.88336,16.61232 -0.41543,0.5993 -0.7111,1.13063 -0.65702,1.18074 0.0541,0.0501 0.79598,0.26884 1.64867,0.48608 1.73081,0.44095 2.59376,0.73967 3.834,1.3272 1.36361,0.64596 2.4769,1.92363 1.94496,2.23214 -0.99134,0.57498 -9.03811,1.02929 -25.63695,1.44745 -4.83582,0.12182 -56.63596,0.26719 -61.91053,0.17373 z"
       id="path697"
       inkscape:label="Wolke 5 mitte (linke hälfte)"
       clip-path="url(#clipPath693)"
       transform="translate(-611.83359,0.0014772)" /><path
       style="fill:#ffffff;fill-opacity:0.78607;stroke:none;stroke-width:11.8247"
       d="m 404.55065,203.51207 c 21.87556,-0.27282 32.83171,-0.49513 38.86441,-0.78858 4.58301,-0.22292 5.06948,-0.34937 3.69617,-0.96068 -1.62594,-0.72376 -5.68084,-1.39171 -11.17568,-1.8409 -4.79472,-0.39195 -4.60751,-0.3114 -3.49646,-1.50417 2.08286,-2.23596 2.30371,-5.36518 0.54694,-7.74818 -0.72408,-0.98213 -2.68711,-2.49177 -4.0389,-3.10605 -0.61202,-0.2781 -1.31305,-0.60342 -1.55787,-0.72294 l -0.44513,-0.21732 0.55895,-1.82338 c 1.20048,-3.91635 0.53186,-7.73908 -1.96315,-11.2237 -1.33831,-1.86914 -2.73027,-3.20365 -4.90926,-4.70667 -3.80686,-2.62595 -7.46172,-4.03297 -12.85911,-4.95043 -2.04517,-0.34764 -2.76679,-0.39919 -5.62671,-0.40189 -1.84341,-0.002 -3.99929,0.0831 -4.921,0.19377 -3.29401,0.39538 -6.88876,1.35924 -9.84192,2.63894 -1.7776,0.77028 -5.43453,3.15757 -7.10152,4.63597 -0.69438,0.6158 -1.32654,1.11963 -1.40482,1.11963 -0.0782,0 -0.64675,-0.66992 -1.26326,-1.48871 -2.09435,-2.7817 -4.95285,-4.68986 -8.91807,-5.95321 -2.95042,-0.94 -4.28695,-1.13184 -7.88562,-1.13184 -3.42946,0 -4.84842,0.18711 -7.4628,0.98411 -6.45564,1.96798 -10.53478,5.91801 -11.15721,10.80405 l -0.14251,1.11962 H 341.217 c -1.19438,0 -3.77122,0.38233 -5.26754,0.78155 -2.7209,0.72596 -5.61317,2.18705 -7.25649,3.66578 -1.56652,1.4096 -3.20592,4.10209 -3.20592,5.26521 v 0.40019 l -2.89793,0.004 c -2.49459,0.003 -3.10546,0.0515 -4.38928,0.35069 -1.58029,0.36838 -3.89175,1.2878 -4.74393,1.88695 -0.96296,0.6771 -1.16352,0.51372 -1.42048,-1.15719 -0.29327,-1.90691 -1.48363,-4.06623 -3.11696,-5.65405 -2.04896,-1.99191 -4.38369,-3.31956 -7.5989,-4.32115 -2.84183,-0.88529 -4.50656,-1.12819 -7.7642,-1.13293 -3.27274,-0.005 -4.91354,0.23626 -7.77625,1.14226 -10.42111,3.29809 -13.99291,11.85073 -7.64233,18.29945 0.65013,0.66015 1.11282,1.24545 1.0282,1.30065 -0.0846,0.0552 -1.24568,0.29613 -2.58011,0.53544 -2.7087,0.48575 -4.05919,0.81478 -6.00014,1.462 -2.13401,0.71155 -3.87628,2.11898 -3.04381,2.45882 1.55142,0.63339 14.14446,1.13383 40.12124,1.59447 7.56796,0.13419 88.63399,0.29431 96.88858,0.19136 z"
       id="path699"
       inkscape:label="Wolke 6 mitte (linke hälfte)"
       clip-path="url(#clipPath706)"
       transform="translate(-305.91672,0.0014772)" /><path
       style="fill:url(#linearGradient1376);fill-opacity:1;stroke:none;stroke-width:13.1744"
       d="m 134.84316,155.78356 c -25.05435,-0.29569 -37.602559,-0.53663 -44.511899,-0.85468 -5.24896,-0.24161 -5.80613,-0.37866 -4.23326,-1.04122 1.86221,-0.78444 6.50633,-1.50838 12.799654,-1.99523 5.491435,-0.42481 5.277025,-0.33751 4.004535,-1.63027 -2.38554,-2.42341 -2.63847,-5.81497 -0.62642,-8.39775 0.82929,-1.06446 3.07759,-2.70066 4.6258,-3.36644 0.70094,-0.30141 1.50385,-0.65401 1.78425,-0.78354 l 0.50981,-0.23554 -0.64017,-1.97625 c -1.37493,-4.24467 -0.60914,-8.38787 2.2484,-12.16462 1.53279,-2.02583 3.12702,-3.47222 5.62264,-5.10125 4.36005,-2.84609 8.546,-4.37106 14.72771,-5.36544 2.34235,-0.37678 3.16883,-0.43265 6.44433,-0.43558 2.11129,-0.002 4.58044,0.0901 5.63608,0.21002 3.77268,0.42852 7.88978,1.47318 11.27208,2.86017 2.03591,0.83485 6.22423,3.42228 8.13346,5.02462 0.79527,0.66742 1.51929,1.21349 1.60895,1.21349 0.0895,0 0.74073,-0.72608 1.44682,-1.61352 2.39869,-3.01489 5.67257,-5.08301 10.21397,-6.45228 3.37916,-1.01881 4.9099,-1.22673 9.03151,-1.22673 3.9278,0 5.55296,0.2028 8.54724,1.06661 7.39371,2.13296 12.0656,6.41414 12.77849,11.70979 l 0.16321,1.21349 h 0.94959 c 1.36795,0 4.31924,0.41438 6.03299,0.84707 3.11628,0.78681 6.42884,2.37039 8.31094,3.9731 1.79416,1.52776 3.67179,4.44597 3.67179,5.7066 v 0.43374 l 3.31902,0.004 c 2.8571,0.003 3.55672,0.0558 5.0271,0.38009 1.80994,0.39926 4.45728,1.39576 5.4333,2.04514 1.10288,0.73386 1.33258,0.55679 1.62688,-1.2542 0.33589,-2.06677 1.69922,-4.40712 3.56989,-6.12804 2.34671,-2.15891 5.02069,-3.59786 8.70312,-4.68342 3.25478,-0.9595 5.16141,-1.22277 8.89244,-1.22791 3.7483,-0.005 5.62752,0.25607 8.90623,1.23802 11.93541,3.57458 16.02624,12.84423 8.75284,19.83357 -0.74459,0.7155 -1.27452,1.34986 -1.17761,1.40969 0.0968,0.0598 1.42669,0.32096 2.95504,0.58033 3.1023,0.52647 4.64903,0.88309 6.87202,1.58456 2.44412,0.77121 4.43955,2.29663 3.48613,2.66496 -1.77687,0.68648 -16.19983,1.22888 -45.95135,1.72813 -8.66766,0.14544 -101.5136,0.31899 -110.96767,0.20741 z"
       id="path1335"
       inkscape:label="Wolke 7 mitte" /><path
       style="fill:#ffffff;fill-opacity:0.800532;stroke:none;stroke-width:6.91937"
       d="m 166.17172,168.02232 c -10.50265,-0.19456 -15.76279,-0.35313 -18.65914,-0.5624 -2.20034,-0.159 -2.4339,-0.24918 -1.77456,-0.68518 0.78062,-0.51617 2.72741,-0.99255 5.36555,-1.31292 2.30197,-0.27953 2.21209,-0.2221 1.67866,-1.07277 -0.99999,-1.59469 -1.10602,-3.82645 -0.26258,-5.52601 0.34763,-0.70044 1.29011,-1.77713 1.9391,-2.21523 0.29384,-0.19834 0.63042,-0.43036 0.74796,-0.51559 l 0.2137,-0.15499 -0.26834,-1.30045 c -0.57637,-2.79314 -0.25537,-5.51951 0.94251,-8.00474 0.64254,-1.33307 1.31083,-2.28484 2.35697,-3.35681 1.82772,-1.87282 3.58244,-2.87629 6.17377,-3.53063 0.98191,-0.24794 1.32837,-0.2847 2.70144,-0.28664 0.88504,-0.001 1.9201,0.0593 2.3626,0.13822 1.58149,0.28197 3.30736,0.9694 4.7252,1.88208 0.85344,0.54935 2.60917,2.25198 3.40951,3.30637 0.33338,0.43918 0.63687,0.79851 0.67445,0.79851 0.0375,0 0.31052,-0.47779 0.6065,-1.06175 1.00552,-1.9839 2.37791,-3.34479 4.28166,-4.24582 1.41651,-0.6704 2.05819,-0.80723 3.78595,-0.80723 1.64651,0 2.32776,0.13346 3.58294,0.70186 3.09941,1.40357 5.05785,4.22074 5.35667,7.70545 l 0.0684,0.79852 h 0.39807 c 0.57343,0 1.81059,0.27268 2.52899,0.55741 1.30632,0.51775 2.69493,1.55979 3.4839,2.61443 0.7521,1.00533 1.53919,2.9256 1.53919,3.75514 v 0.28543 l 1.39132,0.003 c 1.19768,0.001 1.49095,0.0366 2.10734,0.25011 0.7587,0.26272 1.86846,0.91845 2.2776,1.34578 0.46232,0.4829 0.55861,0.36638 0.68198,-0.8253 0.1408,-1.36002 0.71231,-2.90006 1.49648,-4.03248 0.98373,-1.42063 2.10464,-2.36751 3.64829,-3.08184 1.36439,-0.63139 2.16364,-0.80463 3.72766,-0.80802 1.57127,-0.003 2.35903,0.16851 3.73344,0.81466 5.00327,2.3522 6.71811,8.45194 3.66915,13.05117 -0.31213,0.47083 -0.53428,0.88826 -0.49365,0.92763 0.0406,0.0393 0.59807,0.21121 1.23874,0.38188 1.30046,0.34643 1.94885,0.5811 2.88072,1.04269 1.02456,0.50749 1.86103,1.51126 1.46135,1.75364 -0.74485,0.45172 -6.79086,0.80864 -19.26254,1.13716 -3.63343,0.0957 -42.55395,0.20992 -46.51703,0.1365 z"
       id="path1382"
       inkscape:label="Wolke 8 mitte" /><path
       style="fill:url(#linearGradient1392);fill-opacity:1;stroke:none;stroke-width:9.95006"
       d="m 103.04459,105.02705 c -15.102819,-0.27977 -22.666899,-0.5078 -26.831859,-0.80873 -3.16409,-0.22864 -3.49995,-0.35832 -2.55181,-0.98529 1.12252,-0.74225 3.92202,-1.42729 7.71566,-1.88798 3.31024,-0.40197 3.18098,-0.31938 2.41391,-1.54264 -1.43798,-2.293168 -1.59045,-5.50244 -0.37759,-7.946408 0.4999,-1.007233 1.85518,-2.555514 2.78843,-3.185502 0.42255,-0.285213 0.90655,-0.618858 1.07556,-0.741418 l 0.30731,-0.222876 -0.38588,-1.870048 c -0.82882,-4.016536 -0.36722,-7.937058 1.35534,-11.510819 0.92396,-1.916956 1.88496,-3.285601 3.38932,-4.827095 2.62826,-2.693116 5.15155,-4.136106 8.877889,-5.077048 1.41198,-0.356537 1.91019,-0.409398 3.88466,-0.412188 1.27269,-0.0015 2.76111,0.08527 3.39743,0.19876 2.27418,0.405473 4.75597,1.393998 6.79483,2.706433 1.22725,0.789965 3.752,3.238348 4.90288,4.754562 0.4794,0.63154 0.91582,1.148257 0.96986,1.148257 0.0539,0 0.44652,-0.687062 0.87215,-1.526797 1.44594,-2.852849 3.41943,-4.80981 6.15703,-6.105491 2.03694,-0.964035 2.95967,-1.160797 5.4442,-1.160797 2.36768,0 3.34731,0.191915 5.15226,1.009274 4.45695,2.018335 7.2732,6.069427 7.7029,11.080441 l 0.0984,1.148272 h 0.57243 c 0.82459,0 2.60363,0.392114 3.63669,0.801556 1.87848,0.744524 3.87531,2.242979 5.00984,3.759552 1.08152,1.445664 2.21337,4.207014 2.21337,5.399892 v 0.410449 l 2.00071,0.0043 c 1.72226,0.0015 2.14398,0.05263 3.03036,0.359658 1.09101,0.377791 2.68684,1.320731 3.27518,1.935232 0.66482,0.694411 0.80328,0.526855 0.9807,-1.186781 0.20247,-1.95571 1.02429,-4.170288 2.15193,-5.798708 1.4146,-2.042867 3.02648,-3.404481 5.24624,-4.431688 1.962,-0.907939 3.11132,-1.157058 5.36039,-1.161933 2.25948,-0.0043 3.39227,0.242317 5.36868,1.171481 7.19471,3.382465 9.66064,12.153894 5.27624,18.767589 -0.44884,0.677052 -0.7683,1.277317 -0.70987,1.333931 0.0584,0.05651 0.86002,0.30372 1.78131,0.549143 1.87007,0.498166 2.80245,0.835625 4.14248,1.499395 1.47332,0.72977 2.67616,2.17319 2.10141,2.52174 -1.07109,0.64957 -9.76526,1.16282 -27.69953,1.63523 -5.22488,0.13761 -61.1926,0.30186 -66.89151,0.19628 z"
       id="path1384"
       inkscape:label="Wolke 9 mitte" /><path
       style="fill:#ffffff;fill-opacity:0.526596;stroke:none;stroke-width:11.7647"
       d="m 394.46255,28.217858 c -17.85716,-0.330801 -26.80072,-0.60041 -31.72525,-0.956222 -3.74113,-0.27034 -4.13824,-0.423669 -3.0172,-1.164979 1.32726,-0.877619 4.63729,-1.687585 9.12279,-2.232295 3.91393,-0.475271 3.76111,-0.377626 2.85415,-1.823979 -1.70024,-2.711375 -1.88052,-6.50593 -0.44645,-9.395611 0.59105,-1.190924 2.19351,-3.0215685 3.29695,-3.7664485 0.49961,-0.337228 1.07188,-0.731721 1.27172,-0.876633 l 0.36335,-0.263522 -0.45625,-2.211093 c -0.97997,-4.74904203 -0.43419,-9.384558 1.60251,-13.610076 1.09248,-2.2665555 2.22874,-3.8848045 4.00744,-5.7074235 3.10759,-3.184266 6.09105,-4.890418 10.49697,-6.002961 1.66949,-0.421561 2.25856,-0.484062 4.59313,-0.48736 1.50479,-0.0017 3.26465,0.100824 4.01701,0.235008 2.68893,0.47942 5.62335,1.648225 8.03403,3.200011 1.45107,0.934033 4.43625,3.828934 5.79703,5.621663 0.56683,0.746716 1.08284,1.357668 1.14673,1.357668 0.0638,0 0.52797,-0.812364 1.03121,-1.805243 1.70964,-3.37313 4.04304,-5.686986 7.2799,-7.218964 2.40842,-1.139849 3.49944,-1.372495 6.43707,-1.372495 2.79948,0 3.95778,0.226916 6.0919,1.193339 5.26978,2.386423 8.59962,7.176322 9.10769,13.1012081 l 0.1163,1.3576854 h 0.67682 c 0.97497,0 3.07846,0.4636247 4.29992,0.947738 2.22107,0.880305 4.58206,2.652036 5.92351,4.44518997 1.27876,1.70931403 2.61701,4.97425703 2.61701,6.38468503 v 0.485302 l 2.36559,0.0051 c 2.03636,0.0017 2.53499,0.06223 3.58301,0.42525 1.28998,0.44669 3.17685,1.561596 3.8725,2.2881645 0.78606,0.821052 0.94977,0.622938 1.15953,-1.4032175 0.2394,-2.312376 1.21111,-4.930833 2.5444,-6.856232 1.67259,-2.41542903 3.57842,-4.025364 6.20301,-5.239905 2.31981,-1.0735224 3.67873,-1.3680741 6.33796,-1.373838 2.67156,-0.0051 4.01095,0.2865095 6.34779,1.385127 8.50682,3.99933397 11.42248,14.3704285 6.23848,22.1902795 -0.5307,0.800529 -0.90841,1.510266 -0.83933,1.577204 0.069,0.06682 1.01687,0.359111 2.10617,0.649293 2.21111,0.589018 3.31354,0.988016 4.89795,1.772836 1.74201,0.862861 3.16422,2.569523 2.48467,2.98163 -1.26644,0.768038 -11.54618,1.374892 -32.75118,1.933459 -6.17775,0.162714 -72.35244,0.356917 -79.09068,0.232084 z"
       id="path2004"
       inkscape:label="Wolke 11 mitte"
       clip-path="url(#clipPath2008)"
       transform="translate(-305.91672,0.0014772)" /><path
       style="fill:#ffffff;fill-opacity:0.345745;stroke:none;stroke-width:12.4743"
       d="m 460.7803,224.77107 c -22.46172,-0.29569 -33.71144,-0.53663 -39.90579,-0.85468 -4.7058,-0.24161 -5.20532,-0.37866 -3.7952,-1.04122 1.66951,-0.78444 5.83304,-1.50838 11.47514,-1.99523 4.92318,-0.42481 4.73096,-0.33751 3.59014,-1.63027 -2.13868,-2.42341 -2.36544,-5.81496 -0.56159,-8.39774 0.74347,-1.06446 2.75911,-2.70067 4.14711,-3.36644 0.62841,-0.30142 1.34824,-0.65402 1.59962,-0.78355 l 0.45705,-0.23553 -0.57392,-1.97626 c -1.23264,-4.24466 -0.54612,-8.38787 2.01574,-12.16461 1.37418,-2.02583 2.80344,-3.47223 5.0408,-5.10126 3.90888,-2.84609 7.66166,-4.37105 13.20369,-5.36543 2.09995,-0.37679 2.84091,-0.43265 5.77747,-0.43559 1.89281,-0.002 4.10644,0.0901 5.05285,0.21002 3.38228,0.42852 7.07335,1.47319 10.10565,2.86017 1.82523,0.83485 5.58014,3.42228 7.2918,5.02462 0.71298,0.66742 1.36207,1.21349 1.44245,1.21349 0.0804,0 0.66407,-0.72608 1.29712,-1.61352 2.15046,-3.01489 5.08555,-5.08301 9.15702,-6.45228 3.02948,-1.01881 4.40182,-1.22673 8.09692,-1.22673 3.52136,0 4.97834,0.20281 7.66276,1.06661 6.62862,2.13297 10.81706,6.41415 11.45617,11.70979 l 0.14634,1.21349 h 0.85132 c 1.22639,0 3.87229,0.41438 5.4087,0.84708 2.79379,0.7868 5.76357,2.37038 7.45092,3.97309 1.6085,1.52777 3.29183,4.44597 3.29183,5.70661 v 0.43374 l 2.97556,0.004 c 2.56146,0.003 3.18868,0.0558 4.5069,0.38009 1.62264,0.39925 3.99604,1.39575 4.87105,2.04514 0.98876,0.73386 1.19469,0.55678 1.45853,-1.2542 0.30114,-2.06678 1.5234,-4.40713 3.20048,-6.12805 2.10388,-2.15891 4.50116,-3.59786 7.80252,-4.68341 2.91797,-0.95951 4.62731,-1.22278 7.97225,-1.22791 3.36043,-0.005 5.04518,0.25607 7.98461,1.23801 10.70033,3.57458 14.36785,12.84423 7.8471,19.83357 -0.66754,0.7155 -1.14264,1.34986 -1.05576,1.40969 0.0868,0.0598 1.27907,0.32096 2.64925,0.58033 2.78129,0.52647 4.16795,0.88309 6.16091,1.58456 2.1912,0.77121 3.98015,2.29663 3.12538,2.66496 -1.59299,0.68648 -14.52346,1.22888 -41.19629,1.72813 -7.77073,0.14544 -91.00894,0.31899 -99.48471,0.20741 z"
       id="path2012"
       inkscape:label="Wolke 12 mitte"
       clip-path="url(#clipPath2068)"
       transform="translate(-305.91672,0.0014772)" /><path
       style="fill:#ffffff;fill-opacity:0.83;stroke:none;stroke-width:7.25535"
       d="m 641.42438,124.51569 c 15.72432,-0.14288 23.59968,-0.25931 27.93604,-0.41301 3.29429,-0.11675 3.64398,-0.18298 2.65683,-0.50315 -1.16874,-0.37907 -4.08342,-0.7289 -8.03317,-0.96416 -3.44647,-0.20528 -3.31191,-0.1631 -2.51328,-0.7878 1.49718,-1.17107 1.65593,-2.80999 0.39315,-4.05808 -0.52048,-0.51438 -1.93152,-1.30505 -2.90319,-1.62677 -0.43992,-0.14565 -0.94384,-0.31604 -1.11982,-0.37864 l -0.31995,-0.11382 0.40177,-0.95499 c 0.86291,-2.05116 0.3823,-4.0533 -1.41112,-5.87835 -0.96199,-0.97895 -1.96255,-1.67789 -3.52882,-2.46509 -2.7364,-1.37533 -5.36354,-2.11225 -9.24323,-2.59276 -1.47008,-0.18208 -1.98879,-0.20907 -4.04452,-0.21049 -1.32506,-9.7e-4 -2.87472,0.0435 -3.53725,0.10149 -2.36776,0.20707 -4.9517,0.71189 -7.07446,1.38213 -1.27775,0.40342 -3.90638,1.65376 -5.10462,2.42806 -0.49913,0.32252 -0.95352,0.5864 -1.00979,0.5864 -0.0562,0 -0.46489,-0.35087 -0.90805,-0.77971 -1.50543,-1.45689 -3.56014,-2.45628 -6.41037,-3.11795 -2.12079,-0.49233 -3.0815,-0.5928 -5.66825,-0.5928 -2.46512,0 -3.48508,0.098 -5.36432,0.51542 -4.64036,1.03072 -7.57248,3.09953 -8.01989,5.65856 l -0.10244,0.5864 h -0.59597 c -0.85853,0 -2.71079,0.20025 -3.78635,0.40934 -1.9558,0.38021 -4.0348,1.14545 -5.21602,1.91993 -1.12603,0.73827 -2.30445,2.14844 -2.30445,2.75762 v 0.2096 l -2.08304,0.002 c -1.79314,0.001 -2.23223,0.027 -3.15506,0.18367 -1.13592,0.19294 -2.79742,0.67448 -3.40997,0.98828 -0.69218,0.35463 -0.83635,0.26906 -1.02105,-0.60607 -0.21081,-0.99873 -1.06645,-2.12967 -2.24049,-2.96127 -1.47282,-1.04326 -3.15104,-1.73861 -5.46215,-2.26319 -2.04274,-0.46366 -3.23935,-0.59088 -5.58098,-0.59336 -2.35246,-0.002 -3.53188,0.12374 -5.58962,0.59825 -7.49077,1.72736 -10.05821,6.20676 -5.49337,9.58425 0.46732,0.34575 0.79991,0.65229 0.73909,0.6812 -0.0608,0.0289 -0.89541,0.1551 -1.85461,0.28044 -1.94704,0.25441 -2.91777,0.42674 -4.31295,0.76571 -1.53394,0.37268 -2.7863,1.10981 -2.18792,1.2878 1.11518,0.33173 10.16715,0.59384 28.83946,0.83509 5.43991,0.0703 63.71081,0.15415 69.64427,0.10023 z"
       id="path2072"
       inkscape:label="Wolke 13 mitte (rechte hälfte)"
       clip-path="url(#clipPath2141)"
       transform="translate(-305.91672,0.0014772)" /><path
       style="fill:#ffffff;fill-opacity:0.83;stroke:none;stroke-width:7.25535"
       d="m 641.42438,124.51569 c 15.72432,-0.14288 23.59968,-0.25931 27.93604,-0.41301 3.29429,-0.11675 3.64398,-0.18298 2.65683,-0.50315 -1.16874,-0.37907 -4.08342,-0.7289 -8.03317,-0.96416 -3.44647,-0.20528 -3.31191,-0.1631 -2.51328,-0.7878 1.49718,-1.17107 1.65593,-2.80999 0.39315,-4.05808 -0.52048,-0.51438 -1.93152,-1.30505 -2.90319,-1.62677 -0.43992,-0.14565 -0.94384,-0.31604 -1.11982,-0.37864 l -0.31995,-0.11382 0.40177,-0.95499 c 0.86291,-2.05116 0.3823,-4.0533 -1.41112,-5.87835 -0.96199,-0.97895 -1.96255,-1.67789 -3.52882,-2.46509 -2.7364,-1.37533 -5.36354,-2.11225 -9.24323,-2.59276 -1.47008,-0.18208 -1.98879,-0.20907 -4.04452,-0.21049 -1.32506,-9.7e-4 -2.87472,0.0435 -3.53725,0.10149 -2.36776,0.20707 -4.9517,0.71189 -7.07446,1.38213 -1.27775,0.40342 -3.90638,1.65376 -5.10462,2.42806 -0.49913,0.32252 -0.95352,0.5864 -1.00979,0.5864 -0.0562,0 -0.46489,-0.35087 -0.90805,-0.77971 -1.50543,-1.45689 -3.56014,-2.45628 -6.41037,-3.11795 -2.12079,-0.49233 -3.0815,-0.5928 -5.66825,-0.5928 -2.46512,0 -3.48508,0.098 -5.36432,0.51542 -4.64036,1.03072 -7.57248,3.09953 -8.01989,5.65856 l -0.10244,0.5864 h -0.59597 c -0.85853,0 -2.71079,0.20025 -3.78635,0.40934 -1.9558,0.38021 -4.0348,1.14545 -5.21602,1.91993 -1.12603,0.73827 -2.30445,2.14844 -2.30445,2.75762 v 0.2096 l -2.08304,0.002 c -1.79314,0.001 -2.23223,0.027 -3.15506,0.18367 -1.13592,0.19294 -2.79742,0.67448 -3.40997,0.98828 -0.69218,0.35463 -0.83635,0.26906 -1.02105,-0.60607 -0.21081,-0.99873 -1.06645,-2.12967 -2.24049,-2.96127 -1.47282,-1.04326 -3.15104,-1.73861 -5.46215,-2.26319 -2.04274,-0.46366 -3.23935,-0.59088 -5.58098,-0.59336 -2.35246,-0.002 -3.53188,0.12374 -5.58962,0.59825 -7.49077,1.72736 -10.05821,6.20676 -5.49337,9.58425 0.46732,0.34575 0.79991,0.65229 0.73909,0.6812 -0.0608,0.0289 -0.89541,0.1551 -1.85461,0.28044 -1.94704,0.25441 -2.91777,0.42674 -4.31295,0.76571 -1.53394,0.37268 -2.7863,1.10981 -2.18792,1.2878 1.11518,0.33173 10.16715,0.59384 28.83946,0.83509 5.43991,0.0703 63.71081,0.15415 69.64427,0.10023 z"
       id="path2204"
       inkscape:label="Wolke 13 mitte (linke hälfte)"
       clip-path="url(#clipPath2200)"
       transform="translate(-611.83365,0.00191277)" /><path
       style="fill:url(#linearGradient1428);fill-opacity:1;stroke:none;stroke-width:10.7307"
       d="m 42.135751,144.04171 c -16.28774,-0.30173 -24.44528,-0.54762 -28.93702,-0.87217 -3.4123305,-0.24658 -3.7745405,-0.38644 -2.75203,-1.06259 1.21062,-0.80051 4.22974,-1.53928 8.32101,-2.03611 3.56997,-0.43351 3.43058,-0.34444 2.60333,-1.66368 -1.55082,-2.47307 -1.71525,-5.93414 -0.40723,-8.56985 0.53912,-1.08628 2.00073,-2.75602 3.00722,-3.43545 0.45569,-0.30759 0.97765,-0.66741 1.15993,-0.79959 l 0.33142,-0.24036 -0.41616,-2.01677 c -0.89383,-4.33166 -0.39601,-8.55978 1.46168,-12.41393 0.99646,-2.06735 2.03286,-3.54339 3.65525,-5.20581 2.83447,-2.90442 5.55572,-4.46064 9.57443,-5.4754 1.52276,-0.384508 2.06005,-0.441522 4.18944,-0.444516 1.37254,-0.0021 2.97773,0.09198 3.66399,0.214336 2.4526,0.4373 5.12912,1.50337 7.32795,2.91878 1.32352,0.85196 4.04634,3.49242 5.28753,5.1276 0.51701,0.68111 0.98768,1.23837 1.04597,1.23837 0.0582,0 0.48154,-0.74097 0.94057,-1.64659 1.55938,-3.07669 3.68771,-5.18719 6.64008,-6.58452 2.19677,-1.0397 3.1919,-1.251882 5.87134,-1.251882 2.55345,0 3.60995,0.206962 5.55653,1.088472 4.80663,2.17668 7.84381,6.54561 8.30724,11.94979 l 0.10612,1.23835 h 0.61732 c 0.8893,0 2.80793,0.42288 3.92202,0.86444 2.02588,0.80294 4.17936,2.41897 5.402924,4.05453 1.16637,1.55909 2.387015,4.53709 2.387015,5.82356 v 0.44264 l 2.15768,0.004 c 1.85739,0.002 2.31221,0.0569 3.2681,0.38788 1.17662,0.40744 2.89765,1.42436 3.53216,2.08706 0.71699,0.7489 0.86631,0.56819 1.05763,-1.27992 0.21836,-2.10913 1.10467,-4.49744 2.32078,-6.25363 1.52559,-2.20315 3.26393,-3.6716 5.65786,-4.7794 2.11593,-0.97918 3.35542,-1.24784 5.78094,-1.25309 2.43676,-0.005 3.65844,0.26133 5.7899,1.2634 7.75918,3.64784 10.41861,13.10747 5.69021,20.24004 -0.48406,0.73019 -0.82858,1.37755 -0.76557,1.4386 0.063,0.061 0.92749,0.32755 1.92107,0.59223 2.01679,0.53724 3.02231,0.9012 4.46748,1.61702 1.58891,0.78702 2.88614,2.34371 2.26631,2.7196 -1.15514,0.70054 -10.53144,1.25406 -29.87281,1.76353 -5.63482,0.14843 -65.993629,0.32553 -72.139679,0.21167 z"
       id="path1396"
       inkscape:label="Wolke 10 mitte" /><path
       style="fill:url(#linearGradient3622);fill-opacity:1;stroke:none;stroke-width:10.2744"
       d="m 398.0819,73.939228 c -15.10282,-0.298306 -22.6669,-0.541443 -26.83186,-0.862311 -3.16409,-0.243787 -3.49995,-0.382059 -2.55181,-1.050567 1.12252,-0.791426 3.92202,-1.521852 7.71566,-2.013064 3.31024,-0.428601 3.18098,-0.340539 2.41391,-1.64484 -1.43798,-2.445096 -1.59045,-5.86699 -0.37759,-8.472876 0.4999,-1.073965 1.85518,-2.724823 2.78843,-3.396549 0.42255,-0.304109 0.90655,-0.659859 1.07556,-0.790539 l 0.30731,-0.237642 -0.38588,-1.993943 c -0.82882,-4.282641 -0.36722,-8.462907 1.35534,-12.273438 0.92396,-2.043959 1.88496,-3.50328 3.38932,-5.146902 2.62826,-2.871541 5.15155,-4.410133 8.87789,-5.413414 1.41198,-0.380159 1.91019,-0.436522 3.88466,-0.439497 1.27269,-0.0016 2.76111,0.09092 3.39743,0.211929 2.27418,0.432336 4.75597,1.486353 6.79483,2.88574 1.22725,0.842302 3.752,3.452896 4.90288,5.069563 0.4794,0.673381 0.91582,1.224332 0.96986,1.224332 0.0539,0 0.44652,-0.732581 0.87215,-1.627951 1.44594,-3.041857 3.41943,-5.128471 6.15703,-6.509994 2.03694,-1.027905 2.95967,-1.237703 5.4442,-1.237703 2.36768,0 3.34731,0.20463 5.15226,1.076141 4.45695,2.152055 7.2732,6.471541 7.7029,11.814547 l 0.0984,1.224347 h 0.57243 c 0.82459,0 2.60363,0.418093 3.63669,0.854661 1.87848,0.793851 3.87531,2.391582 5.00984,4.008632 1.08152,1.541442 2.21337,4.485738 2.21337,5.757647 v 0.437642 l 2.00071,0.0046 c 1.72226,0.0016 2.14398,0.05612 3.03036,0.383486 1.09101,0.402821 2.68684,1.408233 3.27518,2.063446 0.66482,0.740418 0.80328,0.561761 0.9807,-1.265408 0.20247,-2.08528 1.02429,-4.446579 2.15193,-6.182886 1.4146,-2.178212 3.02648,-3.630036 5.24624,-4.725298 1.962,-0.968092 3.11132,-1.233716 5.36039,-1.238914 2.25948,-0.0046 3.39227,0.258371 5.36868,1.249095 7.19471,3.606561 9.66064,12.959118 5.27624,20.010986 -0.44884,0.721908 -0.7683,1.361942 -0.70987,1.422307 0.0584,0.06025 0.86002,0.323842 1.78131,0.585525 1.87007,0.531171 2.80245,0.890984 4.14248,1.59873 1.47332,0.778119 2.67616,2.317169 2.10141,2.688812 -1.07109,0.692605 -9.76526,1.239859 -27.69953,1.743568 -5.22488,0.146727 -61.1926,0.321858 -66.89151,0.209284 z"
       id="path3591"
       inkscape:label="Wolke 14 mitte"
       clip-path="url(#clipPath3601)"
       transform="matrix(1.9179227,0,0,1,-822.897,-9.6991909)" /></g></svg>
