<?xml version="1.0" standalone="no"?>
<svg xmlns="http://www.w3.org/2000/svg" viewBox="0 0 149 72" width="149" height="72"><g fill="#80BA24" color="#80BA24" transform="translate(52.496 0) scale(0.34375) "><svg width="128.0" height="128.0" x="0.0" y="0.0" viewBox="0 0 128 128"><title></title><path d="M24.94617,48.00012h5.79065l8.5918-8.208a2.00205,2.00205,0,0,0,.61865-1.44629v-8.3457A1.99964,1.99964,0,0,0,36.751,28.39758L9.55347,48.69159a16.3045,16.3045,0,0,1,4.64429-.69147h2.97034l18.77917-14.0127v3.50293Z"></path><path d="M110.83191,48.00012h2.97034a16.30324,16.30324,0,0,1,4.64441.69153L91.249,28.39758a1.99964,1.99964,0,0,0-3.19629,1.60254v8.3457a2.00205,2.00205,0,0,0,.61865,1.44629l8.5918,8.208h5.79065L92.05273,37.49036V33.98743Z"></path><path d="M38,76a3.99891,3.99891,0,0,0,4-4V64a3.99887,3.99887,0,0,0-4-4H4a4.10573,4.10573,0,0,0-4,4v8a4.019,4.019,0,0,0,4,4Z"></path><path d="M124,60H90a3.99887,3.99887,0,0,0-4,4v8a3.99891,3.99891,0,0,0,4,4h34a4.09748,4.09748,0,0,0,4-4V63.99994a3.70174,3.70174,0,0,0-.02069-.38989A4.093,4.093,0,0,0,124,60Z"></path><path d="M124,80H90a8.01066,8.01066,0,0,1-8-8V64a8.01062,8.01062,0,0,1,8-8h32.88a12.27626,12.27626,0,0,0-9.08-4H14.2a12.27626,12.27626,0,0,0-9.08,4H38a8.01062,8.01062,0,0,1,8,8v8a8.01066,8.01066,0,0,1-8,8H4c-.23,0-.46-.01-.68-.03l.78,9.14c0,.02.01.05.01.07A12.09625,12.09625,0,0,0,16.24,100H45.03A12.09519,12.09519,0,0,0,57.15,89.31a2.21024,2.21024,0,0,1,2.18-1.81h9.34a2.21024,2.21024,0,0,1,2.18,1.81A12.09519,12.09519,0,0,0,82.97,100h28.79a12.09625,12.09625,0,0,0,12.13-10.82c0-.02.01-.05.01-.07l.78-9.14C124.46,79.99,124.23,80,124,80ZM77.71,57.49l-3.2,8A4.0018,4.0018,0,0,1,70.8,68H57.2a4.0018,4.0018,0,0,1-3.71-2.51l-3.2-8A3.98959,3.98959,0,0,1,50.00159,56H54l3.2,8H70.8L74,56h3.99841A3.98959,3.98959,0,0,1,77.71,57.49Z"></path></svg></g><path fill="#ffffff" fill-rule="nonzero" d="M10.32 1.85L13.80 1.85L8.42 17.98Q7.99 19.08 6.89 19.08L6.89 19.08Q5.74 19.08 5.30 17.98L5.30 17.98L0 1.85L3.46 1.85L6.89 12.98L10.32 1.85ZM17.21 0Q18.34 0 18.67 0.35Q19.01 0.70 19.01 1.81Q19.01 2.93 18.66 3.28Q18.31 3.62 17.20 3.62Q16.08 3.62 15.73 3.26Q15.38 2.90 15.38 1.80Q15.38 0.70 15.73 0.35Q16.08 0 17.21 0ZM18.74 5.74L18.74 18.94L15.62 18.94L15.62 5.74L18.74 5.74ZM29.50 5.28L29.50 5.28L28.63 8.35Q28.27 8.21 27.82 8.21L27.82 8.21Q26.62 8.21 24.86 9.24L24.86 9.24L24.86 18.94L21.74 18.94L21.74 5.23L24.07 5.23L24.79 6.43L28.10 5.06Q28.34 5.04 28.75 5.04Q29.16 5.04 29.50 5.28ZM37.44 16.30L37.44 18.94L35.50 18.94Q33.72 18.94 32.80 17.88Q31.87 16.82 31.87 15.36L31.87 15.36L31.87 8.16L30.55 8.16L30.55 5.78L31.87 5.78L31.87 3.10L34.99 3.10L34.99 5.78L37.20 5.78L37.20 8.16L34.99 8.16L34.99 15.17Q34.99 16.30 36.07 16.30L36.07 16.30L37.44 16.30ZM50.28 5.23L50.28 18.94L47.95 18.94L47.23 17.30L43.39 19.08Q41.78 19.08 40.60 17.89Q39.41 16.70 39.41 14.42L39.41 14.42L39.41 5.23L42.53 5.23L42.53 13.75Q42.53 16.03 44.35 16.03L44.35 16.03L47.16 14.52L47.16 5.23L50.28 5.23ZM63.22 5.14L63.22 18.94L61.13 18.94L60.17 17.28L56.83 19.08Q54.05 19.08 53.09 17.06L53.09 17.06Q52.61 16.08 52.43 14.94Q52.25 13.80 52.25 12.56Q52.25 11.33 52.27 10.74Q52.30 10.15 52.39 9.37Q52.49 8.59 52.67 8.06Q52.85 7.54 53.18 6.97Q53.52 6.41 54 6.07L54 6.07Q55.08 5.33 56.81 5.33L56.81 5.33L60.10 5.33L63.22 5.14ZM57.72 15.79L60.10 14.57L60.10 8.14L57.72 8.14Q56.40 8.14 55.88 9.14Q55.37 10.15 55.37 12.16Q55.37 14.16 55.86 14.98Q56.35 15.79 57.72 15.79L57.72 15.79ZM69.60 0.89L69.60 18.94L66.48 18.96L66.48 0.89L69.60 0.89ZM82.44 1.85L85.75 1.85L85.75 13.08Q85.75 15.86 83.87 17.47Q81.98 19.08 79.22 19.08Q76.46 19.08 74.58 17.47Q72.70 15.86 72.70 13.08L72.70 13.08L72.70 1.85L76.03 1.85L76.03 12.96Q76.03 14.54 76.91 15.32Q77.78 16.10 79.22 16.10Q80.66 16.10 81.55 15.32Q82.44 14.54 82.44 12.96L82.44 12.96L82.44 1.85ZM104.90 1.85L108.38 1.85L103.80 18.94L101.02 18.94L97.87 8.57L94.73 18.94L91.94 18.94L87.38 1.85L90.86 1.85L93.50 12.62L96.12 3.72Q96.55 1.73 97.94 1.73L97.94 1.73Q98.64 1.73 99 2.24Q99.36 2.76 99.65 3.72L99.65 3.72L102.24 12.62L104.90 1.85ZM117.70 12.74L117.70 12.74L117.70 11.50Q117.70 9.72 117.18 8.78Q116.66 7.85 115.03 7.85L115.03 7.85Q112.39 7.85 112.39 11.40L112.39 11.40L112.39 12.65Q112.39 16.46 115.03 16.46L115.03 16.46Q116.74 16.46 117.26 15.19L117.26 15.19Q117.70 14.18 117.70 12.74ZM120.82 12.02L120.82 12.02Q120.82 16.46 119.14 17.98L119.14 17.98Q117.72 19.27 115.03 19.27L115.03 19.27Q111.60 19.27 110.40 17.26L110.40 17.26Q109.27 15.41 109.27 12.02L109.27 12.02Q109.27 8.86 110.40 7.06L110.40 7.06Q111.65 5.04 114.95 5.04Q118.25 5.04 119.53 6.80Q120.82 8.57 120.82 12.02ZM130.58 5.28L130.58 5.28L129.72 8.35Q129.36 8.21 128.90 8.21L128.90 8.21Q127.70 8.21 125.95 9.24L125.95 9.24L125.95 18.94L122.83 18.94L122.83 5.23L125.16 5.23L125.88 6.43L129.19 5.06Q129.43 5.04 129.84 5.04Q130.25 5.04 130.58 5.28ZM135.67 0.89L135.67 18.94L132.55 18.96L132.55 0.89L135.67 0.89ZM148.99 0.89L148.99 18.94L146.90 18.94L145.94 17.28L142.61 19.08Q139.82 19.08 138.86 17.06L138.86 17.06Q138.38 16.08 138.20 14.94Q138.02 13.80 138.02 12.56Q138.02 11.33 138.05 10.74Q138.07 10.15 138.17 9.37Q138.26 8.59 138.44 8.06Q138.62 7.54 138.96 6.97Q139.30 6.41 139.78 6.07L139.78 6.07Q140.86 5.33 142.58 5.33L142.58 5.33L145.87 5.33L145.87 0.89L148.99 0.89ZM143.50 15.79L145.87 14.57L145.87 8.14L143.50 8.14Q142.18 8.14 141.66 9.14Q141.14 10.15 141.14 12.16Q141.14 14.16 141.64 14.98Q142.13 15.79 143.50 15.79L143.50 15.79Z" transform="translate(0, 52)"></path></svg>