<?xml version="1.0" standalone="no"?>
<!DOCTYPE svg PUBLIC "-//W3C//DTD SVG 20010904//EN"
 "http://www.w3.org/TR/2001/REC-SVG-20010904/DTD/svg10.dtd">
<svg version="1.0" xmlns="http://www.w3.org/2000/svg"
 width="135.000000pt" height="262.000000pt" viewBox="0 0 135.000000 262.000000"
 preserveAspectRatio="xMidYMid meet">

<g transform="translate(0.000000,262.000000) scale(0.100000,-0.100000)"
fill="#000000" stroke="none">
<path d="M253 2613 c142 -2 372 -2 510 0 139 1 23 2 -258 2 -280 0 -394 -1
-252 -2z"/>
<path d="M1287 2478 c8 -332 23 -1281 20 -1284 -2 -2 -52 -7 -111 -11 -83 -5
-110 -3 -116 7 -5 8 -17 10 -34 6 -19 -5 -26 -13 -26 -31 l0 -25 144 0 144 0
6 -252 c3 -139 9 -394 12 -566 l7 -312 -124 5 c-68 3 -351 10 -629 16 -278 6
-508 14 -511 17 -3 4 -16 425 -29 937 -12 512 -26 1038 -30 1170 -4 143 -7
-245 -8 -957 l-2 -1198 675 0 675 0 0 1310 0 1310 -34 0 -33 0 4 -142z"/>
</g>
</svg>
