<?xml version="1.0" encoding="UTF-8" standalone="no"?>
<!-- Created with Inkscape (http://www.inkscape.org/) -->

<svg
   version="1.1"
   id="svg2"
   width="546.17297"
   height="403.96399"
   viewBox="0 0 546.17297 403.96399"
   sodipodi:docname="kreide 1.svg"
   inkscape:version="1.2 (dc2aedaf03, 2022-05-15)"
   xmlns:inkscape="http://www.inkscape.org/namespaces/inkscape"
   xmlns:sodipodi="http://sodipodi.sourceforge.net/DTD/sodipodi-0.dtd"
   xmlns="http://www.w3.org/2000/svg"
   xmlns:svg="http://www.w3.org/2000/svg">
  <defs
     id="defs6" />
  <sodipodi:namedview
     id="namedview4"
     pagecolor="#ffffff"
     bordercolor="#999999"
     borderopacity="1"
     inkscape:showpageshadow="0"
     inkscape:pageopacity="0"
     inkscape:pagecheckerboard="0"
     inkscape:deskcolor="#d1d1d1"
     showgrid="false"
     inkscape:zoom="0.80017095"
     inkscape:cx="-36.867122"
     inkscape:cy="228.70113"
     inkscape:window-width="1827"
     inkscape:window-height="1046"
     inkscape:window-x="-11"
     inkscape:window-y="-11"
     inkscape:window-maximized="1"
     inkscape:current-layer="g8" />
  <g
     inkscape:groupmode="layer"
     inkscape:label="Image"
     id="g8">
    <path
       style="fill:#000000;stroke-width:1.06667"
       d="m 149.24537,405.83994 c -7.34322,-1.73067 -14.71132,-6.3331 -23.34689,-14.58347 -10.76042,-10.28046 -14.18231,-15.87904 -14.14465,-23.14223 0.0154,-2.9606 0.79337,-6.82292 1.72893,-8.58292 1.75579,-3.30299 345.33406,-350.1542785 351.01313,-354.3569485 7.75813,-5.74124995 18.11062,-3.88687 26.63898,4.77169 6.39585,6.4935005 30.42659,27.9786065 26.5919,31.8132865 -4.13559,4.13559 0.33106,16.911849 -5.39043,11.637959 -2.59844,-2.39517 -36.97439,-34.682625 -37.77843,-34.487465 -2.22044,0.53895 -346.37486,347.798268 -346.37486,349.499788 0,2.40655 14.88184,17.03979 19.70263,19.37349 4.1381,2.00322 6.54559,2.1482 35.67294,2.1482 26.33571,0 31.79577,-0.26593 34.80799,-1.69533 1.96496,-0.93243 28.6775,-26.89815 59.3612,-57.7016 30.68371,-30.80345 77.47119,-77.66731 78.76924,-78.17522 5.17378,-2.02446 11.4419,3.5714 11.4419,9.75183 0,1.54748 -37.39046,38.97707 -73.08924,74.92463 l -52,52.36236 c 55.96615,19.37667 -18.90648,15.27789 -93.60434,16.44195 z m 44.91177,-28.93531 c -3.329,-1.11458 -5.70371,-6.05126 -4.74613,-9.86653 0.6505,-2.59184 5.38818,-5.90678 8.44188,-5.90678 0.83002,0 2.77386,0.99484 4.31964,2.21075 2.14889,1.69032 2.81052,3.15804 2.81052,6.23468 0,6.05373 -4.84215,9.33131 -10.82591,7.32788 z M 149.5938,371.1208 c -2.93266,-3.72827 -2.79224,-7.37162 0.40744,-10.57129 3.19967,-3.19968 6.84302,-3.3401 10.57129,-0.40744 3.52165,2.77013 3.85336,8.47975 0.67719,11.65592 -3.17617,3.17617 -8.88579,2.84446 -11.65592,-0.67719 z M 51.685429,343.3911 c -5.206063,-2.56688 -20.199345,-18.6817 -21.070096,-22.6462 -1.434539,-6.53141 0.270982,-9.78123 10.523748,-20.05268 10.240517,-10.25917 14.006474,-12.18852 20.573776,-10.54023 3.241202,0.81349 19.995408,16.63432 22.302143,21.0597 1.923719,3.69057 1.915168,8.70943 -0.02108,12.37261 -0.837361,1.5842 -5.277361,6.57509 -9.866666,11.09086 -10.81713,10.64382 -15.132503,12.31982 -22.441825,8.71594 z m 11.446096,-21.20852 4.725972,-4.81541 -5.037216,-5.03722 -5.037217,-5.03722 -5.037217,5.03722 -5.037217,5.03722 4.725972,4.81541 c 2.599284,2.64848 5.006093,4.81541 5.348462,4.81541 0.342369,0 2.749177,-2.16693 5.348461,-4.81541 z m 177.128935,3.07156 c -2.93266,-3.72828 -2.79224,-7.37163 0.40744,-10.57129 5.2018,-5.20182 13.38181,-1.707 13.38181,5.71722 0,7.32203 -9.2787,10.5883 -13.78925,4.85407 z m -34.79256,-9.40767 c -3.35959,-3.35959 -3.42212,-7.98802 -0.14944,-11.06255 5.28686,-4.96674 13.53125,-1.61883 13.53125,5.49481 0,7.28878 -8.23462,10.71494 -13.38181,5.56774 z m 27.73333,-27.73333 c -5.23369,-5.23368 -1.93143,-13.38181 5.42337,-13.38181 7.60351,0 11.02544,9.16599 5.14793,13.78924 -3.72828,2.93267 -7.37163,2.79225 -10.5713,-0.40743 z m 125.7244,-24.24979 c -3.17066,-1.5329 -4.98027,-6.16377 -3.70029,-9.46923 0.55292,-1.42787 10.94391,-12.803 23.09108,-25.27809 l 22.08577,-22.68196 c 10.93527,-11.41418 3.77998,-2.65235 12.05937,-11.67234 l 9.971,-10.01263 c 8.5241,-8.55969 8.48506,-8.31491 11.07488,-10.5792 9.66295,-9.29453 4.70997,-6.54528 11.51039,-12.05101 l 9.5826,-9.53821 c 5.27043,-5.24601 9.5826,-10.00385 9.5826,-10.57298 0,-0.56913 -5.52,-6.62362 -12.26666,-13.45442 -12.38247,-12.53689 -13.56012,-14.54345 -11.5737,-19.71998 1.05356,-2.74554 6.67531,-4.749 9.92761,-3.53798 1.49202,0.55556 8.11166,6.37702 14.71032,12.93657 l 11.99758,11.92647 9.60242,-9.55793 c 5.28134,-5.25688 9.60243,-10.0236 9.60243,-10.59273 0,-0.56913 -5.52,-6.62362 -12.26667,-13.454417 -10.24241,-10.37014 -12.26666,-12.95589 -12.26666,-15.66929 0,-4.87084 3.19522,-8.17932 7.89933,-8.17932 3.56331,0 5.00983,1.09945 16.42164,12.48152 l 12.51412,12.48152 10.91579,-10.95306 c 6.00368,-6.02419 10.91578,-11.67388 10.91578,-12.55487 0,-0.88098 -4.76776,-6.35167 -10.59503,-12.15707 -5.82725,-5.805401 -10.87744,-11.680531 -11.22262,-13.055851 -0.7295,-2.90658 -2.43847,-14.731266 0.0679,-15.693046 5.02485,-1.92821 11.3574,5.700336 22.98384,17.157306 15.74179,15.512321 18.4221,21.714731 13.79088,31.913061 -1.42134,3.12992 -27.07242,29.656207 -89.22242,92.266657 -47.97515,48.3306 -88.22691,88.45681 -89.44837,89.16935 -2.68421,1.56586 -4.66485,1.59224 -7.7449,0.10315 z M 143.64972,252.9558 c -5.00573,-2.22969 -20.38701,-18.68041 -21.27835,-22.7578 -1.45687,-6.66446 0.20643,-9.86007 10.47902,-20.13266 14.56585,-14.56584 18.48972,-14.69394 32.49793,-1.06093 9.71784,9.45755 11.9014,12.70991 11.9014,17.72692 0,4.91587 -2.16625,8.20205 -11.38914,17.27717 -10.65203,10.48137 -14.91314,12.19789 -22.21086,8.9473 z m 11.21512,-21.43988 4.72598,-4.81542 -5.03722,-5.03721 -5.03722,-5.03722 -5.03721,5.03722 -5.03722,5.03721 4.72598,4.81542 c 2.59928,2.64848 5.00609,4.81541 5.34845,4.81541 0.34237,0 2.74918,-2.16693 5.34846,-4.81541 z M 23.116398,240.64275 C 19.605312,239.18344 2.5207768,220.98369 1.7393698,217.87032 c -1.64880504,-6.56937 0.258936,-10.27265 10.3668042,-20.12395 15.125954,-14.74199 19.311536,-14.73324 34.117442,0.0714 9.7162,9.71535 11.623048,13.54954 9.999557,20.10658 -0.419233,1.69322 -5.131128,7.3514 -11.109265,13.34034 -10.084347,10.10256 -10.516854,10.39807 -15.122712,10.33239 -2.607806,-0.0372 -5.701464,-0.46661 -6.874798,-0.95429 z m 11.200001,-21.91142 4.710843,-4.8 -4.714745,-4.80398 -4.714747,-4.80398 -5.107205,5.03042 -5.107204,5.03041 4.488618,4.57356 c 2.468739,2.51547 4.768737,4.57357 5.111107,4.57357 0.342369,0 2.742369,-2.16 5.333333,-4.8 z"
       id="path347"
       sodipodi:nodetypes="cssssssssssssssssccsssssssssssssssssssscccccssssssssssssssssssccsccsssssscsssssscssssssssssssssssssscccccssssssssssssscccccsss" />
  </g>
</svg>
