<?xml version="1.0" encoding="UTF-8" standalone="no"?>
<svg
   version="1.0"
   width="820.000000pt"
   height="821.000000pt"
   viewBox="0 0 820.000000 821.000000"
   preserveAspectRatio="xMidYMid meet"
   id="svg187"
   sodipodi:docname="pencil.svg"
   inkscape:version="1.2 (dc2aedaf03, 2022-05-15)"
   xmlns:inkscape="http://www.inkscape.org/namespaces/inkscape"
   xmlns:sodipodi="http://sodipodi.sourceforge.net/DTD/sodipodi-0.dtd"
   xmlns="http://www.w3.org/2000/svg"
   xmlns:svg="http://www.w3.org/2000/svg">
  <defs
     id="defs191" />
  <sodipodi:namedview
     id="namedview189"
     pagecolor="#ffffff"
     bordercolor="#999999"
     borderopacity="1"
     inkscape:showpageshadow="0"
     inkscape:pageopacity="0"
     inkscape:pagecheckerboard="0"
     inkscape:deskcolor="#d1d1d1"
     inkscape:document-units="pt"
     showgrid="false"
     inkscape:zoom="0.19960414"
     inkscape:cx="919.3196"
     inkscape:cy="-30.059497"
     inkscape:window-width="1827"
     inkscape:window-height="1046"
     inkscape:window-x="-11"
     inkscape:window-y="-11"
     inkscape:window-maximized="1"
     inkscape:current-layer="g185" />
  <g
     transform="translate(0.000000,821.000000) scale(0.100000,-0.100000)"
     fill="#000000"
     stroke="none"
     id="g185">
    <path
       d="M6650 8182 c-122 -41 -147 -62 -491 -394 -184 -178 -1478 -1465 -2876 -2862 l-2543 -2539 -224 -676 c-452 -1361 -520 -1575 -511 -1610 9 -37 71 -91 105 -91 42 0 323 90 1747 562 l522 173 2368 2366 c2592 2588 3153 3153 3287 3304 145 163 170 237 164 478 -5 177 -17 219 -100 343 -85 127 -723 762 -872 868 -110 79 -146 89 -346 93 -149 3 -183 0 -230 -15z m336 -234 c74 -27 168 -110 520 -463 441 -442 469 -481 462 -637 -4 -103 -24 -146 -115 -254 -80 -94 -654 -675 -664 -672 -16 6 -1269 1254 -1269 1263 0 14 598 608 678 673 147 121 244 143 388 90z m-896 -1311 c426 -417 890 -893 890 -912 0 -8 -107 -124 -237 -256 l-238 -240 -638 639 -638 638 246 243 246 242 37 -32 c20 -18 170 -163 332 -322z m-392 -950 l632 -632 -1995 -1995 -1995 -1995 -640 640 -640 640 1993 1987 c1095 1093 1997 1987 2002 1988 6 0 295 -285 643 -633z m-4179 -4171 c321 -321 579 -586 575 -588 -5 -3 -276 -94 -603 -203 l-593 -197 -188 187 -187 187 16 52 c82 256 384 1146 389 1146 4 0 270 -263 591 -584z"
       id="path183" />
    <path
       style="fill:#ffffff;fill-opacity:0.240196;stroke-width:2.2219;stroke-miterlimit:3.8;paint-order:stroke fill markers"
       d="M 227.91827,866.69184 143.97831,782.7519 402.01739,524.9748 C 543.93886,383.19739 663.51592,264.35668 667.74414,260.88432 l 7.68769,-6.31337 83.11235,83.14012 83.11233,83.14013 L 576.75737,685.74151 311.85823,950.6318 Z"
       id="path583"
       transform="matrix(7.5,0,0,-7.5,0,8210)" />
    <path
       style="fill:#ffffff;fill-opacity:0.240196;stroke-width:2.2219;stroke-miterlimit:3.8;paint-order:stroke fill markers"
       d="M 227.91827,866.69184 143.97831,782.7519 402.01739,524.9748 C 543.93886,383.19739 663.51592,264.35668 667.74414,260.88432 l 7.68769,-6.31337 83.11235,83.14012 83.11233,83.14013 L 576.75737,685.74151 311.85823,950.6318 Z"
       id="path585"
       transform="matrix(7.5,0,0,-7.5,0,8210)" />
    <path
       style="fill:#ffffff;fill-opacity:0.240196;stroke-width:2.2219;stroke-miterlimit:3.8;paint-order:stroke fill markers"
       d="m 840.37178,368.20478 c -13.75436,-14.47936 -50.92689,-52.24343 -82.60562,-83.92017 l -57.59768,-57.59405 31.29562,-31.20078 31.29562,-31.20078 50.09917,48.4342 c 27.55453,26.63881 65.09731,64.31538 83.42839,83.72572 l 33.32922,35.29152 -30.55211,31.39523 c -16.80366,17.26737 -31.25693,31.39522 -32.11839,31.39522 -0.86145,0 -12.81985,-11.84675 -26.57422,-26.32611 z"
       id="path587"
       transform="matrix(7.5,0,0,-7.5,0,8210)" />
    <path
       style="fill:#ffffff;fill-opacity:0.240196;stroke-width:2.2219;stroke-miterlimit:3.8;paint-order:stroke fill markers"
       d="m 873.52427,219.14294 -83.21001,-82.7045 47.21916,-46.378077 c 25.97053,-25.50794 51.81177,-48.72105 57.42496,-51.584688 16.19282,-8.26096 33.00125,-5.760111 50.13641,7.45957 24.69525,19.052247 106.82191,104.603205 112.29591,116.978195 6.3942,14.45517 4.4359,29.89651 -5.5375,43.66449 -8.9352,12.33466 -89.76963,95.26951 -92.85672,95.26951 -1.24421,0 -39.7067,-37.21702 -85.47221,-82.7045 z"
       id="path589"
       transform="matrix(7.5,0,0,-7.5,0,8210)" />
    <path
       style="fill:#ffffff;fill-opacity:0.240196;stroke-width:2.2219;stroke-miterlimit:3.8;paint-order:stroke fill markers"
       d="m 96.104802,997.86751 -24.713498,-24.8275 26.042441,-77.48266 26.042445,-77.48267 18.79221,16.80553 c 10.33572,9.24304 44.58284,43.23299 76.10472,75.53322 47.28242,48.44992 56.58932,59.13242 53.18009,61.04031 -2.27284,1.27195 -37.11799,13.32157 -77.43367,26.77695 L 120.8183,1022.695 Z"
       id="path591"
       transform="matrix(7.5,0,0,-7.5,0,8210)" />
    <path
       style="fill:#000000;fill-opacity:1;stroke:#000000;stroke-width:2.2219;stroke-miterlimit:3.8;paint-order:stroke fill markers;stroke-opacity:1"
       d="m 6.6506326,1086.3283 c -2.2801211,-2.5195 -4.1456746,-6.2828 -4.1456746,-8.3628 0,-4.9244 19.522684,-65.948 62.934511,-196.71943 L 100.53087,775.53867 469.21967,408.885 C 671.99851,207.22549 844.87566,35.891876 853.39114,28.14364 877.08478,6.5847582 884.25069,3.7471713 914.83613,3.812451 934.38497,3.8541735 943.0515,4.9757302 950.71109,8.4551129 971.9877,18.120076 1069.8496,114.80784 1083.7644,139.91207 c 6.6422,11.9836 7.1448,14.82868 7.1448,40.44491 0,25.77985 -0.464,28.36121 -7.205,40.07933 -4.9578,8.61834 -125.90007,131.33192 -387.76323,393.44229 L 315.38271,994.79609 168.33742,1042.9031 c -80.874901,26.4588 -149.40684,48.0843 -152.293195,48.0566 -2.886355,-0.028 -7.1134717,-2.1119 -9.3935924,-4.6314 z M 201.64912,998.25186 c 42.70954,-14.16867 78.16699,-26.21424 78.79436,-26.76786 0.62737,-0.55364 -34.28565,-36.44636 -77.5845,-79.76157 -60.84421,-60.86722 -79.20574,-77.89623 -80.84099,-74.9742 -1.16369,2.07939 -13.79015,38.40818 -28.058797,80.73059 l -25.942992,76.94986 25.47224,25.70832 c 14.009739,14.1395 26.605059,25.296 27.989609,24.7922 1.38456,-0.5038 37.46154,-12.5086 80.17107,-26.67734 z m 340.5725,-272.9647 c 125.3115,-125.31717 227.27547,-228.41303 226.5866,-229.10189 -0.68886,-0.68886 -96.88946,107.54032 -222.1987,232.85509 L 311.88606,963.77417 227.55112,866.31554 C 167.97614,797.46986 135.185,782.61345 137.56134,780.52496 139.27322,779.02044 256.99808,648.84467 404.79123,508.56289 l 269.1273,-255.4493 83.82189,83.79387 83.82188,83.79388 -7.95447,8.20692 c -4.37494,4.51381 -6.94958,8.20692 -5.72143,8.20692 3.22814,0 -19.41119,10.82871 -19.41119,7.62233 0,-3.86257 -134.44291,-196.86561 -134.27009,-192.98923 0.11168,2.50496 -122.90541,119.43648 -269.19639,265.41439 L 248.61708,893.42144 224.17993,867.85679 c -45.80099,-47.91419 88.16925,97.1783 89.55742,97.1783 1.38815,0 103.17279,-114.43077 228.48427,-239.74793 z M 931.84439,330.83394 c 0,-3.3364 -165.73812,-169.26415 -169.07069,-169.26415 -1.42517,0 -17.21775,14.65908 -35.09463,32.57574 l -32.50344,32.57573 86.39618,86.59308 86.39615,86.59307 31.93822,-33.28112 c 17.56602,-18.30461 31.93821,-34.41116 31.93821,-35.79235 z m 36.94813,-32.30076 c 9.95386,-8.96091 -6.22876,25.53312 -15.49201,9.57666 L 939.061,296.21129 853.72843,220.93892 782.79939,142.53537 821.87743,78.705319 c 18.99038,-31.018863 61.20537,-44.254641 66.81855,-47.118279 7.73098,-3.944047 20.28864,-13.709079 30.26677,-12.881614 17.75401,1.472299 32.40597,15.810639 90.95655,75.288022 51.6694,52.487192 68.1165,73.823182 65.2432,92.984372 -2.091,13.9435 -13.4457,21.78695 -41.6808,52.31143 -12.8311,13.87141 -29.1438,20.65856 -28.5966,21.2058 0.5472,0.54725 22.4152,-3.8619 37.1145,-19.74835 24.0933,-26.03916 36.3934,-38.34462 38.8995,-50.4164 4.2029,-20.24552 -11.9462,-35.89796 -33.4293,-60.42196 -26.6256,-30.394425 -99.79292,-88.065183 -110.90932,-93.736345 -14.67733,-7.487813 -33.65534,-6.562953 -47.43619,2.311718 -14.30098,9.209619 -120.18448,96.262647 -120.13764,100.988017 0.0503,5.0659 188.2355,167.44382 191.48906,165.62988 1.47437,-0.82198 5.21693,-3.77778 8.31681,-6.56843 z"
       id="path593"
       transform="matrix(7.5,0,0,-7.5,0,8210)"
       sodipodi:nodetypes="ssscsssssssscscsssssscsssssscssscccssssscsssssscccsssscccsssssssssssssss" />
    <path
       style="fill:#000000;fill-opacity:1;stroke:none;stroke-width:1.57112;stroke-miterlimit:3.8;stroke-opacity:1;paint-order:stroke fill markers"
       d="m 772.28148,336.64537 -96.52784,-109.03774 44.63144,-44.63144 55.25908,-44.63145 96.62104,89.57954 c 47.04169,43.61341 75.36576,101.4675 75.36576,103.0079 0,1.54039 -14.85945,33.78295 -34.097,48.14819 l -46.49591,34.71984 z"
       id="path1220"
       transform="matrix(7.5,0,0,-7.5,0,8210)"
       sodipodi:nodetypes="ccccssscc" />
    <path
       style="fill:#ffffff;fill-opacity:1;stroke:none;stroke-width:1.57112;stroke-miterlimit:3.8;stroke-opacity:1;paint-order:stroke fill markers"
       d="M 95.631388,998.71923 70.684256,974.20005 96.710127,896.70687 c 14.314233,-42.62126 26.794263,-77.49319 27.733403,-77.49319 1.96291,0 147.86352,144.69874 150.15105,148.91418 1.28125,2.36104 -9.98084,6.64668 -74.10449,28.19948 -41.58845,13.97836 -76.58201,25.75186 -77.76346,26.16316 -1.18146,0.4114 -13.37432,-10.2857 -27.095242,-23.77127 z"
       id="path2019"
       transform="matrix(7.5,0,0,-7.5,0,8210)" />
  </g>
</svg>
