<?xml version="1.0" encoding="UTF-8" standalone="no"?>
<!-- Created with Inkscape (http://www.inkscape.org/) -->

<svg
   width="210mm"
   height="297mm"
   viewBox="0 0 210 297"
   version="1.1"
   id="svg5"
   xml:space="preserve"
   inkscape:version="1.2.2 (732a01da63, 2022-12-09)"
   sodipodi:docname="Stein.svg"
   xmlns:inkscape="http://www.inkscape.org/namespaces/inkscape"
   xmlns:sodipodi="http://sodipodi.sourceforge.net/DTD/sodipodi-0.dtd"
   xmlns="http://www.w3.org/2000/svg"
   xmlns:svg="http://www.w3.org/2000/svg"><sodipodi:namedview
     id="namedview7"
     pagecolor="#ffffff"
     bordercolor="#000000"
     borderopacity="0.25"
     inkscape:showpageshadow="2"
     inkscape:pageopacity="0.0"
     inkscape:pagecheckerboard="0"
     inkscape:deskcolor="#d1d1d1"
     inkscape:document-units="mm"
     showgrid="false"
     inkscape:zoom="0.73851712"
     inkscape:cx="-46.038202"
     inkscape:cy="486.10925"
     inkscape:window-width="1920"
     inkscape:window-height="1009"
     inkscape:window-x="-8"
     inkscape:window-y="-8"
     inkscape:window-maximized="1"
     inkscape:current-layer="layer1" /><defs
     id="defs2"><inkscape:path-effect
       effect="spiro"
       id="path-effect554"
       is_visible="true"
       lpeversion="1" /></defs><g
     inkscape:label="Ebene 1"
     inkscape:groupmode="layer"
     id="layer1"><path
       style="fill:#999999;stroke-width:0.264583"
       d="m 51.150963,137.83926 7.783295,4.70462 4.38872,1.65697 7.926568,3.53784 4.254373,2.23914 3.806544,2.50784 4.567854,2.73176 4.343934,1.74653 3.89611,0.94044 4.25438,0.62696 4.388719,-0.35826 8.32961,-1.2987 12.49442,-2.68698 9.35962,-1.65696 7.07569,-1.74653 3.6722,-1.34349 3.00045,-1.88088 2.23915,-2.77654 1.16435,-3.22436 0.35826,-2.23915 0.5374,-5.41872 0.31348,-3.9409 0.0448,-6.807 0.0896,-6.04568 -0.17913,-4.92612 -1.92567,-9.4044 -1.65697,-5.597858 -4.7022,-9.58354 -2.55262,-3.80654 -1.47784,-1.70175 -12.5392,-8.15048 -15.40531,-1.61219 h -3.49306 l -2.32871,0.35827 -2.06001,0.49261 -2.328709,0.58217 -1.74653,0.62697 -1.70175,0.62696 -2.06001,0.89565 -2.37349,1.11957 -2.55263,1.20914 -8.867007,4.79177 -5.01568,3.1348 -3.940892,2.82132 -2.77654,2.68698 -1.343485,1.70175 -1.388269,2.06001 -2.597407,5.194808 -2.776537,5.86656 -3.134802,5.86655 -3.851325,7.03091 -2.507843,4.52307 -1.298702,3.13481 -0.761309,2.37349 v 2.41827 l 0.223914,1.65697 1.253922,2.46306 z"
       id="path179" /><path
       style="fill:#ffffff;stroke-width:0.264583"
       d="m 73.164665,90.650327 -4.657421,10.210493 -1.791314,6.62787 -0.268697,3.49306 0.716526,3.31393 1.791316,1.61219 2.686971,1.97044 5.28438,1.34349 4.478287,1.34349 2.060012,0.44782 5.373944,2.32871 5.642641,2.68698 17.28618,7.70265 2.32871,0.17913 2.95567,-0.71653 -2.5974,-0.26869 -15.047044,-5.64264 -8.419179,-5.01568 -2.955671,-1.79132 -3.134799,-1.34349 -7.254825,-1.79131 -5.373947,-1.52262 -2.418273,-1.25392 -1.522619,-2.95567 -0.179131,-2.41827 0.537396,-2.59741 1.253918,-3.22437 1.70175,-4.120023 1.07479,-2.77654 0.537393,-1.97044 z"
       id="path736" /><path
       style="fill:#ffffff;stroke-width:0.264583"
       d="m 105.15018,78.99698 8.68787,4.65742 2.32871,0.94044 1.34349,0.44783 4.61263,3.1348 3.31394,3.09002 2.32871,4.29915 0.85087,4.120027 1.52262,9.404403 2.77654,9.00136 3.04523,7.52352 0.76131,1.11957 -0.35826,-1.52262 -1.20914,-4.52307 -3.26915,-14.68878 -0.31348,-1.65696 -0.17913,-7.613093 -0.40305,-1.343487 -0.85087,-2.10479 -1.88088,-1.92567 -3.80655,-2.82132 -6.31438,-4.20959 -10.43441,-4.7022 z"
       id="path792" /></g></svg>
