<svg xmlns:inkscape="http://www.inkscape.org/namespaces/inkscape" xmlns:sodipodi="http://sodipodi.sourceforge.net/DTD/sodipodi-0.dtd" xmlns="http://www.w3.org/2000/svg" xmlns:svg="http://www.w3.org/2000/svg" version="1.1" id="svg5" xml:space="preserve" sodipodi:docname="THM B-Gebaude.svg" inkscape:version="1.2 (dc2aeda, 2022-05-15)" viewBox="-0.01 15.44 212.29 195.57"><sodipodi:namedview id="namedview7" pagecolor="#ffffff" bordercolor="#000000" borderopacity="0.25" inkscape:showpageshadow="2" inkscape:pageopacity="0.0" inkscape:pagecheckerboard="0" inkscape:deskcolor="#d1d1d1" inkscape:document-units="mm" showgrid="false" inkscape:zoom="0.932554" inkscape:cx="389.2536" inkscape:cy="414.98937" inkscape:window-width="1440" inkscape:window-height="900" inkscape:window-x="0" inkscape:window-y="0" inkscape:window-maximized="0" inkscape:current-layer="layer1"/><defs id="defs2"><linearGradient id="linearGradient19305" inkscape:swatch="solid"><stop style="stop-color:#5f5a4d;stop-opacity:1;" offset="0" id="stop19303"/></linearGradient></defs><g inkscape:label="Ebene 1" inkscape:groupmode="layer" id="layer1" style="display:inline"><path style="fill:#ebecec;fill-opacity:1;stroke-width:22.4573" d="m 69.52157,58.17612 122.83908,-19.094042 4.13707,10.97907 -0.15912,0.954711 -8.12312,0.860448 -3.80263,-6.426499 -96.041836,14.531047 -0.391768,3.764366 -18.457676,-4.296164 z" id="path496" sodipodi:nodetypes="cccccccccc"/><path style="display:inline;fill:#c0c4c4;fill-opacity:1;stroke-width:17.601" d="M 210.00292,88.44989 0.23026794,85.008899 0.02163812,94.008902 170.8849,118.99905 l 39.11898,6.32619 z" id="path29625" sodipodi:nodetypes="cccccc"/><path style="fill:#2e2d1d;fill-opacity:1;stroke-width:22.4573" d="m 113.1888,26.77795 37.62926,-10.458504 -0.56551,27.047428 33.89153,-5.779345 -0.0102,2.772563 -106.663355,16.588527 0.149447,-1.476303 33.775848,-5.529649 z" id="path1593" sodipodi:nodetypes="ccccccccc"/><path style="fill:#47462d;fill-opacity:1;stroke-width:22.4573" d="m 150.82011,16.302847 18.33975,22.945048 -18.88845,3.243029 z" id="path2999" sodipodi:nodetypes="cccc"/><path style="fill:#a9a9a9;fill-opacity:1;stroke-width:22.4573" d="m 112.95418,26.102637 v 0.848441 l 37.86461,-10.618707 0.0422,-0.889539 z" id="path3102" sodipodi:nodetypes="ccccc"/><path style="fill:#ebecec;fill-opacity:1;stroke-width:22.4573" d="m 150.86099,15.442832 18.72336,23.71811 -0.43407,0.07592 -18.33402,-22.907153 z" id="path5828" sodipodi:nodetypes="ccccc"/><path style="fill:#a9a9a9;fill-opacity:1;stroke-width:22.4573" d="m 150.2687,42.492315 33.89754,-5.888065 -0.0194,0.990335 -33.89508,5.772889 z" id="path6856" sodipodi:nodetypes="ccccc"/><path style="fill:#ebecec;fill-opacity:1;stroke-width:22.4573" d="m 184.16573,36.602081 1.75329,3.482019 -0.48365,0.07515 -1.28947,-2.564934 z" id="path6907" sodipodi:nodetypes="ccccc"/><path style="fill:#47462d;fill-opacity:1;stroke-width:22.4573" d="m 184.14422,37.594189 1.29046,2.56505 -1.30102,0.202346 z" id="path6909" sodipodi:nodetypes="cccc"/><path style="fill:#a9a9a9;fill-opacity:1;stroke-width:22.4573" d="m 77.537347,55.485522 33.861633,-5.544361 0.053,-0.743396 -33.876089,5.667984 z" id="path6965" sodipodi:nodetypes="ccccc"/><path style="fill:#ebecec;fill-opacity:1;stroke-width:22.4573" d="m 88.373706,59.970112 -4.176611,38.157604 23.876875,0.04708 2.80493,-41.608159 z" id="path7561" sodipodi:nodetypes="ccccc"/><g id="g34222" style="display:inline;fill:#c2e9ec;fill-opacity:1" transform="matrix(1.275909,0,0,1.275909,1.1012147,-148.67587)"><path style="fill:#c2e9ec;fill-opacity:1;stroke:none;stroke-width:17.601;stroke-opacity:1" d="m 67.26356,174.36874 7.709914,-1.18307 -0.991461,9.17073 -5.515687,-0.0776 -1.390161,11.15989 -0.52792,0.003 -1.347641,0.0175 z" id="path31663" sodipodi:nodetypes="cccccccc" inkscape:label="path31663"/><path style="display:inline;fill:#c2e9ec;fill-opacity:1;stroke:none;stroke-width:17.601;stroke-opacity:1" d="m 68.217211,165.53823 7.706577,-1.15016 -0.938253,8.69982 -7.709928,1.15399 z" id="path31661" sodipodi:nodetypes="ccccc" inkscape:label="path31661"/><path style="display:inline;fill:#c2e9ec;fill-opacity:1;stroke:none;stroke-width:17.601;stroke-opacity:1" d="m 68.41797,163.64378 7.711544,-1.17623 -0.196714,1.84074 -7.707073,1.15153 z" id="path31659" sodipodi:nodetypes="ccccc"/><path style="display:inline;fill:#c2e9ec;fill-opacity:1;stroke:none;stroke-width:17.601;stroke-opacity:1" d="m 75.095873,173.16881 6.804241,-1.02292 -1.241811,11.50711 -6.549839,-1.3062 z" id="path31657" sodipodi:nodetypes="ccccc"/><path style="display:inline;fill:#c2e9ec;fill-opacity:1;stroke:none;stroke-width:17.601;stroke-opacity:1" d="m 76.049571,164.37505 6.799633,-1.01762 -0.934579,8.69556 -6.803404,1.00294 z" id="path31655" sodipodi:nodetypes="ccccc"/><path style="display:inline;fill:#c2e9ec;fill-opacity:1;stroke:none;stroke-width:17.601;stroke-opacity:1" d="m 83.062364,161.44142 -0.201343,1.81997 -6.789045,1.00754 0.168077,-1.81635 z" id="path31653" sodipodi:nodetypes="ccccc"/><path style="display:inline;fill:#c2e9ec;fill-opacity:1;stroke:none;stroke-width:17.601;stroke-opacity:1" d="m 82.029269,172.14417 3.24111,-0.48069 -0.86663,12.84587 -3.617724,-0.81129 z" id="path31651" sodipodi:nodetypes="ccccc"/><path style="display:inline;fill:#c2e9ec;fill-opacity:1;stroke:none;stroke-width:17.601;stroke-opacity:1" d="m 85.898134,162.90627 -0.620981,8.65162 -3.224435,0.47621 0.935515,-8.69301 z" id="path31649" sodipodi:nodetypes="ccccc"/><path style="display:inline;fill:#c2e9ec;fill-opacity:1;stroke:none;stroke-width:17.601;stroke-opacity:1" d="m 86.026229,161.00372 -0.127415,1.80912 -2.896868,0.42103 0.194155,-1.81053 z" id="path31647" sodipodi:nodetypes="ccccc"/></g><path style="fill:#2e2d1d;fill-opacity:1;stroke-width:22.4573" d="m 110.87822,56.565604 73.53345,-11.115196 1.52573,33.236818 -46.95933,0.767331 0.001,-1.864281 h 0.71724 v -0.970367 l -4.64097,-1.729801 -5.18943,-0.4641 -20.32418,0.942744 z" id="path10049" sodipodi:nodetypes="ccccccccccc"/><path style="fill:#ebecec;fill-opacity:1;stroke-width:22.4573" d="m 191.29251,51.550452 7.93481,15.700508 -0.004,-0.650255 -7.58715,-15.086348 z" id="path11077" sodipodi:nodetypes="ccccc"/><path style="fill:#47462d;fill-opacity:1;stroke-width:22.4573" d="m 184.41106,45.450804 3.80406,6.424036 3.07722,-0.325459 7.854,15.539755 1.25293,19.377396 -13.79064,-7.788723 -0.67255,0.0094 z" id="path11727" sodipodi:nodetypes="cccccccc"/><path style="fill:#cbc7c4;fill-opacity:1;stroke-width:22.4573" d="m 186.61032,78.67832 6.36419,3.595856 0.20086,2.081008 -6.42691,-2.891516 z" id="path13457" sodipodi:nodetypes="ccccc"/><path style="fill:#1d201f;fill-opacity:1;stroke-width:22.4573" d="m 135.05654,74.891192 4.63384,1.730171 0.005,0.967879 -0.71819,-1.27e-4 -9.10945,-2.10858 -54.244213,2.277408 0.0089,-0.287437 0.630529,-0.02781 0.0089,-0.361618 -0.111259,-0.0089 V 76.914552 L 129.86785,74.42926 Z" id="path15135" sodipodi:nodetypes="ccccccccccccc"/><path style="fill:#ebecec;fill-opacity:1;stroke-width:22.4573" d="m 76.564696,77.714307 -3.20086,21.02781 1.15471,-0.01748 3.068434,-19.988595 52.24614,-1.815363 9.14426,1.771765 -0.003,-1.10421 -9.11171,-2.10479 z" id="path15191" sodipodi:nodetypes="ccccccccc"/><path style="display:inline;fill:#2e2d1d;fill-opacity:1;stroke:none;stroke-width:22.4573;stroke-opacity:1" d="m 120.83217,99.370387 -12.81304,-1.12997 1.25135,-18.577657 29.71109,-0.973034 -0.003,0.76279 -16.66467,0.286556 z" id="path26158" sodipodi:nodetypes="ccccccc" inkscape:label="path26158"/><path style="display:inline;fill:#a8a4a0;fill-opacity:1;stroke-width:22.4573" d="m 186.61005,78.678549 -64.34584,1.051311 -0.19629,2.669087 64.692,-0.929104 z" id="path14431" sodipodi:nodetypes="ccccc"/><path style="fill:#bbbbbb;fill-opacity:1;stroke:none;stroke-width:22.4573" d="m 77.587018,78.73275 10.559257,1.619027 50.836495,-1.663084 -9.14273,-1.804773 z" id="path18165" sodipodi:nodetypes="ccccc"/><path style="fill:#9d9d9d;fill-opacity:1;stroke-width:22.4573" d="m 74.518482,98.726206 11.522646,-0.588385 2.10391,-17.787244 -10.55788,-1.620289 z" id="path18167" sodipodi:nodetypes="ccccc"/><path style="fill:#d5d7d7;fill-opacity:1;stroke:none;stroke-width:22.4573;stroke-opacity:1" d="m 79.324679,60.730426 0.517266,-0.09429 0.619441,0.07005 0.447168,0.237102 -2.31714,15.86103 -1.535263,0.06864 z" id="path20392" sodipodi:nodetypes="ccccccc"/><path style="fill:#cbc7c4;fill-opacity:1;stroke:none;stroke-width:22.4573;stroke-opacity:1" d="m 199.35955,85.880188 1.5821,0.893481 0.12146,1.331462 -1.61288,-0.761922 z" id="path22670" sodipodi:nodetypes="ccccc"/><path style="fill:#a8a4a0;fill-opacity:1;stroke:none;stroke-width:22.4573;stroke-opacity:1" d="m 201.06072,88.097884 -0.39774,0.117894 -1.74381,-0.712314 0.53225,-0.159808 z" id="path22672" sodipodi:nodetypes="ccccc"/><path style="fill:#7e7874;fill-opacity:1;stroke:none;stroke-width:22.4573;stroke-opacity:1" d="m 198.91829,87.503961 -0.0183,-1.528871 0.46057,-0.09595 0.0906,1.46556 z" id="path22730" sodipodi:nodetypes="ccccc"/><path style="fill:#2e2d1d;fill-opacity:1;stroke:none;stroke-width:22.4573;stroke-opacity:1" d="m 198.89935,85.975078 -5.86677,-3.097601 -0.0584,-0.603378 6.38496,3.605247 z" id="path22786" sodipodi:nodetypes="ccccc"/><path style="fill:#a8a4a0;fill-opacity:1;stroke:none;stroke-width:22.4573;stroke-opacity:1" d="m 193.17431,84.353614 -0.86901,0.188937 -6.58752,-2.524527 1.04042,-0.550605 z" id="path23598" sodipodi:nodetypes="ccccc"/><path style="fill:#7e7874;fill-opacity:1;stroke:none;stroke-width:22.4573;stroke-opacity:1" d="m 185.72054,82.022465 -63.65454,0.37601 64.69638,-0.93223 z" id="path23600" sodipodi:nodetypes="cccc"/><path style="fill:#c2e9ec;fill-opacity:1;stroke:none;stroke-width:22.4573;stroke-opacity:1" d="m 200.66248,88.214949 0.65366,10.326518 -14.47312,6.844493 -1.12316,-23.365971 c 2.24073,0.761437 4.38092,1.664117 6.58681,2.521273 l 0.86819,-0.189204 -0.14387,-1.476559 5.87033,3.098609 0.0199,1.528756 z" id="path25341" sodipodi:nodetypes="cccccccccc"/><path style="fill:#9edbe2;fill-opacity:1;stroke:none;stroke-width:22.4573;stroke-opacity:1" d="m 185.72981,82.018458 1.11434,23.367892 -66.04336,-5.17557 1.30717,-17.813683 z" id="path25343" sodipodi:nodetypes="ccccc"/><path style="fill:#bd9f66;fill-opacity:1;stroke:none;stroke-width:22.4573;stroke-opacity:1" d="M 182.82274,109.46472 180.29745,99.133994" id="path26101"/><path style="fill:#626f79;fill-opacity:1;stroke:none;stroke-width:22.4573;stroke-opacity:1" d="m 86.641175,98.458112 4.424929,0.29337 1.760193,-14.790414 -4.40047,-0.07337 z" id="path28176" sodipodi:nodetypes="ccccc"/><path style="display:inline;fill:#9edbe2;fill-opacity:1;stroke:none;stroke-width:22.4573;stroke-opacity:1" d="m 87.363097,97.56675 3.295622,0.223973 1.535837,-12.990464 -3.231635,-0.06392 z" id="path27704" sodipodi:nodetypes="ccccc"/><path style="fill:#626f79;fill-opacity:1;stroke:none;stroke-width:22.4573;stroke-opacity:1" d="M 92.924083,83.961068 91.212782,98.727023 95.22211,98.9715 96.664487,84.005648 Z" id="path29529" sodipodi:nodetypes="ccccc"/><path style="display:inline;fill:#9edbe2;fill-opacity:1;stroke:none;stroke-width:22.4573;stroke-opacity:1" d="m 91.810597,97.950709 3.035872,0.115725 1.362671,-13.228561 -2.993538,-0.02067 z" id="path27706" sodipodi:nodetypes="ccccc"/><path style="fill:#3e4a53;fill-opacity:1;stroke:none;stroke-width:22.4573;stroke-opacity:1" d="M 96.635983,84.002573 108.7901,86.724432 108.02563,98.232927 95.180719,98.93238 Z" id="path29532" sodipodi:nodetypes="ccccc"/><path style="display:inline;fill:#c2e9ec;fill-opacity:1;stroke:none;stroke-width:22.4573;stroke-opacity:1" d="m 107.61986,97.69753 -11.890806,0.366939 1.23508,-13.14652 11.272366,2.484514 z" id="path26958" sodipodi:nodetypes="ccccc"/><path style="fill:#3e4a53;fill-opacity:1;stroke:none;stroke-width:22.4573;stroke-opacity:1" d="m 92.919221,89.659661 0.11815,0.0064 -0.232994,1.988976 -0.12657,0.0026 z" id="path31641" sodipodi:nodetypes="ccccc"/><path style="fill:#3e4a53;fill-opacity:1;stroke:none;stroke-width:22.4573;stroke-opacity:1" d="m 91.201031,89.61776 0.118149,0.0064 -0.232981,1.988977 -0.12657,0.0026 z" id="path31643" sodipodi:nodetypes="ccccc"/><path style="fill:#454545;fill-opacity:1;stroke:none;stroke-width:22.4573;stroke-opacity:1" d="m 92.826539,83.955352 h 0.101946 l -1.704054,14.794471 -0.160904,-0.0051 z" id="path36068" sodipodi:nodetypes="ccccc"/><g id="g43480" style="display:inline" transform="matrix(1.8883385,0,0,1.8883385,-80.976839,-246.38645)"><path style="display:inline;fill:#efefef;fill-opacity:1;stroke:none;stroke-width:17.601;stroke-opacity:1" d="m 120.82697,160.97646 12.54672,-1.4299 0.0981,3.67289 -12.67288,1.23364 z" id="path43497" inkscape:label="path43497"/><path style="fill:#4a5c67;fill-opacity:0.956863;stroke:none;stroke-width:17.601;stroke-opacity:1" d="m 124.05116,163.66727 h -0.0891 l 0.0101,-2.62423 h 0.0731 z" id="path36163" sodipodi:nodetypes="ccccc"/><path style="display:inline;fill:#454545;fill-opacity:1;stroke:none;stroke-width:17.601;stroke-opacity:1" d="M 123.96202,161.0531 Z" id="path36161"/><path style="display:inline;fill:#84b819;fill-opacity:1;stroke:none;stroke-width:17.601;stroke-opacity:1" d="m 122.59989,163.353 0.0174,0.45362 0.48852,-0.0523 -0.0175,-0.43618 z" id="path36155"/><path style="display:inline;fill:#84b819;fill-opacity:1;stroke:none;stroke-width:17.601;stroke-opacity:1" d="m 121.20232,163.49376 0.0174,0.45362 0.48852,-0.0523 -0.0175,-0.43618 z" id="path36159"/><path style="display:inline;fill:#84b819;fill-opacity:1;stroke:none;stroke-width:17.601;stroke-opacity:1" d="m 122.58984,162.63913 0.0174,0.45362 0.48852,-0.0523 -0.0175,-0.43618 z" id="path36153"/><path style="display:inline;fill:#84b819;fill-opacity:1;stroke:none;stroke-width:17.601;stroke-opacity:1" d="m 121.87597,163.42338 0.0174,0.45362 0.48852,-0.0523 -0.0175,-0.43618 z" id="path36157"/><path style="display:inline;fill:#84b819;fill-opacity:1;stroke:none;stroke-width:17.601;stroke-opacity:1" d="m 121.89608,162.70951 0.0174,0.45362 0.48852,-0.0523 -0.0175,-0.43618 z" id="path36151" inkscape:label="path36151"/><path style="display:inline;fill:#84b819;fill-opacity:1;stroke:none;stroke-width:17.601;stroke-opacity:1" d="m 121.17216,162.77989 0.0174,0.45362 0.48852,-0.0523 -0.0175,-0.43618 z" id="path36149"/><path style="display:inline;fill:#84b819;fill-opacity:1;stroke:none;stroke-width:17.601;stroke-opacity:1" d="m 121.86592,161.98558 0.0174,0.45362 0.48852,-0.0523 -0.0175,-0.43618 z" id="path36145"/><path style="display:inline;fill:#84b819;fill-opacity:1;stroke:none;stroke-width:17.601;stroke-opacity:1" d="m 122.57979,161.9152 0.0174,0.45362 0.48852,-0.0523 -0.0175,-0.43618 z" id="path36143" inkscape:label="path36143"/><path style="display:inline;fill:#84b819;fill-opacity:1;stroke:none;stroke-width:17.601;stroke-opacity:1" d="m 122.58984,161.21138 0.0174,0.45362 0.48852,-0.0523 -0.0175,-0.43618 z" id="path36141" inkscape:label="path36141"/><path style="display:inline;fill:#84b819;fill-opacity:1;stroke:none;stroke-width:17.601;stroke-opacity:1" d="m 121.88602,161.28176 0.0174,0.45362 0.48852,-0.0523 -0.0175,-0.43618 z" id="path36139" inkscape:label="path36139"/><path style="display:inline;fill:#84b819;fill-opacity:1;stroke:none;stroke-width:17.601;stroke-opacity:1" d="m 121.19227,162.06602 0.0174,0.45362 0.48852,-0.0523 -0.0175,-0.43618 z" id="path36147" inkscape:label="path36147"/><path style="display:inline;fill:#84b819;fill-opacity:1;stroke:none;stroke-width:17.601;stroke-opacity:1" d="m 130.27293,160.32776 0.053,2.76501 0.59325,-0.0424 -0.053,-1.51492 h 0.0424 l 0.50851,0.92166 0.48732,-0.0424 0.44494,-1.02761 0.053,-0.0106 0.0212,1.49374 0.59326,-0.053 -0.0636,-2.80738 -0.59326,0.053 -0.6992,1.61027 h -0.053 l -0.75216,-1.40899 z" id="path36137"/><path style="display:inline;fill:#84b819;fill-opacity:1;stroke:none;stroke-width:17.601;stroke-opacity:1" d="m 127.58247,160.62306 0.0144,2.73597 0.56059,-0.0431 -0.0144,-1.16429 0.9343,-0.0862 0.0288,1.14991 0.58933,-0.0575 -0.0431,-2.75978 -0.58933,0.0431 0.0144,1.09242 -0.94868,0.0862 -0.0144,-1.0265 z" id="path36135" sodipodi:nodetypes="ccccccccccccc" inkscape:label="path36135"/><path style="display:inline;fill:#84b819;fill-opacity:1;stroke:none;stroke-width:17.601;stroke-opacity:1" d="m 124.96642,160.94422 v 0.45996 l 0.70432,-0.0719 0.0288,2.18483 0.54621,-0.0431 -0.0431,-2.1992 0.77619,-0.0862 -0.0288,-0.45997 z" id="path36133"/><path style="display:inline;fill:#9c998f;fill-opacity:1;stroke:none;stroke-width:17.601;stroke-opacity:1" d="m 120.79132,164.44401 0.36921,0.19191 12.53561,-1.23502 -0.2248,-0.18126 z" id="path43991" sodipodi:nodetypes="ccccc"/><path style="display:inline;fill:#c2c0b2;fill-opacity:1;stroke:none;stroke-width:17.601;stroke-opacity:1" d="m 133.37324,159.54587 0.25278,0.16891 0.0701,3.68691 -0.22533,-0.17972 z" id="path43935" sodipodi:nodetypes="ccccc" inkscape:label="path43935"/></g><path style="fill:#626f79;fill-opacity:1;stroke:none;stroke-width:22.4573;stroke-opacity:1" d="m 86.641175,98.458112 4.424929,0.29337 1.760193,-14.790414 -4.40047,-0.07337 z" id="path19975" sodipodi:nodetypes="ccccc"/><path style="display:inline;fill:#9edbe2;fill-opacity:1;stroke:none;stroke-width:22.4573;stroke-opacity:1" d="m 87.363097,97.56675 3.295622,0.223973 1.535837,-12.990464 -3.231635,-0.06392 z" id="path19977" sodipodi:nodetypes="ccccc"/><path style="fill:#626f79;fill-opacity:1;stroke:none;stroke-width:22.4573;stroke-opacity:1" d="M 92.924083,83.961068 91.212782,98.727023 95.22211,98.9715 96.664487,84.005648 Z" id="path19979" sodipodi:nodetypes="ccccc"/><path style="display:inline;fill:#9edbe2;fill-opacity:1;stroke:none;stroke-width:22.4573;stroke-opacity:1" d="m 91.810597,97.950709 3.035872,0.115725 1.362671,-13.228561 -2.993538,-0.02067 z" id="path19981" sodipodi:nodetypes="ccccc"/><path style="fill:#3e4a53;fill-opacity:1;stroke:none;stroke-width:22.4573;stroke-opacity:1" d="m 92.919221,89.659661 0.11815,0.0064 -0.232994,1.988976 -0.12657,0.0026 z" id="path19983" sodipodi:nodetypes="ccccc"/><path style="fill:#3e4a53;fill-opacity:1;stroke:none;stroke-width:22.4573;stroke-opacity:1" d="m 91.201031,89.61776 0.118149,0.0064 -0.232981,1.988977 -0.12657,0.0026 z" id="path19985" sodipodi:nodetypes="ccccc"/><path style="display:inline;fill:#ebecec;fill-opacity:1;stroke:none;stroke-width:22.4573;stroke-opacity:1" d="m 126.6817,78.176913 0.55773,-0.116235 h 0.67392 l 0.51124,0.185912 -1.44078,23.72638 -0.51126,0.11623 -0.65067,-0.0232 -0.62744,-0.11623 z" id="path19309" inkscape:label="path19309"/><path style="fill:#ebecec;fill-opacity:1;stroke-width:17.601" d="M 210.02768,124.64858 0.01893779,94.054051 4.3348177e-4,96.101189 210.03178,127.66314 Z" id="path27869" sodipodi:nodetypes="ccccc"/><path style="fill:#727878;fill-opacity:1;stroke-width:17.601" d="M 0.00990571,96.080624 212.28598,127.42878 0,119.02187 Z" id="path27871" sodipodi:nodetypes="cccc"/><path style="fill:#727878;fill-opacity:1;stroke-width:0.176" d="m 0,118.20375 210.0285,9.03197 -0.006,83.77911 -210.02929491,-0.0194 z" id="path642" sodipodi:nodetypes="ccccc"/></g></svg>