<?xml version="1.0" encoding="UTF-8" standalone="no"?>
<!-- Created with Inkscape (http://www.inkscape.org/) -->

<svg
   width="190mm"
   height="67mm"
   viewBox="0 0 190 67"
   version="1.1"
   id="svg31894"
   xml:space="preserve"
   inkscape:version="1.2 (dc2aeda, 2022-05-15)"
   sodipodi:docname="Wolke.svg"
   xmlns:inkscape="http://www.inkscape.org/namespaces/inkscape"
   xmlns:sodipodi="http://sodipodi.sourceforge.net/DTD/sodipodi-0.dtd"
   xmlns="http://www.w3.org/2000/svg"
   xmlns:svg="http://www.w3.org/2000/svg"><sodipodi:namedview
     id="namedview31896"
     pagecolor="#ffffff"
     bordercolor="#000000"
     borderopacity="0.25"
     inkscape:showpageshadow="2"
     inkscape:pageopacity="0.0"
     inkscape:pagecheckerboard="0"
     inkscape:deskcolor="#d1d1d1"
     inkscape:document-units="mm"
     showgrid="false"
     inkscape:zoom="1.2157589"
     inkscape:cx="365.204"
     inkscape:cy="172.73162"
     inkscape:window-width="1440"
     inkscape:window-height="872"
     inkscape:window-x="0"
     inkscape:window-y="28"
     inkscape:window-maximized="0"
     inkscape:current-layer="layer1" /><defs
     id="defs31891"><linearGradient
       id="linearGradient34750"
       inkscape:swatch="solid"><stop
         style="stop-color:#000000;stop-opacity:1;"
         offset="0"
         id="stop34748" /></linearGradient><clipPath
       clipPathUnits="userSpaceOnUse"
       id="clipPath36298"><path
         id="path36300"
         style="fill:#ff0000;fill-opacity:1;fill-rule:nonzero;stroke:none;stroke-width:0.264583"
         d="M 10.188009,86.330647 V 153.14311 H 199.57025 V 86.330647 H 49.011996 c 0.703808,0.637276 0.777261,1.969355 -0.48886,3.349667 -0.237707,0.259149 -0.119697,0.134073 -0.352433,0.375172 -0.339892,0.348723 -0.686787,0.690435 -1.03973,1.025776 -0.02254,0.01857 -0.03372,0.02708 -0.04547,0.03617 -0.0502,0.04795 -0.101375,0.09504 -0.151929,0.142626 -0.431991,0.281371 -0.69859,0.47734 -1.299663,0.44907 -0.04294,-1.9e-5 -0.08573,-5.3e-4 -0.128675,-5.3e-4 -0.06301,-1.21e-4 -0.126124,3.2e-5 -0.189134,-5.29e-4 -0.0859,-7.94e-4 -0.171519,-0.0024 -0.25735,-0.0062 -0.251942,-0.0118 -0.502814,-0.04068 -0.743106,-0.122989 -0.288613,-0.111548 -0.600363,-0.26285 -0.810805,-0.501777 -0.04264,-0.03648 -0.08262,-0.07337 -0.114205,-0.108006 -0.03002,-5.29e-4 -0.05991,-0.0011 -0.08992,-0.0021 -0.183282,-0.007 -0.366276,-0.02135 -0.546219,-0.05891 -0.266054,-0.06088 -0.523192,-0.149665 -0.764812,-0.278019 -0.154565,-0.08452 -0.30502,-0.176067 -0.452684,-0.271817 -0.09208,-0.0597 -0.179496,-0.120478 -0.263036,-0.181901 -0.02808,-0.0059 -0.0527,-0.0065 -0.08113,-0.01291 -0.174877,-0.03951 -0.350068,-0.07858 -0.522449,-0.128159 -0.265737,-0.07333 -0.533585,-0.138993 -0.799949,-0.209804 -0.341998,-0.08677 -0.690928,-0.147809 -1.03508,-0.225308 -0.476721,-0.101846 -0.950772,-0.215427 -1.427821,-0.315744 -0.353991,-0.08327 -0.709816,-0.15857 -1.06195,-0.2496 -0.386218,-0.09873 -0.776671,-0.185967 -1.176155,-0.207737 -0.878364,-0.05532 -1.758529,-0.07522 -2.6386,-0.07441 -1.041783,-0.0038 -2.083604,-0.0091 -3.12539,-0.01344 -0.886471,0.0024 -1.773431,0.02098 -2.655136,0.122473 -0.923765,0.111098 -1.842792,0.265774 -2.745051,0.495575 -0.815283,0.211627 -1.622844,0.450956 -2.41484,0.738973 -0.702919,0.265052 -1.403751,0.535112 -2.10013,0.817007 -0.467205,0.195702 -0.945138,0.377563 -1.382344,0.635619 -0.335262,0.203711 -0.665152,0.41792 -0.968417,0.667658 -0.149071,0.123153 -0.278519,0.267092 -0.433048,0.384474 -0.242593,0.184277 -0.521469,0.322778 -0.817005,0.395324 -0.03203,0.03912 -0.06291,0.07967 -0.09198,0.121957 -0.115781,0.156824 -0.221662,0.317418 -0.323494,0.483693 -0.01711,0.02793 -0.05924,0.115843 -0.05064,0.08423 0.01565,-0.05777 0.0482,-0.109558 0.07235,-0.16433 0.08262,-0.187343 0.139622,-0.346874 0.176217,-0.484208 -0.06499,0.0082 -0.13042,0.01429 -0.196371,0.0155 -0.05073,-0.0066 -0.101601,-0.01257 -0.152445,-0.0186 -0.08406,0.28934 -0.160222,0.584324 -0.168982,0.883669 -0.109334,3.737491 -3.764311,3.739067 -3.777031,0 -0.0025,-0.743125 0.186974,-1.466472 0.388607,-2.175579 0.04342,-0.140147 0.08682,-0.27998 0.130225,-0.420129 0.466769,-1.506787 1.380101,-2.178371 2.196248,-2.182813 0.231924,-0.0013 0.456116,0.05143 0.659908,0.153996 0.434555,-0.359022 0.904801,-0.671383 1.384412,-0.966349 0.597057,-0.366659 1.24972,-0.628102 1.893941,-0.898136 0.73828,-0.299857 1.481693,-0.585986 2.227254,-0.867132 0.219604,-0.08047 0.440334,-0.157345 0.661975,-0.23151 z m 31.244603,0 c 0.07576,0.01992 0.151734,0.0391 0.227378,0.05943 0.118631,0.03572 0.23989,0.06149 0.360701,0.08837 0.686858,0.152863 1.214649,0.407908 1.59525,0.715719 0.182681,-0.0046 0.361238,0.01574 0.544155,0.03256 0.196723,0.03293 0.38885,0.08134 0.581877,0.131257 0.190357,0.05992 0.369901,0.145013 0.540017,0.247015 0.06107,-0.0614 0.122415,-0.122814 0.182936,-0.185002 0.19613,-0.203253 0.107063,-0.107543 0.267684,-0.285255 0.315733,-0.349335 0.636201,-0.613807 0.950328,-0.804085 z m 4.33927,1.560629 c -0.02492,5.6e-5 -0.06062,0.0036 -0.108519,0.01085 0.0089,0.0086 0.01958,0.01865 0.03049,0.02894 0.120539,-0.0063 0.164013,-0.03998 0.07803,-0.03979 z m -0.02016,0.07545 c 0.05105,0.05625 0.07799,0.08493 0.10542,0.114204 0.0016,0.0016 0.0024,0.0021 0.0041,0.0036 0.100084,0.09017 -0.115253,-0.124121 -0.109553,-0.117821 z m 0.156064,0.162779 c 0.05595,0.06015 0.103831,0.110869 0.147278,0.157615 -0.0059,-0.0047 -0.01206,-0.0093 -0.0181,-0.01394 0.01151,0.0104 0.02349,0.02066 0.0341,0.03101 -0.005,-0.0054 -0.0098,-0.01045 -0.01497,-0.01601 0.0042,0.0034 0.0088,0.0064 0.01291,0.0098 -0.04485,-0.05395 -0.06697,-0.08086 -0.136943,-0.146762 -0.0079,-0.0074 -0.03169,-0.0296 -0.02429,-0.0217 z m 0.16123,0.168466 c 0.0072,0.0086 0.01632,0.01918 0.02585,0.03049 0.01114,0.01169 0.02156,0.02307 0.03049,0.0341 0.0035,0.0044 0.0068,0.009 0.01035,0.01344 0.0258,0.02928 0.05018,0.0585 0.0739,0.08837 0.02019,0.0181 0.04031,0.03613 0.06046,0.05426 -0.01828,-0.02585 -0.03699,-0.05185 -0.05685,-0.07648 -0.04249,-0.05272 -0.09102,-0.100515 -0.144176,-0.144177 z m 0.06666,0.07803 c -0.0058,-0.0066 -0.01111,-0.01299 -0.01706,-0.01963 0.0081,0.0095 0.0069,0.0089 0.01654,0.02016 -0.04992,-0.04965 -0.07835,-0.07889 -0.11834,-0.118856 -0.0054,-0.004 -0.01056,-0.008 -0.01601,-0.01188 0.009,0.01236 0.02326,0.03308 0.03721,0.05219 -0.01556,-0.01953 -0.03469,-0.04162 -0.05426,-0.06408 -0.03121,-0.02159 -0.06381,-0.04159 -0.09664,-0.06098 0.05912,0.05385 0.118263,0.107813 0.177768,0.161232 0.04126,0.03704 0.08223,0.07409 0.123505,0.111104 -0.0172,-0.02334 -0.03468,-0.04655 -0.05271,-0.06925 z M 46.01682,88.257663 c 0.0069,0.0051 0.01341,0.01032 0.02016,0.01551 -0.01407,-0.01273 -0.02765,-0.02529 -0.04237,-0.03772 0.0072,0.0072 0.01474,0.01474 0.02223,0.02222 z m -2.94142,2.28668 c 0.04282,0.07193 0.08685,0.132302 0.133842,0.188619 -0.04445,-0.06282 -0.0883,-0.126661 -0.133842,-0.188619 z m 0.09043,0.0832 c -0.0064,-0.0026 0.06701,0.101378 0.121439,0.180351 0.0098,0.0064 0.01998,0.01238 0.02997,0.0186 -0.04435,-0.06346 -0.08927,-0.12631 -0.13901,-0.185518 -0.0073,-0.0087 -0.01125,-0.01299 -0.01241,-0.01344 z m -27.641725,1.745628 c -0.0069,0.02336 -0.01383,0.0467 -0.02119,0.07028 -0.03588,0.11497 -0.07161,0.229712 -0.107487,0.344681 -0.02159,0.07357 -0.04389,0.14782 -0.06563,0.222208 0.08795,-0.0084 0.187235,-0.02426 0.361735,-0.05116 0.07408,-0.33663 0.0014,-0.51403 -0.167432,-0.586013 z m 0.590662,0.411345 c 0.0099,-0.0074 -0.02073,0.01336 -0.03101,0.02016 -0.0037,0.0028 -0.0072,0.0059 -0.01085,0.0088 0.01395,-0.0096 0.02804,-0.01855 0.04186,-0.02894 z" /></clipPath></defs><g
     inkscape:label="Ebene 1"
     inkscape:groupmode="layer"
     id="layer1"><path
       style="fill:#84b819;fill-opacity:1;stroke-width:0.176;stroke-dasharray:none"
       d="m 71.116022,152.9843 c -36.147209,-0.26219 -59.514457,-1.0266 -60.69693,-1.9856 -1.0640842,-0.86297 1.665188,-2.50201 5.692145,-3.41835 3.144245,-0.71548 8.556321,-1.51205 10.273223,-1.51205 0.410858,0 0.747015,-0.0772 0.747015,-0.17167 0,-0.0944 -0.311594,-0.66239 -0.69243,-1.26217 -2.421709,-3.8139 -2.550973,-9.31476 -0.312497,-13.29854 0.57915,-1.0307 1.824694,-2.65761 2.561654,-3.34598 0.497816,-0.46499 2.858541,-2.10422 3.19459,-2.21824 0.15784,-0.0536 0.08798,-0.61154 -0.270646,-2.16153 -1.114574,-4.81731 -0.880857,-10.75953 0.605103,-15.38461 0.504676,-1.57081 1.916013,-4.60377 2.858671,-6.14327 2.360904,-3.855704 6.221962,-7.623264 9.901627,-9.661852 0.743526,-0.411924 1.392327,-0.815594 1.44178,-0.897043 0.04945,-0.08145 -0.386769,-0.442841 -0.969382,-0.803093 -0.582612,-0.360253 -1.014293,-0.700814 -0.959289,-0.756803 0.055,-0.05599 0.579327,0.23488 1.165162,0.646374 l 1.065154,0.74817 1.76865,-0.698915 c 2.293445,-0.906298 3.989469,-1.378164 6.138641,-1.707886 2.203455,-0.338049 6.130587,-0.342829 8.299017,-0.0101 7.843349,1.203501 14.897109,5.795937 19.260278,12.539638 l 0.580955,0.89792 0.120138,-0.49663 c 0.221879,-0.91721 1.650188,-3.601421 2.644899,-4.970539 1.38186,-1.901994 3.034373,-3.522045 4.869347,-4.773692 3.488954,-2.379837 7.005564,-3.455481 11.297033,-3.455481 8.94705,0 16.73849,6.066887 19.16613,14.923902 0.37335,1.3621 0.69256,3.57905 0.69256,4.80982 v 0.87547 l 1.00361,0.004 c 2.91905,0.0112 6.97024,1.58546 9.81612,3.81451 3.29675,2.58218 6.04511,7.35701 6.55782,11.39313 l 0.11553,0.90941 0.72235,-0.17189 c 1.30347,-0.31017 4.73408,-0.0473 6.3077,0.48324 1.83844,0.61987 3.69705,1.67937 4.88543,2.78492 l 0.96172,0.89469 0.001,-0.68408 c 5.2e-4,-0.37624 0.11446,-1.45 0.25309,-2.38613 1.24546,-8.40986 7.87766,-15.31678 16.11089,-16.77823 1.91466,-0.33986 5.38041,-0.33734 7.15444,0.005 8.30058,1.60277 14.74939,8.38728 16.04105,16.87609 0.37185,2.44371 0.22518,5.62971 -0.36549,7.93996 -0.72719,2.8442 -1.6844,4.84612 -3.69674,7.73145 -0.25803,0.36996 -0.25035,0.39732 0.13555,0.48284 4.04035,0.89541 6.70769,1.78646 8.69747,2.90547 1.25229,0.70426 2.69154,1.98526 3.07206,2.7343 0.30513,0.60061 0.3195,1.46463 0.0284,1.70752 -1.43357,1.19618 -17.55429,2.13318 -46.64631,2.71126 -9.69332,0.19261 -50.45623,0.53307 -58.733337,0.49055 -2.735944,-0.0141 -13.025186,-0.084 -22.864983,-0.15532 z m 76.885688,-0.50778 c 35.56313,-0.6895 51.42303,-1.6376 51.39874,-3.07259 -0.01,-0.56998 -0.71775,-1.72742 -1.46811,-2.39974 -1.58447,-1.41967 -5.25361,-2.95831 -9.1661,-3.84379 -1.00302,-0.22701 -1.85393,-0.50511 -1.8909,-0.61802 -0.037,-0.1129 0.1648,-0.50503 0.44842,-0.87141 3.9581,-5.11334 5.10047,-12.2456 2.98082,-18.61034 -1.8131,-5.44424 -6.24835,-10.09369 -11.5835,-12.14296 -2.32457,-0.89289 -4.34296,-1.26572 -6.86699,-1.26845 -6.74272,-0.007 -12.6495,3.25394 -16.40598,9.05805 -1.78193,2.75326 -2.863,5.98732 -3.10213,9.28018 -0.0658,0.90574 -0.19591,1.6974 -0.2892,1.75924 -0.0933,0.0618 -0.48111,-0.19527 -0.86183,-0.57137 -0.94861,-0.93706 -2.84755,-2.18513 -4.1347,-2.71751 -1.99561,-0.8254 -3.50883,-1.06156 -6.05232,-0.94453 l -2.2982,0.10574 -0.11102,-0.9615 c -0.14711,-1.27411 -0.88392,-3.61967 -1.60363,-5.10499 -2.83017,-5.84084 -8.47272,-9.60648 -14.91284,-9.9523 l -0.78543,-0.0422 -0.11129,-1.60787 c -0.61279,-8.853831 -6.3993,-16.042845 -14.75319,-18.328983 -1.54355,-0.422412 -2.02557,-0.470297 -4.77148,-0.474022 -2.642485,-0.0036 -3.265231,0.05164 -4.616904,0.409412 -6.323283,1.673705 -11.122151,5.888893 -13.618506,11.962103 -0.271117,0.65958 -0.584809,1.19924 -0.697092,1.19924 -0.112283,0 -0.66723,-0.69956 -1.233215,-1.55457 -1.423373,-2.150242 -5.098872,-5.860328 -7.237357,-7.305464 -4.455975,-3.011239 -9.07927,-4.548281 -14.332491,-4.764923 -4.014916,-0.165575 -7.526025,0.433531 -11.297989,1.927791 -8.386008,3.322109 -14.832178,11.016736 -16.79473,20.047446 -0.180502,0.83058 -0.423304,2.52951 -0.539561,3.77539 -0.261949,2.80725 -0.0143,5.96357 0.692566,8.8269 0.263199,1.06615 0.450765,2.02328 0.416813,2.12695 -0.03395,0.10368 -0.546538,0.44881 -1.139079,0.76696 -1.662166,0.89246 -4.059758,3.4158 -4.978597,5.23972 -0.975942,1.93726 -1.422277,3.76658 -1.422277,5.82923 0,2.74293 0.596596,4.90793 1.931993,7.01102 0.377374,0.59432 0.686135,1.1885 0.686135,1.32039 0,0.16553 -0.364887,0.27768 -1.178158,0.36209 -7.08768,0.73563 -12.091942,1.7643 -14.392541,2.9585 -0.765881,0.39755 -1.584546,1.24461 -1.392161,1.44043 0.808129,0.8226 19.100957,1.52979 49.514916,1.91425 14.831723,0.18748 75.701015,0.0743 87.969095,-0.16352 z M 14.215378,92.414443 c 0.633246,-0.579316 1.334277,-1.040767 1.169943,-0.770111 -0.05169,0.08513 -0.47352,0.418973 -0.937408,0.741879 l -0.843432,0.587102 z m 2.094502,-1.60877 c 0.605415,-0.418299 0.950194,-0.540026 0.523625,-0.18487 -0.239995,0.199818 -0.514898,0.363858 -0.610896,0.364535 -0.096,6.75e-4 -0.05673,-0.08017 0.08727,-0.179665 z m 1.309064,-0.810646 c 0.728817,-0.574187 4.694329,-2.385844 5.194664,-2.3732 0.118873,0.003 -0.490761,0.310204 -1.354743,0.682667 -2.164309,0.933033 -2.522548,1.105163 -3.269192,1.570812 -0.737159,0.459736 -1.098529,0.535539 -0.570729,0.119721 z M 43.62568,89.633254 c -1.438139,-0.79806 -2.437552,-1.230416 -4.230468,-1.830147 -2.234192,-0.747337 -2.727501,-1.013502 -0.969973,-0.523349 2.059456,0.574357 5.459278,2.032488 5.712879,2.450166 0.156037,0.256992 0.108828,0.248087 -0.512438,-0.09667 z M 23.147079,87.526539 c 0.157744,-0.160568 2.588061,-0.761441 2.588061,-0.639874 0,0.0649 -0.530171,0.256305 -1.178157,0.425343 -1.215248,0.317016 -1.562497,0.369854 -1.409904,0.214531 z m 13.209237,-0.528732 c -0.04623,-0.04706 -0.510949,-0.157637 -1.032705,-0.245729 -0.872079,-0.147239 -0.892296,-0.160752 -0.250482,-0.16742 0.660381,-0.0069 2.230059,0.456511 1.643603,0.485194 -0.151998,0.0074 -0.314184,-0.02499 -0.360416,-0.07205 z m -10.09755,-0.263812 c 0.432453,-0.146879 1.696171,-0.24339 1.556332,-0.118858 -0.04,0.03562 -0.504718,0.110282 -1.032707,0.165913 -0.619721,0.0653 -0.805317,0.04862 -0.523625,-0.04706 z m 2.356315,-0.273605 c 0.398962,-0.141558 1.452586,-0.18033 1.373791,-0.05055 -0.04693,0.07729 -0.414506,0.134224 -0.816832,0.126509 -0.402326,-0.0077 -0.652957,-0.04189 -0.556959,-0.07596 z"
       id="path36206"
       clip-path="url(#clipPath36298)"
       transform="translate(-9.7397192,-87.253187)" /><path
       style="fill:#ffffff;fill-opacity:1;stroke:none;stroke-width:15.1894"
       d="M 46.201621,65.248717 C 23.363682,64.817536 11.925524,64.466185 5.6273924,64.002386 0.842782,63.650049 0.33490345,63.450201 1.768644,62.484003 3.4660966,61.340091 7.6994037,60.284411 13.43598,59.574468 c 5.00563,-0.619482 4.810208,-0.492207 3.650256,-2.377371 -2.174453,-3.533934 -2.405046,-8.479698 -0.570963,-12.246055 0.755894,-1.552254 2.805314,-3.93827 4.216604,-4.909137 0.638932,-0.439539 1.370807,-0.953717 1.626389,-1.142616 l 0.464695,-0.343459 -0.583514,-2.881881 c -1.253297,-6.189818 -0.555244,-12.231679 2.04951,-17.73914 1.397177,-2.954176 2.850364,-5.063395 5.125201,-7.438935 3.974386,-4.1503255 7.790013,-6.374122 13.42486,-7.8241762 2.135164,-0.5494575 2.888517,-0.6309201 5.874256,-0.6351984 1.924494,-0.00275 4.175225,0.1314159 5.13747,0.3062658 3.438951,0.6248876 7.191827,2.1482737 10.27494,4.1708572 1.855772,1.217422 5.67359,4.9905656 7.41394,7.3271856 0.724905,0.973264 1.384882,1.769573 1.466619,1.769573 0.08174,0 0.675196,-1.058812 1.318795,-2.352916 2.186522,-4.3964937 5.170763,-7.4123441 9.31046,-9.4090778 3.080192,-1.4856936 4.475519,-1.7888929 8.232526,-1.7888929 3.580328,0 5.06172,0.2957407 7.791119,1.5553849 6.739647,3.1104151 10.998237,9.3534708 11.648027,17.0758878 l 0.1489,1.769573 h 0.86557 c 1.24695,0 3.93717,0.604274 5.49931,1.23525 2.8406,1.147371 5.86009,3.45663 7.57573,5.793798 1.63542,2.227881 3.34696,6.483371 3.34696,8.321691 v 0.632502 l 3.0254,0.0048 c 2.60437,0.0042 3.24208,0.08128 4.5824,0.554281 1.64981,0.582213 4.06297,2.03536 4.95262,2.982336 1.00534,1.070144 1.21472,0.811924 1.48299,-1.828943 0.30617,-3.013892 1.54892,-6.426724 3.25408,-8.936275 2.13912,-3.148238 4.57656,-5.2466 7.9332,-6.829618 2.96686,-1.399194 4.70484,-1.783123 8.10579,-1.790608 3.4167,-0.0075 5.12971,0.373417 8.11835,1.805345 10.87956,5.212651 14.60851,18.730187 7.97854,28.922411 -0.67872,1.043403 -1.16177,1.968473 -1.07343,2.055712 0.0883,0.08724 1.30047,0.468063 2.69363,0.846277 2.82786,0.767707 4.23776,1.287786 6.26411,2.310686 2.22788,1.12463 4.04681,3.349093 3.17773,3.886208 -1.61971,1.001038 -14.76671,1.792009 -41.88635,2.520037 -7.90089,0.212101 -92.533359,0.465177 -101.151079,0.302472 z"
       id="path37097" /></g></svg>
