<?xml version="1.0" encoding="UTF-8" standalone="no"?>
<!-- Created with Inkscape (http://www.inkscape.org/) -->

<svg
   version="1.1"
   id="svg2"
   width="1820"
   height="1080"
   viewBox="0 0 1820 1080"
   sodipodi:docname="vorlesungsraum_nah_ohne_beamer.svg"
   inkscape:version="1.2.2 (732a01da63, 2022-12-09)"
   xmlns:inkscape="http://www.inkscape.org/namespaces/inkscape"
   xmlns:sodipodi="http://sodipodi.sourceforge.net/DTD/sodipodi-0.dtd"
   xmlns="http://www.w3.org/2000/svg"
   xmlns:svg="http://www.w3.org/2000/svg">
  <defs
     id="defs6" />
  <sodipodi:namedview
     id="namedview4"
     pagecolor="#505050"
     bordercolor="#eeeeee"
     borderopacity="1"
     inkscape:showpageshadow="0"
     inkscape:pageopacity="0"
     inkscape:pagecheckerboard="0"
     inkscape:deskcolor="#505050"
     showgrid="false"
     inkscape:zoom="0.62672192"
     inkscape:cx="840.0855"
     inkscape:cy="597.5537"
     inkscape:window-width="1920"
     inkscape:window-height="991"
     inkscape:window-x="-9"
     inkscape:window-y="-9"
     inkscape:window-maximized="1"
     inkscape:current-layer="g8" />
  <g
     inkscape:groupmode="layer"
     inkscape:label="Image"
     id="g8"
     transform="matrix(1.0549226,0,0,1,-55.694658,-1.4071238e-8)">
    <path
       style="display:inline;fill:#af9e96;fill-opacity:1;stroke:none;stroke-width:1.47773"
       d="m 4.7288902,221.08759 1799.7865098,0.2339 0.6632,570.91054 H 4.7288902 Z"
       id="path28098"
       inkscape:label="Wand" />
    <path
       style="display:inline;fill:#b9b9b9;fill-opacity:1;stroke:none;stroke-width:1.47773"
       d="M 356.51322,221.32269 H 1495.9011 l 45.6575,557.82455 -1223.54866,6.42052 z"
       id="path24502"
       inkscape:label="Wand hinter Tafel" />
    <path
       style="display:inline;fill:#7c443e;fill-opacity:1;stroke:none;stroke-width:1.47773"
       d="m 1805.2019,773.83454 0.1737,18.41544 H 4.7011062 l 0.00334,-8.09302 156.9209138,0.36069 1546.18644,-7.43616 2.315,-2.36591 z"
       id="path29343"
       inkscape:label="Boden"
       sodipodi:nodetypes="cccccccc" />
    <path
       style="display:inline;fill:#1d1d1d;fill-opacity:1;stroke:none;stroke-width:1.47773"
       d="m 4.7288902,463.9885 192.3416298,-0.58315 -35.15207,321.11323 1545.69725,-7.38636 -43.3749,-317.76711 140.6469,0.20177 -0.02,8.58232 -135.1858,0.10592 42.4335,321.5395 -1557.54765,2.51661 36.65332,-320.45125 -186.4954392,0.80742 z"
       id="path25099"
       inkscape:label="Türrahmen"
       sodipodi:nodetypes="ccccccccccccc" />
    <g
       id="g4517"
       inkscape:label="Tafelhalterung rechts"
       style="display:inline"
       transform="matrix(0.87898273,0,0,0.51520863,4.7288902,0.97903933)">
      <path
         style="fill:#999289;fill-opacity:1;stroke:none;stroke-width:2.19591"
         d="m 1702.1765,430.56834 25.1691,-0.61705 76.462,1106.04631 -34.195,0.017 z"
         id="path434"
         sodipodi:nodetypes="ccccc" />
      <path
         style="fill:#6c655d;fill-opacity:1;stroke:none;stroke-width:2.19591"
         d="m 1702.1943,430.55128 -6.0419,2.77548 73.4847,1102.62884 z"
         id="path2491"
         sodipodi:nodetypes="cccc" />
      <path
         style="fill:#999289;fill-opacity:1;stroke:none;stroke-width:2.19591"
         d="m 1696.1565,433.33683 -9.3899,0.70057 69.2591,1092.4562 13.5913,9.4957 z"
         id="path3582"
         sodipodi:nodetypes="ccccc" />
      <path
         style="fill:#6c655d;fill-opacity:1;stroke:none;stroke-width:2.19591"
         d="m 1686.7667,434.03887 -4.0851,8.8959 71.1901,1083.14033 2.1511,0.4097 z"
         id="path3653"
         sodipodi:nodetypes="ccccc" />
      <path
         style="fill:#999289;fill-opacity:1;stroke:none;stroke-width:2.19591"
         d="m 1682.7182,442.95871 -7.9872,0.61272 68.2134,1082.93377 10.9235,-0.4369 z"
         id="path3862"
         sodipodi:nodetypes="ccccc" />
      <path
         style="fill:#6c655d;fill-opacity:1;stroke:none;stroke-width:2.19591"
         d="m 1674.7338,443.5731 -1.3284,2.13548 67.7209,1079.61172 1.807,1.1653 z"
         id="path4485"
         sodipodi:nodetypes="ccccc" />
    </g>
    <g
       id="g8306"
       inkscape:label="Tafelhalterung links"
       style="display:inline"
       transform="matrix(0.87898273,0,0,0.51520863,4.7288902,0.97903933)">
      <path
         style="fill:#999289;fill-opacity:1;stroke:none;stroke-width:2.19591"
         d="m 378.1966,432.17379 27.28566,0.0566 -53.86399,1103.76981 h -31.53429 z"
         id="path5252"
         sodipodi:nodetypes="ccccc" />
      <path
         style="fill:#6c655d;fill-opacity:1;stroke:none;stroke-width:2.19591"
         d="m 405.4774,432.23693 3.9343,3.10621 -55.37126,1100.66296 -2.41652,-0.01 z"
         id="path6703"
         sodipodi:nodetypes="ccccc" />
      <path
         style="fill:#999289;fill-opacity:1;stroke:none;stroke-width:2.19591"
         d="m 409.40814,435.3346 9.69765,0.0947 -53.60571,1100.564 h -11.45684 z"
         id="path7188"
         sodipodi:nodetypes="ccccc" />
      <path
         style="fill:#6c655d;fill-opacity:1;stroke:none;stroke-width:2.19591"
         d="m 419.10399,435.42693 1.15516,7.76018 -53.41173,1092.81109 -1.34283,-0.01 z"
         id="path7673"
         sodipodi:nodetypes="ccccc" />
      <path
         style="fill:#999289;fill-opacity:1;stroke:none;stroke-width:2.19591"
         d="m 420.25871,443.20554 9.6089,-0.0106 -52.26358,1092.80776 -10.74485,0.018 z"
         id="path7744"
         sodipodi:nodetypes="ccccc" />
      <path
         style="fill:#6c655d;fill-opacity:1;stroke:none;stroke-width:2.19591"
         d="m 429.86802,443.19337 0.71454,3.05307 L 378.48567,1536 h -0.87745 z"
         id="path8022"
         sodipodi:nodetypes="ccccc" />
    </g>
    <g
       id="g4509"
       inkscape:label="Tafel"
       style="display:inline"
       transform="matrix(0.87898273,0,0,0.51520863,4.7288902,0.97903933)">
      <path
         style="fill:#0f3a29;fill-opacity:1;stroke-width:0.999319"
         d="m 408.98291,616.34477 c 0,0 -1.07692,0.29082 -1.37617,0.65126 -0.31935,0.38466 -0.24926,1.37295 -0.24926,1.37295 l -0.68114,48.00605 -0.89185,32.34362 -0.94778,26.78339 -1.13496,29.72753 -2.41351,36.37858 -2.53537,49.84795 -2.22402,47.36913 -1.55885,34.39708 -2.72677,46.05288 -0.64093,14.98981 -0.18013,4.43959 -1.14398,28.66631 -0.76257,14.9057 c 0,0 -0.96916,3.8428 -0.6279,4.4337 0.47241,0.8182 2.81454,1.7594 2.81454,1.7594 l 1332.60924,-6.4645 c 0,0 1.6125,-0.7911 2.6511,-1.7087 0.9636,-0.8512 0.564,-6.3746 0.564,-6.3746 l -1.9557,-26.97805 -1.0724,-16.2232 -0.5709,-12.10743 -1.1635,-13.84299 -0.593,-14.33113 -1.274,-16.88518 -1.2741,-19.43021 -1.6992,-29.25317 -1.9974,-33.63154 -2.2447,-24.56151 -6.5726,-102.71562 -0.7577,-16.08331 -0.1874,-9.21179 -0.2855,-8.56316 -0.3315,-7.48919 -0.2996,-7.86862 -0.305,-6.97719 -0.302,-4.9468 -0.2032,-2.97911 -0.5124,-7.51447 -1.0488,-15.796 -0.2712,-10.47514 c 0,0 0.066,-0.70168 -0.1553,-0.91988 -0.2157,-0.21241 -0.2841,-0.33011 -0.2841,-0.33011 l -0.026,-0.0438 -5.5458,0.008 -3.3357,0.016 -2.9025,0.008 -5.5937,0.014 -4.9961,0.007 -5.2031,0.006 -4.5547,0.005 -5.2656,0.0161 -6.461,0.0144 -8.9218,0.0164 -11.1328,0.0153 -9.5821,0.0191 -16.6797,0.0186 -3.8477,0.009 -12.9671,0.0188 -24.0968,0.0444 -7.8003,0.005 -4.6901,0.009 -9.3416,0.0128 z"
         id="path3364"
         sodipodi:nodetypes="csccccccccccccccsccscccccccccccccccccccccccscccccccccccccccccccccc" />
      <path
         style="fill:#0c1f10;fill-opacity:1"
         d="m 408.87876,616.36856 c 0,0 -0.35068,0.0869 -0.68126,0.23779 -0.16821,0.0768 -0.34859,0.17008 -0.43923,0.27692 -0.25505,0.30062 -0.39261,1.24279 -0.39261,1.24279 l -0.0627,5.10784 -0.11524,6.30657 -0.0463,3.35905 -0.0743,5.48323 -0.0662,4.83967 -0.0455,3.016 -0.0234,1.98029 -0.0216,1.84789 -0.0395,2.66797 -0.0405,2.14069 -0.0227,1.87472 -0.0101,1.06254 -0.0369,2.22663 -0.0253,1.36725 -0.0141,1.20672 -0.0192,1.42982 -0.0137,1.09017 -0.011,0.76539 -0.0195,1.26939 -0.0466,1.76578 -0.0662,2.05845 -0.0628,2.03921 -0.0163,0.9027 -0.28753,5.35258 -0.34168,25.82385 -0.92808,24.74874 -1.04943,20.90559 -3.14901,58.15778 -1.89277,31.45952 -0.90965,19.0979 -0.35627,7.53958 -0.21556,4.64488 -0.22059,4.6714 -0.16397,3.44922 -0.0867,1.95658 -0.14104,2.96221 -0.0669,4.39617 -2.17794,45.06883 -2.87262,50.00459 -2.06201,48.10755 -0.42642,1.7703 -0.29447,2.0821 0.0895,0.6342 0.97519,0.7873 1.82735,0.9203 -2.45143,-0.6267 c 0,0 -0.66331,-0.3427 -0.88426,-0.6291 -0.22863,-0.2964 -0.39738,-1.0503 -0.39738,-1.0503 l 0.47632,-4.1947 0.17187,-4.948 0.13736,-7.7104 0.039,-5.3666 0.0182,-2.6992 0.0375,-2.5153 0.21991,-2.6516 0.41074,-4.5355 0.0957,-3.84553 0.2305,-6.51245 0.40749,-7.05099 0.4348,-7.64602 0.28067,-6.29934 0.3438,-5.2596 0.32143,-6.63087 0.39745,-7.35715 0.42525,-5.50294 0.31199,-5.92202 0.0894,-4.08568 0.0638,-2.38519 0.17874,-3.95683 0.28962,-2.91284 0.26177,-3.67175 0.0526,-4.6999 0.21278,-5.83692 0.0985,-2.41611 0.0526,-3.04728 0.26231,-3.61979 0.28796,-4.31025 0.26875,-5.3237 0.0273,-4.35562 0.18131,-4.37112 0.29276,-2.99287 0.16099,-1.9915 -0.0882,-3.38663 0.11193,-4.55988 0.14423,-4.47396 0.47824,-7.56277 0.23412,-7.83894 0.20458,-2.44097 -0.002,-3.42415 0.15184,-3.38482 0.12501,-2.20691 1.81188,-31.45735 0.44949,-9.95805 0.50488,-15.41277 0.76066,-11.19034 0.1201,-10.97397 0.71693,-10.55171 0.37257,-7.6771 0.45976,-7.98455 0.47869,-5.58985 0.35523,-8.19725 0.0123,-1.42663 0.0803,-1.29188 0.0673,-1.34747 0.15263,-1.78961 0.13658,-3.1049 0.004,-3.37036 0.10088,-4.02134 -0.0333,-4.67326 0.0889,-3.17091 0.13959,-1.80128 0.11834,-2.29854 0.12989,-2.2091 0.11838,-3.73485 0.10109,-4.54055 -0.002,-3.43715 0.0865,-5.09312 0.0145,-0.97183 0.16259,-2.03236 0.10739,-2.11104 0.0589,-1.64624 0.0185,-1.17114 0.13872,-1.29539 0.086,-1.06869 0.0933,-1.10558 0.0532,-1.17121 0.0429,-1.31481 0.0445,-2.20868 0.009,-1.00448 0.0616,-2.01033 -10e-4,-2.07979 0.009,-2.76061 -0.0182,-1.81216 0.0384,-2.14491 0.179,-3.02589 0.3325,-4.66245 0.29023,-5.46002 0.15458,-3.44426 0.31248,-6.18286 0.10339,-2.7742 0.13624,-1.40769 0.11439,-0.97927 c 0,0 0.16318,-0.41348 0.26281,-0.72033 0.10725,-0.33034 0.28075,-0.56849 0.40905,-0.71717 0.3013,-0.34918 0.92189,-0.46875 0.92189,-0.46875 l 1.04471,0.14313 z"
         id="path6458"
         sodipodi:nodetypes="csscccccccccccccccccccccccccccccccccccccccccccccccscccccccccccccccccccccccccccccccccccccccccccccccccccccccccccccccccccccccccccccccccccccccccccccccssccc" />
      <path
         style="fill:#0c1f10;fill-opacity:1"
         d="m 1702.4267,614.72958 c 0.1286,-0.001 0.2535,0.0644 0.362,0.1335 0.045,0.0289 0.1679,0.0809 0.2161,0.21483 0.059,0.16518 0.04,0.4148 0.04,0.4148 l 0.074,1.69988 0.056,2.13405 0.057,2.64006 0.221,4.16531 0.06,2.26229 0.255,3.51449 0.1463,1.84623 0.3703,3.28938 0.2541,3.02734 0.1188,1.90679 0.2025,3.59456 0.2188,2.87775 0.2276,3.4024 0.284,3.41797 0.2289,3.506 0.1624,3.26126 0.2246,4.2679 0.2239,3.96614 0.1543,3.94567 0.099,2.87005 0.1105,2.43034 0.093,2.03266 0.1761,3.0155 0.2944,3.55393 0.172,3.97161 0.055,3.87378 0.2125,2.67853 0.1785,1.22273 0.1906,1.57717 0.1851,2.31459 0.059,2.69442 0.032,2.50583 0.2175,3.88165 0.3868,3.72336 0.2877,3.35559 0.1388,3.73751 0.2032,5.96628 0.6655,6.04134 0.119,3.21734 0.1174,3.14156 0.3273,2.91353 0.4909,4.94776 0.1582,3.89058 0.1545,2.05367 0.4522,6.80697 0.1238,2.64049 0.1439,3.8456 0.5766,9.31452 0.2173,2.57342 0.3429,5.8825 0.6493,5.41721 0.2876,5.21754 0.6039,7.67808 0.3171,5.17207 0.1642,2.22187 0.2223,3.28029 0.1762,3.74459 0.1537,3.02647 0.1958,2.65749 0.4532,3.96911 0.2234,3.73827 0.2959,2.34349 0.2615,2.67066 0.356,6.58664 0.1414,5.13919 0.2335,5.01201 0.1973,2.59798 0.2351,5.20797 0.3679,4.7925 0.2956,6.45254 0.09,4.96902 0.1111,2.7974 0.2392,2.54108 0.2062,2.76065 0.3152,4.12507 0.1391,2.07351 0.1864,2.93017 0.1713,2.31713 0.1158,1.55831 0.1268,1.41388 0.1838,2.34286 0.2387,3.32689 0.1665,2.13621 0.2822,3.20138 0.1676,1.9089 0.2517,2.97561 0.195,2.75132 0.1603,2.38487 0.1437,2.48494 0.1992,2.86247 0.1573,2.61778 0.1786,2.39557 0.245,2.81993 0.085,1.12957 0.118,2.13365 0.2788,4.47922 0.1334,2.50942 0.2683,4.33943 0.2305,3.36358 0.098,1.37778 0.1308,1.42884 0.1096,1.4894 0.1185,1.93486 0.1191,2.15364 0.277,3.66602 0.087,1.95969 0.086,1.95334 0.064,1.08989 0.088,0.93173 0.1649,2.73798 0.066,1.29587 0.078,1.18414 0.1085,1.32396 0.1053,1.33726 0.1185,2.04507 0.1625,2.58207 0.053,1.40339 0.054,1.49167 0.071,1.34838 0.044,1.42526 0.056,1.4576 0.107,1.65677 0.118,1.75844 0.094,2.3647 0.072,1.64446 0.018,0.90696 0.055,1.26995 0.08,1.5807 0.1607,2.3332 0.2025,2.5199 0.3671,3.434 0.1771,3.0726 0.051,2.5644 0.027,3.136 0.01,3.1145 -0.072,3.193 0.041,1.9004 -0.047,1.9767 c 0,0 -0.125,0.677 -0.2866,1.6754 -0.1138,0.7034 -0.2821,0.8047 -0.2821,0.8047 l -3.5508,-3e-4 0.9411,-0.5253 c 0,0 0.3097,-0.1856 0.6844,-0.432 0.3497,-0.2299 0.758,-0.5107 0.9691,-0.7974 0.1829,-0.2483 0.4142,-0.8551 0.4142,-0.8551 l 0.1931,-1.8676 0.032,-1.8314 -0.183,-3.139 -0.1972,-3.0223 -0.235,-3.2025 -0.2041,-2.6489 -0.234,-3.0928 -0.2592,-3.3603 -0.1633,-2.4766 -0.1733,-2.4609 -0.1,-1.4726 -0.1083,-1.3243 -0.055,-0.76966 -0.1295,-1.74585 -0.154,-2.35949 -0.1283,-1.86705 -0.095,-1.52774 -0.1048,-1.52692 -0.091,-1.34415 -0.085,-1.3827 -0.1074,-1.57404 -0.076,-1.22294 -0.049,-0.69848 -0.045,-0.75072 -0.05,-0.58616 -0.036,-0.60913 -0.071,-1.13663 -0.044,-0.94926 -0.055,-1.35539 -0.063,-1.3321 -0.054,-1.1133 -0.065,-1.39051 -0.058,-1.23452 -0.075,-1.44958 -0.045,-0.91336 -0.052,-1.05107 -0.1377,-2.08638 -0.164,-1.98368 -0.1559,-1.82034 -0.1311,-1.7501 -0.1967,-2.14013 -0.1528,-1.90646 -0.1216,-1.4496 -0.1239,-1.49987 -0.077,-1.42958 -0.1353,-3.34022 -0.1792,-4.40627 -0.1094,-2.4837 -0.2227,-4.55553 -0.1598,-1.94536 -0.081,-1.2184 -0.2253,-2.89807 -0.1725,-2.44618 -0.1928,-2.41331 -0.2203,-2.95216 -0.187,-2.39154 -0.1527,-2.4377 -0.1733,-2.80419 -0.2033,-2.93791 -0.1212,-1.85958 -0.1993,-3.28926 -0.1512,-2.08461 -0.2208,-3.36788 -0.1346,-2.34443 -0.081,-1.4221 -0.076,-1.49973 -0.1457,-2.3357 -0.1687,-2.95258 -0.1252,-2.05503 -0.2202,-4.17872 -0.1653,-2.72803 -0.1511,-2.53871 -0.1524,-2.76529 -0.2975,-5.00823 -1.1328,-19.05469 -1.0919,-16.78139 -0.2586,-2.65467 -0.2021,-2.26672 -0.3304,-3.75724 -0.3611,-3.88323 -0.2668,-2.8054 -0.2785,-2.94557 -0.2919,-3.77294 -0.2417,-3.31293 -0.1379,-2.14022 -0.3298,-5.18742 -0.4807,-7.68728 -0.3477,-5.24941 -0.3316,-5.3753 -0.3498,-5.89082 -0.1839,-2.60196 -0.5828,-9.28926 -0.2598,-3.95989 -0.1992,-2.60319 -0.4111,-6.85952 -0.1326,-1.91184 -0.2652,-3.94667 -0.3146,-4.96209 -0.1976,-2.96657 -0.1918,-3.02478 -0.1929,-3.28781 -0.3852,-5.95401 -0.3915,-6.03119 -0.2357,-3.71864 -0.2231,-3.49181 -0.2154,-3.69699 -0.1791,-3.74939 -0.1094,-2.58513 -0.154,-2.59291 -0.082,-2.33489 -0.082,-1.83264 -0.07,-1.00547 -0.071,-2.74173 -0.064,-3.86706 -0.1079,-4.10156 -0.095,-3.40664 -0.096,-3.00928 -0.074,-2.0404 -0.1325,-2.42708 -0.1087,-2.82862 -0.1765,-3.95196 -0.1754,-4.01724 -0.1424,-4.27148 -0.1584,-3.27314 -0.1924,-3.50165 -0.217,-3.33455 -0.2531,-3.46124 -0.1797,-2.88479 -0.2324,-3.55383 -0.1273,-1.90512 -0.1996,-3.06467 -0.2186,-3.28665 -0.1105,-1.83635 -0.2699,-3.53051 -0.12,-2.25863 -0.1131,-4.15694 -0.058,-2.66328 -0.057,-2.12437 -0.054,-1.64185 -0.18,-0.39453 c 0,0 -0.031,-0.0656 -0.081,-0.12249 -0.05,-0.056 -0.084,-0.0996 -0.1307,-0.17919 -0.03,-0.0503 -0.033,-0.0934 -0.033,-0.0934 0,0 0.019,-0.0335 0.2597,-0.0357 z"
         id="path9127"
         sodipodi:nodetypes="ssscccccccccccccccccccccccccccccccccccccccccccccccccccccccccccccccccccccccccccccccccccccccccccccccccccccccccccccccccccccccccccccccccccccccccccscccsscccccccccccccccccccccccccccccccccccccccccccccccccccccccccccccccccccccccccccccccccccccccccccccccccccccccccccccccccccccccccccccccccccccccccccccsscss" />
      <path
         style="fill:#7e8980;fill-opacity:1;stroke-width:0.202589"
         d="m 406.67449,617.82159 -2.50281,0.31315 -20.32612,418.83906 3.13787,0.103 0.99739,-0.8907 0.45137,-4.0882 0.0552,-1.7881 0.0917,-2.4208 0.063,-2.6319 0.041,-2.2426 -4.5e-4,-1.9001 0.0267,-1.8499 0.0376,-2.8442 0.0242,-1.9387 0.003,-2.1868 0.0824,-3.9068 0.42643,-4.9906 0.13954,-1.7051 0.0851,-2.42885 0.072,-2.24112 0.11025,-3.15621 0.18586,-4.16479 0.17604,-3.23419 0.18752,-3.16441 0.1618,-2.75755 0.20062,-3.36802 0.13177,-3.10835 0.21968,-4.51558 0.13255,-2.0398 0.16456,-2.49179 0.17169,-3.68088 0.17309,-3.58426 0.2935,-5.27776 0.0823,-1.47283 0.098,-1.30095 0.0939,-1.17911 0.0612,-0.87134 0.12465,-1.53517 0.0757,-1.06262 0.0721,-1.76944 0.071,-1.10173 0.12415,-2.07778 0.0253,-1.37881 0.037,-1.62568 0.01,-0.99991 0.0492,-1.2536 0.033,-1.07842 0.0147,-0.61723 0.0228,-0.65219 0.036,-0.76596 0.0399,-0.72652 0.0295,-0.64852 0.0348,-0.98421 0.095,-1.06615 0.10451,-1.07036 0.0956,-1.01182 0.0478,-0.56636 0.13015,-1.51537 0.0545,-1.22657 0.0442,-1.73822 0.0154,-1.11349 0.0165,-1.22709 0.004,-0.62426 0.13606,-3.72583 0.13745,-4.26503 0.26834,-5.83061 0.2103,-3.5774 0.16838,-2.2416 0.10291,-2.14951 0.10623,-2.20252 0.0689,-2.07857 0.0238,-1.53123 -0.004,-0.81901 0.0577,-2.07164 0.0168,-1.20308 0.0815,-1.73422 0.20479,-2.02298 0.15611,-1.67226 0.0823,-1.51468 -0.0119,-1.99276 -0.0281,-1.50014 8.1e-4,-1.60833 0.13523,-3.59472 0.13176,-4.07072 0.0918,-1.53843 0.0808,-1.10961 0.0956,-1.53117 0.10903,-1.89772 0.0568,-1.0784 0.0671,-1.71217 0.0736,-1.66329 0.0139,-1.56212 0.0358,-0.95292 0.0464,-1.19504 0.067,-1.43758 0.0663,-0.87518 0.10686,-0.92163 -0.0303,-0.69564 -0.004,-1.61702 0.0376,-1.52351 0.12205,-3.18089 0.21901,-3.41441 0.0888,-1.8667 0.26341,-4.17907 0.0617,-1.42191 0.17308,-2.74922 0.21026,-3.84487 0.12015,-2.24132 0.18161,-2.86783 0.29226,-5.3834 0.52648,-9.74911 0.0716,-1.85261 0.0984,-1.74197 0.049,-1.25734 0.12246,-2.78881 0.0334,-1.21121 0.0453,-1.82038 0.0737,-1.58542 0.0196,-1.14153 0.0468,-1.38245 0.0259,-1.58618 0.10178,-2.74182 0.0694,-1.89139 0.076,-1.31114 0.123,-1.65598 0.14586,-1.61059 0.1946,-3.24186 0.14318,-2.18774 0.0511,-2.25017 0.0742,-1.29596 0.0195,-3.10211 0.0483,-2.39766 0.007,-2.88462 0.11433,-2.14749 0.12388,-1.54621 0.10992,-1.53086 0.13836,-2.02427 0.0741,-0.96857 0.12779,-2.35924 0.11008,-1.99252 0.0461,-1.17155 0.14999,-2.74321 0.0784,-1.63951 0.10337,-1.89945 0.0829,-1.49123 0.13489,-2.27371 0.11256,-2.23938 0.13486,-1.73399 0.26313,-3.18313 0.14899,-2.04451 0.11279,-2.60629 0.0961,-1.93393 0.0964,-2.364 0.0224,-1.38105 0.0604,-1.61916 0.17998,-2.50811 0.11359,-1.69925 0.0544,-1.39455 0.0572,-1.53094 0.008,-1.48846 0.006,-1.91751 0.0418,-1.85998 0.0225,-1.09752 -0.002,-1.55752 -0.001,-1.04415 -0.01,-1.34736 -0.007,-1.72312 0.0627,-1.38251 0.10994,-2.00984 0.16586,-2.77318 0.0634,-1.42107 0.0645,-1.09665 0.0222,-0.56275 0.0193,-0.89157 0.0449,-1.42497 0.0437,-1.75674 0.0425,-1.06049 0.0174,-1.34814 0.0448,-1.80691 -0.0101,-1.35341 0.006,-1.22586 0.0108,-1.34241 0.0193,-1.28201 0.0151,-1.18226 0.028,-1.31501 0.0213,-1.30929 0.10196,-1.10399 0.0592,-1.09413 0.0742,-1.16601 0.0561,-1.24317 0.0371,-0.85031 0.0196,-1.05475 0.0547,-0.97255 0.11701,-1.23261 0.0714,-0.9276 0.0836,-0.94964 0.0341,-0.89514 0.0858,-2.99502 0.0204,-1.30783 0.0472,-2.29319 0.0399,-3.30899 -0.0126,-3.20967 0.025,-2.36426 0.13772,-2.40982 0.20678,-2.94863 0.26455,-4.18693 0.0887,-2.03391 0.16002,-2.88441 0.10428,-2.17487 0.11155,-2.49643 0.1121,-2.47529 0.11207,-2.22168 0.0741,-1.77846 0.17006,-1.82331 z"
         id="path9145"
         sodipodi:nodetypes="ccccccccccccccccccccccccccccccccccccccccccccccccccccccccccccccccccccccccccccccccccccccccccccccccccccccccccccccccccccccccccccccccccccccccccccccccccccccccccccccccccccccccccccccccccccccccccccccccccccccccccccccccccccccc" />
      <path
         style="fill:#7e8980;fill-opacity:1;stroke-width:0.202589"
         d="m 409.03316,614.30706 -0.32545,1.62714 246.94844,-0.51 71.81263,-0.097 14.65632,-0.002 26.68736,-0.12454 23.49995,-0.0216 21.65628,-0.0809 20.84378,0.0156 33.09379,-0.10826 23.68759,-0.0539 82.40597,-0.18821 87.96888,-0.014 425.4064,-1.03337 212.4546,-0.4539 -0.9615,-2.45435 z"
         id="path13005"
         sodipodi:nodetypes="ccccccccccccccccc" />
      <path
         style="fill:#404d44;fill-opacity:1;stroke-width:0.202589"
         d="m 408.72982,615.9121 -0.3646,0.28727 1.01552,0.1509 1.98842,-0.008 23.07616,-0.0281 216.71178,-0.21951 120.33507,-0.15138 18.53945,-0.007 10.84967,-0.0194 8.56813,-0.0165 0.82314,0.004 1.17113,-10e-4 3.90014,5.5e-4 4.44152,-0.0112 25.74311,-0.0272 4.99946,-8.5e-4 178.94068,-0.1359 235.1563,-0.30343 104.6565,-0.0938 98.8748,-0.15057 152.6954,-0.25104 7.289,-0.018 74.0431,-0.13964 -2.375,-1.5 -53.8399,0.0165 -903.46871,1.94093 z"
         id="path13007"
         sodipodi:nodetypes="ccccccccccccccccccccccccccc" />
      <path
         style="fill:#717873;fill-opacity:1;stroke-width:0.202589"
         d="m 1703.0387,615.35751 2.6627,-0.0774 27.4357,415.30179 -4.7461,-0.3945 0.1018,-0.7028 0.062,-1.594 -0.047,-3.3359 -0.047,-6.5523 -0.099,-6.9308 -0.887,-13.26982 -0.8735,-16.04289 -0.8917,-15.44821 -0.6421,-6.87797 -0.5313,-8.18139 -0.703,-11.69457 -0.8532,-13.27859 -0.3265,-6.08463 -0.4432,-5.38353 -0.6946,-7.52599 -0.7747,-10.25673 -0.314,-5.09158 -0.621,-7.43565 -0.2776,-3.2773 -0.094,-3.7834 -0.049,-3.59053 -0.1815,-3.3795 -0.2012,-3.77625 -0.3862,-5.51149 -0.1002,-3.24 -0.1384,-1.92314 -0.119,-2.17566 -0.094,-1.71879 -0.048,-0.99896 -0.032,-0.87397 -0.04,-1.23663 -0.022,-0.94467 -0.017,-0.86766 -0.023,-0.82303 -0.039,-0.88972 -0.084,-2.02767 -0.058,-1.11379 -0.062,-1.13192 -0.1263,-2.21539 -0.014,-0.39805 -0.032,-0.39299 -0.5905,-5.13392 -0.059,-2.40627 -0.5931,-6.13941 -0.1779,-1.65677 -1.1464,-18.24755 -0.5222,-7.06251 -0.09,-1.74627 -0.3162,-4.41895 -0.5006,-4.44275 -0.28,-4.56427 -0.6467,-9.61038 -0.2289,-3.54679 -0.053,-2.42121 -0.1139,-2.41941 -0.2364,-3.97863 -0.098,-1.5985 -0.1752,-2.64071 -0.2077,-2.26727 -0.072,-2.66379 -0.1518,-2.17275 -0.2131,-2.49858 -0.505,-4.51907 -0.1893,-4.65134 -0.045,-1.50105 -0.2626,-2.37854 -0.4351,-3.88661 -0.017,-2.06788 -0.2079,-5.51263 -0.2158,-3.70087 -0.2109,-2.35254 -0.2877,-2.50799 -0.1505,-2.77566 -0.1303,-1.65742 -0.011,-2.88295 -0.052,-2.14221 -0.1335,-2.03141 -0.4581,-3.57125 -0.1903,-2.41875 0.024,-0.96134 -0.1133,-3.81084 -0.1527,-3.21815 -0.2767,-3.45599 -0.1801,-2.75159 -0.1852,-4.66123 -0.1538,-4.10121 -0.1403,-3.02609 -0.1599,-2.78532 -0.2831,-5.61292 -0.2096,-3.80001 -0.34,-4.60598 -0.2812,-3.85848 -0.2287,-3.24635 -0.2309,-3.5805 -0.3152,-4.57301 -0.279,-2.63153 -0.409,-4.58369 -0.1993,-4.08937 -0.2242,-4.48336 -0.1101,-4.07764 z"
         id="path16891"
         sodipodi:nodetypes="ccccccccccccccccccccccccccccccccccccccccccccccccccccccccccccccccccccccccccccccccccccccccccccccccccccccccc" />
      <path
         style="fill:#bdb2aa;fill-opacity:1;stroke-width:0.202589"
         d="m 389.52744,1037.9443 0.11048,1.9003 0.18649,1.4328 0.13392,1.1306 1338.10167,-6.2451 -0.1547,-4.1851 -3.5579,0.054 -9.1275,0.076 -9.8111,0.1547 -22.5169,-0.01 -73.2075,0.2474 -111.6852,0.3958 -155.875,0.7907 -176.8735,0.9806 -126.4998,0.675 -85.62578,0.3722 -116.12525,0.5049 -41.71875,0.3122 -53.09382,0.2053 -19.78941,0.1519 -28.37278,0.1281 -18.14154,0.059 -15.68871,0.07 -20.48429,0.092 -25.36743,0.159 -21.58891,0.098 -29.61,0.1337 -30.73731,0.1845 -27.70927,0.1266 -12.33062,0.056 -41.89591,0.214 -47.95058,0.2202 -10.76136,0.025 z"
         id="path25442"
         sodipodi:nodetypes="cccccccccccccccccccccccccccccccccc" />
      <path
         style="fill:#100304;fill-opacity:1;stroke-width:0.202589"
         d="m 386.99451,1037.0749 -3.11888,-0.1033 0.0363,2.8717 c 0,0 0.0922,1.076 0.47124,1.5499 0.22253,0.2783 0.6633,0.7075 1.09819,0.899 0.55169,0.2429 1.86238,0.3636 1.86238,0.3636 l 2.62343,-0.2446 -0.31694,-2.513 -2.61363,-0.013 z"
         id="path29099"
         sodipodi:nodetypes="cccssccccc" />
      <path
         style="fill:#a3a7a2;fill-opacity:1;stroke-width:0.202589"
         d="m 387.97686,1036.1726 -0.99192,0.8964 0.0338,2.8213 2.62576,0.012 -0.0507,-0.8899 -0.0709,-1.093 -0.23581,-0.054 -0.42641,-0.2527 -0.34758,-0.2413 -0.1613,-0.1907 -0.16734,-0.3278 z"
         id="path33226"
         sodipodi:nodetypes="cccccccccccc" />
      <path
         style="fill:#090503;fill-opacity:1;stroke-width:0.166479"
         d="m 1729.9623,1030.3259 3.1786,0.1934 c 0,0 0.1093,3.1679 -0.09,4.6404 -0.036,0.266 -0.2972,0.4518 -0.5074,0.6252 -0.2593,0.2139 -0.5469,0.2977 -0.8758,0.3781 -1.1982,0.2933 -3.7045,0 -3.7045,0 l -0.045,-3.0832 2.0856,-0.022 z"
         id="path35145"
         sodipodi:nodetypes="ccssscccc" />
      <path
         style="fill:#c2c5c1;fill-opacity:1;stroke-width:0.202589"
         d="m 1728.3892,1030.1837 -0.066,0.4686 -0.1255,0.6187 -0.1059,0.4535 -0.09,0.1965 -0.094,0.064 0.01,1.0979 2.0641,-0.022 -0.011,-2.729 z"
         id="path36098"
         sodipodi:nodetypes="cccccccccc" />
      <path
         style="fill:#0f1e17;fill-opacity:1;stroke-width:0.100251"
         d="m 397.8725,1042.376 -1.60955,10.7569 364.73717,1.285 80.81219,0.3777 876.78299,-4.7726 -1.2281,-13.8112 -62.8688,0.4742 -145.5322,0.1573 -105.9694,0.814 -308.5715,1.2265 -330.57388,1.8581 -124.87165,0.2736 z"
         id="path38293"
         sodipodi:nodetypes="ccccccccccccc" />
      <path
         style="fill:#153a28;fill-opacity:1;stroke-width:0.215435"
         d="m 396.26321,1053.1002 -11.31629,304.7694 1.79419,1.0739 3.55178,0.035 1270.39471,-9.2723 73.8162,-0.6735 1.9163,-2.0694 -1.0697,-14.9994 -0.6541,-10.0682 -6.6371,-102.1696 -9.463,-170.0173 -72.0983,0.1272 -67.1747,0.065 -122.3294,-0.5886 -80.1185,1.1596 -81.7655,0.3948 -112.4732,0.1171 -68.8017,0.3176 -183.26842,1.2796 -145.30256,0.9373 -144.72549,-0.06 -171.13196,-0.4608 -72.69755,0.1448 z"
         id="path40005"
         sodipodi:nodetypes="cccccccccccccccccccccccc" />
      <path
         style="fill:#cfcdc1;fill-opacity:1;stroke-width:0.202589"
         d="m 1734.4759,1349.0132 -0.026,5.59 -1347.6198,10.6735 -0.0663,-6.3198 747.5498,-5.4624 81.1865,-0.5202 46.1873,-0.5293 96.5637,-0.5761 51.7487,-0.3083 156.75,-1.1271 61.8749,-0.5755 z"
         id="path42219"
         sodipodi:nodetypes="cccccccccccc" />
      <path
         style="fill:#646c65;fill-opacity:1;stroke-width:0.202589"
         d="m 1736.3169,1347.0366 2.8675,0.059 -17.9344,-297.846 -2.6691,0.4492 0.9247,16.2672 0.8176,13.6028 0.5546,9.5966 1.1348,23.2414 1.2607,20.7781 1.1525,22.0968 0.9617,17.8472 1.4417,25.0176 0.7043,15.1613 1.0029,14.0104 1.3762,22.4034 0.8427,12.0233 0.9702,15.3851 0.9775,14.0039 0.787,10.6486 1.4418,21.1204 0.4837,10.3413 0.5799,9.2417 z"
         id="path45676"
         sodipodi:nodetypes="ccccccccccccccccccccccc" />
      <path
         style="fill:#646c65;fill-opacity:1;stroke-width:0.202589"
         d="m 384.95139,1357.8409 -3.0726,-0.2481 11.67927,-304.3246 2.71284,-0.1988 z"
         id="path48147"
         sodipodi:nodetypes="ccccc" />
      <path
         style="fill:#0e0b08;fill-opacity:1;stroke-width:0.202589"
         d="m 384.95375,1357.8437 -3.0677,-0.2407 c 0,0 -0.18365,3.1677 -0.0267,4.8033 0.0428,0.4467 0.0979,1.0408 0.29687,1.4609 0.21845,0.4612 0.70292,0.842 0.95581,1.1225 0.27057,0.3002 0.86108,0.3719 0.86108,0.3719 l 2.85387,-0.073 -0.0532,-6.3212 z"
         id="path48171"
         sodipodi:nodetypes="ccssscccc" />
      <path
         style="fill:#050504;fill-opacity:1;stroke-width:0.202589"
         d="m 1736.3165,1347.0307 0.1649,1.987 -2.0032,-0.014 -0.1236,5.5838 c 0,0 4.3231,-0.191 4.5816,-0.2374 0.2323,-0.042 0.4785,-0.3299 0.648,-0.5581 0.1715,-0.2309 0.3604,-0.4814 0.3954,-0.767 0.022,-0.1773 -0.062,-1.25 -0.062,-1.25 l -0.7755,-4.6753 z"
         id="path51263"
         sodipodi:nodetypes="ccccsssccc" />
      <path
         style="fill:#727b78;fill-opacity:1;stroke-width:0.202589"
         d="m 1736.3203,1347.0313 -1.8438,1.9805 h 2.0039 z"
         id="path52492"
         sodipodi:nodetypes="cccc" />
      <path
         style="fill:#4a3e3e;fill-opacity:1;stroke-width:0.202589"
         d="m 393.21959,1042.4157 0.32042,10.8608 2.76213,-0.221 1.5689,-10.6729 z"
         id="path53332"
         sodipodi:nodetypes="ccccc" />
      <path
         style="fill:#4a3e3e;fill-opacity:1;stroke-width:0.202589"
         d="m 1721.2578,1049.2578 -2.6875,0.4687 -0.3466,-3.8047 -0.093,-1.2256 -0.1576,-1.7315 -0.076,-0.7657 -0.3814,-4.138 -0.1407,-1.8502 3.6875,-0.01 z"
         id="path61607"
         sodipodi:nodetypes="cccccccccc" />
    </g>
    <g
       id="g26625"
       inkscape:label="Decke"
       style="display:inline"
       transform="matrix(0.87898273,0,0,0.51520863,4.7288902,0.97903933)">
      <path
         style="fill:#0e0e16;fill-opacity:1;stroke:none;stroke-width:2.19591"
         d="M 0,-0.58699695 2047.2475,0.58699695 2048.0159,298.78145 0,291.15048 Z"
         id="path24498"
         inkscape:label="path24498"
         sodipodi:nodetypes="ccccc" />
      <path
         style="fill:#7f6154;fill-opacity:1;stroke:none;stroke-width:2.19591"
         d="m 0.093488,347.98574 2047.852112,-3.65121 -9e-4,83.4786 -2048.038688,-0.12532 z"
         id="path8357"
         sodipodi:nodetypes="ccccc" />
      <path
         style="display:inline;fill:#917464;fill-opacity:1;stroke:none;stroke-width:2.19591"
         d="M 2047.9266,282.07021 0.02146164,281.99496 -0.07174367,347.93046 2047.9796,344.4435 Z"
         id="path10069"
         sodipodi:nodetypes="ccccc" />
    </g>
    <g
       id="g13986"
       inkscape:label="Decken Panelle"
       style="display:inline"
       transform="matrix(0.87898273,0,0,0.51520863,4.7288902,0.97903933)">
      <path
         style="fill:#9d7d6e;fill-opacity:1;stroke:none;stroke-width:2.19591"
         d="m 1888.119,144.38853 159.9845,0.5031 -0.1087,159.68797 -339.8405,0.0465 z"
         id="path11574"
         sodipodi:nodetypes="ccccc" />
      <path
         style="fill:#6d554b;fill-opacity:1;stroke:none;stroke-width:2.19591"
         d="m 1886.2764,118.95517 161.599,0.35463 0.1521,25.59324 -159.9554,-0.51447 z"
         id="path11576"
         sodipodi:nodetypes="ccccc" />
      <path
         style="fill:#857264;fill-opacity:1;stroke:none;stroke-width:2.19591"
         d="m 1886.2726,118.97318 1.81,25.42559 -179.9046,160.20947 -0.8874,-19.70808 z"
         id="path12388"
         sodipodi:nodetypes="ccccc" />
      <path
         style="display:inline;fill:#9d7d6e;fill-opacity:1;stroke:none;stroke-width:2.19591"
         d="M 1841.2352,144.41246 1673.366,304.55786 464.85327,304.66308 326.80039,141.46362 Z"
         id="path13416"
         sodipodi:nodetypes="ccccc" />
      <path
         style="fill:#6d554b;fill-opacity:1;stroke:none;stroke-width:2.19591"
         d="m 1841.094,118.83501 0.1303,25.56447 -1514.41734,-2.90445 1.97572,-25.09406 z"
         id="path13556"
         sodipodi:nodetypes="ccccc" />
      <path
         style="fill:#9d7d6e;fill-opacity:1;stroke:none;stroke-width:2.19591"
         d="m 0,140.68085 277.01872,0.75939 147.19988,163.20888 -424.2106344,0.003 z"
         id="path13627"
         sodipodi:nodetypes="ccccc" />
      <path
         style="fill:#6d554b;fill-opacity:1;stroke:none;stroke-width:2.19591"
         d="M 0.01171875,115.41039 278.20306,117.31826 277.02821,141.44891 0.00625906,140.6785 Z"
         id="path13905"
         sodipodi:nodetypes="ccccc" />
      <path
         style="fill:#857264;fill-opacity:1;stroke:none;stroke-width:2.19591"
         d="M 278.20536,117.31551 425.41989,284.99696 424.22417,304.65052 277.02898,141.4458 Z"
         id="path13907"
         sodipodi:nodetypes="ccccc" />
    </g>
    <g
       id="g20195"
       inkscape:label="Lampen an der Decke"
       transform="matrix(0.87898273,0,0,0.51520863,4.7288902,0.97903933)">
      <path
         style="display:inline;fill:#969387;fill-opacity:1;stroke:none;stroke-width:2.19591"
         d="m 524.46632,224.3172 429.1088,0.90816 1.81634,26.79092 -409.58322,2.27042 z"
         id="path13988" />
      <path
         style="fill:#a87e6d;fill-opacity:1;stroke:none;stroke-width:2.19591"
         d="m 524.47734,224.31623 0.76878,-2.93564 429.22261,0.75214 -0.89337,3.08991 z"
         id="path13990"
         sodipodi:nodetypes="ccccc" />
      <path
         style="fill:#815c4d;fill-opacity:1;stroke:none;stroke-width:2.19591"
         d="m 955.39008,252.01867 0.37234,-0.90669 -1.29238,-28.97568 -0.89477,3.09197 z"
         id="path14478"
         sodipodi:nodetypes="ccccc" />
      <path
         style="fill:#e5e5e5;fill-opacity:1;stroke:none;stroke-width:2.19591"
         d="m 541.82567,231.29317 400.12291,-0.1817 1.53141,19.26039 -388.44776,1.62348 z"
         id="path14804"
         sodipodi:nodetypes="ccccc" />
      <path
         style="display:inline;fill:#969387;fill-opacity:1;stroke:none;stroke-width:2.19591"
         d="m 1204.2244,224.29943 429.1231,-2.23994 -27.889,29.99381 -408.8631,1.05242 z"
         id="path15832"
         sodipodi:nodetypes="ccccc" />
      <path
         style="fill:#a87e6d;fill-opacity:1;stroke:none;stroke-width:2.19591"
         d="m 1204.2237,224.30103 -0.6897,-1.94914 429.086,-2.25411 0.7338,1.9625 z"
         id="path16386"
         sodipodi:nodetypes="ccccc" />
      <path
         style="fill:#815c4d;fill-opacity:1;stroke:none;stroke-width:2.19591"
         d="m 1196.5916,253.10286 -0.2893,-0.88755 7.2298,-29.86503 0.6957,1.95089 z"
         id="path17216"
         sodipodi:nodetypes="ccccc" />
      <path
         style="fill:#e5e5e5;fill-opacity:1;stroke:none;stroke-width:2.19591"
         d="m 1214.2621,232.7681 401.4731,-3.10818 -18.131,20.37584 -388.6951,0.6907 z"
         id="path19150" />
    </g>
    <g
       id="g26620"
       inkscape:label="Lampe lang Decke"
       transform="matrix(0.87898273,0,0,0.51520863,4.7288902,0.97903933)">
      <path
         style="fill:#463c3d;fill-opacity:1;stroke:none;stroke-width:2.19591"
         d="M 0.00586198,71.479909 2047.9979,80.063873 2047.4526,48.107808 0.00875206,40.387765 Z"
         id="path20197"
         sodipodi:nodetypes="ccccc" />
      <path
         style="fill:#fefdfe;fill-opacity:1;stroke:none;stroke-width:2.19591"
         d="m 0,71.463441 2047.994,8.601357 V 105.96303 L 0,98.024062 Z"
         id="path23115"
         sodipodi:nodetypes="ccccc" />
      <path
         style="fill:#717171;fill-opacity:1;stroke:none;stroke-width:2.19591"
         d="m -0.00329498,98.026854 -6.1127e-4,-0.911244 2048.00550625,7.59383 10e-4,1.25749 z"
         id="path23657"
         sodipodi:nodetypes="ccccc" />
      <path
         style="fill:#717171;fill-opacity:1;stroke:none;stroke-width:2.19591"
         d="m -0.00329498,72.367317 -6.1127e-4,-0.911244 2048.00550625,7.59383 10e-4,1.25749 z"
         id="path24469"
         sodipodi:nodetypes="ccccc" />
      <path
         style="fill:#717171;fill-opacity:1;stroke:none;stroke-width:2.19591"
         d="m 1882.2997,79.10034 1.3719,-0.0466 -25.4248,25.51012 -1.4614,-0.0169 z"
         id="path24492"
         sodipodi:nodetypes="ccccc" />
      <path
         style="fill:#717171;fill-opacity:1;stroke:none;stroke-width:2.19591"
         d="m 1184.9634,76.897065 h 1.4736 l -8.1902,25.666795 -1.4614,-0.0169 z"
         id="path24494"
         sodipodi:nodetypes="ccccc" />
      <path
         style="fill:#717171;fill-opacity:1;stroke:none;stroke-width:2.19591"
         d="m 506.92987,73.286276 20.07206,26.427699 2.62876,0.07394 -20.3581,-26.522726 z"
         id="path24496"
         sodipodi:nodetypes="ccccc" />
    </g>
    <path
       style="display:inline;fill:#d4cecb;fill-opacity:1;stroke:none;stroke-width:1.47773"
       d="m 1669.707,468.25504 135.175,-0.10124 0.2662,305.67248 -94.9817,1.12959 z"
       id="path26628"
       inkscape:label="Tür Rechts"
       sodipodi:nodetypes="ccccc" />
    <path
       style="fill:#595756;fill-opacity:1;stroke:none;stroke-width:1.47773"
       d="m 1690.4342,625.40568 c 8.048,0.52445 15.5327,-0.11977 23.1736,-0.50188 -1.0903,0.086 -1.0157,-0.40952 -0.6876,-0.70551 0.26,-0.30061 2.8114,-0.46719 4.2984,-0.2015 1.6246,0.32311 3.2166,0.89691 2.923,1.61241 -0.5983,1.27608 -1.9924,1.47977 -3.439,1.61253 l -23.5553,1.00774 c -1.3234,0.0606 -1.9567,-0.0988 -2.4168,-0.59498 z"
       id="path26891"
       sodipodi:nodetypes="ccccccccc"
       inkscape:label="Türklinke rechts" />
    <path
       style="display:inline;fill:#d4cecb;fill-opacity:1;stroke:none;stroke-width:1.47773"
       d="M 4.8230616,472.68226 191.25111,471.858 155.55493,784.55754 4.7288902,784.08781 Z"
       id="path26947"
       sodipodi:nodetypes="ccccc"
       inkscape:label="Tür links" />
    <path
       style="fill:#6e6966;fill-opacity:1;stroke:none;stroke-width:1.47773"
       d="m 173.03802,630.82914 c -7.98853,0.11712 -15.89455,0.46401 -23.96558,0.35152 0.60859,-0.23896 1.41075,-0.4665 0.50795,-0.79406 -0.7193,-0.24075 -1.58834,-0.42857 -3.21706,-0.3473 -1.6727,0.20202 -3.22602,0.5731 -3.97897,1.63746 -0.28967,0.43925 -0.54754,0.89242 -0.25402,1.58795 0.18485,0.4355 1.66528,0.93801 3.725,0.89327 l 26.8329,-0.14891 z"
       id="path27501"
       sodipodi:nodetypes="ccccccccc"
       inkscape:label="Türklinke Links" />
    <path
       style="fill:#241e22;fill-opacity:1;stroke:none;stroke-width:1.47773"
       d="m 1643.135,624.60868 21.0531,0.0537 2.7341,22.864 -21.5087,0.0537 z"
       id="path27764"
       inkscape:label="Lichtschalter Rechts" />
    <path
       style="fill:#241e22;fill-opacity:1;stroke:none;stroke-width:1.47773"
       d="m 201.55331,617.50227 21.42624,-0.0543 -3.61745,33.21829 -21.33345,0.1088 z"
       id="path28096"
       inkscape:label="Lichtschalter Links" />
    <g
       id="g36590"
       inkscape:label="Notausgangs Schild links"
       transform="matrix(0.87898273,0,0,0.51520863,4.7288902,0.97903933)">
      <path
         style="display:inline;fill:#f8f8f8;fill-opacity:1;stroke:none;stroke-width:2.19591"
         d="m 19.440609,851.6392 -2.22513,36.42187 73.429288,0.11711 2.576466,-36.65609 z"
         id="path31946" />
      <path
         style="fill:#e5e5e5;fill-opacity:1;stroke:none;stroke-width:2.19591"
         d="m 15.65598,836.9287 74.690851,0.15153 -0.300156,14.9114 -75.038896,-0.30016 z"
         id="path31348"
         sodipodi:nodetypes="ccccc" />
      <path
         style="display:inline;fill:#d0d0d0;fill-opacity:1;stroke:none;stroke-width:2.19591"
         d="m 90.320459,837.05501 11.882141,-0.0325 -0.46209,13.83556 -11.675434,1.01408 z"
         id="path31350"
         sodipodi:nodetypes="ccccc" />
      <path
         style="display:inline;fill:#5ac36d;fill-opacity:0.765568;stroke:none;stroke-width:2.19591"
         d="m 22.969113,854.74619 h 65.594252 l -2.176704,29.94114 -65.478624,0.002 z"
         id="path32165"
         sodipodi:nodetypes="ccccc" />
      <path
         style="display:inline;fill:#b9e6c1;fill-opacity:0.765568;stroke:none;stroke-width:2.19591"
         d="m 66.072082,857.48775 h 5.456275 l -0.937797,15.77204 5.456275,-5.62678 0.08526,6.82034 -6.820344,7.41713 h -3.069155 l -6.223564,-6.82035 0.255763,-7.33187 5.371021,5.88255 z"
         id="path32221" />
      <path
         style="display:inline;fill:#b9e6c1;fill-opacity:0.765568;stroke:none;stroke-width:2.19591"
         d="m 28.986462,871.89572 0.59678,-14.06696 22.592389,-0.0852 -0.170508,9.97475 h -2.301866 -1.705086 l -0.59678,-0.76729 v -2.13135 -1.79034 l -8.354922,-0.17051 -0.937797,0.68203 -0.170509,4.17746 -5.200512,5.03001 h -3.495426 z"
         id="path33303" />
      <path
         style="display:inline;fill:#7fcf8d;fill-opacity:1;stroke:none;stroke-width:2.19591"
         d="m 47.401391,859.70436 1.19356,-0.42627 1.278814,0.68203 0.170509,1.19356 -0.682034,1.19356 h -1.449324 l -0.767288,-0.76729 -0.255763,-0.93779 z"
         id="path33305" />
      <path
         style="fill:#ace1b5;fill-opacity:1;stroke:none;stroke-width:2.19591"
         d="m 51.642698,869.36727 -0.116444,9.89769 -3.551527,3.02754 h -3.959079 l 0.05822,-8.84971 -3.202197,-2.96931 3.609749,-3.43508 1.222657,2.21242 z"
         id="path34741" />
      <path
         style="fill:#ace1b5;fill-opacity:1;stroke:none;stroke-width:2.19591"
         d="m 39.416129,864.76775 0.523996,-0.58222 2.095983,-0.0582 -0.05822,1.04799 -2.445313,2.38709 z"
         id="path36177" />
      <path
         style="fill:#ace1b5;fill-opacity:1;stroke:none;stroke-width:2.19591"
         d="m 29.285543,875.59699 5.065293,-0.23288 3.95908,-3.84264 3.143975,3.02753 0.05822,4.83241 -1.688431,2.79464 -10.771025,-0.11644 z"
         id="path36179" />
    </g>
    <g
       id="g36612"
       inkscape:label="Notausgangs Schild rechts"
       transform="matrix(0.87724013,0,0,0.51173289,1752.7997,1.0277781)">
      <path
         style="display:inline;fill:#f8f8f8;fill-opacity:1;stroke:none;stroke-width:2.19591"
         d="m 19.440609,851.6392 8.13351,35.57221 31.735023,-0.0529 -0.0015,-35.63647 z"
         id="path36592"
         sodipodi:nodetypes="ccccc" />
      <path
         style="fill:#e5e5e5;fill-opacity:1;stroke:none;stroke-width:2.19591"
         d="m 14.387883,836.9287 45.005394,-0.18838 -0.04644,14.74144 -42.921775,-0.0152 z"
         id="path36594"
         sodipodi:nodetypes="ccccc" />
      <path
         style="display:inline;fill:#5ac36d;fill-opacity:0.765568;stroke:none;stroke-width:2.19591"
         d="m 22.969113,854.74619 h 36.416722 l -0.02154,29.19769 -28.520419,0.002 z"
         id="path36598"
         sodipodi:nodetypes="ccccc" />
      <path
         style="display:inline;fill:#b9e6c1;fill-opacity:0.765568;stroke:none;stroke-width:2.19591"
         d="m 34.998381,871.89572 -3.325248,-13.6466 22.592389,-0.0852 3.75152,9.55439 H 55.715176 54.01009 l -0.59678,-0.76729 v -2.13135 -1.79034 l -8.354922,-0.17051 -0.937797,0.68203 -0.170509,4.17746 -5.200512,5.03001 h -3.495426 z"
         id="path36602"
         sodipodi:nodetypes="ccccccccccccccc" />
      <path
         style="display:inline;fill:#7fcf8d;fill-opacity:1;stroke:none;stroke-width:2.19591"
         d="m 51.409337,859.70436 1.19356,-0.42627 1.278814,0.68203 0.170509,1.19356 -0.682034,1.19356 h -1.449324 l -0.767288,-0.76729 -0.255763,-0.93779 z"
         id="path36604" />
      <path
         style="fill:#ace1b5;fill-opacity:1;stroke:none;stroke-width:2.19591"
         d="m 58.190283,869.31834 1.141068,3.67475 0.106,6.61438 -0.02524,1.03296 -2.653899,1.38935 h -3.959079 l -2.713347,-8.58699 -3.202197,-2.96931 3.609749,-3.43508 1.222657,2.21242 z"
         id="path36606"
         sodipodi:nodetypes="ccccccccccc" />
      <path
         style="fill:#ace1b5;fill-opacity:1;stroke:none;stroke-width:2.19591"
         d="m 39.416129,864.76775 0.523996,-0.58222 2.095983,-0.0582 -0.05822,1.04799 -2.445313,2.38709 z"
         id="path36608" />
      <path
         style="fill:#ace1b5;fill-opacity:1;stroke:none;stroke-width:2.19591"
         d="m 35.820399,875.4919 4.542356,-0.12779 3.95908,-3.84264 3.143975,3.02753 1.8885,4.20188 0.87396,3.26754 -12.862773,0.14628 z"
         id="path36610"
         sodipodi:nodetypes="cccccccc" />
    </g>
    <path
       style="fill:#705752;fill-opacity:1;stroke:none;stroke-width:1.47773"
       d="M 4.8756168,0.635 V 21.707246 L 1804.3906,25.764605 1804.2608,1.2814044 Z"
       id="path43354"
       sodipodi:nodetypes="ccccc" />
    <path
       style="fill:#7c443e;fill-opacity:1;stroke:#7c443e;stroke-width:2.51867;stroke-miterlimit:3.8;stroke-opacity:1;paint-order:stroke fill markers"
       d="M 6.3231204,792.40312 -2.1182767,1079.3732 1815.3113,1075.8899 1803.3508,785.16539 Z"
       id="path2011"
       sodipodi:nodetypes="ccccc" />
  </g>
</svg>
